<svg id="Layer_1" data-name="Layer 1" xmlns="http://www.w3.org/2000/svg" xmlns:xlink="http://www.w3.org/1999/xlink" viewBox="0 0 512 369"><defs><style>.cls-1{opacity:0.31;}.cls-2,.cls-3{fill:none;stroke-linecap:round;stroke-linejoin:round;stroke-width:1.74px;}.cls-2{stroke:url(#linear-gradient);}.cls-3{stroke:url(#linear-gradient-2);}.cls-4{fill:#b634c1;}.cls-5{fill:#670377;}.cls-6{fill:#ffd80b;}.cls-7{fill:url(#linear-gradient-3);}.cls-8{fill:#840a91;}.cls-9{fill:url(#linear-gradient-4);}.cls-10{fill:url(#linear-gradient-5);}.cls-11{fill:url(#linear-gradient-6);}.cls-12,.cls-22,.cls-23,.cls-24,.cls-25,.cls-26,.cls-27,.cls-28,.cls-29,.cls-30,.cls-31,.cls-32,.cls-47,.cls-48,.cls-49,.cls-50{stroke:#041551;}.cls-12,.cls-16,.cls-17,.cls-18,.cls-19,.cls-20,.cls-21,.cls-22,.cls-23,.cls-24,.cls-25,.cls-26,.cls-27,.cls-28,.cls-29,.cls-30,.cls-31,.cls-32,.cls-34,.cls-35,.cls-36,.cls-37,.cls-38,.cls-39,.cls-40,.cls-41,.cls-42,.cls-43,.cls-44,.cls-45,.cls-46,.cls-47,.cls-48,.cls-49,.cls-50,.cls-51,.cls-52,.cls-53,.cls-54{stroke-miterlimit:10;}.cls-12{stroke-width:1.53px;fill:url(#linear-gradient-7);}.cls-13{fill:#fff;}.cls-14{opacity:0.58;}.cls-15{fill:#4072ff;}.cls-16,.cls-17,.cls-18,.cls-19,.cls-20,.cls-21,.cls-51,.cls-52,.cls-53,.cls-54{fill:#feda09;}.cls-16,.cls-17,.cls-18,.cls-19,.cls-20,.cls-21{stroke-width:1.76px;}.cls-16{stroke:url(#linear-gradient-8);}.cls-17{stroke:url(#linear-gradient-9);}.cls-18{stroke:url(#linear-gradient-10);}.cls-19{stroke:url(#linear-gradient-11);}.cls-20{stroke:url(#linear-gradient-12);}.cls-21{stroke:url(#linear-gradient-13);}.cls-22,.cls-23,.cls-24,.cls-25,.cls-26,.cls-27,.cls-28,.cls-29,.cls-30,.cls-31,.cls-32{stroke-width:2.02px;}.cls-22{fill:url(#linear-gradient-14);}.cls-23{fill:url(#linear-gradient-15);}.cls-24{fill:url(#linear-gradient-16);}.cls-25{fill:url(#linear-gradient-17);}.cls-26{fill:url(#linear-gradient-18);}.cls-27{fill:url(#linear-gradient-19);}.cls-28{fill:url(#linear-gradient-20);}.cls-29{fill:url(#linear-gradient-21);}.cls-30{fill:url(#linear-gradient-22);}.cls-31{fill:url(#linear-gradient-23);}.cls-32{fill:url(#linear-gradient-24);}.cls-33{fill:#000c7c;}.cls-34,.cls-35,.cls-36,.cls-37,.cls-38,.cls-39,.cls-40,.cls-41,.cls-42,.cls-43,.cls-44,.cls-45,.cls-46{fill:#143096;stroke-width:1.09px;}.cls-34{stroke:url(#linear-gradient-25);}.cls-35{stroke:url(#linear-gradient-26);}.cls-36{stroke:url(#linear-gradient-27);}.cls-37{stroke:url(#linear-gradient-28);}.cls-38{stroke:url(#linear-gradient-29);}.cls-39{stroke:url(#linear-gradient-30);}.cls-40{stroke:url(#linear-gradient-31);}.cls-41{stroke:url(#linear-gradient-32);}.cls-42{stroke:url(#linear-gradient-33);}.cls-43{stroke:url(#linear-gradient-34);}.cls-44{stroke:url(#linear-gradient-35);}.cls-45{stroke:url(#linear-gradient-36);}.cls-46{stroke:url(#linear-gradient-37);}.cls-47,.cls-48{stroke-width:1.62px;}.cls-47{fill:url(#linear-gradient-38);}.cls-48{fill:url(#linear-gradient-39);}.cls-49{stroke-width:1.31px;fill:url(#linear-gradient-40);}.cls-50{stroke-width:1.82px;fill:url(#linear-gradient-41);}.cls-51,.cls-52{stroke-width:1.86px;}.cls-51{stroke:url(#linear-gradient-42);}.cls-52{stroke:url(#linear-gradient-43);}.cls-53{stroke-width:1.5px;stroke:url(#linear-gradient-44);}.cls-54{stroke-width:2.08px;stroke:url(#linear-gradient-45);}</style><linearGradient id="linear-gradient" x1="287.32" y1="309.54" x2="180.69" y2="29.01" gradientUnits="userSpaceOnUse"><stop offset="0" stop-color="#0001bf"/><stop offset="0.62" stop-color="#53affb"/><stop offset="0.99" stop-color="#fff"/></linearGradient><linearGradient id="linear-gradient-2" x1="229.1" y1="310.76" x2="127.59" y2="43.71" xlink:href="#linear-gradient"/><linearGradient id="linear-gradient-3" x1="373.1" y1="131.2" x2="404.37" y2="131.2" gradientUnits="userSpaceOnUse"><stop offset="0" stop-color="#1937e0"/><stop offset="1" stop-color="#903fe0"/></linearGradient><linearGradient id="linear-gradient-4" x1="663.12" y1="473.83" x2="680.92" y2="473.83" gradientTransform="matrix(0.78, 0.63, -0.63, 0.78, 273.79, -724.53)" xlink:href="#linear-gradient-3"/><linearGradient id="linear-gradient-5" x1="648.4" y1="469.06" x2="662.35" y2="469.06" gradientTransform="matrix(0.78, 0.63, -0.63, 0.78, 273.79, -724.53)" xlink:href="#linear-gradient-3"/><linearGradient id="linear-gradient-6" x1="214.56" y1="301.85" x2="393.32" y2="301.85" gradientTransform="matrix(1.11, -0.01, -0.01, 1, -101.36, 6.52)" gradientUnits="userSpaceOnUse"><stop offset="0" stop-color="#1937e0"/><stop offset="1" stop-color="#00b2f0"/></linearGradient><linearGradient id="linear-gradient-7" x1="5.03" y1="168.47" x2="464.78" y2="168.47" gradientTransform="matrix(1, 0, 0, 1, 0, 0)" xlink:href="#linear-gradient-6"/><linearGradient id="linear-gradient-8" x1="319.62" y1="105.65" x2="345.78" y2="105.65" gradientTransform="matrix(1, -0.04, 0, 1, 0, 4.59)" xlink:href="#linear-gradient-3"/><linearGradient id="linear-gradient-9" x1="348.29" y1="105.57" x2="368.94" y2="105.57" gradientTransform="matrix(1, -0.04, 0, 1, 0, 4.59)" xlink:href="#linear-gradient-3"/><linearGradient id="linear-gradient-10" x1="370.58" y1="105.65" x2="396.42" y2="105.65" gradientTransform="matrix(1, -0.04, 0, 1, 0, 4.59)" xlink:href="#linear-gradient-3"/><linearGradient id="linear-gradient-11" x1="396.78" y1="105.65" x2="424.93" y2="105.65" gradientTransform="matrix(1, -0.04, 0, 1, 0, 4.59)" xlink:href="#linear-gradient-3"/><linearGradient id="linear-gradient-12" x1="425.22" y1="105.57" x2="445.86" y2="105.57" gradientTransform="matrix(1, -0.04, 0, 1, 0, 4.59)" xlink:href="#linear-gradient-3"/><linearGradient id="linear-gradient-13" x1="447.51" y1="105.65" x2="473.34" y2="105.65" gradientTransform="matrix(1, -0.04, 0, 1, 0, 4.59)" xlink:href="#linear-gradient-3"/><linearGradient id="linear-gradient-14" x1="24.68" y1="146.42" x2="22.34" y2="100.21" gradientTransform="matrix(1, -0.04, 0, 1, 0, 4.59)" xlink:href="#linear-gradient-6"/><linearGradient id="linear-gradient-15" x1="47.92" y1="145.25" x2="45.58" y2="99.03" gradientTransform="matrix(1, -0.04, 0, 1, 0, 4.59)" xlink:href="#linear-gradient-6"/><linearGradient id="linear-gradient-16" x1="68.07" y1="144.23" x2="65.73" y2="98.01" gradientTransform="matrix(1, -0.04, 0, 1, 0, 4.59)" xlink:href="#linear-gradient-6"/><linearGradient id="linear-gradient-17" x1="93.85" y1="142.92" x2="91.51" y2="96.71" gradientTransform="matrix(1, -0.04, 0, 1, 0, 4.59)" xlink:href="#linear-gradient-6"/><linearGradient id="linear-gradient-18" x1="117.24" y1="141.74" x2="114.9" y2="95.52" gradientTransform="matrix(1, -0.04, 0, 1, 0, 4.59)" xlink:href="#linear-gradient-6"/><linearGradient id="linear-gradient-19" x1="141.94" y1="140.49" x2="139.6" y2="94.27" gradientTransform="matrix(1, -0.04, 0, 1, 0, 4.59)" xlink:href="#linear-gradient-6"/><linearGradient id="linear-gradient-20" x1="182.91" y1="138.41" x2="180.57" y2="92.2" gradientTransform="matrix(1, -0.04, 0, 1, 0, 4.59)" xlink:href="#linear-gradient-6"/><linearGradient id="linear-gradient-21" x1="209.61" y1="137.06" x2="207.27" y2="90.85" gradientTransform="matrix(1, -0.04, 0, 1, 0, 4.59)" xlink:href="#linear-gradient-6"/><linearGradient id="linear-gradient-22" x1="235.65" y1="135.74" x2="233.31" y2="89.53" gradientTransform="matrix(1, -0.04, 0, 1, 0, 4.59)" xlink:href="#linear-gradient-6"/><linearGradient id="linear-gradient-23" x1="266.14" y1="134.2" x2="263.8" y2="87.98" gradientTransform="matrix(1, -0.04, 0, 1, 0, 4.59)" xlink:href="#linear-gradient-6"/><linearGradient id="linear-gradient-24" x1="296.05" y1="132.68" x2="293.71" y2="86.47" gradientTransform="matrix(1, -0.04, 0, 1, 0, 4.59)" xlink:href="#linear-gradient-6"/><linearGradient id="linear-gradient-25" x1="119.46" y1="164.05" x2="129.88" y2="164.05" gradientTransform="matrix(1, 0, 0, 1, 0, 0)" xlink:href="#linear-gradient-6"/><linearGradient id="linear-gradient-26" x1="130.08" y1="164.35" x2="150.31" y2="164.35" gradientTransform="matrix(1, 0, 0, 1, 0, 0)" xlink:href="#linear-gradient-6"/><linearGradient id="linear-gradient-27" x1="162.71" y1="164.05" x2="190.58" y2="164.05" gradientTransform="matrix(1, 0, 0, 1, 0, 0)" xlink:href="#linear-gradient-6"/><linearGradient id="linear-gradient-28" x1="192.35" y1="157.52" x2="212.58" y2="157.52" gradientTransform="matrix(1, 0, 0, 1, 0, 0)" xlink:href="#linear-gradient-6"/><linearGradient id="linear-gradient-29" x1="213.75" y1="161.44" x2="225.15" y2="161.44" gradientTransform="matrix(1, 0, 0, 1, 0, 0)" xlink:href="#linear-gradient-6"/><linearGradient id="linear-gradient-30" x1="234.47" y1="161.44" x2="245.87" y2="161.44" gradientTransform="matrix(1, 0, 0, 1, 0, 0)" xlink:href="#linear-gradient-6"/><linearGradient id="linear-gradient-31" x1="246.3" y1="159.64" x2="256.94" y2="159.64" gradientTransform="matrix(1, 0, 0, 1, 0, 0)" xlink:href="#linear-gradient-6"/><linearGradient id="linear-gradient-32" x1="256" y1="164.05" x2="273.25" y2="164.05" gradientTransform="matrix(1, 0, 0, 1, 0, 0)" xlink:href="#linear-gradient-6"/><linearGradient id="linear-gradient-33" x1="275.86" y1="161.44" x2="293.11" y2="161.44" gradientTransform="matrix(1, 0, 0, 1, 0, 0)" xlink:href="#linear-gradient-6"/><linearGradient id="linear-gradient-34" x1="305.42" y1="164.05" x2="322.67" y2="164.05" gradientTransform="matrix(1, 0, 0, 1, 0, 0)" xlink:href="#linear-gradient-6"/><linearGradient id="linear-gradient-35" x1="324.47" y1="161.14" x2="344.7" y2="161.14" gradientTransform="matrix(1, 0, 0, 1, 0, 0)" xlink:href="#linear-gradient-6"/><linearGradient id="linear-gradient-36" x1="347.4" y1="164.05" x2="364.65" y2="164.05" gradientTransform="matrix(1, 0, 0, 1, 0, 0)" xlink:href="#linear-gradient-6"/><linearGradient id="linear-gradient-37" x1="366.45" y1="167.95" x2="386.43" y2="167.95" gradientTransform="matrix(1, 0, 0, 1, 0, 0)" xlink:href="#linear-gradient-6"/><linearGradient id="linear-gradient-38" x1="161.21" y1="238.96" x2="182.6" y2="238.96" gradientTransform="matrix(1, 0.04, -0.04, 1, 8.42, -33.91)" xlink:href="#linear-gradient-6"/><linearGradient id="linear-gradient-39" x1="186.83" y1="237.11" x2="236.63" y2="237.11" gradientTransform="matrix(1, 0.04, -0.04, 1, 8.42, -33.91)" xlink:href="#linear-gradient-6"/><linearGradient id="linear-gradient-40" x1="244.17" y1="243.84" x2="287.54" y2="243.84" gradientTransform="matrix(1, 0.04, -0.04, 1, 8.42, -33.91)" xlink:href="#linear-gradient-6"/><linearGradient id="linear-gradient-41" x1="295.73" y1="233.52" x2="342.68" y2="233.52" gradientTransform="matrix(1, 0.04, -0.04, 1, 8.42, -33.91)" xlink:href="#linear-gradient-6"/><linearGradient id="linear-gradient-42" x1="156.92" y1="239" x2="180.28" y2="239" gradientTransform="matrix(1, 0.04, -0.04, 1, 8.42, -33.91)" xlink:href="#linear-gradient-3"/><linearGradient id="linear-gradient-43" x1="182.53" y1="237.18" x2="234.26" y2="237.18" gradientTransform="matrix(1, 0.04, -0.04, 1, 8.42, -33.91)" xlink:href="#linear-gradient-3"/><linearGradient id="linear-gradient-44" x1="240.43" y1="243.86" x2="285.84" y2="243.86" gradientTransform="matrix(1, 0.04, -0.04, 1, 8.42, -33.91)" xlink:href="#linear-gradient-3"/><linearGradient id="linear-gradient-45" x1="290.99" y1="233.51" x2="340.02" y2="233.51" gradientTransform="matrix(1, 0.04, -0.04, 1, 8.42, -33.91)" xlink:href="#linear-gradient-3"/></defs><title>title</title><g class="cls-1"><path class="cls-2" d="M122.95,55.14c55.45,16.36,207.23,60.11,269.68,78.1a14.85,14.85,0,0,1,5.22,25.82l-249,201.36A14.85,14.85,0,0,1,124.69,350L103.94,70.48A14.85,14.85,0,0,1,122.95,55.14Z"/></g><g class="cls-1"><path class="cls-3" d="M179.5,34.12c41.36,40.4,155,150.06,201.83,195.17a14.85,14.85,0,0,1-7.46,25.27L59.59,316.07a14.85,14.85,0,0,1-16.46-20.54L155.52,38.79A14.85,14.85,0,0,1,179.5,34.12Z"/></g><path class="cls-4" d="M381.69,215,376.5,220a4.28,4.28,0,0,1-6.37-.41l-9.86-12.56a4.28,4.28,0,0,1,5.27-6.48l15,7.46A4.28,4.28,0,0,1,381.69,215Z"/><path class="cls-5" d="M119.78,215.48l-15.61,28.89a4.28,4.28,0,0,1-6.93.85L85.76,232.65a4.28,4.28,0,0,1,1-6.56l27.1-16.32A4.28,4.28,0,0,1,119.78,215.48Z"/><path class="cls-6" d="M185.88,357.61l-9.33-7.55a3.19,3.19,0,0,1,1.75-5.67l30.88-2.47a3.19,3.19,0,0,1,1.6,6.08l-21.55,10A3.19,3.19,0,0,1,185.88,357.61Z"/><path class="cls-7" d="M389.64,118l11.92,1.43a3.19,3.19,0,0,1,1.53,5.73l-24.85,18.51a3.19,3.19,0,0,1-4.59-4.3l12.93-19.94A3.19,3.19,0,0,1,389.64,118Z"/><path class="cls-6" d="M104.54,172.06l4.49-3a3.19,3.19,0,0,1,4.62,1.16l5.55,10.54a3.19,3.19,0,0,1-4.74,4l-10-7.5A3.19,3.19,0,0,1,104.54,172.06Z"/><path class="cls-6" d="M292.75,344.88l-1.55,5.2a3.19,3.19,0,0,1-4.31,2l-11-4.65a3.19,3.19,0,0,1,1.11-6.13l12.51-.54A3.19,3.19,0,0,1,292.75,344.88Z"/><path class="cls-8" d="M447.19,17l8.69-13.55A4.28,4.28,0,0,1,463.68,5l7.83,40.79a4.28,4.28,0,0,1-7.87,3L447.13,21.56A4.28,4.28,0,0,1,447.19,17Z"/><path class="cls-9" d="M507.66,66.06l-1.46,5.22a3.19,3.19,0,0,1-4.27,2.1l-11-4.46a3.19,3.19,0,0,1,1-6.15l12.5-.76A3.19,3.19,0,0,1,507.66,66.06Z"/><path class="cls-10" d="M478.45,55.37,489.51,40.6a2.41,2.41,0,0,1,3.92.1l5.34,7.93a2.41,2.41,0,0,1-1.07,3.56L481.3,59A2.41,2.41,0,0,1,478.45,55.37Z"/><path class="cls-11" d="M156.71,285.82l152.15-12c16.93-1.33,29.49,13.51,23.61,27.92l-7.78,19.07c-3.33,8.16-11.86,13.72-21.48,14l-140.32,4c-10.25.29-19.41-5.47-22.6-14.19l-4-11.09C131.52,300.64,141.59,287,156.71,285.82Z"/><path class="cls-6" d="M164.31,279.51l152.15-12c16.93-1.33,29.49,13.51,23.61,27.92l-7.78,19.07c-3.33,8.16-11.86,13.72-21.48,14l-140.32,4c-10.25.29-19.41-5.47-22.6-14.19l-4-11.09C139.13,294.32,149.19,280.7,164.31,279.51Z"/><path class="cls-12" d="M54.25,104.74l351.64-29c39.13-3.23,68.8,41.09,55.79,83.34L444.45,215c-7.37,23.95-26.89,40-49.14,40.4L70.72,261.36c-23.7.43-45.15-16.93-52.88-42.8L8,185.68C-3.42,147.41,19.3,107.63,54.25,104.74Z"/><path class="cls-13" d="M62.49,93.77l351.64-29c39.13-3.23,68.8,41.09,55.79,83.34L452.7,204c-7.37,23.95-26.89,40-49.14,40.4L79,250.38c-23.7.43-45.15-16.93-52.88-42.8L16.26,174.7C4.82,136.43,27.55,96.65,62.49,93.77Z"/><g class="cls-14"><path class="cls-15" d="M334.93,79.79l-4.33.16V91.37l7.45.53,7.14,7.88v17l-6.78,8.39-11.42.42-6.78-7.89v-9.86l10.38-.38v7.45l4.33-.16V103l-7.51-.49-7.2-7.8V77.92l6.9-8.39,10.81-.4,7,7.88V87l-10,.37Z"/><path class="cls-15" d="M349,68.3,368,67.6V78.33l-8.7.32V89.23l7.17-.26V99.44l-7.17.26v13.94l8.94-.33v10.54l-19.32.71Z"/><path class="cls-15" d="M385.81,99.58l-4.24.16V122.2l-10.38.38V66.49l17.71-.65,6.93,7.88V88.36l-5.13,5.73,5.13,5.12v22.46l-10,.37Zm0-23.08-4.24.16V89.19l4.24-.16Z"/><path class="cls-15" d="M410.68,107.68l.76,0L414,64.92l10.27-.38L419,120.82l-15.65.57-5.87-55.87,10.27-.38Z"/><path class="cls-15" d="M425.66,64.39l19.08-.7V74.43l-8.7.32V85.33l7.17-.26V95.54L436,95.8v13.94l8.94-.33V120l-19.32.71Z"/><path class="cls-15" d="M465.34,96.65l-5,.18V119.3l-12.24.45V63.67L469,62.9l8.17,7.84V85.37l-6,5.76,6,5.09v22.46l-11.8.43Zm0-23.08-5,.18V86.29l5-.18Z"/><path class="cls-15" d="M6.26,138.66V81.22l16.28-.6q7.08-.26,10.18,3.08,2.88,3.14,3,11.59a25.15,25.15,0,0,1-.83,7.26,5.33,5.33,0,0,1-2.8,3.47,5.4,5.4,0,0,1,2.8,3.76q.72,2.36.83,9.58,0,10.39-3.07,14.48t-11,4.26Zm13.25-36A4.79,4.79,0,0,0,23,101.38q.8-1,.91-4,0-3.82-.83-4.94a3.42,3.42,0,0,0-3.18-1.24l-2.19.08v11.37Zm-1.78,24.7,1.55-.06A4.48,4.48,0,0,0,23,125.6q.8-1.38.91-6.36a12.66,12.66,0,0,0-.91-5.51,3.35,3.35,0,0,0-3.1-1.49l-2.19.08Z"/><path class="cls-15" d="M40.89,79.95,51,79.58V137l-10.14.37Z"/><path class="cls-15" d="M55.75,91.06V80.14L78,79.32V90.62L65.43,126.3l12.1-.44v10.92l-23.19.85v-10l13.12-37Z"/><path class="cls-15" d="M82.76,136.59V79.15L103,78.41V89.33l-10.1.37v9.77l9.68-.36V110l-9.68.36v25.91Z"/><path class="cls-15" d="M106.06,78.29l10.14-.37v46.52l10.5-.39V135l-20.63.76Z"/><path class="cls-15" d="M134.11,118.69a82.87,82.87,0,0,1-5.64-18.14q-1-5.38-1.43-10.58T126.56,79V77.83l10.14-.37q.16,11.08.82,18.65a48.89,48.89,0,0,0,1.67,10.69q1-2.87,1.67-10.9.72-7.66.82-18.63l10.07-.37V79.7a108,108,0,0,1-1.93,20.39,82.9,82.9,0,0,1-2.3,9.47,79.62,79.62,0,0,1-3.28,8.76v16.3l-10.14.37Z"/><path class="cls-15" d="M168.8,94.51a48.33,48.33,0,0,1,.72-9.08,16.91,16.91,0,0,1,2.23-6q2.82-4.37,9.81-4.63t9.81,3.91q2.85,4.25,3,14.88v4.11l-10.27.38V91q0-3.57-.56-4.41a1.9,1.9,0,0,0-1.93-.87,2.07,2.07,0,0,0-1.94.93q-.56.92-.56,4.13V117.9q0,3.32.56,4.21a2.09,2.09,0,0,0,1.94.75,2.13,2.13,0,0,0,1.93-1,11.93,11.93,0,0,0,.56-4.58v-9.94l10.27-.38v7q0,10.63-3,15.09-2.79,4.37-9.81,4.63t-9.81-3.91q-2.85-4.25-3-14.88Z"/><path class="cls-15" d="M199.57,74.86l10.14-.37V121l10.5-.39v10.92l-20.63.76Z"/><path class="cls-15" d="M222.89,92.52a48.33,48.33,0,0,1,.72-9.08,16.91,16.91,0,0,1,2.23-6q2.82-4.37,9.81-4.63t9.81,3.91q2.85,4.25,3,14.88V112q0,10.63-3,15.09-2.79,4.37-9.81,4.63t-9.81-3.91q-2.85-4.25-3-14.88Zm10.27-2.06v25.46q0,3.32.56,4.21a2.09,2.09,0,0,0,1.94.75,2.13,2.13,0,0,0,1.93-1,11.93,11.93,0,0,0,.56-4.58V89q0-3.57-.56-4.41a1.9,1.9,0,0,0-1.93-.87,2.07,2.07,0,0,0-1.94.93q-.56.92-.56,4.13Z"/><path class="cls-15" d="M264.06,113.1v1.68q0,3.32.56,4.21a2.09,2.09,0,0,0,1.94.75,2.37,2.37,0,0,0,2-1.06,15,15,0,0,0,.52-5.07V72.31l10.14-.37v38.92q0,10.63-3,15.09-2.79,4.37-9.74,4.63t-9.74-3.91q-2.89-4.33-2.89-14.88V72.86l10.14-.37Z"/><path class="cls-15" d="M285.22,71.71l13.58-.5q6.13-.23,9,3.37,2.72,3.43,2.82,11.68v26.48q0,8.09-2.82,12-2.79,3.71-9,3.94l-13.58.5Zm10.14,10.55v35.6l1.71-.06a3.53,3.53,0,0,0,2.62-1q.65-.84.66-4.54V87.5q0-3.66-.66-4.45a3.2,3.2,0,0,0-2.62-.85Z"/></g><path class="cls-16" d="M334.88,84.28l-4.24.16v8.92l7.28.36,7,6.1v13.31l-6.63,6.6-11.16.41L320.5,114v-7.7l10.14-.37v5.82l4.24-.16v-9.19l-7.34-.33-7-6V82.92l6.74-6.6,10.56-.39,6.83,6.1V89.8l-9.76.36Z"/><path class="cls-17" d="M349.17,75.37l18.65-.68v8.38l-8.5.31v8.26l7-.26v8.18l-7,.26v10.89l8.74-.32v8.24l-18.89.69Z"/><path class="cls-18" d="M385.75,100.43l-4.15.15v17.54l-10.15.37V74.7l17.31-.64,6.77,6.11V91.6l-5,4.51,5,4v17.54l-9.79.36Zm0-18-4.15.15v9.79l4.15-.15Z"/><path class="cls-19" d="M410.69,106.56l.75,0,2.48-33.39,10-.37-5.14,44-15.3.56-5.73-43.59,10-.37Z"/><path class="cls-20" d="M426.1,72.54l18.65-.68v8.38l-8.5.31v8.26l7-.26v8.18l-7,.26v10.89l8.74-.32v8.24l-18.89.69Z"/><path class="cls-21" d="M462.68,97.61l-4.15.15V115.3l-10.15.37V71.87l17.31-.64,6.77,6.11V88.77l-5,4.51,5,4v17.54l-9.79.36Zm0-18-4.15.15v9.79l4.15-.15Z"/><path class="cls-22" d="M10.48,133.24V88.38l13.79-.51q6-.22,8.63,2.38,2.44,2.44,2.53,9a18.21,18.21,0,0,1-.71,5.67,4.28,4.28,0,0,1-2.37,2.72,4.26,4.26,0,0,1,2.37,2.93,30.57,30.57,0,0,1,.71,7.48q0,8.11-2.6,11.32t-9.33,3.36ZM21.7,105.06a4.27,4.27,0,0,0,3-1,5.41,5.41,0,0,0,.77-3.11q0-3-.7-3.85a3,3,0,0,0-2.69-1l-1.86.07v8.88ZM20.2,124.36l1.31,0a3.94,3.94,0,0,0,3.17-1.3q.67-1.08.77-5a9.19,9.19,0,0,0-.77-4.3,2.92,2.92,0,0,0-2.63-1.15l-1.86.07Z"/><path class="cls-23" d="M41,87.26l9.91-.36v44.86l-9.91.36Z"/><path class="cls-24" d="M56,95.24V86.71l21.74-.8v8.82l-12.28,28,11.83-.43v8.53l-22.67.83V123.8l12.83-29Z"/><path class="cls-25" d="M82.12,130.61V85.75L101.9,85v8.53L92,93.92v7.63l9.46-.35v8.47L92,110v20.23Z"/><path class="cls-26" d="M106.29,84.86l9.91-.36v36.33l10.26-.38V129l-20.17.74Z"/><path class="cls-27" d="M134.22,116a55.33,55.33,0,0,1-5.52-14.13,80.53,80.53,0,0,1-1.39-8.25,75,75,0,0,1-.46-8.55v-.93l9.91-.36q.16,8.65.8,14.56a31.09,31.09,0,0,0,1.63,8.34,36.66,36.66,0,0,0,1.64-8.53,140.68,140.68,0,0,0,.8-14.56l9.84-.36v2.18a68.18,68.18,0,0,1-1.89,15.94,54.56,54.56,0,0,1-2.24,7.41,55.45,55.45,0,0,1-3.21,6.87v12.73l-9.91.36Z"/><path class="cls-28" d="M168.82,97a30.43,30.43,0,0,1,.71-7.1,11.82,11.82,0,0,1,2.18-4.71q2.76-3.44,9.59-3.69t9.59,3q2.79,3.3,2.88,11.6v3.21l-10,.37V94.17q0-2.79-.55-3.44a2,2,0,0,0-1.89-.67,2.23,2.23,0,0,0-1.89.74,6.14,6.14,0,0,0-.54,3.23v21.2q0,2.6.54,3.28a3,3,0,0,0,3.78-.2,7.63,7.63,0,0,0,.55-3.58V107l10-.37V112q0,8.3-2.88,11.81-2.73,3.43-9.59,3.69t-9.59-3q-2.79-3.3-2.89-11.6Z"/><path class="cls-29" d="M198.9,81.46l9.91-.36v36.33l10.26-.38v8.53l-20.17.74Z"/><path class="cls-30" d="M221.7,95.09a30.43,30.43,0,0,1,.71-7.1,11.82,11.82,0,0,1,2.18-4.71q2.76-3.44,9.59-3.69t9.59,3q2.79,3.3,2.88,11.6v15.94q0,8.3-2.88,11.81-2.73,3.43-9.59,3.69t-9.59-3q-2.79-3.3-2.89-11.6Zm10-1.68v19.88q0,2.6.54,3.28a3,3,0,0,0,3.78-.2,7.63,7.63,0,0,0,.55-3.58V92.23q0-2.79-.55-3.44a2,2,0,0,0-1.89-.67,2.23,2.23,0,0,0-1.89.74,6.14,6.14,0,0,0-.54,3.23Z"/><path class="cls-31" d="M261.94,110.86v1.31q0,2.6.54,3.28a2.3,2.3,0,0,0,1.89.57,2.53,2.53,0,0,0,2-.84,9.51,9.51,0,0,0,.51-4V79l9.91-.36V109q0,8.3-2.89,11.81-2.73,3.43-9.52,3.69t-9.52-3q-2.82-3.36-2.82-11.6V79.51l9.91-.36Z"/><path class="cls-32" d="M282.62,78.39l13.27-.49q6-.22,8.79,2.56t2.76,9.1v20.68q0,6.32-2.76,9.37t-8.79,3.14l-13.27.49Zm9.91,8.17v27.8l1.67-.06a4,4,0,0,0,2.57-.77q.64-.66.64-3.55V90.61q0-2.85-.64-3.47a3.62,3.62,0,0,0-2.57-.64Z"/><path class="cls-33" d="M168.57,302.08v15.86l-3.65.22V302.3l-5.45.33v-3.45l14.56-.87v3.45Z"/><path class="cls-33" d="M178.76,300.4l-3.27.2L173,296.82l2.94-1Zm-3.54,1.7,3.49-.21v15.45l-3.49.21Z"/><path class="cls-33" d="M193.39,306.17h-.08l-2.91,6.77-2.27.14-2.93-6.58h-.08l0,1.35V317l-3.35.2V301.7l4.26-.26,2.15,4.39c.86,1.74,1.27,2.63,1.24,2.63h.08l3.38-7.43,3.93-.24v15.45l-3.46.21Z"/><path class="cls-33" d="M218.18,315v-6.15l-5.51.33v6.15l-3.49.21V300.06l3.49-.21v6l5.51-.33v-6l3.49-.21v15.45Z"/><path class="cls-33" d="M224.78,299.12l3.49-.21v15.45l-3.49.21Z"/><path class="cls-33" d="M231.36,298.72l10.68-.64v3.25l-7.2.43v2.76l5.29-.32v3.14l-5.29.32v3l7.33-.44v3.25l-10.82.65Zm8.05-1.67-2.65-1.94-2.66,2.26-1.66-1.86,4.32-3.71,4.34,3.19Zm2.22-4.63a3.53,3.53,0,0,1-1.77.71l-.91-1.52a3,3,0,0,0,1.58-.48c.55-.39.75-.73.61-1s-.86-.12-2,.64l-.8-1.44,1.44-.92c1.41-.44,2.38-.17,3,.82C243.41,290.41,243,291.46,241.63,292.42Z"/><path class="cls-33" d="M257.48,306.07q0,6.87-6.4,7.25c-4.29.26-6.42-1.9-6.41-6.48v-8.91l3.51-.21v9.19c0,2.26,1,3.34,2.93,3.22s3-1.31,3-3.57v-9.19l3.4-.2Z"/><path class="cls-33" d="M276.85,299.25v12.19l-3.49.21V299.45l-4.51.27v-3.25l12.51-.75V299Z"/><path class="cls-33" d="M292.67,310.49v-6.15l-5.51.33v6.15l-3.49.21V295.58l3.49-.21v6l5.51-.33v-6l3.49-.21v15.45Z"/><path class="cls-33" d="M299.27,294.64,310,294v3.25l-7.2.43v2.76l5.29-.32v3.14l-5.29.32v3l7.33-.44v3.25l-10.82.65Zm7.94-1.66L304.56,291l-2.66,2.26-1.66-1.86,4.32-3.71,4.34,3.19Z"/><path class="cls-33" d="M324.34,298.29h-.08l-2.91,6.77-2.27.14-2.93-6.58h-.08l0,1.35v9.1l-3.35.2V293.83l4.26-.26,2.15,4.39c.86,1.74,1.27,2.63,1.24,2.63h.08l3.38-7.43,3.93-.24v15.45l-3.46.21Z"/><path class="cls-34" d="M129.34,160.28a6.19,6.19,0,0,0-2.92.61,2.8,2.8,0,0,0-1.2,2.59v9.59H120V155.63h4.9v1.86H125a4.47,4.47,0,0,1,4.36-2.46Z"/><path class="cls-35" d="M144.55,173.08v-1.89h-.06a4.26,4.26,0,0,1-2.19,1.92,7.27,7.27,0,0,1-2.9.57A8.22,8.22,0,0,1,133,171a9.55,9.55,0,0,1-2.36-6.62,9.41,9.41,0,0,1,2.41-6.57,8.22,8.22,0,0,1,6.35-2.75,7.06,7.06,0,0,1,2.89.58,4.67,4.67,0,0,1,2.21,1.87h.06v-1.86h5.22v17.45Zm-1.24-11.91a4.24,4.24,0,0,0-3.15-1.26,4.07,4.07,0,0,0-3.12,1.32,4.46,4.46,0,0,0-1.2,3.18,4.27,4.27,0,0,0,1.24,3.1,4.43,4.43,0,0,0,6.23,0,4.39,4.39,0,0,0,1.23-3.18A4.34,4.34,0,0,0,143.3,161.17Z"/><path class="cls-36" d="M184.82,173.08v-9.27a6.22,6.22,0,0,0-.43-2.65,2.28,2.28,0,0,0-2.24-1.21,2.58,2.58,0,0,0-2.32,1.06,4.6,4.6,0,0,0-.58,2.55v9.53H174v-9.49a5.33,5.33,0,0,0-.48-2.5,2.23,2.23,0,0,0-2.13-1.15,2.58,2.58,0,0,0-2.38,1.17,5.21,5.21,0,0,0-.57,2.7v9.27h-5.22V155.63h4.87v1.86h.08a4.37,4.37,0,0,1,2-1.89A6.35,6.35,0,0,1,173,155a5.42,5.42,0,0,1,5,3.12,6.19,6.19,0,0,1,5.53-3.12,6.11,6.11,0,0,1,4.59,1.77,6.2,6.2,0,0,1,1.69,3.13,12.75,12.75,0,0,1,.18,1.73q0,.38,0,.92v10.5Z"/><path class="cls-37" d="M206.82,173.08v-1.89h-.06a4.26,4.26,0,0,1-2.19,1.92,7.27,7.27,0,0,1-2.9.57,8.22,8.22,0,0,1-6.4-2.72,9.55,9.55,0,0,1-2.36-6.62,9.41,9.41,0,0,1,2.41-6.57,8.22,8.22,0,0,1,6.35-2.75,7.06,7.06,0,0,1,2.89.58,4.67,4.67,0,0,1,2.21,1.87h.06v-1.86H212v17.45Zm3.41-24.47a4.19,4.19,0,0,1-2.21,3.56,9.9,9.9,0,0,1-8.53,0,4.27,4.27,0,0,1-2.21-3.56h3.56a2.64,2.64,0,0,0,1.38.92,6,6,0,0,0,1.69.18,4.93,4.93,0,0,0,1.55-.22,2.33,2.33,0,0,0,1.23-.89Zm-4.65,12.56a4.24,4.24,0,0,0-3.15-1.26,4.07,4.07,0,0,0-3.12,1.32,4.46,4.46,0,0,0-1.2,3.18,4.27,4.27,0,0,0,1.24,3.1,4.43,4.43,0,0,0,6.23,0,4.39,4.39,0,0,0,1.23-3.18A4.34,4.34,0,0,0,205.57,161.17Zm-1.92-12.46-1.47-3.09,7.55-4.05,1.66,3.71Z"/><path class="cls-38" d="M222.09,159.59v13.49h-5.22V159.59h-2.58v-4h2.58v-5.82h5.22v5.82h2.52v4Z"/><path class="cls-39" d="M242.81,159.59v13.49h-5.22V159.59H235v-4h2.58v-5.82h5.22v5.82h2.52v4Z"/><path class="cls-40" d="M248.49,153.55,247,150.47l7.55-4.05,1.66,3.71Zm-.91,19.52V155.63h5.22v17.45Z"/><path class="cls-41" d="M267.49,173.08v-9.53A5.1,5.1,0,0,0,267,161a2.38,2.38,0,0,0-2.24-1.07,2.69,2.69,0,0,0-2.41,1,4.69,4.69,0,0,0-.58,2.61v9.49h-5.22V155.63h4.87v1.86h.08a5.16,5.16,0,0,1,4.74-2.46,6.72,6.72,0,0,1,4.47,1.52,5.24,5.24,0,0,1,1.63,2.56,10.58,10.58,0,0,1,.38,3.05v10.91Z"/><path class="cls-42" d="M287.35,173.08v-9.49a4.82,4.82,0,0,0-.55-2.53,2.45,2.45,0,0,0-2.26-1.12,2.67,2.67,0,0,0-2.3,1,4.17,4.17,0,0,0-.61,2.47v9.69h-5.22V149.81h5.22v7.43h.06a4,4,0,0,1,1.93-1.72,6.27,6.27,0,0,1,2.56-.49,5.9,5.9,0,0,1,4.74,1.92,6.27,6.27,0,0,1,1.44,3,10.12,10.12,0,0,1,.17,1.63c0,.25,0,.53,0,.86v10.62Z"/><path class="cls-43" d="M316.91,173.08v-9.53a5.1,5.1,0,0,0-.49-2.53,2.38,2.38,0,0,0-2.24-1.07,2.69,2.69,0,0,0-2.41,1,4.69,4.69,0,0,0-.58,2.61v9.49H306V155.63h4.87v1.86h.08a5.16,5.16,0,0,1,4.74-2.46,6.72,6.72,0,0,1,4.47,1.52,5.24,5.24,0,0,1,1.63,2.56,10.58,10.58,0,0,1,.38,3.05v10.91Z"/><path class="cls-44" d="M338.94,173.08v-1.89h-.06a4.26,4.26,0,0,1-2.19,1.92,7.27,7.27,0,0,1-2.9.57,8.22,8.22,0,0,1-6.4-2.72,9.55,9.55,0,0,1-2.36-6.62,9.41,9.41,0,0,1,2.41-6.57,8.22,8.22,0,0,1,6.35-2.75,7.06,7.06,0,0,1,2.89.58,4.67,4.67,0,0,1,2.21,1.87h.06v-1.86h5.22v17.45Zm3.41-24.47a4.19,4.19,0,0,1-2.21,3.56,9.9,9.9,0,0,1-8.53,0,4.27,4.27,0,0,1-2.21-3.56h3.56a2.64,2.64,0,0,0,1.38.92,6,6,0,0,0,1.69.18,4.93,4.93,0,0,0,1.55-.22,2.33,2.33,0,0,0,1.23-.89Zm-4.65,12.56a4.24,4.24,0,0,0-3.15-1.26,4.07,4.07,0,0,0-3.12,1.32,4.46,4.46,0,0,0-1.2,3.18,4.27,4.27,0,0,0,1.24,3.1,4.43,4.43,0,0,0,6.23,0,4.39,4.39,0,0,0,1.23-3.18A4.34,4.34,0,0,0,337.69,161.17Z"/><path class="cls-45" d="M358.89,173.08v-9.53a5.1,5.1,0,0,0-.49-2.53,2.38,2.38,0,0,0-2.24-1.07,2.69,2.69,0,0,0-2.41,1,4.69,4.69,0,0,0-.58,2.61v9.49h-5.22V155.63h4.87v1.86h.08a5.16,5.16,0,0,1,4.74-2.46,6.72,6.72,0,0,1,4.47,1.52,5.24,5.24,0,0,1,1.63,2.56,10.58,10.58,0,0,1,.38,3.05v10.91Z"/><path class="cls-46" d="M385.89,171.71q0,.4,0,.74,0,.83-.12,1.49a7.68,7.68,0,0,1-.91,2.79,7.78,7.78,0,0,1-3.87,3.15,12.74,12.74,0,0,1-5,1,11.29,11.29,0,0,1-4.28-.77,7.37,7.37,0,0,1-3.36-2.65,6.12,6.12,0,0,1-1.07-2.72h6a3,3,0,0,0,3,1.73q4.25,0,4.25-4.74v-.54h-.06a4.4,4.4,0,0,1-2,1.87,6.19,6.19,0,0,1-2.75.61,8.3,8.3,0,0,1-6.35-2.69,9.14,9.14,0,0,1-2.44-6.49,9.57,9.57,0,0,1,2.41-6.63,8.21,8.21,0,0,1,6.38-2.78,7,7,0,0,1,2.7.51,4.39,4.39,0,0,1,2.12,1.7h.06v-1.64h5.22Zm-6.37-10.47a4.25,4.25,0,0,0-6.11,0,4.27,4.27,0,0,0-1.2,3.05,4.56,4.56,0,0,0,1.15,3.15,3.86,3.86,0,0,0,3,1.34,4.15,4.15,0,0,0,3.09-1.21,4.28,4.28,0,0,0,1.2-3.12A4.55,4.55,0,0,0,379.52,161.24Z"/><path class="cls-47" d="M162,178.41l17.32-.44L181,243.91l-17.32.44Z"/><path class="cls-48" d="M211.78,177.14c7.57-.19,13.59,1.73,18,5.67s6.69,9.73,6.88,17.07c.18,7.06-1.86,12.68-6,16.93s-10.06,6.57-17.54,6.76l-6.91.18.5,19.5-17.32.44-1.68-65.94Zm.8,31.27c4.64-.12,6.85-2.72,6.72-7.81s-2.47-7.67-7.11-7.55l-6.82.17.39,15.36Z"/><path class="cls-49" d="M258.56,241.46l-14.32-42.28,14.61-.37,4.7,16.41c2.35,8.32,3.54,12.55,3.54,12.78h.3c.28-1,1.24-5.29,3-13L274,198.42l13.69-.35-12.07,43Z"/><path class="cls-50" d="M318,204.47c1.35-1.09,3.46-1.67,6.21-1.74a16.77,16.77,0,0,1,12.32,4.65,18,18,0,0,1,5.42,13c.17,6.54-1.93,11.77-6.18,15.57q-6.06,5.54-16.72,5.81-10.34.26-16.67-4.64c-4.66-3.68-7.13-9.21-7.32-16.6s3-16,9.64-25.48l9.41-13.54,19-.48L317.6,204.06Zm6.77,15.87c-.1-3.9-2.16-5.75-6.09-5.65s-5.78,2-5.68,5.95c.09,3.69,2,5.55,6,5.45S324.9,224,324.81,220.34Z"/><path class="cls-51" d="M158.68,178.33l17.32-.44,1.68,65.94-17.32.44Z"/><path class="cls-52" d="M208.48,177.06c7.57-.19,13.59,1.73,18,5.67s6.69,9.73,6.88,17.07c.18,7.06-1.86,12.68-6,16.93s-10.06,6.57-17.54,6.76l-6.91.18.5,19.5-17.32.44-1.68-65.94Zm.8,31.27c4.64-.12,6.85-2.72,6.72-7.81s-2.47-7.67-7.11-7.55l-6.82.17.39,15.36Z"/><path class="cls-53" d="M255.89,241.4l-14.32-42.28,14.61-.37,4.7,16.41c2.35,8.32,3.54,12.55,3.54,12.78h.3c.28-1,1.24-5.29,3-13l3.63-16.54L285,198l-12.07,43Z"/><path class="cls-54" d="M314.34,204.38c1.35-1.09,3.46-1.67,6.21-1.74a16.77,16.77,0,0,1,12.32,4.65,18,18,0,0,1,5.42,13c.17,6.54-1.93,11.77-6.18,15.57q-6.06,5.54-16.72,5.81-10.34.26-16.67-4.64c-4.66-3.68-7.13-9.21-7.32-16.6s3-16,9.64-25.48l9.41-13.54,19-.48L313.9,204Zm6.77,15.87c-.1-3.9-2.16-5.75-6.09-5.65s-5.78,2-5.68,5.95c.09,3.69,2,5.55,6,5.45S321.2,223.95,321.11,220.26Z"/></svg>