<svg xmlns="http://www.w3.org/2000/svg" xmlns:xlink="http://www.w3.org/1999/xlink" viewBox="0 0 582 488"><defs><style>.cls-1,.cls-14,.cls-26,.cls-27,.cls-28,.cls-29,.cls-31,.cls-32,.cls-33,.cls-4{fill:none;}.cls-2{isolation:isolate;}.cls-3{opacity:0.24;}.cls-4{stroke:#3d96d2;stroke-width:1.94px;}.cls-27,.cls-28,.cls-29,.cls-31,.cls-32,.cls-33,.cls-4{stroke-linecap:round;}.cls-26,.cls-27,.cls-28,.cls-29,.cls-31,.cls-32,.cls-33,.cls-4{stroke-linejoin:round;}.cls-5{fill:#3d96d2;}.cls-6{opacity:0.38;}.cls-7{fill:#2474a6;}.cls-8{fill:#2c84b6;}.cls-9{fill:#1d6b96;}.cls-10{fill:#73b944;}.cls-11{fill:#60a043;}.cls-12{fill:#142a3d;}.cls-13{fill:#122235;}.cls-14{stroke:#122235;stroke-miterlimit:10;stroke-width:1.38px;}.cls-15{fill:#e34c3a;}.cls-16{fill:#d53d2f;}.cls-17{fill:#f06256;}.cls-18{fill:#eea220;}.cls-19{fill:#0f1d2c;}.cls-20{fill:#f7bd30;}.cls-21{fill:#fff;}.cls-22{fill:#cae0e9;}.cls-23{fill:#ebeeef;}.cls-24{fill:#adced6;}.cls-25{fill:#f7ac32;}.cls-26{stroke:#f7f8f9;stroke-width:3.21px;}.cls-27,.cls-28,.cls-29,.cls-31,.cls-32,.cls-33{stroke:#5cacdf;stroke-width:1.2px;}.cls-28{stroke-dasharray:4.38 4.38;}.cls-29{stroke-dasharray:4.08 4.08;}.cls-30{fill:#5cacdf;}.cls-31{stroke-dasharray:4.44 4.44;}.cls-32{stroke-dasharray:4.81 4.81;}.cls-33{stroke-dasharray:4.19;}.cls-34{fill:#00a4d6;opacity:0.5;}.cls-34,.cls-58{mix-blend-mode:multiply;}.cls-35{fill:#734232;}.cls-36{clip-path:url(#clip-path);}.cls-37{fill:url(#linear-gradient);}.cls-38{clip-path:url(#clip-path-2);}.cls-39{fill:url(#linear-gradient-2);}.cls-40{clip-path:url(#clip-path-3);}.cls-41{fill:url(#linear-gradient-3);}.cls-42{clip-path:url(#clip-path-4);}.cls-43{fill:url(#linear-gradient-4);}.cls-44{fill:#3d59a7;}.cls-45{clip-path:url(#clip-path-5);}.cls-46{fill:url(#linear-gradient-5);}.cls-47{clip-path:url(#clip-path-6);}.cls-48{fill:url(#linear-gradient-6);}.cls-49{fill:#c6d0ea;}.cls-50{fill:#dee5f4;}.cls-51{clip-path:url(#clip-path-7);}.cls-52{fill:url(#linear-gradient-7);}.cls-53{fill:#e89723;}.cls-54{fill:#faa819;}.cls-55{fill:#4664ae;}.cls-56{clip-path:url(#clip-path-8);}.cls-57{fill:url(#linear-gradient-8);}.cls-58{opacity:0.3;}.cls-59{fill:#5fb0e7;}.cls-60{fill:#ffe1bd;}.cls-61{fill:#fccb95;}.cls-62{fill:#594a5f;}.cls-63{fill:#f9b253;}.cls-64{fill:#2c1e56;}.cls-65{fill:#39297f;}.cls-66{fill:#4c4199;}.cls-67{fill:#f29127;}.cls-68{fill:#00215b;}.cls-69{fill:#ce8113;}.cls-70{fill:#ffc74a;}</style><clipPath id="clip-path"><path class="cls-1" d="M77.71,367.94c-1.48.64-2,2.87-1.1,5s2.76,4.39,4.24,3.75,2-3.95,1.1-6.07a4.13,4.13,0,0,0-3.4-2.85,2.1,2.1,0,0,0-.84.17"/></clipPath><linearGradient id="linear-gradient" x1="900.98" y1="1177.32" x2="903" y2="1177.32" gradientTransform="matrix(13.57, 0, 0, -13.57, -12142.77, 16342.95)" gradientUnits="userSpaceOnUse"><stop offset="0" stop-color="#f9b087"/><stop offset="0.68" stop-color="#f9ae88"/><stop offset="0.92" stop-color="#f8a78b"/><stop offset="1" stop-color="#f7a38d"/></linearGradient><clipPath id="clip-path-2"><path class="cls-1" d="M105.18,370.62c-.87,2.12-.37,5.43,1.1,6.07s3.37-1.63,4.24-3.75.37-4.35-1.1-5a2.1,2.1,0,0,0-.84-.17,4.13,4.13,0,0,0-3.4,2.85"/></clipPath><linearGradient id="linear-gradient-2" x1="900.98" y1="1177.32" x2="903" y2="1177.32" gradientTransform="matrix(13.56, 0, 0, -13.56, -12142.55, 16342.69)" xlink:href="#linear-gradient"/><clipPath id="clip-path-3"><path class="cls-1" d="M88.27,392.94a2.24,2.24,0,0,1-1,1.67,1.69,1.69,0,0,1-.33.14l-11,3.52a9.28,9.28,0,0,0-2.82,1.43c-4.44,3.36-4.57,11.18-4.75,12.21a.13.13,0,0,0,.14.16H118.6a.14.14,0,0,0,.13-.16c-.18-1-.25-8.53-4.37-11.91a9.81,9.81,0,0,0-3.24-1.74l-10.91-3.51a1.73,1.73,0,0,1-.92-.68,2.79,2.79,0,0,1-.44-1.13,52.08,52.08,0,0,1-.34-6.31h0a27.37,27.37,0,0,1-5,1.61,27.12,27.12,0,0,1-5-1.61,55.08,55.08,0,0,1-.33,6.33"/></clipPath><linearGradient id="linear-gradient-3" x1="893.18" y1="1017.7" x2="895.2" y2="1017.7" gradientTransform="matrix(0, 8.2, 8.2, 0, -8255.85, -6939.18)" gradientUnits="userSpaceOnUse"><stop offset="0" stop-color="#f19972"/><stop offset="1" stop-color="#e75a4e"/></linearGradient><clipPath id="clip-path-4"><path class="cls-1" d="M93.56,349.72c-14.77-.6-15,13.89-14.77,18.66a57.07,57.07,0,0,0,2.2,11,8.54,8.54,0,0,0,2.21,3.8c3.86,3.78,10.36,5.07,10.36,5.07s6.51-1.29,10.36-5.07a8.6,8.6,0,0,0,2.21-3.8,57.24,57.24,0,0,0,2.19-11c.22-4.67,0-18.67-13.9-18.68l-.87,0"/></clipPath><linearGradient id="linear-gradient-4" x1="910.38" y1="1120.92" x2="912.4" y2="1120.92" gradientTransform="matrix(0, 18.23, 18.23, 0, -20345.03, -16251.62)" xlink:href="#linear-gradient"/><clipPath id="clip-path-5"><path class="cls-1" d="M117.86,437.53l-36,.2a3.31,3.31,0,0,0-3.22,2.9,3.35,3.35,0,0,0,2.79,3.8l35.64,5.13a6.16,6.16,0,0,0,.85.06,6,6,0,0,0,0-12.08h0"/></clipPath><linearGradient id="linear-gradient-5" x1="905.47" y1="1159.9" x2="907.49" y2="1159.9" gradientTransform="matrix(0, 15.49, 15.49, 0, -17863.03, -13592.82)" xlink:href="#linear-gradient"/><clipPath id="clip-path-6"><path class="cls-1" d="M104.14,438.43h0a.8.8,0,0,0,0,.11l0-.1m1.28-3.47-7.28,4.35L68.6,437.84a6.23,6.23,0,0,0-1.31.09,6,6,0,0,0-4.79,7,5.91,5.91,0,0,0,6.83,4.92l30.32-5.49.9,2.7a1.17,1.17,0,0,0,.18.34,1.12,1.12,0,0,0,1.89-.15l.23.7a1.08,1.08,0,0,0,.18.34,1.12,1.12,0,0,0,1.27.39,1.15,1.15,0,0,0,.74-.87,1.11,1.11,0,0,0,1.11.22,1.18,1.18,0,0,0,.71-1.49,1.2,1.2,0,0,0,.18.34,1.12,1.12,0,0,0,1.27.39,1.18,1.18,0,0,0,.71-1.49l-2.67-8a1.12,1.12,0,0,0-.31-.47l.53-.31a1.19,1.19,0,0,0,.41-1.6,1.13,1.13,0,0,0-1-.58,1.11,1.11,0,0,0-.57.16"/></clipPath><linearGradient id="linear-gradient-6" x1="1031.87" y1="1102.67" x2="1033.89" y2="1102.67" gradientTransform="matrix(0, -17.1, -17.1, 0, 18939.48, 18104.44)" xlink:href="#linear-gradient"/><clipPath id="clip-path-7"><polygon class="cls-1" points="126.81 474.59 142.21 474.52 142.75 468.77 127.61 466.05 126.81 474.59"/></clipPath><linearGradient id="linear-gradient-7" x1="1083.38" y1="1367.37" x2="1085.4" y2="1367.37" gradientTransform="matrix(4.24, 0, 0, -4.24, -4469.08, 6274.68)" xlink:href="#linear-gradient"/><clipPath id="clip-path-8"><polygon class="cls-1" points="51.5 472.44 52.82 478.06 68.08 475.92 66.12 467.58 51.5 472.44"/></clipPath><linearGradient id="linear-gradient-8" x1="1156.41" y1="937.07" x2="1158.43" y2="937.07" gradientTransform="matrix(0, -4.24, 4.24, 0, -3913.16, 5380.69)" xlink:href="#linear-gradient"/></defs><title>picture</title><g class="cls-2"><g id="Layer_1" data-name="Layer 1"><g class="cls-3"><polygon class="cls-4" points="50.68 293.82 109.45 412.86 251.09 488.2 388.21 462.58 487.67 369.15 511.78 221.49 451.51 91.9 320.41 25.6 165.2 51.22 68.76 174.78 50.68 293.82"/><polyline class="cls-4" points="150.05 369.15 50.68 293.82 109.45 303.95 487.67 369.15 400.89 388.94"/><polyline class="cls-4" points="182.96 180.95 196.67 318.98 451.51 91.9 446.03 209.12"/><polyline class="cls-4" points="137.57 256.9 68.76 174.78 341.93 189.54 165.2 51.22 244.01 184.25 263.24 127.95"/><polyline class="cls-4" points="109.45 412.86 196.67 318.98 223.88 403.59 251.09 488.2 328.01 341.63 323.04 403.59 317.24 475.85"/><polygon class="cls-4" points="388.21 462.58 360.71 347.27 321.09 427.77 388.21 462.58"/><polyline class="cls-4" points="109.45 303.95 182.96 180.95 276.24 248.08"/><line class="cls-4" x1="50.68" y1="293.82" x2="137.57" y2="256.9"/><polygon class="cls-4" points="511.78 221.49 440.88 361.09 341.93 189.54 511.78 221.49"/><line class="cls-4" x1="360.71" y1="347.27" x2="432.12" y2="421.34"/><line class="cls-4" x1="396.41" y1="284.01" x2="511.78" y2="221.49"/><polyline class="cls-4" points="458.11 250.57 341.93 189.54 300.39 284.01"/><line class="cls-4" x1="481.91" y1="280.29" x2="396.41" y2="284.01"/><line class="cls-4" x1="403.03" y1="135.09" x2="446.03" y2="209.12"/><polyline class="cls-4" points="328.01 341.63 223.88 403.59 150.05 369.15 251.09 488.2"/><polyline class="cls-4" points="196.67 318.98 380.78 256.9 360.71 348.06"/><polyline class="cls-4" points="263.24 35.03 263.24 127.95 380.78 154.06 355.63 100.54 320.41 25.6 263.24 127.95"/><line class="cls-4" x1="451.51" y1="91.9" x2="351.57" y2="91.9"/><polyline class="cls-4" points="68.76 174.78 188.08 89.83 182.96 180.95"/><line class="cls-4" x1="300.39" y1="284.01" x2="360.71" y2="348.06"/><line class="cls-4" x1="223.88" y1="403.59" x2="290.92" y2="412.31"/><line class="cls-4" x1="182.96" y1="180.95" x2="145.31" y2="120.28"/><circle class="cls-5" cx="109.45" cy="412.31" r="6.43"/><circle class="cls-5" cx="251.09" cy="488.2" r="6.43"/><circle class="cls-5" cx="150.05" cy="368.81" r="6.42"/><circle class="cls-5" cx="109.45" cy="303.95" r="6.43"/><circle class="cls-5" cx="224.5" cy="403.59" r="6.43"/><circle class="cls-5" cx="290.92" cy="412.31" r="6.43"/><path class="cls-5" d="M334.44,341.63a6.42,6.42,0,1,0-6.42,6.42A6.42,6.42,0,0,0,334.44,341.63Z"/><circle class="cls-5" cx="196.67" cy="318.98" r="6.42"/><circle class="cls-5" cx="50.68" cy="293.82" r="6.43"/><circle class="cls-5" cx="68.76" cy="174.78" r="6.43"/><circle class="cls-5" cx="137.57" cy="256.9" r="6.43"/><circle class="cls-5" cx="182.96" cy="180.95" r="6.43"/><circle class="cls-5" cx="145.31" cy="119.45" r="6.43"/><circle class="cls-5" cx="276.24" cy="248.88" r="6.43"/><circle class="cls-5" cx="341.93" cy="189.54" r="6.42"/><circle class="cls-5" cx="380.78" cy="256.9" r="6.42"/><path class="cls-5" d="M402.84,284a6.42,6.42,0,1,0-6.43,6.42A6.43,6.43,0,0,0,402.84,284Z"/><circle class="cls-5" cx="481.24" cy="280.29" r="6.43"/><circle class="cls-5" cx="511.78" cy="221.49" r="6.43"/><circle class="cls-5" cx="458.11" cy="250.47" r="6.43"/><circle class="cls-5" cx="446.03" cy="209.12" r="6.42"/><circle class="cls-5" cx="451.51" cy="91.9" r="6.43"/><circle class="cls-5" cx="403.03" cy="135.09" r="6.42"/><circle class="cls-5" cx="380.78" cy="154.06" r="6.42"/><circle class="cls-5" cx="242.93" cy="184.43" r="6.43"/><circle class="cls-5" cx="188.08" cy="89.83" r="6.43"/><circle class="cls-5" cx="262.75" cy="125.88" r="6.43"/><circle class="cls-5" cx="167.38" cy="51.21" r="6.43"/><circle class="cls-5" cx="263.24" cy="35.03" r="6.43"/><circle class="cls-5" cx="320.41" cy="25.6" r="6.43"/><circle class="cls-5" cx="351.57" cy="91.9" r="6.43"/><path class="cls-5" d="M306.81,284a6.43,6.43,0,1,0-6.43,6.42A6.43,6.43,0,0,0,306.81,284Z"/><circle class="cls-5" cx="321.09" cy="427.77" r="6.43"/><circle class="cls-5" cx="316.61" cy="475.35" r="6.43"/><circle class="cls-5" cx="388.21" cy="462.58" r="6.43"/><circle class="cls-5" cx="432.12" cy="421.34" r="6.43"/><circle class="cls-5" cx="487.67" cy="368.81" r="6.43"/><circle class="cls-5" cx="439.16" cy="361.09" r="6.43"/><circle class="cls-5" cx="360.71" cy="348.06" r="6.42"/><circle class="cls-5" cx="109.45" cy="412.31" r="25.12"/><circle class="cls-5" cx="320.41" cy="427.77" r="25.12"/><circle class="cls-5" cx="320.41" cy="25.6" r="25.12"/><circle class="cls-5" cx="487.67" cy="368.81" r="25.12"/><circle class="cls-5" cx="242.93" cy="184.43" r="25.12"/><circle class="cls-5" cx="380.78" cy="256.9" r="25.11"/><circle class="cls-5" cx="451.5" cy="91.9" r="25.11"/><circle class="cls-5" cx="68.76" cy="172.11" r="25.12"/><circle class="cls-5" cx="196.66" cy="318.98" r="25.11"/></g><g class="cls-6"><path class="cls-7" d="M121.59,248.15A159.35,159.35,0,1,0,280.33,88.21,159.33,159.33,0,0,0,121.59,248.15Z"/><path class="cls-8" d="M277.63,103.09c-67.59.26-125.37,41.16-149.48,99.06A159.37,159.37,0,0,1,440.27,247c0,2.5,0,5-.15,7.47C435.88,169.89,364.64,102.76,277.63,103.09Z"/><path class="cls-9" d="M171,132.21A159.36,159.36,0,0,0,421.38,322.87,159.36,159.36,0,1,1,171,132.21Z"/><path class="cls-10" d="M121.69,242c0-1.09.06-2.18.14-3.26,0-.54.06-1.09.09-1.61.07-1.09.15-2.16.25-3.24,0-.48.07-1,.12-1.44.14-1.49.29-3,.48-4.49a.39.39,0,0,0,0-.09c.18-1.52.41-3,.64-4.53.06-.47.14-.93.22-1.39.17-1.06.34-2.12.54-3.16.09-.52.18-1,.27-1.55.21-1,.42-2.1.65-3.12.08-.47.18-.93.29-1.38.32-1.42.65-2.85,1-4.27a.26.26,0,0,0,0-.12c.37-1.46.76-2.92,1.18-4.36.13-.42.25-.84.37-1.26.31-1,.61-2.06.94-3.08.15-.48.3-1,.47-1.44.32-1,.67-2,1-3,.14-.41.28-.85.43-1.26.49-1.37,1-2.73,1.52-4.09l0-.08c.53-1.4,1.12-2.78,1.68-4.17.17-.37.33-.74.49-1.11.43-1,.88-2,1.33-3,.21-.43.41-.86.61-1.29.44-1,.91-1.93,1.39-2.9l.56-1.14c.66-1.31,1.32-2.6,2-3.89l0,0c.71-1.32,1.44-2.62,2.18-3.92.19-.33.39-.64.57-1,.57-1,1.14-1.93,1.73-2.88.23-.39.47-.78.71-1.16.57-.93,1.16-1.85,1.76-2.76l.66-1c1.65-2.48,3.35-4.91,5.12-7.28.21-.28.42-.54.62-.81.69-.9,1.39-1.83,2.11-2.72.26-.33.52-.66.79-1,.69-.87,1.41-1.74,2.12-2.58.24-.28.47-.58.71-.86,1.94-2.27,3.93-4.48,6-6.63.2-.23.42-.45.64-.67.81-.85,1.64-1.68,2.46-2.51l.89-.85c.8-.79,1.63-1.56,2.44-2.35.27-.25.53-.49.79-.74,2.2-2,4.44-4,6.75-5.9.22-.18.44-.35.66-.55l2.81-2.24,1-.73c.89-.69,1.81-1.38,2.71-2l.89-.65c1.19-.86,2.38-1.7,3.57-2.54h0s-1.43,32.29,7,34,26.08-2,31.55,16.27,14.55,9.78,23.82,20.73,24.51,22.7,5.18,45.57-32.91,3.5-38.8,11.12,6,23.18-8.3,40.34-27.64,8.51-35.27,22.59-15.23,15-8.41,32.67c4.41,11.47,8.54,21.16,9.74,29.78a158.69,158.69,0,0,1-12.19-11.53.11.11,0,0,1,0-.07c-.92-1-1.84-1.92-2.72-2.91l-.32-.36c-.8-.9-1.6-1.8-2.38-2.71l-.45-.51c-.73-.87-1.47-1.75-2.19-2.63-.15-.2-.31-.39-.47-.6-.71-.88-1.4-1.75-2.09-2.65-.17-.2-.32-.39-.47-.6-.7-.91-1.39-1.84-2.07-2.76a6.43,6.43,0,0,0-.39-.52c-.72-1-1.43-2-2.13-3l-.23-.32a162.5,162.5,0,0,1-8.7-14.2c-.11-.21-.24-.42-.34-.65-.53-1-1.06-2-1.55-3-.16-.32-.33-.63-.49-1-.44-.89-.89-1.79-1.32-2.71-.18-.37-.35-.74-.54-1.11l-1.19-2.62c-.18-.4-.34-.79-.53-1.19-.38-.87-.76-1.72-1.11-2.61-.17-.41-.33-.82-.51-1.23-.34-.87-.7-1.75-1-2.65-.17-.4-.33-.8-.49-1.21-.34-.92-.67-1.85-1-2.78-.14-.38-.27-.74-.41-1.11-.34-1.05-.7-2.11-1-3.16-.09-.26-.18-.52-.26-.77q-1.26-4-2.32-8.07c-.09-.34-.17-.66-.24-1-.26-1-.5-2-.76-3-.1-.47-.2-.94-.31-1.43-.2-.89-.4-1.76-.57-2.66-.12-.52-.22-1.06-.32-1.59-.17-.84-.33-1.69-.49-2.51-.09-.56-.18-1.14-.28-1.72-.13-.81-.26-1.63-.38-2.45-.1-.57-.16-1.16-.25-1.75-.12-.83-.22-1.64-.32-2.47-.07-.6-.14-1.18-.21-1.77-.09-.83-.18-1.68-.26-2.52-.06-.58-.11-1.15-.16-1.73-.08-.89-.13-1.74-.19-2.61,0-.56-.08-1.11-.11-1.67-.06-1-.1-1.93-.14-2.9,0-.47,0-.94-.05-1.41-.05-1.44-.07-2.88-.08-4.34s0-3.12,0-4.68C121.65,243,121.68,242.5,121.69,242Z"/><path class="cls-11" d="M121.66,242.65c0-.26,0-.51,0-.76,0-1.06.07-2.11.13-3.15,0-.18,0-.32,0-.49,0-.45.06-.88.09-1.33.07-1,.14-2,.22-3,0-.57.1-1.15.15-1.72.11-1.05.21-2.11.35-3.16.06-.5.11-1,.16-1.47.19-1.41.37-2.81.6-4.21.06-.47.14-.93.22-1.39.17-1.06.34-2.12.54-3.16.06-.38.13-.73.2-1.1s.11-.55.15-.82c.19-.92.37-1.84.57-2.76,0-.13.05-.27.08-.4.12-.51.22-1,.33-1.52.23-.93.45-1.86.68-2.79.13-.56.26-1.13.41-1.7.25-1,.53-2,.8-2.94.1-.39.21-.76.32-1.13l.26-.92c.31-1,.61-2.06.94-3.08l.44-1.37a2,2,0,0,1,.08-.22c.31-1,.63-1.9,1-2.86.07-.24.16-.46.25-.7.15-.44.31-.88.46-1.34q.47-1.29,1-2.56c.22-.59.46-1.19.68-1.77.34-.81.66-1.64,1-2.46.22-.53.44-1.07.68-1.6,0-.1.07-.2.11-.29.37-.81.72-1.62,1.08-2.43.14-.29.27-.6.41-.91l.45-1c.44-1,.91-1.93,1.39-2.9.16-.3.3-.61.46-.92s.34-.7.53-1.05c.43-.85.88-1.7,1.32-2.55l.94-1.72c.39-.72.79-1.43,1.19-2.14l1-1.78c.42-.7.83-1.4,1.25-2.09s.7-1.16,1.06-1.72c.44-.72.9-1.43,1.35-2.14.32-.46.62-.95.92-1.42a1,1,0,0,0,.14-.2c.8-1.19,1.6-2.39,2.44-3.55.19-.29.41-.58.62-.86.61-.85,1.22-1.71,1.83-2.54.41-.56.84-1.12,1.27-1.68s.92-1.2,1.39-1.78.89-1.11,1.32-1.68,1-1.2,1.48-1.79.87-1.07,1.34-1.59c.72-.85,1.48-1.71,2.22-2.55l.59-.67c.95-1,1.91-2.08,2.88-3.09.45-.47.92-.94,1.37-1.41s1.13-1.17,1.7-1.74,1-1,1.52-1.46l.92-.89A159.44,159.44,0,0,0,181.83,300.2a17.3,17.3,0,0,0-5.49,6.27c-7.63,14.09-15.23,15-8.41,32.67,4.41,11.47,8.54,21.16,9.74,29.78a160.79,160.79,0,0,1-12.2-11.52s0,0,0,0,0,0,0,0c-.92-1-1.84-1.92-2.72-2.91-.11-.12-.21-.24-.32-.36-.8-.9-1.6-1.8-2.38-2.71l-.45-.51c-.72-.87-1.45-1.74-2.17-2.62l-.5-.62c-.71-.88-1.39-1.75-2.08-2.63l-.2-.27c-.09-.11-.18-.22-.27-.35-.7-.91-1.39-1.84-2.07-2.76-.11-.16-.22-.32-.34-.46l0-.07c-.73-1-1.44-2-2.14-3l-.23-.33a160.39,160.39,0,0,1-8.69-14.19l-.17-.33c-.07-.11-.12-.24-.2-.36-.52-1-1-1.95-1.52-2.92-.16-.32-.33-.63-.49-1-.44-.89-.89-1.79-1.32-2.71L137,316l-.42-.89c-.39-.86-.8-1.73-1.19-2.61-.18-.41-.37-.81-.53-1.21-.38-.86-.75-1.71-1.11-2.58-.18-.42-.34-.84-.51-1.26-.35-.86-.7-1.74-1-2.64-.12-.27-.22-.56-.32-.83-.06-.12-.12-.25-.17-.38-.34-.92-.67-1.85-1-2.77-.13-.38-.27-.76-.41-1.12-.34-1.05-.7-2.11-1-3.16-.09-.26-.18-.52-.26-.77q-1.26-4-2.32-8.07c-.09-.34-.17-.66-.24-1-.26-1-.5-2-.76-3-.05-.22-.1-.45-.13-.68s-.13-.51-.19-.76c-.19-.87-.38-1.76-.56-2.63-.11-.53-.21-1.08-.3-1.62-.18-.83-.34-1.68-.49-2.5-.09-.56-.18-1.14-.28-1.72-.14-.81-.26-1.62-.39-2.44-.09-.59-.16-1.18-.24-1.76-.12-.83-.22-1.64-.32-2.47-.07-.6-.14-1.18-.21-1.77-.09-.83-.17-1.66-.26-2.5,0-.51-.09-1-.14-1.54a1.46,1.46,0,0,0,0-.21c-.07-.85-.13-1.73-.19-2.58,0-.33-.06-.65-.07-1s0-.49,0-.73c-.06-1-.1-1.93-.14-2.89,0-.47-.05-.95-.07-1.44,0-1.43-.06-2.87-.07-4.32s0-3.12,0-4.68C121.64,243.19,121.67,242.93,121.66,242.65Z"/><path class="cls-10" d="M440.27,247A158.67,158.67,0,0,1,418,328.9c11-38,8.89-62.51-2.13-72.6s-19.33,23.71-38,5.75,12.56-26.76-10.31-46.95-34.62,3.51-46.5-16,19.28-35.43,44.59-42c13.71-3.55,20.69-15.58,24.21-25.86A158.82,158.82,0,0,1,440.27,247Z"/><path class="cls-10" d="M334.79,256.61c-6.85-25.31-21.22-32-38-14.62s-23.64.39-37.91,22.45-17.63,28,.13,36.35,41.41,6.61,35.58,28.58-7.43,47.31,17,26.11,53.1-26.78,42-57.77S334.79,256.61,334.79,256.61Z"/><path class="cls-10" d="M355.27,355.45A57.4,57.4,0,0,0,369.48,337c5.94-12,18.71-15.67,13.82-.55s-20.57,34.09-33.09,35.91S343.43,364.12,355.27,355.45Z"/><path class="cls-10" d="M280.33,88.21a159.32,159.32,0,0,1,51.74,8.39h0c-9.15,12.32-14.19,25.82-31.33,22.52s-16-.44-33,3.26-8.76-13-21.54-19.94A84.87,84.87,0,0,1,234.8,95,159.6,159.6,0,0,1,280.33,88.21Z"/><path class="cls-11" d="M234.81,387c8.43.8,12.7,7.54,19.46-5.15s17.62-14.42,27.21,10.29c2.76,7.11,5,11.65,6.92,14.55-2.28.11-4.55.19-6.86.18a159.11,159.11,0,0,1-57-10.28C227.15,391.36,230,386.55,234.81,387Z"/></g><path class="cls-12" d="M354.22,402.19V390.93H347a21,21,0,0,0-2-4.75l5.13-5.13-8-8L337,378.22a21,21,0,0,0-4.75-2V369H321v7.27a21.07,21.07,0,0,0-4.75,2l-5.14-5.14-8,8,5.13,5.13a20.85,20.85,0,0,0-2,4.75h-7.25v11.26h7.23a20.9,20.9,0,0,0,2,4.77l-5.11,5.11,8,8,5.1-5.1a21.14,21.14,0,0,0,4.78,2v7.22h11.26v-7.22a21.13,21.13,0,0,0,4.78-2l5.1,5.1,8-8L345,407a21,21,0,0,0,2-4.77Zm-27.56,4.55a10.16,10.16,0,1,1,10.16-10.16A10.16,10.16,0,0,1,326.65,406.74Z"/><path class="cls-12" d="M375.33,434.74v-6.62h-4.26a12.31,12.31,0,0,0-1.16-2.79l3-3-4.68-4.68-3,3a12.32,12.32,0,0,0-2.79-1.15v-4.27h-6.62v4.27a12.35,12.35,0,0,0-2.79,1.15l-3-3-4.68,4.68,3,3a12.36,12.36,0,0,0-1.16,2.79h-4.26v6.62h4.25a12.25,12.25,0,0,0,1.16,2.8l-3,3,4.68,4.68,3-3a12.31,12.31,0,0,0,2.81,1.16v4.24h6.62v-4.24a12.3,12.3,0,0,0,2.81-1.16l3,3,4.68-4.68-3-3a12.26,12.26,0,0,0,1.16-2.8Zm-16.2,2.18a5.47,5.47,0,1,1,5.47-5.47A5.47,5.47,0,0,1,359.13,436.92Z"/><path class="cls-12" d="M232.69,413.64v-12h-7.76a22.31,22.31,0,0,0-2.11-5.09l5.49-5.49-8.52-8.52-5.5,5.5a22.43,22.43,0,0,0-5.08-2.1v-7.78h-12v7.78a22.42,22.42,0,0,0-5.08,2.1l-5.5-5.5L178.07,391l5.49,5.49a22.4,22.4,0,0,0-2.11,5.09h-7.76v12h7.74a22.35,22.35,0,0,0,2.11,5.1l-5.47,5.47,8.52,8.52,5.46-5.46a22.37,22.37,0,0,0,5.11,2.12v7.72h12v-7.72a22.36,22.36,0,0,0,5.11-2.12l5.46,5.46,8.52-8.52-5.47-5.47a22.49,22.49,0,0,0,2.11-5.1Zm-29.5,6.71a12.7,12.7,0,1,1,12.7-12.7A12.7,12.7,0,0,1,203.19,420.34Z"/><rect class="cls-13" x="68.5" y="232.29" width="140.43" height="39.2" rx="4.13" ry="4.13"/><path class="cls-12" d="M205.32,265.05a3.73,3.73,0,0,1-3.92,3.51H76a3.73,3.73,0,0,1-3.92-3.51V238.73A3.73,3.73,0,0,1,76,235.22H201.4a3.73,3.73,0,0,1,3.92,3.51Z"/><line class="cls-14" x1="72.11" y1="251.89" x2="205.32" y2="251.89"/><circle class="cls-15" cx="90.49" cy="251.89" r="9.29"/><circle class="cls-16" cx="90.49" cy="251.89" r="7.46"/><circle class="cls-17" cx="93.13" cy="245.93" r="1.95"/><circle class="cls-18" cx="110.7" cy="251.89" r="2.75"/><circle class="cls-18" cx="119.87" cy="251.89" r="2.75"/><circle class="cls-18" cx="129.03" cy="251.89" r="2.75"/><path class="cls-19" d="M145.15,240.69a.63.63,0,0,1,.59.66v21.09a.63.63,0,0,1-.59.66h-4.43a.63.63,0,0,1-.59-.66V241.35a.63.63,0,0,1,.59-.66Z"/><path class="cls-19" d="M155.25,240.69a.63.63,0,0,1,.59.66v21.09a.63.63,0,0,1-.59.66h-4.43a.63.63,0,0,1-.59-.66V241.35a.63.63,0,0,1,.59-.66Z"/><path class="cls-19" d="M165.35,240.69a.63.63,0,0,1,.59.66v21.09a.63.63,0,0,1-.59.66h-4.43a.63.63,0,0,1-.59-.66V241.35a.63.63,0,0,1,.59-.66Z"/><path class="cls-19" d="M175.44,240.69a.63.63,0,0,1,.59.66v21.09a.63.63,0,0,1-.59.66H171a.63.63,0,0,1-.59-.66V241.35a.63.63,0,0,1,.59-.66Z"/><path class="cls-19" d="M185.54,240.69a.63.63,0,0,1,.59.66v21.09a.63.63,0,0,1-.59.66h-4.43a.63.63,0,0,1-.59-.66V241.35a.63.63,0,0,1,.59-.66Z"/><path class="cls-19" d="M195.63,240.69a.63.63,0,0,1,.59.66v21.09a.63.63,0,0,1-.59.66h-4.43a.63.63,0,0,1-.59-.66V241.35a.63.63,0,0,1,.59-.66Z"/><rect class="cls-13" x="68.5" y="144.94" width="140.43" height="39.2" rx="4.13" ry="4.13"/><path class="cls-12" d="M205.32,177.7a3.73,3.73,0,0,1-3.92,3.51H76a3.73,3.73,0,0,1-3.92-3.51V151.38A3.73,3.73,0,0,1,76,147.87H201.4a3.73,3.73,0,0,1,3.92,3.51Z"/><line class="cls-14" x1="72.11" y1="164.54" x2="205.32" y2="164.54"/><circle class="cls-15" cx="90.49" cy="164.54" r="9.29"/><circle class="cls-16" cx="90.49" cy="164.54" r="7.46"/><circle class="cls-17" cx="93.13" cy="158.58" r="1.95"/><circle class="cls-18" cx="110.7" cy="164.54" r="2.75"/><circle class="cls-18" cx="119.87" cy="164.54" r="2.75"/><circle class="cls-18" cx="129.03" cy="164.54" r="2.75"/><path class="cls-19" d="M145.15,153.34a.63.63,0,0,1,.59.66v21.09a.63.63,0,0,1-.59.66h-4.43a.63.63,0,0,1-.59-.66V154a.63.63,0,0,1,.59-.66Z"/><path class="cls-19" d="M155.25,153.34a.63.63,0,0,1,.59.66v21.09a.63.63,0,0,1-.59.66h-4.43a.63.63,0,0,1-.59-.66V154a.63.63,0,0,1,.59-.66Z"/><path class="cls-19" d="M165.35,153.34a.63.63,0,0,1,.59.66v21.09a.63.63,0,0,1-.59.66h-4.43a.63.63,0,0,1-.59-.66V154a.63.63,0,0,1,.59-.66Z"/><path class="cls-19" d="M175.44,153.34a.63.63,0,0,1,.59.66v21.09a.63.63,0,0,1-.59.66H171a.63.63,0,0,1-.59-.66V154a.63.63,0,0,1,.59-.66Z"/><path class="cls-19" d="M185.54,153.34a.63.63,0,0,1,.59.66v21.09a.63.63,0,0,1-.59.66h-4.43a.63.63,0,0,1-.59-.66V154a.63.63,0,0,1,.59-.66Z"/><path class="cls-19" d="M195.63,153.34a.63.63,0,0,1,.59.66v21.09a.63.63,0,0,1-.59.66h-4.43a.63.63,0,0,1-.59-.66V154a.63.63,0,0,1,.59-.66Z"/><rect class="cls-12" x="83.47" y="271.49" width="14.88" height="4.61"/><rect class="cls-12" x="179.08" y="271.49" width="14.88" height="4.61"/><rect class="cls-13" x="68.5" y="275.83" width="140.43" height="39.2" rx="4.13" ry="4.13"/><path class="cls-12" d="M205.32,308.59a3.73,3.73,0,0,1-3.92,3.51H76a3.73,3.73,0,0,1-3.92-3.51V282.27A3.73,3.73,0,0,1,76,278.75H201.4a3.73,3.73,0,0,1,3.92,3.52Z"/><line class="cls-14" x1="72.11" y1="295.43" x2="205.32" y2="295.43"/><circle class="cls-15" cx="186.52" cy="295.43" r="9.29"/><circle class="cls-16" cx="186.52" cy="295.43" r="7.46"/><circle class="cls-17" cx="189.16" cy="289.47" r="1.95"/><circle class="cls-18" cx="85.92" cy="288.89" r="2.75"/><circle class="cls-18" cx="95.08" cy="288.89" r="2.75"/><circle class="cls-18" cx="104.25" cy="288.89" r="2.75"/><circle class="cls-18" cx="85.92" cy="301.55" r="2.75"/><circle class="cls-18" cx="95.08" cy="301.55" r="2.75"/><circle class="cls-18" cx="104.25" cy="301.55" r="2.75"/><path class="cls-19" d="M128,284.22a.63.63,0,0,1,.59.66V306a.63.63,0,0,1-.59.66H123.6A.63.63,0,0,1,123,306V284.88a.63.63,0,0,1,.59-.66Z"/><path class="cls-19" d="M138.12,284.22a.63.63,0,0,1,.59.66V306a.63.63,0,0,1-.59.66h-4.43a.63.63,0,0,1-.59-.66V284.88a.63.63,0,0,1,.59-.66Z"/><path class="cls-19" d="M148.22,284.22a.63.63,0,0,1,.59.66V306a.63.63,0,0,1-.59.66h-4.43a.63.63,0,0,1-.59-.66V284.88a.63.63,0,0,1,.59-.66Z"/><path class="cls-19" d="M158.31,284.22a.63.63,0,0,1,.59.66V306a.63.63,0,0,1-.59.66h-4.43a.63.63,0,0,1-.59-.66V284.88a.63.63,0,0,1,.59-.66Z"/><rect class="cls-12" x="83.47" y="315.03" width="14.88" height="4.61"/><rect class="cls-12" x="179.08" y="315.03" width="14.88" height="4.61"/><rect class="cls-13" x="68.5" y="319.37" width="140.43" height="39.2" rx="4.13" ry="4.13"/><path class="cls-12" d="M205.32,352.13a3.73,3.73,0,0,1-3.92,3.51H76a3.73,3.73,0,0,1-3.92-3.51V325.81A3.73,3.73,0,0,1,76,322.29H201.4a3.73,3.73,0,0,1,3.92,3.51Z"/><line class="cls-14" x1="72.11" y1="338.97" x2="205.32" y2="338.97"/><circle class="cls-15" cx="131.78" cy="338.97" r="9.29"/><circle class="cls-16" cx="131.78" cy="338.97" r="7.46"/><circle class="cls-17" cx="134.42" cy="333.01" r="1.95"/><circle class="cls-18" cx="85.17" cy="338.97" r="2.75"/><circle class="cls-18" cx="94.34" cy="338.97" r="2.75"/><circle class="cls-18" cx="103.5" cy="338.97" r="2.75"/><circle class="cls-18" cx="112.67" cy="338.97" r="2.75"/><path class="cls-19" d="M155.25,327.76a.63.63,0,0,1,.59.66v21.09a.63.63,0,0,1-.59.66h-4.43a.63.63,0,0,1-.59-.66V328.42a.63.63,0,0,1,.59-.66Z"/><path class="cls-19" d="M165.35,327.76a.63.63,0,0,1,.59.66v21.09a.63.63,0,0,1-.59.66h-4.43a.63.63,0,0,1-.59-.66V328.42a.63.63,0,0,1,.59-.66Z"/><path class="cls-19" d="M175.44,327.76a.63.63,0,0,1,.59.66v21.09a.63.63,0,0,1-.59.66H171a.63.63,0,0,1-.59-.66V328.42a.63.63,0,0,1,.59-.66Z"/><path class="cls-19" d="M185.54,327.76a.63.63,0,0,1,.59.66v21.09a.63.63,0,0,1-.59.66h-4.43a.63.63,0,0,1-.59-.66V328.42a.63.63,0,0,1,.59-.66Z"/><path class="cls-19" d="M195.63,327.76a.63.63,0,0,1,.59.66v21.09a.63.63,0,0,1-.59.66h-4.43a.63.63,0,0,1-.59-.66V328.42a.63.63,0,0,1,.59-.66Z"/><rect class="cls-12" x="83.47" y="358.57" width="14.88" height="4.61"/><rect class="cls-12" x="179.08" y="358.57" width="14.88" height="4.61"/><rect class="cls-12" x="83.47" y="402.11" width="14.88" height="4.61"/><rect class="cls-12" x="179.08" y="402.11" width="14.88" height="4.61"/><rect class="cls-13" x="68.5" y="362.91" width="140.43" height="39.2" rx="4.13" ry="4.13"/><path class="cls-12" d="M205.32,395.67a3.73,3.73,0,0,1-3.92,3.51H76a3.73,3.73,0,0,1-3.92-3.51V369.35A3.73,3.73,0,0,1,76,365.83H201.4a3.73,3.73,0,0,1,3.92,3.51Z"/><line class="cls-14" x1="72.11" y1="382.51" x2="205.32" y2="382.51"/><circle class="cls-15" cx="141.76" cy="382.05" r="9.29"/><circle class="cls-16" cx="141.76" cy="382.05" r="7.46"/><circle class="cls-17" cx="144.4" cy="376.09" r="1.95"/><circle class="cls-18" cx="112.21" cy="375.51" r="2.75"/><circle class="cls-18" cx="121.38" cy="375.51" r="2.75"/><circle class="cls-18" cx="112.21" cy="388.17" r="2.75"/><circle class="cls-18" cx="121.38" cy="388.17" r="2.75"/><circle class="cls-18" cx="161.36" cy="375.51" r="2.75"/><circle class="cls-18" cx="170.52" cy="375.51" r="2.75"/><circle class="cls-18" cx="161.36" cy="388.17" r="2.75"/><circle class="cls-18" cx="170.52" cy="388.17" r="2.75"/><path class="cls-19" d="M88.57,370.85a.63.63,0,0,1,.59.66V392.6a.63.63,0,0,1-.59.66H84.14a.63.63,0,0,1-.59-.66V371.51a.63.63,0,0,1,.59-.66Z"/><path class="cls-19" d="M98.66,370.85a.63.63,0,0,1,.59.66V392.6a.63.63,0,0,1-.59.66H94.23a.63.63,0,0,1-.59-.66V371.51a.63.63,0,0,1,.59-.66Z"/><path class="cls-19" d="M186.33,370.85a.63.63,0,0,1,.59.66V392.6a.63.63,0,0,1-.59.66h-4.43a.63.63,0,0,1-.59-.66V371.51a.63.63,0,0,1,.59-.66Z"/><path class="cls-19" d="M196.43,370.85a.63.63,0,0,1,.59.66V392.6a.63.63,0,0,1-.59.66H192a.63.63,0,0,1-.59-.66V371.51a.63.63,0,0,1,.59-.66Z"/><rect class="cls-12" x="83.47" y="184.14" width="14.88" height="4.61"/><rect class="cls-12" x="179.08" y="184.14" width="14.88" height="4.61"/><rect class="cls-12" x="83.47" y="227.68" width="14.88" height="4.61"/><rect class="cls-12" x="179.08" y="227.68" width="14.88" height="4.61"/><rect class="cls-13" x="68.5" y="188.48" width="140.43" height="39.2" rx="4.13" ry="4.13"/><path class="cls-12" d="M205.32,221.24a3.73,3.73,0,0,1-3.92,3.51H76a3.73,3.73,0,0,1-3.92-3.51V194.92A3.73,3.73,0,0,1,76,191.41H201.4a3.73,3.73,0,0,1,3.92,3.52Z"/><line class="cls-14" x1="72.11" y1="208.08" x2="205.32" y2="208.08"/><circle class="cls-15" cx="141.76" cy="207.63" r="9.29"/><circle class="cls-16" cx="141.76" cy="207.63" r="7.46"/><circle class="cls-17" cx="144.4" cy="201.67" r="1.95"/><circle class="cls-18" cx="112.21" cy="201.09" r="2.75"/><circle class="cls-18" cx="121.38" cy="201.09" r="2.75"/><circle class="cls-18" cx="112.21" cy="213.75" r="2.75"/><circle class="cls-18" cx="121.38" cy="213.75" r="2.75"/><circle class="cls-18" cx="161.36" cy="201.09" r="2.75"/><circle class="cls-18" cx="170.52" cy="201.09" r="2.75"/><circle class="cls-18" cx="161.36" cy="213.75" r="2.75"/><circle class="cls-18" cx="170.52" cy="213.75" r="2.75"/><path class="cls-19" d="M88.57,196.42a.63.63,0,0,1,.59.66v21.09a.63.63,0,0,1-.59.66H84.14a.63.63,0,0,1-.59-.66V197.08a.63.63,0,0,1,.59-.66Z"/><path class="cls-19" d="M98.66,196.42a.63.63,0,0,1,.59.66v21.09a.63.63,0,0,1-.59.66H94.23a.63.63,0,0,1-.59-.66V197.08a.63.63,0,0,1,.59-.66Z"/><path class="cls-19" d="M186.33,196.42a.63.63,0,0,1,.59.66v21.09a.63.63,0,0,1-.59.66h-4.43a.63.63,0,0,1-.59-.66V197.08a.63.63,0,0,1,.59-.66Z"/><path class="cls-19" d="M196.43,196.42a.63.63,0,0,1,.59.66v21.09a.63.63,0,0,1-.59.66H192a.63.63,0,0,1-.59-.66V197.08a.63.63,0,0,1,.59-.66Z"/><rect class="cls-13" x="355.5" y="275.83" width="140.43" height="39.2" rx="4.13" ry="4.13"/><path class="cls-12" d="M492.32,308.59a3.73,3.73,0,0,1-3.92,3.51H363a3.73,3.73,0,0,1-3.92-3.51V282.27a3.73,3.73,0,0,1,3.92-3.51H488.4a3.73,3.73,0,0,1,3.92,3.51Z"/><line class="cls-14" x1="359.12" y1="295.43" x2="492.32" y2="295.43"/><circle class="cls-15" cx="377.5" cy="295.43" r="9.29"/><circle class="cls-16" cx="377.5" cy="295.43" r="7.46"/><circle class="cls-17" cx="380.14" cy="289.47" r="1.95"/><circle class="cls-20" cx="397.71" cy="295.43" r="2.75"/><circle class="cls-20" cx="406.87" cy="295.43" r="2.75"/><circle class="cls-20" cx="416.04" cy="295.43" r="2.75"/><path class="cls-19" d="M432.16,284.22a.63.63,0,0,1,.59.66V306a.63.63,0,0,1-.59.66h-4.43a.63.63,0,0,1-.59-.66V284.88a.63.63,0,0,1,.59-.66Z"/><path class="cls-19" d="M442.26,284.22a.63.63,0,0,1,.59.66V306a.63.63,0,0,1-.59.66h-4.43a.63.63,0,0,1-.59-.66V284.88a.63.63,0,0,1,.59-.66Z"/><path class="cls-19" d="M452.35,284.22a.63.63,0,0,1,.59.66V306a.63.63,0,0,1-.59.66h-4.43a.63.63,0,0,1-.59-.66V284.88a.63.63,0,0,1,.59-.66Z"/><path class="cls-19" d="M462.45,284.22a.63.63,0,0,1,.59.66V306a.63.63,0,0,1-.59.66H458a.63.63,0,0,1-.59-.66V284.88a.63.63,0,0,1,.59-.66Z"/><path class="cls-19" d="M472.54,284.22a.63.63,0,0,1,.59.66V306a.63.63,0,0,1-.59.66h-4.43a.63.63,0,0,1-.59-.66V284.88a.63.63,0,0,1,.59-.66Z"/><path class="cls-19" d="M482.64,284.22a.63.63,0,0,1,.59.66V306a.63.63,0,0,1-.59.66h-4.43a.63.63,0,0,1-.59-.66V284.88a.63.63,0,0,1,.59-.66Z"/><rect class="cls-12" x="370.48" y="315.03" width="14.88" height="4.61"/><rect class="cls-12" x="466.09" y="315.03" width="14.88" height="4.61"/><rect class="cls-13" x="355.5" y="319.37" width="140.43" height="39.2" rx="4.13" ry="4.13"/><path class="cls-12" d="M492.32,352.13a3.73,3.73,0,0,1-3.92,3.51H363a3.73,3.73,0,0,1-3.92-3.51V325.81a3.73,3.73,0,0,1,3.92-3.52H488.4a3.73,3.73,0,0,1,3.92,3.52Z"/><line class="cls-14" x1="359.12" y1="338.97" x2="492.32" y2="338.97"/><circle class="cls-15" cx="473.52" cy="338.97" r="9.29"/><circle class="cls-16" cx="473.52" cy="338.97" r="7.46"/><circle class="cls-17" cx="476.16" cy="333.01" r="1.95"/><circle class="cls-20" cx="372.92" cy="332.42" r="2.75"/><circle class="cls-20" cx="382.09" cy="332.42" r="2.75"/><circle class="cls-20" cx="391.25" cy="332.42" r="2.75"/><circle class="cls-20" cx="372.92" cy="345.09" r="2.75"/><circle class="cls-20" cx="382.09" cy="345.09" r="2.75"/><circle class="cls-20" cx="391.25" cy="345.09" r="2.75"/><path class="cls-19" d="M415,327.76a.63.63,0,0,1,.59.66v21.09a.63.63,0,0,1-.59.66H410.6a.63.63,0,0,1-.59-.66V328.42a.63.63,0,0,1,.59-.66Z"/><path class="cls-19" d="M425.13,327.76a.63.63,0,0,1,.59.66v21.09a.63.63,0,0,1-.59.66H420.7a.63.63,0,0,1-.59-.66V328.42a.63.63,0,0,1,.59-.66Z"/><path class="cls-19" d="M435.22,327.76a.63.63,0,0,1,.59.66v21.09a.63.63,0,0,1-.59.66H430.8a.63.63,0,0,1-.59-.66V328.42a.63.63,0,0,1,.59-.66Z"/><path class="cls-19" d="M445.32,327.76a.63.63,0,0,1,.59.66v21.09a.63.63,0,0,1-.59.66h-4.43a.63.63,0,0,1-.59-.66V328.42a.63.63,0,0,1,.59-.66Z"/><rect class="cls-12" x="370.48" y="358.57" width="14.88" height="4.61"/><rect class="cls-12" x="466.09" y="358.57" width="14.88" height="4.61"/><rect class="cls-13" x="355.5" y="362.91" width="140.43" height="39.2" rx="4.13" ry="4.13"/><path class="cls-12" d="M492.32,395.67a3.73,3.73,0,0,1-3.92,3.51H363a3.73,3.73,0,0,1-3.92-3.51V369.35a3.73,3.73,0,0,1,3.92-3.51H488.4a3.73,3.73,0,0,1,3.92,3.51Z"/><line class="cls-14" x1="359.12" y1="382.51" x2="492.32" y2="382.51"/><circle class="cls-15" cx="418.79" cy="382.51" r="9.29"/><circle class="cls-16" cx="418.79" cy="382.51" r="7.46"/><circle class="cls-17" cx="421.43" cy="376.54" r="1.95"/><circle class="cls-20" cx="372.18" cy="382.51" r="2.75"/><circle class="cls-20" cx="381.34" cy="382.51" r="2.75"/><circle class="cls-20" cx="390.51" cy="382.51" r="2.75"/><circle class="cls-20" cx="399.67" cy="382.51" r="2.75"/><path class="cls-19" d="M442.26,371.3a.63.63,0,0,1,.59.66v21.09a.63.63,0,0,1-.59.66h-4.43a.63.63,0,0,1-.59-.66V372a.63.63,0,0,1,.59-.66Z"/><path class="cls-19" d="M452.35,371.3a.63.63,0,0,1,.59.66v21.09a.63.63,0,0,1-.59.66h-4.43a.63.63,0,0,1-.59-.66V372a.63.63,0,0,1,.59-.66Z"/><path class="cls-19" d="M462.45,371.3a.63.63,0,0,1,.59.66v21.09a.63.63,0,0,1-.59.66H458a.63.63,0,0,1-.59-.66V372a.63.63,0,0,1,.59-.66Z"/><path class="cls-19" d="M472.54,371.3a.63.63,0,0,1,.59.66v21.09a.63.63,0,0,1-.59.66h-4.43a.63.63,0,0,1-.59-.66V372a.63.63,0,0,1,.59-.66Z"/><path class="cls-19" d="M482.64,371.3a.63.63,0,0,1,.59.66v21.09a.63.63,0,0,1-.59.66h-4.43a.63.63,0,0,1-.59-.66V372a.63.63,0,0,1,.59-.66Z"/><rect class="cls-12" x="370.48" y="402.11" width="14.88" height="4.61"/><rect class="cls-12" x="466.09" y="402.11" width="14.88" height="4.61"/><path class="cls-21" d="M432.07,214.89a20.24,20.24,0,0,0,.22-3,19.93,19.93,0,0,0-28.82-17.84,26.4,26.4,0,0,0-50.15,11.53c0,.41,0,.82,0,1.22-.44,0-.89-.05-1.34-.05a19.82,19.82,0,0,0-.33,39.65h79.82a15.79,15.79,0,0,0,.56-31.56Z"/><path class="cls-22" d="M417.56,225.72a13.3,13.3,0,0,0,.14-1.95,13.09,13.09,0,0,0-18.93-11.72,17.34,17.34,0,0,0-32.95,7.58c0,.27,0,.54,0,.8-.29,0-.58,0-.88,0a13,13,0,0,0-.22,26h52.44a10.37,10.37,0,0,0,.37-20.74Z"/><path class="cls-21" d="M210.1,247.2a20.26,20.26,0,0,0,.22-3A19.93,19.93,0,0,0,181.5,226.4a26.4,26.4,0,0,0-50.15,11.53c0,.41,0,.82,0,1.22-.44,0-.89-.05-1.34-.05a19.82,19.82,0,0,0-.33,39.65h79.82a15.79,15.79,0,0,0,.56-31.56Z"/><path class="cls-22" d="M195.58,258a13.31,13.31,0,0,0,.14-1.95,13.09,13.09,0,0,0-18.93-11.72,17.34,17.34,0,0,0-32.95,7.58c0,.27,0,.54,0,.8-.29,0-.58,0-.88,0a13,13,0,0,0-.22,26h52.44a10.37,10.37,0,0,0,.37-20.73Z"/><path class="cls-23" d="M393.65,227.14H168.2a13.32,13.32,0,0,0-13.32,13.32v131.8a13.32,13.32,0,0,0,13.32,13.32H393.65A13.32,13.32,0,0,0,407,372.26V240.46A13.32,13.32,0,0,0,393.65,227.14Z"/><path class="cls-24" d="M393.65,230.4H168.2a13.32,13.32,0,0,0-13.32,13.32v131.8a13.32,13.32,0,0,0,13.32,13.32H393.65A13.32,13.32,0,0,0,407,375.53V243.73A13.32,13.32,0,0,0,393.65,230.4Z"/><rect class="cls-7" x="165.86" y="241.46" width="229.4" height="129.81"/><polygon class="cls-9" points="395.26 371.26 165.86 371.26 165.86 359.17 395.26 294.27 395.26 371.26"/><path class="cls-23" d="M142,385.58v13.33c0,6.44,5,7.8,11.27,7.8H408.55c6.22,0,11.27-1.37,11.27-7.8V385.58Z"/><polygon class="cls-22" points="320.39 392.68 242.64 392.68 235.89 385.58 325.96 385.58 320.39 392.68"/><rect class="cls-22" x="254.32" y="179.35" width="54.78" height="67.73" transform="translate(49.79 479.74) rotate(-86.09)"/><rect class="cls-21" x="243.66" y="190.04" width="67.73" height="54.78"/><path class="cls-20" d="M304,203h-39.6l-2.07-7.43c-.63-2.06-1.65-2.54-4.38-2.54H238a2.13,2.13,0,0,0-2.13,2.13v52.11a2.13,2.13,0,0,0,2.13,2.13H304a2.13,2.13,0,0,0,2.13-2.13V205.15A2.13,2.13,0,0,0,304,203Z"/><path class="cls-25" d="M252.91,212.38a51.19,51.19,0,0,0-17.08,2.9v32a2.13,2.13,0,0,0,2.13,2.13H298C296.79,228.78,277.06,212.38,252.91,212.38Z"/><rect class="cls-12" x="393.56" y="148.12" width="64.32" height="64.32" rx="1.21" ry="1.21"/><path class="cls-19" d="M393.56,149.34V166h64.32V149.34a1.21,1.21,0,0,0-1.21-1.21H394.77A1.21,1.21,0,0,0,393.56,149.34Z"/><circle class="cls-20" cx="403.08" cy="157.13" r="2.15"/><circle class="cls-20" cx="411.55" cy="157.13" r="2.15"/><circle class="cls-20" cx="420.01" cy="157.13" r="2.15"/><polyline class="cls-26" points="436.84 196.55 444.24 189.15 436.84 181.75"/><polyline class="cls-26" points="415.25 196.55 407.85 189.15 415.25 181.75"/><line class="cls-26" x1="429.74" y1="181.75" x2="422.16" y2="197.28"/><path class="cls-21" d="M333.67,308.92a25.15,25.15,0,0,0,.27-3.69A24.83,24.83,0,0,0,298,283a32.9,32.9,0,0,0-62.49,14.37c0,.51,0,1,0,1.53-.55,0-1.1-.06-1.66-.06a24.7,24.7,0,0,0-.41,49.4H333a19.67,19.67,0,0,0,.7-39.33Z"/><path class="cls-22" d="M315.58,322.41a16.32,16.32,0,0,0-16.14-18.74,16.24,16.24,0,0,0-7.28,1.71,21.61,21.61,0,0,0-41.05,9.44c0,.34,0,.67,0,1-.36,0-.73,0-1.09,0a16.23,16.23,0,0,0-.27,32.46h65.35a12.92,12.92,0,0,0,.46-25.84Z"/><line class="cls-27" x1="177.98" y1="320.82" x2="177.98" y2="322.91"/><line class="cls-28" x1="177.98" y1="327.29" x2="177.98" y2="333.86"/><polyline class="cls-27" points="177.98 336.05 177.98 338.15 180.08 338.15"/><line class="cls-29" x1="184.16" y1="338.15" x2="222.94" y2="338.15"/><line class="cls-27" x1="224.98" y1="338.15" x2="227.07" y2="338.15"/><circle class="cls-30" cx="177.98" cy="321.57" r="2.11"/><circle class="cls-30" cx="177.98" cy="338.15" r="2.11"/><circle class="cls-30" cx="228.19" cy="338.15" r="2.11"/><line class="cls-27" x1="202.64" y1="255.75" x2="202.64" y2="257.85"/><line class="cls-31" x1="202.64" y1="262.28" x2="202.64" y2="304.46"/><polyline class="cls-27" points="202.64 306.68 202.64 308.77 204.74 308.77"/><line class="cls-32" x1="209.55" y1="308.77" x2="216.76" y2="308.77"/><line class="cls-27" x1="219.17" y1="308.77" x2="221.26" y2="308.77"/><circle class="cls-30" cx="202.64" cy="256.5" r="2.11"/><circle class="cls-30" cx="202.64" cy="308.77" r="2.11"/><circle class="cls-30" cx="222.38" cy="308.77" r="2.11"/><polyline class="cls-33" points="272.24 282.86 272.24 255.31 291.98 255.31"/><circle class="cls-30" cx="272.24" cy="282.86" r="2.11"/><circle class="cls-30" cx="272.24" cy="255.31" r="2.11"/><circle class="cls-30" cx="293.28" cy="255.31" r="2.11"/><circle class="cls-30" cx="326.96" cy="304.99" r="2.11"/><circle class="cls-30" cx="381.47" cy="304.99" r="2.11"/><circle class="cls-30" cx="381.47" cy="283.43" r="2.11"/><polyline class="cls-33" points="326.96 304.99 381.49 304.99 381.49 281.79"/><circle class="cls-30" cx="344.18" cy="327.84" r="2.11"/><circle class="cls-30" cx="367.78" cy="327.84" r="2.11"/><line class="cls-33" x1="344.18" y1="327.84" x2="367.78" y2="327.84"/><circle class="cls-30" cx="272.29" cy="339.76" r="2.11"/><circle class="cls-30" cx="272.29" cy="365.73" r="2.11"/><circle class="cls-30" cx="238.63" cy="365.73" r="2.11"/><polyline class="cls-33" points="272.29 339.76 272.29 365.73 238.15 365.73"/><circle class="cls-30" cx="287.03" cy="339.76" r="2.11"/><circle class="cls-30" cx="287.03" cy="358.48" r="2.11"/><circle class="cls-30" cx="302.22" cy="358.48" r="2.11"/><polyline class="cls-33" points="287.03 339.52 287.03 358.48 303.34 358.48"/><ellipse class="cls-34" cx="93.13" cy="474.23" rx="87.15" ry="9.76"/><path class="cls-21" d="M116.88,430.28h0a5.23,5.23,0,0,0-5.23-5.23H99.72a5.23,5.23,0,1,0,0,10.46h11.93a5.23,5.23,0,0,0,5.23-5.23"/><path class="cls-21" d="M135.3,411.31h0a5.23,5.23,0,0,0-5.23-5.23H99.72a5.23,5.23,0,0,0,0,10.47h30.34a5.23,5.23,0,0,0,5.23-5.23"/><path class="cls-21" d="M121.8,392.34h0a5.23,5.23,0,0,0-5.23-5.23H99.72a5.23,5.23,0,0,0,0,10.46h16.85a5.23,5.23,0,0,0,5.23-5.23"/><path class="cls-35" d="M95.47,345.07c3.66.53,17.48-4.58,18.78,13.5s-1.08,11.61,8.9,14.73,3,11.16,3.69,20.76,22-6.08,22.9,9.76-22.25,38.44-48.52,14.78-16.93-24.77-20-30.8-21.26-5.2-8.52-22.26c4.67-6.25,5-23,22.74-20.48"/><g class="cls-36"><rect class="cls-37" x="75.74" y="367.77" width="7.08" height="9.55"/></g><g class="cls-38"><rect class="cls-39" x="104.31" y="367.77" width="7.08" height="9.55"/></g><g class="cls-40"><rect class="cls-41" x="67.76" y="385.36" width="51.6" height="27.96" transform="translate(-20.02 5.23) rotate(-2.89)"/></g><g class="cls-42"><rect class="cls-43" x="69.02" y="344.41" width="49.07" height="48.53" transform="translate(-241.23 188.15) rotate(-47.43)"/></g><path class="cls-35" d="M113.64,358.5,110,367.15l-1.61.65-.58-.83s-4-.12-3.63-6.6c.28-5.46-2-6.57-2.54-5.78-.51-.58-5.53-6.09-8.1-3-2.72,3.24-.09,17-11,18s-4.2-8.56-4.2-8.56L83,349.76l8.5-3.24,13,1.35Z"/><path class="cls-44" d="M119.43,449.69h0a8,8,0,0,1-7.86-7.07l-2.34-17.93-1.42,31.69H79.17l-1.42-31.69L75.36,443a7.55,7.55,0,1,1-15-2l4-33.67a11,11,0,0,1,10.89-9.85h37.15a11,11,0,0,1,10.89,9.85l4,33.23a8.07,8.07,0,0,1-7.87,9.14"/><g class="cls-45"><rect class="cls-46" x="91.84" y="420.24" width="18.52" height="46.65" transform="translate(-352.43 479.47) rotate(-81.69)"/></g><g class="cls-47"><rect class="cls-48" x="75.93" y="418.44" width="19.29" height="48.36" transform="translate(-362.37 493.41) rotate(-85.53)"/></g><path class="cls-49" d="M118.07,461.78H71A1.77,1.77,0,0,1,69.25,460v-.9a.88.88,0,0,1,.87-.89h48.82a.88.88,0,0,1,.87.89v.9a1.77,1.77,0,0,1-1.74,1.79"/><path class="cls-50" d="M115.46,425.06H73.61a3.52,3.52,0,0,0-3.46,3.56v30.45h48.77V428.62a3.52,3.52,0,0,0-3.46-3.56"/><path class="cls-49" d="M118.22,429.28a2.59,2.59,0,0,0-2.06-2.31,3.32,3.32,0,0,0-.79,0l-.85,0-1.7.08-3.41.14-3.41.1c-1.14,0-2.27.05-3.41.07l-3.41.06q-3.41,0-6.82,0c-2.27,0-4.55,0-6.82,0s-4.55-.06-6.82-.13c-1.14,0-2.27-.05-3.41-.09l-.85,0-.43,0h-.39a2.14,2.14,0,0,0-.69.14,2.39,2.39,0,0,0-.62.36,2.33,2.33,0,0,0-.78,1.24,2.63,2.63,0,0,0-.06.38c0,.12,0,.29,0,.43l0,.88c-.06,1.17-.12,2.34-.2,3.51H71.1c-.08-1.17-.14-2.34-.2-3.51l0-.88c0-.15,0-.28,0-.45a3.34,3.34,0,0,1,0-.49,3.09,3.09,0,0,1,.9-1.74,2.92,2.92,0,0,1,1.78-.83l.24,0h.64l.85,0c1.14,0,2.27-.06,3.41-.09,2.28-.06,4.55-.09,6.82-.13s4.55,0,6.82,0,4.55,0,6.82,0l3.41.06c1.14,0,2.27,0,3.41.07l3.41.1,3.41.14,1.7.09.85,0h.21l.23,0,.23,0,.23.06a2.75,2.75,0,0,1,2,2.75"/><path class="cls-49" d="M98.29,441.66a3.76,3.76,0,1,1-3.76-3.86,3.81,3.81,0,0,1,3.76,3.86"/><g class="cls-51"><rect class="cls-52" x="129.76" y="461.97" width="10.04" height="16.7" transform="translate(-346.37 558.98) rotate(-84.45)"/></g><path class="cls-53" d="M94,456.32a223.81,223.81,0,0,1,37.31,6.6l-1.46,15.48A224.06,224.06,0,0,1,92,477.49c-30.42-3-55-6-54.08-16.08s25.66-8.12,56.08-5.08"/><polygon class="cls-54" points="131.59 460.42 129.65 480.9 124.31 480.36 126.25 459.89 131.59 460.42"/><path class="cls-55" d="M146.12,475.5a21.46,21.46,0,0,1-7.61.12l-1.42-8.28a21.69,21.69,0,0,1,7.19-2.57c6.43-1.17,12.05.29,12.56,3.26s-4.29,6.31-10.72,7.48"/><g class="cls-56"><rect class="cls-57" x="50.5" y="465.78" width="18.58" height="14.08" transform="translate(-109.34 27.26) rotate(-13.58)"/></g><path class="cls-54" d="M98,453.13A225.21,225.21,0,0,0,62,465l3.55,15.11a224.37,224.37,0,0,0,37.35-6.33c29.71-7.38,53.69-13.81,51.37-23.69s-26.51-4.36-56.22,3"/><polygon class="cls-53" points="61.42 462.58 66.12 482.57 71.33 481.28 66.64 461.28 61.42 462.58"/><path class="cls-55" d="M49.18,479.68a21.56,21.56,0,0,0,7.5-1.34l-.1-8.41A21.44,21.44,0,0,0,49,468.78c-6.53.08-11.79,2.59-11.75,5.6s5.35,5.38,11.88,5.3"/><g class="cls-58"><path class="cls-59" d="M444.8,238.79c-1.79-.52-.76,2-.17,2.66a2.74,2.74,0,0,0,.46,1.76c1,1.61,4.88,3,6.14,2.64,1.83,1.26,22.71,15.39,31.1,17,1.07.2,5.38.67,10.56,1.11a12,12,0,0,0,.31,1.72,19.73,19.73,0,0,1,2.22-.11l-6.32,37.3a1.46,1.46,0,0,0,1.2,1.7L504.64,307a98.53,98.53,0,0,0-5.16,25c-.65,11.8-.81,18.58.09,27.09,0,0,0,0,0,0a145.92,145.92,0,0,0-.46,17.6c.13,3.35.52,10.36,1,18.79H514.7a83.4,83.4,0,0,0-2.7-16.74s2-5.71,4.53-13.11v.74c0,.3,0,.59,0,.89,0,.65,0,1.28,0,1.9,0,.24,0,.5,0,.74,0,.83,0,1.61.06,2.37,0,.18,0,.35,0,.52,0,.63,0,1.22.07,1.79,0,.2,0,.43,0,.63.06.7.09,1.39.15,2,0,.37.07.76.11,1.18,0,.06,0,.15,0,.22.09.78.2,1.61.33,2.55v0c.54,3.75,1.41,8.67,2.46,14.26h15.24c0-.37-.07-.7-.11-1-1-7.79-3.92-15.22-4.29-17.86-.17-1.18,1.07-8.93,2.55-17.4a15.46,15.46,0,0,0,1.92-1.22c-.11-7,1.87-16.12,2.83-22.32.43-2.7,3.16-10.17,3.53-12.89a38.05,38.05,0,0,0,0-9.5l23.23,3.94a1.49,1.49,0,0,0,1.72-1.2l6.82-40.13a1.5,1.5,0,0,0-1.22-1.72l-27.48-4.66a109,109,0,0,0-3.05-11.22c.57-1.07,1.28-2.13,1.94-3.37a9.84,9.84,0,0,0,.13-8.91c-1.13-2.16-3.33-3.37-4.25-5.58a13,13,0,0,1-.33-7.43c.59-3,1.72-5.86,2.11-8.88A18.88,18.88,0,0,0,541,218c-.3-1.42-.81-5.2-4.53-5.92.17-2.11-2.46-4.23-4.81-5.42s-5.1-1.37-7.75-1.44c-10.48-.26-13.89,9.28-12.72,10.6a3.39,3.39,0,0,1-.24.44c-.43.83-1.24,1.48-1.7,2.42-.65,1.31-1,3.27-2,7.77-.68,3,.22,4.92,1.37,5.84,2.61,2.11,4.86,4.14,5.44,5.23.78,1.48.72,4.83.63,6.32-.91,1.22-2.39,1.83-3.38,3l-.11.15a7.64,7.64,0,0,0-.59.91,8.88,8.88,0,0,0-5.57,1.11c-3.92,2.31-12.13,3.68-12.13,3.68s0,.39-.06,1c-5.07,0-9.25-.06-9.89-.44-2.68-1.63-22.54-7.36-28.55-11.95-.06-.33-.11-.59-.13-.67a5.85,5.85,0,0,0-2-2.66c-.91-.76-1.79-1.52-2.7-2.29-.24-.18-.92-1.22-1.24-1.11s-.67.78-.24,1.68.89.94.74,1.31a7.88,7.88,0,0,1-5.33-3.55c-.85-1.39-1.66-1.18-1.5-.48C442.49,235.68,443,237.55,444.8,238.79Z"/></g><ellipse class="cls-34" cx="518.74" cy="462.76" rx="41.05" ry="4.6"/><path class="cls-60" d="M523,316.26l19.55-15.71s4.58,11.05.95,22.64c-1.79,5.7.11,9.75-.85,12.45-.9,2.52-7.53,38.39-7.16,41s3.29,10.08,4.29,17.85c1.2,9.35.23,39.69,1.14,47.77s-6.55,9.26-6.9,6.52c-2.94-23.35-11.3-59.83-12.31-71.5S521.68,344.36,523,316.26Z"/><path class="cls-61" d="M522.36,339.18l7.88,19.32a42.85,42.85,0,0,0-6.29,19.9c-.23,3.69,0,7.39-.18,11.08a3.68,3.68,0,0,1-.13.8c-1-5.5-1.71-10-2-13-.72-8.24-.41-21.3.28-38.16A3.55,3.55,0,0,1,522.36,339.18Z"/><path class="cls-60" d="M532.86,441.31s1.58,8.49,1.08,9.55-2.31,4.15-4.1,5.24-6,2.45-6.37,3a1.28,1.28,0,0,0,.2,1.73,8.52,8.52,0,0,0,5.82,1.62c5.59-.79,6.23-3.24,9.48-3.55.56-.05,1.58.8,3.15,0a3.68,3.68,0,0,0,2.25-3.52c-.17-2.33-1.43-4.28-2.32-6s-1.36-9.63-1.36-9.63"/><path class="cls-62" d="M523.22,461.18c-.39-.7-.47-1.76-.08-2a32.52,32.52,0,0,1,3.52-2c1.09-.47,2.82-.87,2.2-.56s.47,1.56,1.48,1.52c3.5-.13,6.13-2.39,8.13-2.84,2.89-.65,4.17-4,4.31-4.56.53.36,1.73,3.12,2,4a6.87,6.87,0,0,1,.35,3,7,7,0,0,0-.39,2.85,5.48,5.48,0,0,1-2.08.69,8.15,8.15,0,0,1-2.22,0l-.2-1.81a8.18,8.18,0,0,0-1.78.13,9.64,9.64,0,0,0-2.74,1.2c-.41.47-.75,1.33-1.28,1.58a11.12,11.12,0,0,1-4.61,1C526,463.53,523.89,462.39,523.22,461.18Z"/><path class="cls-60" d="M494.85,459.39c.42-.45,4.86-1.13,7-2a12,12,0,0,0,4.9-4.58c.48-1.13.43-6.86.39-9.26-.25-16.58-2.9-57.11-3.25-66.81-.6-16.87,1.76-34.24,8.52-61.24l24.34-18.29s6.64,12.64,4.25,24.64c-1.38,7-7.18,8-8.19,10.68s-16.06,46.26-16.06,46.26a82.24,82.24,0,0,1,2.81,19.83c.05,8.84-4.23,35.45-5.07,45.6-.11,2-.5,6.73.07,8.25.7,1.86,2.5,4.06,2.39,6.39a3.6,3.6,0,0,1-2.78,3.15c-1.72.51-2.66-.49-3.25-.52-3.4-.18-4.37,2.16-10.25,2.1a9.3,9.3,0,0,1-5.81-2.49A1.24,1.24,0,0,1,494.85,459.39Z"/><path class="cls-62" d="M494.32,461.46c-.31-.76-.26-1.81.17-2a33.71,33.71,0,0,1,3.89-1.46c1.19-.3,3-.44,2.35-.22s.29,1.61,1.34,1.73c3.63.4,6.63-1.45,8.76-1.59,3.07-.21,4.22-3.35,4.44-3.87a14,14,0,0,1,2.12,4.25,6.64,6.64,0,0,1,0,3,6.64,6.64,0,0,0-.76,2.77,5.79,5.79,0,0,1-2.24.38,8.9,8.9,0,0,1-2.29-.35l0-1.82a8.88,8.88,0,0,0-1.86-.14,6.16,6.16,0,0,0-3,1c-.5.37-1,1-1.63,1.14a12.32,12.32,0,0,1-4.77.31C496.94,464.2,494.86,462.75,494.32,461.46Z"/><path class="cls-60" d="M456,245.85c-1.21.35-5.16-1-6.18-2.65a2.75,2.75,0,0,1-.46-1.75c-.6-.7-1.62-3.18.16-2.66-1.84-1.23-2.3-3.1-2.8-5.19-.17-.7.65-.91,1.49.48a7.9,7.9,0,0,0,5.33,3.56c.15-.38-.37-.51-.75-1.32s-.15-1.53.26-1.68,1,.92,1.23,1.12L457,238a5.62,5.62,0,0,1,2,2.66c.08.2.55,2.27-.34,2"/><path class="cls-60" d="M514.6,265c-9.07-.1-25.3-1.66-27.53-2.09-8.79-1.72-31.26-17.13-31.26-17.13a4.28,4.28,0,0,1,3-4.59c5.7,4.62,26.1,10.48,28.81,12.13,1.76,1.07,30.28-.1,30.28-.1"/><path class="cls-63" d="M544.8,253.84s3.85,10.38,5.11,18.6l-9.32,1.47V260.7"/><rect class="cls-64" x="496.68" y="267.59" width="78.54" height="43.66" rx="1.48" ry="1.48" transform="translate(1015.84 664.53) rotate(-170.36)"/><path class="cls-65" d="M497.58,302.06l70.36,12.25a1.29,1.29,0,0,0,1.49-1.06l5.94-35a1.29,1.29,0,0,0-1.06-1.49L504,264.53a1.29,1.29,0,0,0-1.49,1.06l-5.94,35A1.29,1.29,0,0,0,497.58,302.06Z"/><path class="cls-66" d="M564.26,311l1.18.2a1.11,1.11,0,0,0,1.28-.91l5.12-30.13a1.11,1.11,0,0,0-.91-1.28l-1.18-.2a1.11,1.11,0,0,0-1.28.91l-5.12,30.13A1.11,1.11,0,0,0,564.26,311Z"/><path class="cls-66" d="M557.94,309.83l1.18.2a1.11,1.11,0,0,0,1.28-.91L565.52,279a1.11,1.11,0,0,0-.91-1.28l-1.18-.2a1.11,1.11,0,0,0-1.28.91L557,308.55A1.11,1.11,0,0,0,557.94,309.83Z"/><path class="cls-66" d="M551.62,308.62l1.18.2a1.11,1.11,0,0,0,1.28-.91l5.12-30.13a1.11,1.11,0,0,0-.91-1.28l-1.18-.2a1.11,1.11,0,0,0-1.28.91l-5.12,30.13A1.11,1.11,0,0,0,551.62,308.62Z"/><path class="cls-66" d="M545.3,307.41l1.18.2a1.11,1.11,0,0,0,1.28-.91l5.12-30.13a1.11,1.11,0,0,0-.91-1.28l-1.18-.2a1.11,1.11,0,0,0-1.28.91l-5.12,30.13A1.11,1.11,0,0,0,545.3,307.41Z"/><path class="cls-66" d="M539,306.2l1.18.2a1.11,1.11,0,0,0,1.28-.91l5.12-30.13a1.11,1.11,0,0,0-.91-1.28l-1.18-.2a1.11,1.11,0,0,0-1.28.91l-5.12,30.13A1.11,1.11,0,0,0,539,306.2Z"/><path class="cls-66" d="M532.67,305l1.18.2a1.11,1.11,0,0,0,1.28-.91l5.12-30.13a1.11,1.11,0,0,0-.91-1.28l-1.18-.2a1.11,1.11,0,0,0-1.28.91l-5.12,30.13A1.11,1.11,0,0,0,532.67,305Z"/><path class="cls-66" d="M526.35,303.78l1.18.2a1.11,1.11,0,0,0,1.28-.91l5.12-30.13a1.11,1.11,0,0,0-.91-1.28l-1.18-.2a1.11,1.11,0,0,0-1.28.91l-5.12,30.13A1.11,1.11,0,0,0,526.35,303.78Z"/><path class="cls-66" d="M520,302.57l1.18.2a1.11,1.11,0,0,0,1.28-.91l5.12-30.13a1.11,1.11,0,0,0-.91-1.28l-1.18-.2a1.11,1.11,0,0,0-1.28.91l-5.12,30.13A1.11,1.11,0,0,0,520,302.57Z"/><path class="cls-66" d="M513.71,301.36l1.18.2a1.11,1.11,0,0,0,1.28-.91l5.12-30.13a1.11,1.11,0,0,0-.91-1.28l-1.18-.2a1.11,1.11,0,0,0-1.28.91l-5.12,30.13A1.11,1.11,0,0,0,513.71,301.36Z"/><path class="cls-66" d="M507.39,300.15l1.18.2a1.11,1.11,0,0,0,1.28-.91L515,269.31a1.11,1.11,0,0,0-.91-1.28l-1.18-.2a1.11,1.11,0,0,0-1.28.91l-5.12,30.13A1.11,1.11,0,0,0,507.39,300.15Z"/><path class="cls-66" d="M501.08,298.94l1.18.2a1.11,1.11,0,0,0,1.28-.91l5.12-30.13a1.11,1.11,0,0,0-.91-1.28l-1.18-.2a1.11,1.11,0,0,0-1.28.91l-5.12,30.13A1.11,1.11,0,0,0,501.08,298.94Z"/><path class="cls-62" d="M538.33,297.15c6.72,5.8,9.3,15.42,7.94,25.68-.36,2.72-3.1,10.18-3.53,12.9-1,6.18-2.94,15.27-2.83,22.32-9,6.54-27.33,6-35.61,1.09-.92-8.51-.75-15.29-.1-27.09,1-17.81,8.93-34.41,9.09-35.89"/><path class="cls-63" d="M513.54,280.15c.34,3.18,0,8.07-.44,13.5a26.91,26.91,0,0,0-.44,3.56,2,2,0,0,0,.7,1.39c1,.95,2.84,1.53,4.89,1.89,6.68,1.21,17.24.4,20.22,1,2.8.56,5.67-.38,5.67-2.09,0-1.19-1.09-1.85-1.19-4.18-.22-5.11-.06-16.74.89-21.93,2-10.88,2.51-17.34,1.15-29.51L524.59,238c-1.57.26-.89,5-2.45,5.31-1.15.18-7.6,6.32-9.43,13.56a28.2,28.2,0,0,0-2.35,4.71,8.3,8.3,0,0,0,0,6.44A45.52,45.52,0,0,1,513.54,280.15Z"/><path class="cls-67" d="M513.54,280.15c.34,3.18,0,8.07-.44,13.5a26.91,26.91,0,0,0-.44,3.56,2,2,0,0,0,.7,1.39v0c-.6-1.35.85-8,1.47-11.81a42.57,42.57,0,0,0-.89-15.67c-1.33-4.61-1.83-6.8-1.83-6.8s-1-1.57-1.77-2.76a8.3,8.3,0,0,0,0,6.44A45.52,45.52,0,0,1,513.54,280.15Z"/><path class="cls-63" d="M515.72,248a8.93,8.93,0,0,0-6,1c-3.93,2.32-12.14,3.69-12.14,3.69s-.63,9.38.38,13c0,0,2.73-.43,10.81.45,8.36.91,19.52,6.45,19.52,6.45"/><path class="cls-60" d="M515.66,216.3c2-3.83,5.17-9.24,12.75-8.49s14.07,5.53,14,11.21-3.94,12.52-5.42,16.45-.85,9.77-.85,9.77l-16.8-.6s.44-5.13-.59-7.08c-.57-1.09-2.83-3.12-5.44-5.23-1.14-.92-2.06-2.84-1.38-5.84,1-4.48,1.39-6.46,2-7.77C514.42,217.78,515.22,217.14,515.66,216.3Z"/><path class="cls-68" d="M516,246.9c1-1.21,2.58-1.81,3.48-3.11a7,7,0,0,0,1.2-4.55,8.47,8.47,0,0,0-1-2.57c-1.83-3.68-1.94-6.07.67-9a10.37,10.37,0,0,0,2.13-3.22c.39-1.1.7-2.31-.37-3a1.43,1.43,0,0,0-1.94,0c-.41.37-1.61,3.89-1.82,1.48s-1.08-2.9.95-7c.24-.49,1.36-2.42,1.2-2.87-2.61.5-3.5,1.18-4.56,2.85-1.17-1.31,2.24-10.85,12.72-10.59a18,18,0,0,1,7.74,1.44c2.36,1.19,5,3.31,4.82,5.42,3.71.72,4.23,4.5,4.52,5.91a18.63,18.63,0,0,1,.22,6.14c-.39,3-1.51,5.89-2.11,8.87a13,13,0,0,0,.34,7.42c.92,2.22,3.12,3.43,4.24,5.6a9.75,9.75,0,0,1-.12,8.91c-1.45,2.74-3.26,4.54-2.79,7.91a10.77,10.77,0,0,1-3.55,10.28,11.09,11.09,0,0,1-8,2.17,18.52,18.52,0,0,1-6.57-2.07c-3.92-2.13-7.41-3.5-9.94-9.15-1.43-3.2.67-3.65-.61-6.92-.72-1.84-2.25-3.36-2.44-5.4a6.85,6.85,0,0,1,1.49-4.74Z"/><path class="cls-69" d="M146.47,347V252.84h24V347Z"/><path class="cls-69" d="M255.89,298.06a28.72,28.72,0,0,1-7.45,11.3,30.72,30.72,0,0,1-12.85,6.71A60.28,60.28,0,0,1,221,317.49H210.56V347h-23V252.84h30.8q4.47,0,7.51.19a66.56,66.56,0,0,1,7.7.87q8.57,1.49,13.79,5.84,11.05,9.38,11.05,24.9A37.39,37.39,0,0,1,255.89,298.06Zm-25.52-22.23q-3.6-1.86-10.93-1.86h-8.88v22.42h9.75q7,0,10.49-2.11,4.53-2.67,4.53-9.19T230.37,275.82Z"/><path class="cls-69" d="M307.5,347H287.32L262,276.38h21.86l13.48,44h.25l13.54-44H333Z"/><path class="cls-69" d="M400.9,338.61q-10.43,10.19-26,10.19-16.15,0-26.58-10.06T337.8,312.4a38.75,38.75,0,0,1,2.42-13.23,56.12,56.12,0,0,1,6.21-12l23.41-34.34h27.88L377,281.23l.25.25a10.25,10.25,0,0,1,2.24-.43l2.36-.06a27.48,27.48,0,0,1,21.49,9.5q8.13,9.19,8.14,22.42Q411.46,328.36,400.9,338.61Zm-17.33-32.91a13.09,13.09,0,0,0-9.38-3.6,12.54,12.54,0,0,0-9.07,3.54,12,12,0,0,0-3.66,8.94,12.92,12.92,0,0,0,3.6,9.25,12.08,12.08,0,0,0,9.13,3.85,13.14,13.14,0,0,0,9.32-3.6,12,12,0,0,0,3.91-9.13A12.24,12.24,0,0,0,383.58,305.69Z"/><path class="cls-70" d="M141.87,347.57V253.43h24v94.15Z"/><path class="cls-70" d="M251.3,298.64a28.72,28.72,0,0,1-7.45,11.3A30.72,30.72,0,0,1,231,316.65a60.28,60.28,0,0,1-14.59,1.43H206v29.5h-23V253.43h30.8q4.47,0,7.51.19a66.56,66.56,0,0,1,7.7.87q8.57,1.49,13.79,5.84,11.05,9.38,11.05,24.9A37.39,37.39,0,0,1,251.3,298.64Zm-25.52-22.23q-3.6-1.86-10.93-1.86H206V297h9.75q7,0,10.49-2.11,4.53-2.67,4.53-9.19T225.77,276.41Z"/><path class="cls-70" d="M302.9,347.57H282.72L257.38,277h21.86l13.48,44H293l13.54-44h21.86Z"/><path class="cls-70" d="M396.31,339.19q-10.43,10.19-26,10.19-16.15,0-26.58-10.06T333.21,313a38.75,38.75,0,0,1,2.42-13.23,56.12,56.12,0,0,1,6.21-12l23.41-34.34h27.88L372.4,281.81l.25.25a10.25,10.25,0,0,1,2.24-.43l2.36-.06a27.48,27.48,0,0,1,21.49,9.5q8.13,9.19,8.14,22.42Q406.86,328.94,396.31,339.19ZM379,306.28a13.09,13.09,0,0,0-9.38-3.6,12.54,12.54,0,0,0-9.07,3.54,12,12,0,0,0-3.66,8.94,12.92,12.92,0,0,0,3.6,9.25,12.08,12.08,0,0,0,9.13,3.85,13.14,13.14,0,0,0,9.32-3.6,12,12,0,0,0,3.91-9.13A12.24,12.24,0,0,0,379,306.28Z"/><path class="cls-23" d="M136,343v13.33c0,6.44,5,7.8,11.27,7.8H402.55c6.22,0,11.27-1.37,11.27-7.8V343Z"/><polygon class="cls-22" points="314.39 350.09 236.64 350.09 229.9 343 319.96 343 314.39 350.09"/></g></g></svg>