<svg xmlns="http://www.w3.org/2000/svg" viewBox="0 0 31.84 31.85"><defs><style>.cls-1{fill:#fff;}</style></defs><title>icon Youtube</title><g id="bảng_giá" data-name="bảng giá"><path class="cls-1" d="M31.84,15.93A15.92,15.92,0,1,0,15.92,31.85,15.92,15.92,0,0,0,31.84,15.93Zm-30.39,0A14.47,14.47,0,1,1,15.92,30.4,14.47,14.47,0,0,1,1.45,15.93Z"/><path class="cls-1" d="M23.4,11.39c-.44-.79-.92-.93-1.9-1s-3.44-.09-5.57-.09-4.6,0-5.58.09-1.46.2-1.91,1-.69,2.14-.69,4.53h0c0,2.38.23,3.75.69,4.53s.93.93,1.91,1,3.44.09,5.58.09,4.59,0,5.57-.09,1.46-.21,1.9-1,.69-2.15.69-4.53h0C24.1,13.54,23.87,12.18,23.4,11.39ZM13.88,19V12.87L19,15.93Z"/></g></svg>