<svg xmlns="http://www.w3.org/2000/svg" viewBox="0 0 21.18 18.39"><defs><style>.cls-1{fill:#031b4e;}</style></defs><title>icon Disk</title><g id="tùy_chỉnh_cấu_hình" data-name="tùy chỉnh cấu hình"><polygon class="cls-1" points="12.71 15 11.86 15 11.86 15.85 3.39 15.85 3.39 15 2.54 15 2.54 16.69 12.71 16.69 12.71 15"/><path class="cls-1" d="M19.48.39A.42.42,0,0,0,19.06,0H2.12a.42.42,0,0,0-.42.39L0,12.88V18a.42.42,0,0,0,.42.42H20.75a.42.42,0,0,0,.42-.42V12.84Zm.85,17.15H.85V14.15H20.33Zm0-4.24H.85v-.39L2.51.85H18.67l1.66,12Z"/><rect class="cls-1" x="17.37" y="15.42" width="1.69" height="0.85"/><rect class="cls-1" x="15.25" y="15.42" width="1.69" height="0.85"/></g></svg>