<svg xmlns="http://www.w3.org/2000/svg" viewBox="0 0 40.27 34.92"><defs><style>.cls-1{fill:#fff;}</style></defs><title>ha tang-icon 2</title><g id="hạ_tầng_mạnh_mẽ" data-name="hạ tầng mạnh mẽ"><rect class="cls-1" x="9.99" y="12.37" width="9.96" height="1.76" rx="0.88" ry="0.88"/><rect class="cls-1" x="9.99" y="16.76" width="9.96" height="1.76" rx="0.88" ry="0.88"/><rect class="cls-1" x="9.99" y="21.08" width="9.96" height="1.76" rx="0.88" ry="0.88"/><path class="cls-1" d="M29.21,10.29a7.38,7.38,0,1,0,7.38,7.38A7.38,7.38,0,0,0,29.21,10.29ZM34.44,17H30.08V12.46A5.27,5.27,0,0,1,34.44,17Zm-6-4.5V17H24A5.26,5.26,0,0,1,28.44,12.45ZM24,18.6h4.42v4.28A5.27,5.27,0,0,1,24,18.6Zm6.07,4.27V18.6h4.33A5.28,5.28,0,0,1,30.08,22.87Z"/><circle class="cls-1" cx="29.21" cy="17.56" r="2.93"/><path class="cls-1" d="M32.71,5.8H5.28V1.7A1.7,1.7,0,0,0,3.58,0H1A1,1,0,0,0,0,1a.9.9,0,0,0,.9.9H2.47a.92.92,0,0,1,1,1V34a.92.92,0,0,0,1.84,0V29H8v3a.94.94,0,0,0,.94.94H22.7a.94.94,0,0,0,.94-.94V29h1V32.1a.8.8,0,0,0,.8.8h9.78a.8.8,0,0,0,.8-.8V29h3.49a.78.78,0,0,0,.78-.78V13.35A7.56,7.56,0,0,0,32.71,5.8ZM21.27,31.31v.62H10.32v-2.1h1.13v1.48h1.32V29.83h1.13v1.48h1.32V29.83h1.13v1.48h1.32V29.83h1.13v1.48h1.32V29.83h1.13Zm12.29,0v.62h-6v-2.1h1.13v1.48H30V29.83H31.1v1.48h1.32V29.83h1.13Zm4.93-4H6.53A1.33,1.33,0,0,1,5.2,26V9.17A1.33,1.33,0,0,1,6.53,7.84H32.45a6,6,0,0,1,6,6Z"/></g></svg>