<?xml version="1.0" encoding="utf-8"?>
<!-- Generator: Adobe Illustrator 21.1.0, SVG Export Plug-In . SVG Version: 6.00 Build 0)  -->
<svg version="1.1" id="Layer_1" xmlns="http://www.w3.org/2000/svg" xmlns:xlink="http://www.w3.org/1999/xlink" x="0px" y="0px"
	 viewBox="0 0 63.2 60.1" style="enable-background:new 0 0 63.2 60.1;" xml:space="preserve">
<style type="text/css">
	.st0{fill:#FFFFFF;}
</style>
<title>uu diem-icon 5</title>
<g id="ưu_điểm_vượt_trội">
	<path class="st0" d="M9.1,55.8H0V29.5h9.1V55.8z M1.5,54.2h6V31h-6V54.2z"/>
	<path class="st0" d="M22.4,55.8h-9.1V35.1h9.1V55.8z M14.9,54.2h6V36.6h-6V54.2z"/>
	<path class="st0" d="M35.9,55.8h-9.1V25.5h9.1V55.8z M28.4,54.2h6V27h-6V54.2z"/>
	<polygon class="st0" points="18,22.5 4.3,18 4.8,16.5 17.7,20.8 30.9,10.9 44.2,0.9 45.2,2.1 31.8,12.1 	"/>
	<circle class="st0" cx="4.5" cy="17.2" r="2.3"/>
	<circle class="st0" cx="17.9" cy="21.7" r="2.3"/>
	<circle class="st0" cx="31.4" cy="11.6" r="2.3"/>
	<circle class="st0" cx="43.2" cy="2.3" r="2.3"/>
	<path class="st0" d="M41.7,18h6v14.5c0.5-0.1,1-0.1,1.5-0.1v-16h-9.1v19.5c0.5-0.4,1-0.8,1.5-1.2V18z"/>
	<path class="st0" d="M49.3,32.4L49.3,32.4c-0.6,0-1.1,0-1.6,0.1c-2.1,0.2-4.2,1-6,2.2c-6.4,4.2-8.2,12.8-4,19.2s12.8,8.2,19.2,4
		s8.2-12.8,4-19.2C58.3,34.8,53.9,32.4,49.3,32.4L49.3,32.4z M47.7,47l1.2-1.1v-5.3h1.5v6l-1.2,1.1l-1.5,1.4l-1.2,1.1l-1-1.1
		L47.7,47z M49.7,55.8h-0.4c-1.7-0.1-3.3-0.6-4.7-1.5c-1.1-0.7-2.1-1.7-2.8-2.8c-1-1.5-1.5-3.3-1.5-5.2h-2.4l2.4-3.3l0.8-1.1
		l0.8,1.2l2.1,3.2h-2.1c0,4.2,3.3,7.7,7.5,7.9h0.4c4.4-0.2,7.8-3.8,7.7-8.2c-0.1-4.2-3.5-7.5-7.7-7.7v-1.5c5.2,0,9.5,4.3,9.5,9.5
		S54.9,55.8,49.7,55.8L49.7,55.8z"/>
</g>
</svg>
