<svg xmlns="http://www.w3.org/2000/svg" viewBox="0 0 72.4 56.46"><defs><style>.cls-1{fill:#2776fb;}.cls-2{fill:#11a95e;}</style></defs><title>uu diem-icon 2</title><g id="ưu_điểm_vượt_trội" data-name="ưu điểm vượt trội"><path class="cls-1" d="M45.44,25a3.85,3.85,0,0,1-1.6-.35A3.73,3.73,0,0,1,41.63,21a2,2,0,0,0-1.76-2.12A3.79,3.79,0,0,1,38.16,12a2,2,0,0,0,.56-2.7A3.79,3.79,0,0,1,43,3.72a2,2,0,0,0,2.46-1.25,3.79,3.79,0,0,1,7.06-.15A2,2,0,0,0,55,3.47a3.73,3.73,0,0,1,4.1,1.18,3.73,3.73,0,0,1,.41,4.25,2,2,0,0,0,.67,2.67,3.79,3.79,0,0,1-1.43,6.91,2,2,0,0,0-1.67,2.19,3.79,3.79,0,0,1-6.3,3.19h0a2,2,0,0,0-2.75.06A3.74,3.74,0,0,1,45.44,25ZM41.94,5.34a2,2,0,0,0-1.71,3.08,3.81,3.81,0,0,1-1,5,2,2,0,0,0,.92,3.66,3.81,3.81,0,0,1,3.29,4,2,2,0,0,0,3.43,1.57A3.81,3.81,0,0,1,52,22.54a2,2,0,0,0,3.37-1.71,3.81,3.81,0,0,1,3.13-4.09,2,2,0,0,0,.76-3.7,3.81,3.81,0,0,1-1.25-5,2,2,0,0,0-2.41-2.9A3.81,3.81,0,0,1,50.88,3,2,2,0,0,0,49,1.77a2,2,0,0,0-1.86,1.32,3.81,3.81,0,0,1-4.59,2.33A2.1,2.1,0,0,0,41.94,5.34Z"/><path class="cls-1" d="M49.24,18.76a6.27,6.27,0,1,1,6.27-6.27A6.28,6.28,0,0,1,49.24,18.76ZM49.24,8a4.5,4.5,0,1,0,4.5,4.5A4.51,4.51,0,0,0,49.24,8Z"/><path class="cls-1" d="M14.4,56.46A5.88,5.88,0,0,1,12,55.92a5.7,5.7,0,0,1-3.39-5.58,4.06,4.06,0,0,0-3.51-4.22A5.81,5.81,0,0,1,2.44,35.64a4.06,4.06,0,0,0,1.11-5.37,5.7,5.7,0,0,1,.36-6.52,5.7,5.7,0,0,1,6.2-2.06A4.06,4.06,0,0,0,15,19.21,5.81,5.81,0,0,1,25.79,19a4.06,4.06,0,0,0,5,2.28,5.81,5.81,0,0,1,6.91,8.3A4.06,4.06,0,0,0,39,34.89a5.81,5.81,0,0,1-2.19,10.58,4.06,4.06,0,0,0-3.33,4.36,5.81,5.81,0,0,1-9.63,4.89h0a4.06,4.06,0,0,0-5.48.11A5.72,5.72,0,0,1,14.4,56.46ZM8.47,23.22a4.05,4.05,0,0,0-3.41,6.14,5.84,5.84,0,0,1-1.59,7.72,4,4,0,0,0,1.82,7.29,5.83,5.83,0,0,1,5,6.06,4,4,0,0,0,6.84,3.12A5.84,5.84,0,0,1,25,53.38h0a4,4,0,0,0,6.7-3.4,5.83,5.83,0,0,1,4.79-6.26,4,4,0,0,0,1.52-7.36,5.83,5.83,0,0,1-1.91-7.65,4,4,0,0,0-4.81-5.78,5.83,5.83,0,0,1-7.17-3.27,4,4,0,0,0-7.51.15,5.84,5.84,0,0,1-7,3.57A4.2,4.2,0,0,0,8.47,23.22Z"/><path class="cls-1" d="M20.83,45.93a10,10,0,1,1,10-10A10,10,0,0,1,20.83,45.93Zm0-18.21A8.22,8.22,0,1,0,29,35.94,8.23,8.23,0,0,0,20.83,27.71Z"/><path class="cls-2" d="M57.3,32.5a4.71,4.71,0,0,0-9.25,0h-4.2v1.77h4.2a4.71,4.71,0,0,0,9.25,0H72.4V32.5Zm-4.62,3.83a2.94,2.94,0,0,1-2.79-2.06,2.67,2.67,0,0,1,0-1.77,2.92,2.92,0,0,1,5.59,0,2.67,2.67,0,0,1,0,1.77A2.94,2.94,0,0,1,52.68,36.32Z"/><path class="cls-2" d="M69.49,40.57a4.71,4.71,0,0,0-9.25,0H43.86v1.77H60.24a4.71,4.71,0,0,0,9.25,0H72.4V40.57ZM64.86,44.4a2.94,2.94,0,0,1-2.79-2.06,2.67,2.67,0,0,1,0-1.77,2.92,2.92,0,0,1,5.59,0,2.67,2.67,0,0,1,0,1.77A2.94,2.94,0,0,1,64.86,44.4Z"/><path class="cls-2" d="M57.3,48.64a4.71,4.71,0,0,0-9.25,0h-4.2v1.77h4.2a4.71,4.71,0,0,0,9.25,0H72.4V48.64Zm-4.62,3.83a2.94,2.94,0,0,1-2.79-2.06,2.67,2.67,0,0,1,0-1.77,2.92,2.92,0,0,1,5.59,0,2.67,2.67,0,0,1,0,1.77A2.94,2.94,0,0,1,52.68,52.47Z"/></g></svg>