<?xml version="1.0" encoding="utf-8"?>
<!-- Generator: Adobe Illustrator 21.1.0, SVG Export Plug-In . SVG Version: 6.00 Build 0)  -->
<svg version="1.1" id="Layer_1" xmlns="http://www.w3.org/2000/svg" xmlns:xlink="http://www.w3.org/1999/xlink" x="0px" y="0px"
	 viewBox="0 0 72.4 56.5" style="enable-background:new 0 0 72.4 56.5;" xml:space="preserve">
<style type="text/css">
	.st0{fill:#FFFFFF;}
</style>
<title>uu diem-icon 2</title>
<g id="ưu_điểm_vượt_trội">
	<path class="st0" d="M45.4,25c-0.6,0-1.1-0.1-1.6-0.4c-1.4-0.6-2.3-2.1-2.2-3.6c0.1-1.1-0.7-2-1.8-2.1c-2.1-0.2-3.6-2.1-3.3-4.2
		c0.1-1.1,0.7-2.1,1.6-2.7c0.9-0.6,1.1-1.8,0.6-2.7c-1.1-1.8-0.5-4.1,1.3-5.2c0.9-0.5,2-0.7,2.9-0.4c1,0.3,2.1-0.2,2.5-1.3
		c0.7-2,2.9-3,4.9-2.3c1,0.4,1.8,1.1,2.2,2.1c0.4,1,1.5,1.5,2.5,1.2c1.5-0.5,3.1,0,4.1,1.2c1,1.2,1.2,2.9,0.4,4.2
		c-0.5,0.9-0.2,2.1,0.7,2.7c1.8,1.1,2.2,3.5,1.1,5.2c-0.6,0.9-1.5,1.5-2.5,1.7c-1.1,0.2-1.8,1.1-1.7,2.2c0.2,2.1-1.3,3.9-3.4,4.1
		c-1.1,0.1-2.1-0.2-2.9-0.9l0,0c-0.8-0.7-2-0.7-2.8,0.1C47.3,24.6,46.4,25,45.4,25z M41.9,5.3c-1.1,0-2,0.9-2,2
		c0,0.4,0.1,0.8,0.3,1.1c1,1.7,0.6,3.8-1,5c-0.9,0.6-1.2,1.8-0.6,2.8c0.3,0.5,0.9,0.8,1.5,0.9c2,0.3,3.4,2,3.3,4
		c-0.1,1.1,0.7,2.1,1.8,2.2c0.6,0.1,1.2-0.2,1.6-0.6c1.4-1.4,3.6-1.4,5.1-0.1c0.8,0.8,2.1,0.7,2.8-0.1c0.4-0.4,0.6-1.1,0.5-1.7
		c-0.2-2,1.2-3.7,3.1-4.1c1.1-0.1,1.9-1.2,1.7-2.2c-0.1-0.6-0.4-1.1-1-1.5C57.6,12,57.1,9.8,58,8c0.6-0.9,0.3-2.2-0.7-2.7
		c-0.5-0.3-1.1-0.4-1.7-0.2c-1.9,0.6-3.9-0.3-4.7-2.1c-0.3-0.8-1.1-1.2-1.9-1.2c-0.8,0-1.6,0.5-1.9,1.3c-0.7,1.8-2.7,2.9-4.6,2.3
		C42.4,5.4,42.1,5.3,41.9,5.3z"/>
	<path class="st0" d="M49.2,18.8c-3.5,0-6.3-2.8-6.3-6.3s2.8-6.3,6.3-6.3s6.3,2.8,6.3,6.3C55.5,16,52.7,18.8,49.2,18.8z M49.2,8
		c-2.5,0-4.5,2-4.5,4.5s2,4.5,4.5,4.5s4.5-2,4.5-4.5C53.7,10,51.7,8,49.2,8z"/>
	<path class="st0" d="M14.4,56.5c-0.8,0-1.6-0.2-2.4-0.5c-2.2-1-3.5-3.2-3.4-5.6c0.1-2.1-1.4-3.9-3.5-4.2c-3.2-0.4-5.4-3.3-5-6.5
		c0.2-1.6,1.1-3,2.4-4c1.7-1.2,2.2-3.6,1.1-5.4c-1.3-2-1.1-4.6,0.4-6.5c1.4-1.9,3.9-2.7,6.2-2.1c2,0.6,4.1-0.5,4.9-2.5
		c1.1-3,4.5-4.5,7.5-3.4c1.5,0.6,2.7,1.7,3.3,3.2c0.8,1.9,3,2.9,5,2.3c3-1,6.3,0.7,7.3,3.7c0.5,1.5,0.3,3.2-0.4,4.6
		c-1,1.8-0.4,4.1,1.3,5.3c2.7,1.8,3.4,5.4,1.7,8c-0.9,1.3-2.3,2.3-3.9,2.5c-2.1,0.4-3.5,2.3-3.3,4.4c0.3,3.2-2.1,6-5.3,6.3
		c-1.6,0.1-3.2-0.4-4.4-1.4l0,0c-1.6-1.4-4-1.3-5.5,0.1C17.3,55.9,15.9,56.5,14.4,56.5z M8.5,23.2c-2.2,0-4,1.9-4,4.1
		c0,0.7,0.2,1.4,0.6,2c1.5,2.6,0.9,5.9-1.6,7.7c-1.8,1.2-2.3,3.7-1.1,5.6c0.7,1,1.7,1.6,2.9,1.7c3,0.4,5.1,3.1,5,6.1
		c-0.2,2.2,1.5,4.1,3.7,4.3c1.2,0.1,2.3-0.3,3.2-1.2c2.2-2.1,5.6-2.2,7.9-0.2l0,0c1.6,1.5,4.1,1.4,5.7-0.2c0.8-0.9,1.2-2,1-3.2
		c-0.3-3,1.8-5.7,4.8-6.3c2.2-0.3,3.7-2.4,3.4-4.5C39.7,38,39,37,38,36.4c-2.5-1.7-3.4-5-1.9-7.6c1.1-1.9,0.5-4.4-1.4-5.5
		c-1-0.6-2.3-0.7-3.4-0.3c-2.9,0.9-6-0.5-7.2-3.3c-0.8-2.1-3.1-3.1-5.2-2.3c-1.1,0.4-1.9,1.3-2.3,2.4c-1.1,2.8-4.1,4.4-7,3.6
		C9.2,23.3,8.9,23.2,8.5,23.2z"/>
	<path class="st0" d="M20.8,45.9c-5.5,0-10-4.5-10-10s4.5-10,10-10s10,4.5,10,10S26.4,45.9,20.8,45.9z M20.8,27.7
		c-4.5,0-8.2,3.6-8.3,8.2c0,4.5,3.6,8.2,8.2,8.3S29,40.5,29,36c0,0,0,0,0,0C29,31.4,25.4,27.7,20.8,27.7L20.8,27.7z"/>
	<path class="st0" d="M57.3,32.5c-0.5-2.6-3-4.2-5.5-3.7c-1.9,0.4-3.4,1.8-3.7,3.7h-4.2v1.8H48c0.5,2.6,3,4.2,5.5,3.7
		c1.9-0.4,3.4-1.8,3.7-3.7h15.1v-1.8H57.3z M52.7,36.3c-1.3,0-2.4-0.8-2.8-2.1c-0.2-0.6-0.2-1.2,0-1.8c0.5-1.5,2.1-2.4,3.6-1.9
		c0.9,0.3,1.7,1,1.9,1.9c0.2,0.6,0.2,1.2,0,1.8C55.1,35.5,54,36.3,52.7,36.3L52.7,36.3z"/>
	<path class="st0" d="M69.5,40.6c-0.5-2.6-3-4.2-5.5-3.7c-1.9,0.4-3.4,1.8-3.7,3.7H43.9v1.8h16.4c0.5,2.6,3,4.2,5.5,3.7
		c1.9-0.4,3.4-1.8,3.7-3.7h2.9v-1.8H69.5z M64.9,44.4c-1.3,0-2.4-0.8-2.8-2.1c-0.2-0.6-0.2-1.2,0-1.8c0.5-1.5,2.1-2.4,3.6-1.9
		c0.9,0.3,1.7,1,1.9,1.9c0.2,0.6,0.2,1.2,0,1.8C67.3,43.6,66.1,44.4,64.9,44.4z"/>
	<path class="st0" d="M57.3,48.6c-0.5-2.6-3-4.2-5.5-3.7c-1.9,0.4-3.4,1.8-3.7,3.7h-4.2v1.8H48c0.5,2.6,3,4.2,5.5,3.7
		c1.9-0.4,3.4-1.8,3.7-3.7h15.1v-1.8H57.3z M52.7,52.5c-1.3,0-2.4-0.8-2.8-2.1c-0.2-0.6-0.2-1.2,0-1.8c0.5-1.5,2.1-2.4,3.6-1.9
		c0.9,0.3,1.7,1,1.9,1.9c0.2,0.6,0.2,1.2,0,1.8C55.1,51.6,54,52.5,52.7,52.5z"/>
</g>
</svg>
