<?xml version="1.0" encoding="utf-8"?>
<!-- Generator: Adobe Illustrator 21.1.0, SVG Export Plug-In . SVG Version: 6.00 Build 0)  -->
<svg version="1.1" id="Layer_1" xmlns="http://www.w3.org/2000/svg" xmlns:xlink="http://www.w3.org/1999/xlink" x="0px" y="0px"
	 viewBox="0 0 57.9 57.2" style="enable-background:new 0 0 57.9 57.2;" xml:space="preserve">
<style type="text/css">
	.st0{fill:#FFFFFF;}
</style>
<title>uu diem-icon 1</title>
<g id="ưu_điểm_vượt_trội">
	<path class="st0" d="M3.3,0h19.4C24.5,0,26,1.5,26,3.3v19.4c0,1.8-1.5,3.3-3.3,3.3H3.3C1.5,26,0,24.5,0,22.7V3.3C0,1.5,1.5,0,3.3,0
		z"/>
	<path class="st0" d="M52.6,26H34.4c-2.2,0-3.9-1.8-3.9-3.9V3.9c0-2.2,1.7-3.9,3.9-3.9h18.2c2.2,0,3.9,1.8,3.9,3.9v18.2
		C56.5,24.3,54.8,26,52.6,26z M34.4,1.5c-1.3,0-2.4,1-2.4,2.3c0,0,0,0,0,0v18.2c0,1.3,1.1,2.4,2.4,2.4h18.3c1.3,0,2.4-1.1,2.4-2.4
		c0,0,0,0,0,0V3.9c0-1.3-1.1-2.4-2.4-2.4L34.4,1.5z"/>
	<path class="st0" d="M22.1,57.2H3.9c-2.2,0-3.9-1.8-3.9-3.9V35c0-2.2,1.7-3.9,3.9-3.9h18.2c2.1,0,3.9,1.8,3.9,3.9v18.2
		C26,55.4,24.3,57.2,22.1,57.2z M3.9,32.7c-1.3,0-2.4,1.1-2.4,2.4v18.2c0,1.3,1.1,2.4,2.4,2.4c0,0,0,0,0,0h18.2
		c1.3,0,2.4-1.1,2.4-2.4V35c0-1.3-1.1-2.4-2.4-2.4L3.9,32.7z"/>
	<path class="st0" d="M44.2,56.7c-7.2,0-13-5.8-13-13c0-7.2,5.8-13,13-13c4.6,0,8.9,2.5,11.2,6.5L54.2,38C51,32.5,44,30.7,38.5,33.8
		C33,37,31.1,44,34.3,49.5s10.2,7.3,15.7,4.2c0.1-0.1,0.3-0.1,0.4-0.2l0.8,1.3C49.1,56.1,46.7,56.7,44.2,56.7z"/>
	<polygon class="st0" points="55.7,38.7 48.3,37.2 48.6,35.7 54.6,36.9 56.3,31.7 57.8,32.2 	"/>
</g>
</svg>
