<svg xmlns="http://www.w3.org/2000/svg" viewBox="0 0 64.28 62.84"><defs><style>.cls-1{fill:none;}.cls-2{fill:#11a95e;}.cls-3{fill:#2776fb;}</style></defs><title>uu diem-icon 4</title><g id="ưu_điểm_vượt_trội" data-name="ưu điểm vượt trội"><path class="cls-1" d="M48.42,46A7.65,7.65,0,1,0,55,49.81l-.17.23-1.2-1c.15-.18.28-.37.42-.56A7.6,7.6,0,0,0,48.42,46Zm-3.68,12-.67-1.38a27.47,27.47,0,0,0,5.19-3.27l1,1.2A29,29,0,0,1,44.74,58.08Z"/><path class="cls-1" d="M58.9,38.09c.18-.77.31-1.56.42-2.35a4.44,4.44,0,0,0-2.61,8.47l.17-.33,1.29.62h.14a4.44,4.44,0,0,0,2.48-8.13c-.1.69-.22,1.37-.38,2.05Z"/><path class="cls-2" d="M25.62,3.75,26,5.25a27.56,27.56,0,0,1,6.1-.7V3A29.12,29.12,0,0,0,25.62,3.75Z"/><path class="cls-2" d="M19.61,58.11a28.79,28.79,0,0,0,6.13,2.13l.34-1.5a27.3,27.3,0,0,1-5.8-2Z"/><path class="cls-2" d="M60.37,25.42a28.82,28.82,0,0,0-2.17-6.11L56.83,20a27.27,27.27,0,0,1,2,5.79Z"/><path class="cls-2" d="M53.54,14.8l1.2-1a29.19,29.19,0,0,0-4.6-4.57l-1,1.21A27.62,27.62,0,0,1,53.54,14.8Z"/><path class="cls-2" d="M32.18,59.42V61a29.19,29.19,0,0,0,6.44-.73l-.34-1.5A27.64,27.64,0,0,1,32.18,59.42Z"/><path class="cls-2" d="M44.63,5.83A28.8,28.8,0,0,0,38.5,3.71l-.34,1.5a27.25,27.25,0,0,1,5.8,2Z"/><path class="cls-2" d="M4.72,32a27.6,27.6,0,0,1,.67-6l-1.5-.34A29.13,29.13,0,0,0,3.18,32V32H4.72Z"/><path class="cls-2" d="M10.73,49.12l-1.2,1a29.22,29.22,0,0,0,4.59,4.58l1-1.2A27.64,27.64,0,0,1,10.73,49.12Z"/><path class="cls-2" d="M3.91,38.48A28.8,28.8,0,0,0,6.07,44.6l1.38-.67a27.29,27.29,0,0,1-2-5.79Z"/><path class="cls-2" d="M54.94,47.24a9.22,9.22,0,0,1,1,1.24A29.06,29.06,0,0,0,57.52,46,5.93,5.93,0,0,1,56,45.58C55.65,46.14,55.3,46.7,54.94,47.24Z"/><path class="cls-2" d="M61.12,32v-.12H59.58V32c0,.74,0,1.48-.1,2.21a5.94,5.94,0,0,1,1.5.52C61.07,33.81,61.12,32.9,61.12,32Z"/><path class="cls-3" d="M11.15,0A11.15,11.15,0,1,0,22.3,11.15,11.16,11.16,0,0,0,11.15,0Zm0,20.77a9.61,9.61,0,1,1,9.61-9.61A9.56,9.56,0,0,1,11.15,20.77Z"/><path class="cls-3" d="M56,48.48a9.16,9.16,0,1,0,1.62,5.2A9.11,9.11,0,0,0,56,48.48ZM48.42,61.3A7.61,7.61,0,1,1,56,53.67,7.64,7.64,0,0,1,48.42,61.3Z"/><path class="cls-3" d="M61,34.72a6,6,0,1,0,3.3,5.34A5.94,5.94,0,0,0,61,34.72ZM58.3,44.51h-.14a4.3,4.3,0,1,1,.14,0Z"/><path class="cls-3" d="M38.28,42.3h-13l0-1.39c0-.68.07-2.59,0-3.22-.14-1.3-.59-2.5-2.37-4.43-2.23-2.43-4.63-9.68,0-15.44a11.1,11.1,0,0,1,7.8-4.06c3.3-.32,6.82.59,8.77,2.25A12.22,12.22,0,0,1,43,30.21a37.52,37.52,0,0,1-3,5.72,4.84,4.84,0,0,0-1,2.25,18.11,18.11,0,0,0,0,3.26l.1.86ZM26.84,40.76H37.46A21,21,0,0,1,37.52,38a6.15,6.15,0,0,1,1.21-2.93,35.68,35.68,0,0,0,2.86-5.51,10.71,10.71,0,0,0-3.12-12.44,11,11,0,0,0-7.63-1.89,9.6,9.6,0,0,0-6.74,3.49c-4.1,5.15-1.72,11.61,0,13.44,2.06,2.24,2.59,3.74,2.76,5.31C26.91,38.27,26.86,40.12,26.84,40.76Z"/><rect class="cls-3" x="25.51" y="43.13" width="13.01" height="1.54"/><path class="cls-3" d="M31.83,50.37a7.67,7.67,0,0,1-5.6-2.69L25,46.38H39l-1.22,1.3a9.06,9.06,0,0,1-5.95,2.69ZM28.9,47.92a5.38,5.38,0,0,0,2.94.91h0A6.36,6.36,0,0,0,35,47.92Z"/><path class="cls-2" d="M32.14,17.73a7.69,7.69,0,1,0,7.69,7.69A7.69,7.69,0,0,0,32.14,17.73Zm-.77,10.9-3.55-3.89,1.41-1.24,2.22,2.56,4.27-4.4L37,23Z"/></g></svg>