<?xml version="1.0" encoding="utf-8"?>
<!-- Generator: Adobe Illustrator 21.1.0, SVG Export Plug-In . SVG Version: 6.00 Build 0)  -->
<svg version="1.1" id="Layer_1" xmlns="http://www.w3.org/2000/svg" xmlns:xlink="http://www.w3.org/1999/xlink" x="0px" y="0px"
	 viewBox="0 0 64.3 62.8" style="enable-background:new 0 0 64.3 62.8;" xml:space="preserve">
<style type="text/css">
	.st0{fill:#FFFFFF;}
</style>
<title>uu diem-icon 4</title>
<g id="ưu_điểm_vượt_trội">
	<path class="st0" d="M25.6,3.8L26,5.3c2-0.5,4-0.7,6.1-0.7V3C29.9,3,27.7,3.3,25.6,3.8z"/>
	<path class="st0" d="M19.6,58.1c2,0.9,4,1.7,6.1,2.1l0.3-1.5c-2-0.4-3.9-1.1-5.8-2L19.6,58.1z"/>
	<path class="st0" d="M60.4,25.4c-0.5-2.1-1.2-4.2-2.2-6.1L56.8,20c0.9,1.8,1.6,3.8,2,5.8L60.4,25.4z"/>
	<path class="st0" d="M53.5,14.8l1.2-1c-1.4-1.7-2.9-3.2-4.6-4.6l-1,1.2C50.8,11.7,52.2,13.2,53.5,14.8z"/>
	<path class="st0" d="M32.2,59.4V61c2.2,0,4.3-0.2,6.4-0.7l-0.3-1.5C36.3,59.2,34.2,59.4,32.2,59.4z"/>
	<path class="st0" d="M44.6,5.8c-2-0.9-4-1.6-6.1-2.1l-0.3,1.5c2,0.4,3.9,1.1,5.8,2L44.6,5.8z"/>
	<path class="st0" d="M4.7,32c0-2,0.2-4,0.7-6l-1.5-0.3c-0.5,2.1-0.7,4.2-0.7,6.3l0,0H4.7z"/>
	<path class="st0" d="M10.7,49.1l-1.2,1c1.4,1.7,2.9,3.2,4.6,4.6l1-1.2C13.5,52.2,12,50.7,10.7,49.1z"/>
	<path class="st0" d="M3.9,38.5c0.5,2.1,1.2,4.2,2.2,6.1l1.4-0.7c-0.9-1.8-1.6-3.8-2-5.8L3.9,38.5z"/>
	<path class="st0" d="M54.9,47.2c0.4,0.4,0.7,0.8,1,1.2c0.6-0.8,1.1-1.6,1.6-2.5c-0.5-0.1-1-0.2-1.5-0.4
		C55.7,46.1,55.3,46.7,54.9,47.2z"/>
	<path class="st0" d="M61.1,32v-0.1h-1.5V32c0,0.7,0,1.5-0.1,2.2c0.5,0.1,1,0.3,1.5,0.5C61.1,33.8,61.1,32.9,61.1,32z"/>
	<path class="st0" d="M11.1,0C5,0,0,5,0,11.1s5,11.1,11.1,11.1s11.1-5,11.1-11.1l0,0C22.3,5,17.3,0,11.1,0z M11.1,20.8
		c-5.3,0-9.6-4.3-9.6-9.6c0-5.3,4.3-9.6,9.6-9.6c5.3,0,9.6,4.3,9.6,9.6v0c0,5.3-4.2,9.6-9.5,9.6C11.2,20.8,11.2,20.8,11.1,20.8z"/>
	<path class="st0" d="M56,48.5c-2.9-4.2-8.6-5.2-12.7-2.3s-5.2,8.6-2.3,12.7s8.6,5.2,12.7,2.3c2.5-1.7,4-4.5,4-7.5
		C57.6,51.8,57.1,50,56,48.5z M48.4,61.3c-4.2,0-7.6-3.4-7.6-7.6c0-4.2,3.4-7.6,7.6-7.6s7.6,3.4,7.6,7.6c0,0,0,0,0,0
		C56,57.9,52.6,61.3,48.4,61.3z"/>
	<path class="st0" d="M61,34.7c-3-1.5-6.6-0.3-8.1,2.7c-1.5,3-0.3,6.6,2.7,8.1c3,1.5,6.6,0.3,8.1-2.7c0.4-0.8,0.6-1.8,0.6-2.7
		C64.3,37.8,63,35.7,61,34.7z M58.3,44.5h-0.1c-2.4,0-4.3-2-4.2-4.4c0-2.4,2-4.3,4.4-4.2c2.4,0,4.3,2,4.2,4.4
		C62.5,42.6,60.6,44.5,58.3,44.5z"/>
	<path class="st0" d="M38.3,42.3h-13v-1.4c0-0.7,0.1-2.6,0-3.2c-0.1-1.3-0.6-2.5-2.4-4.4c-2.2-2.4-4.6-9.7,0-15.4
		c1.9-2.4,4.8-3.8,7.8-4.1c3.3-0.3,6.8,0.6,8.8,2.3c4.2,3.4,5.6,9.2,3.5,14.2c-0.8,2-1.8,3.9-3,5.7c-0.5,0.7-0.9,1.4-1,2.3
		c-0.1,1.1-0.1,2.2,0,3.3l0.1,0.9H38.3z M26.8,40.8h10.6c0-0.9,0-1.8,0.1-2.8c0.1-1.1,0.6-2.1,1.2-2.9c1.1-1.8,2.1-3.6,2.9-5.5
		c1.8-4.4,0.6-9.4-3.1-12.4c-2.2-1.5-4.9-2.2-7.6-1.9c-2.6,0.2-5.1,1.5-6.7,3.5c-4.1,5.1-1.7,11.6,0,13.4c2.1,2.2,2.6,3.7,2.8,5.3
		C26.9,38.3,26.9,40.1,26.8,40.8z"/>
	<rect x="25.5" y="43.1" class="st0" width="13" height="1.5"/>
	<path class="st0" d="M31.8,50.4c-2.2-0.1-4.2-1-5.6-2.7L25,46.4h14l-1.2,1.3C36.2,49.3,34.1,50.2,31.8,50.4z M28.9,47.9
		c0.9,0.6,1.9,0.9,2.9,0.9l0,0c1.1,0,2.2-0.3,3.2-0.9H28.9z"/>
	<path class="st0" d="M32.1,17.7c-4.2,0-7.7,3.4-7.7,7.7s3.4,7.7,7.7,7.7s7.7-3.4,7.7-7.7l0,0C39.8,21.2,36.4,17.7,32.1,17.7z
		 M31.4,28.6l-3.5-3.9l1.4-1.2l2.2,2.6l4.3-4.4L37,23L31.4,28.6z"/>
</g>
</svg>
