<svg xmlns="http://www.w3.org/2000/svg" viewBox="0 0 52.44 63.61"><defs><style>.cls-1{fill:none;}.cls-2{fill:#2776fb;}.cls-3{fill:#b9d1e5;}.cls-4{fill:#11a95e;}</style></defs><title>uu diem-icon 9</title><g id="ưu_điểm_vượt_trội" data-name="ưu điểm vượt trội"><path class="cls-1" d="M40.78,19.44,43,17.22a2.46,2.46,0,0,0-.35-.4c-1.22-1.13-2.71-.41-3.64.27l.11.06A3.77,3.77,0,0,1,40.78,19.44Z"/><path class="cls-1" d="M18,59.37l2,2.07,3.41-3.22a16.26,16.26,0,0,1-5,.78Z"/><path class="cls-1" d="M11.81,43.52l2-11.65.48-3.26A4.08,4.08,0,0,0,14,25.83a2.07,2.07,0,0,0-1.5-.88,2.2,2.2,0,0,0-1.81.35,3.43,3.43,0,0,0-1,2.15v.08L6.84,44.23,2.11,49.38,13.58,61.44l2.26-2.13L6.41,49.4Z"/><path class="cls-1" d="M42,40.67c-1.56,1.56-14,13.95-17.43,16.8,1,0,3.8-.16,4.94-.8S41,45.9,47.28,39.63c.16-.2,1.49-1.85.6-3.39a2.39,2.39,0,0,0-3.11-1.16L43.23,36.6A5.19,5.19,0,0,1,42,40.67Z"/><path class="cls-1" d="M37.44,33.83h0l6.08-5.49A4.53,4.53,0,0,0,44.31,27l-7.19,7.19Z"/><path class="cls-1" d="M18.94,25a2.2,2.2,0,0,0-1.81.35,3.43,3.43,0,0,0-1,2.15v.08L15.68,30l4.39-4.54A2.33,2.33,0,0,0,18.94,25Z"/><path class="cls-2" d="M36.33,43.4l5.33-5.25a2.4,2.4,0,0,0-.19-1.9l0,0-6.19,6.1Z"/><polygon class="cls-3" points="32.62 38.65 37.12 34.15 32.58 38.62 32.62 38.65"/><path class="cls-2" d="M41.47,36.25a2.4,2.4,0,0,1,.19,1.9l1.57-1.55a3.77,3.77,0,0,0-.43-1.12c-.08-.13-.16-.26-.24-.38l-1.12,1.1Z"/><path class="cls-3" d="M24.2,57.46l-.8.76a4.23,4.23,0,0,0,.46-.22,6,6,0,0,0,.72-.54H24.2Z"/><path class="cls-2" d="M51.9,24a3.29,3.29,0,0,0-3-1.65l.3-.3c.24-.21,2-1.88,2.06-3.83a3.31,3.31,0,0,0-1.16-2.55,3.51,3.51,0,0,0-2.63-1,6,6,0,0,0-3.35,1.46,4.22,4.22,0,0,0-.43-.46,3.51,3.51,0,0,0-2.63-1,6.56,6.56,0,0,0-3.85,1.91l-.23.23-2.61,2.63A3.53,3.53,0,0,0,33.66,18a4.33,4.33,0,0,0-1-.86c-2.36-1.57-5.21.65-5.33.74l-6.22,6.43a3.81,3.81,0,0,0-2-.89A3.52,3.52,0,0,0,15.34,25l0,0a3.56,3.56,0,0,0-2.54-1.57,3.69,3.69,0,0,0-3,.66,4.91,4.91,0,0,0-1.59,3.21L5.4,43.52,0,49.4,13.52,63.61l3.38-3.19,3,3.19L24.82,59c1,0,3.95-.15,5.45-1S46.7,42.38,48.42,40.67c.09-.11,2.27-2.62.79-5.19a4.06,4.06,0,0,0-2.63-2l4.42-4,.05-.05C51.16,29.28,53.45,26.71,51.9,24ZM16.1,27.53v-.08a3.43,3.43,0,0,1,1-2.15A2.2,2.2,0,0,1,18.94,25a2.33,2.33,0,0,1,1.13.48L15.68,30ZM13.58,61.44,2.11,49.38l4.73-5.15,2.86-16.7v-.08a3.43,3.43,0,0,1,1-2.15A2.2,2.2,0,0,1,12.53,25a2.07,2.07,0,0,1,1.5.88,4.08,4.08,0,0,1,.26,2.78l-.48,3.26-2,11.65L6.41,49.4l9.43,9.91Zm36.36-33.1-6.08,5.49h0L42.56,35.1c.08.12.17.24.24.38a3.77,3.77,0,0,1,.43,1.12l1.54-1.52a2.39,2.39,0,0,1,3.11,1.16c.89,1.54-.44,3.19-.6,3.39C41,45.9,30.62,56,29.52,56.66s-3.89.79-4.94.8a6,6,0,0,1-.72.54,4.23,4.23,0,0,1-.46.22L20,61.44l-2-2.07L17,58.25,8.51,49.38l4.73-5.15,2-11.56,5.57-5.77L22,25.61l6.31-6.54c.27-.2,2.17-1.52,3.48-.64a2.67,2.67,0,0,1,.73.7,2,2,0,0,1,.34.9,2,2,0,0,1-.15,1L21.08,32.83l.2.2.89.89C24.82,31.3,33.45,22.74,34,22l3.78-3.81.32-.33a7,7,0,0,1,.91-.79c.94-.69,2.42-1.4,3.64-.27a2.46,2.46,0,0,1,.35.4l-2.21,2.23c-.34.34-1.53,1.46-1.6,1.62L27.49,32.83l1.09,1.09C31.23,31.3,39.85,22.74,40.39,22l2.54-2.55,1.57-1.58s.13-.13.3-.29c.74-.68,2.71-2.2,4.26-.77a1.81,1.81,0,0,1,.67,1.39,4.55,4.55,0,0,1-1.55,2.72l-2.84,2.84-1.12,1.12L31.53,37.56l1.05,1.05,4.54-4.47L44.31,27,46,25.31,47,24.25c.55-.2,2.73-.9,3.55.53C51.5,26.41,50.14,28.1,49.94,28.34Z"/><rect class="cls-4" x="29.56" y="3.14" width="1.54" height="11.56" transform="translate(2.68 24.24) rotate(-45.38)"/><rect class="cls-4" x="39.96" y="8.15" width="11.56" height="1.54" transform="translate(6.92 34.7) rotate(-44.63)"/><rect class="cls-4" x="32.32" y="5.01" width="11.56" height="1.54" transform="matrix(0.01, -1, 1, 0.01, 32.06, 43.84)"/></g></svg>