<?xml version="1.0" encoding="utf-8"?>
<!-- Generator: Adobe Illustrator 21.1.0, SVG Export Plug-In . SVG Version: 6.00 Build 0)  -->
<svg version="1.1" id="Layer_1" xmlns="http://www.w3.org/2000/svg" xmlns:xlink="http://www.w3.org/1999/xlink" x="0px" y="0px"
	 viewBox="0 0 63.5 63.5" style="enable-background:new 0 0 63.5 63.5;" xml:space="preserve">
<style type="text/css">
	.st0{fill:#FFFFFF;}
</style>
<title>uu diem-icon 3</title>
<g id="ưu_điểm_vượt_trội">
	<path class="st0" d="M34,63.5c-9.6,0-17.8-11-19.5-26.1l1.5-0.2c1.6,14.3,9.1,24.7,18,24.7c10.1,0,18.3-13.5,18.3-30.2
		S44,1.5,34,1.5c-9.3,0-17.3,12-18.2,27.3l-1.5-0.1C15.2,12.4,23.6,0,34,0c10.9,0,19.8,14.2,19.8,31.7S44.9,63.5,34,63.5z"/>
	<polygon class="st0" points="15,30.7 10,26.5 10.9,25.3 15.1,28.8 19.7,25.3 20.7,26.5 	"/>
	<path class="st0" d="M34.7,48l-0.1-1.5c15.3-0.9,27.4-8.9,27.4-18.2C61.9,18.2,48.4,10,31.7,10S1.5,18.2,1.5,28.2
		c0,8.8,10.4,16.4,24.7,18l-0.2,1.5C11,46,0,37.8,0,28.2C0,17.3,14.2,8.4,31.7,8.4s31.7,8.9,31.7,19.8C63.5,38.5,51.1,47,34.7,48z"
		/>
	<polygon class="st0" points="37,52.2 32.7,47.2 36.9,41.5 38.2,42.5 34.7,47.1 38.2,51.3 	"/>
	<polygon class="st0" points="32.5,21 23.8,25.9 23.8,36.3 32.5,42 41.3,36.2 41.3,26.9 	"/>
</g>
</svg>
