<svg xmlns="http://www.w3.org/2000/svg" viewBox="0 0 30.37 42.3"><defs><style>.cls-1{fill:#fff;}</style></defs><title>ha tang-icon 1</title><g id="hạ_tầng_mạnh_mẽ" data-name="hạ tầng mạnh mẽ"><circle class="cls-1" cx="26.41" cy="3.59" r="0.83"/><circle class="cls-1" cx="3.67" cy="3.59" r="0.83"/><circle class="cls-1" cx="15.18" cy="3.59" r="0.83"/><circle class="cls-1" cx="3.67" cy="18.19" r="0.83"/><path class="cls-1" d="M22.76,4.12H7.6a3.8,3.8,0,0,0-3.8,3.8V30.07a3.8,3.8,0,0,0,3.8,3.8H22.76a3.8,3.8,0,0,0,3.8-3.8V7.93A3.8,3.8,0,0,0,22.76,4.12ZM24.81,30a2.39,2.39,0,0,1-2.39,2.39H7.69A2.38,2.38,0,0,1,5.31,30V7.94A2.38,2.38,0,0,1,7.69,5.56H22.43a2.38,2.38,0,0,1,2.39,2.38Z"/><path class="cls-1" d="M27.81,0H2.55A2.55,2.55,0,0,0,0,2.55v37.2A2.55,2.55,0,0,0,2.55,42.3H27.81a2.55,2.55,0,0,0,2.55-2.55V2.55A2.55,2.55,0,0,0,27.81,0ZM20.14,39.51v.92H2.57V38.11H3.87v1.4H5.28v-1.4H6.59v1.4H8v-1.4H9.31v1.4h1.41v-1.4H12v1.4h1.41v-1.4h1.31v1.4h1.41v-1.4h1.31v1.4h1.38v-1.4h1.31Zm8.38.36a.66.66,0,0,1-.66.66h-6a.66.66,0,0,1-.66-.66V38.43a.66.66,0,0,1,.66-.66h6a.66.66,0,0,1,.66.66Zm0-5.19A1.35,1.35,0,0,1,27.17,36H3.2a1.35,1.35,0,0,1-1.35-1.35V3.32A1.35,1.35,0,0,1,3.2,2h24a1.35,1.35,0,0,1,1.35,1.35Z"/></g></svg>