<svg xmlns="http://www.w3.org/2000/svg" viewBox="0 0 39.85 39.85"><defs><style>.cls-1{fill:#fff;}</style></defs><title>ha tang-icon 4</title><g id="hạ_tầng_mạnh_mẽ" data-name="hạ tầng mạnh mẽ"><path class="cls-1" d="M21,23.91a5.8,5.8,0,1,1,5.8-5.8,5.8,5.8,0,0,1-5.8,5.8Zm0-10.14a4.35,4.35,0,1,0,4.35,4.35A4.35,4.35,0,0,0,21,13.77Z"/><path class="cls-1" d="M35.5,8.69a4.35,4.35,0,1,1,4.35-4.34A4.35,4.35,0,0,1,35.5,8.69Zm0-7.25a2.9,2.9,0,1,0,2.9,2.9A2.89,2.89,0,0,0,35.5,1.45Z"/><path class="cls-1" d="M21,39.85a4.35,4.35,0,1,1,4.35-4.35A4.35,4.35,0,0,1,21,39.85Zm0-7.25a2.9,2.9,0,1,0,2.9,2.9A2.89,2.89,0,0,0,21,32.6Z"/><path class="cls-1" d="M4.35,38.4A4.35,4.35,0,1,1,8.7,34.05,4.35,4.35,0,0,1,4.35,38.4Zm0-7.25a2.9,2.9,0,1,0,2.9,2.9,2.89,2.89,0,0,0-2.9-2.9Z"/><path class="cls-1" d="M9.42,9.42a2.9,2.9,0,1,1,2.9-2.9A2.89,2.89,0,0,1,9.42,9.42Zm0-4.34a1.45,1.45,0,1,0,1.45,1.45A1.44,1.44,0,0,0,9.42,5.07Z"/><path class="cls-1" d="M32.6,32.6a2.9,2.9,0,1,1,2.9-2.9,2.89,2.89,0,0,1-2.9,2.9Zm0-4.34a1.45,1.45,0,1,0,1.45,1.45,1.44,1.44,0,0,0-1.45-1.45Z"/><path class="cls-1" d="M21,32.6a.74.74,0,0,1-.51-.21.7.7,0,0,1-.21-.51V23.19a.72.72,0,0,1,1.45,0v8.69a.74.74,0,0,1-.21.51.76.76,0,0,1-.51.21Z"/><path class="cls-1" d="M24.63,15.22a.72.72,0,0,1-.67-.44.73.73,0,0,1,.16-.79l8-8a.73.73,0,0,1,.7-.19.72.72,0,0,1,.51.51.73.73,0,0,1-.19.7l-8,8a.74.74,0,0,1-.51.21Z"/><path class="cls-1" d="M7.25,32.6a.72.72,0,0,1-.67-.44.73.73,0,0,1,.16-.79L16.87,21.23a.72.72,0,0,1,1,0,.73.73,0,0,1,0,1L7.76,32.39a.74.74,0,0,1-.51.21Z"/><path class="cls-1" d="M17.39,15.22a.74.74,0,0,1-.51-.21L10.36,8.48a.72.72,0,0,1,0-1,.73.73,0,0,1,1,0L17.91,14a.71.71,0,0,1,.16.79A.75.75,0,0,1,17.39,15.22Z"/><path class="cls-1" d="M31.16,29a.74.74,0,0,1-.51-.21l-6.52-6.52a.72.72,0,0,1,0-1,.73.73,0,0,1,1,0l6.52,6.52a.71.71,0,0,1,.16.79A.73.73,0,0,1,31.16,29Z"/></g></svg>