<svg xmlns="http://www.w3.org/2000/svg" viewBox="0 0 63.15 60.12"><defs><style>.cls-1{fill:#2776fb;}.cls-2{fill:#11a95e;}</style></defs><title>uu diem-icon 5</title><g id="ưu_điểm_vượt_trội" data-name="ưu điểm vượt trội"><path class="cls-1" d="M9.06,55.76H0V29.48H9.06ZM1.54,54.22h6V31h-6Z"/><path class="cls-1" d="M22.39,55.76H13.33V35.08h9.06Zm-7.52-1.54h6V36.62h-6Z"/><path class="cls-1" d="M35.89,55.76H26.83V25.51h9.06Zm-7.52-1.54h6V27h-6Z"/><polygon class="cls-1" points="18 22.52 4.29 17.95 4.77 16.49 17.72 20.81 30.9 10.86 44.23 0.88 45.15 2.11 31.82 12.09 18 22.52"/><circle class="cls-1" cx="4.53" cy="17.22" r="2.26"/><circle class="cls-1" cx="17.86" cy="21.66" r="2.26"/><circle class="cls-1" cx="31.36" cy="11.58" r="2.26"/><circle class="cls-1" cx="43.2" cy="2.26" r="2.26"/><path class="cls-1" d="M41.7,18h6V32.53a13.92,13.92,0,0,1,1.54-.1v-16H40.16V35.88a13.9,13.9,0,0,1,1.54-1.18Z"/><path class="cls-2" d="M49.31,32.43h-.09a13.92,13.92,0,0,0-1.54.1,13.76,13.76,0,0,0-6,2.18,13.84,13.84,0,1,0,7.61-2.28ZM47.68,47.05l1.2-1.11V40.63h1.54v6l-1.2,1.11-1.54,1.43-1.19,1.1-1-1.13Zm2,8.71-.43,0a9.42,9.42,0,0,1-4.73-1.52,9.55,9.55,0,0,1-2.79-2.79,9.42,9.42,0,0,1-1.54-5.16H37.77L40.16,43l.77-1.06.77,1.15,2.14,3.2H41.7a7.94,7.94,0,0,0,7.52,7.93l.43,0a7.95,7.95,0,0,0,0-15.89V36.79a9.49,9.49,0,0,1,0,19Z"/></g></svg>