<?xml version="1.0" encoding="utf-8"?>
<!-- Generator: Adobe Illustrator 21.1.0, SVG Export Plug-In . SVG Version: 6.00 Build 0)  -->
<svg version="1.1" id="Layer_1" xmlns="http://www.w3.org/2000/svg" xmlns:xlink="http://www.w3.org/1999/xlink" x="0px" y="0px"
	 viewBox="0 0 64.6 61.7" style="enable-background:new 0 0 64.6 61.7;" xml:space="preserve">
<style type="text/css">
	.st0{fill:#2776FB;}
	.st1{fill:#FFFFFF;}
</style>
<title>uu diem-icon 7</title>
<g id="ưu_điểm_vượt_trội">
	<path class="st0" d="M17.8,30.9l0.2-0.2l-0.8-0.8C17.6,30.5,17.8,30.9,17.8,30.9z"/>
	<path class="st1" d="M17.8,30.9l0.2-0.2l-0.8-0.8C17.6,30.5,17.8,30.9,17.8,30.9z"/>
	<path class="st1" d="M34,60c-0.1-2.3-1.9-3-3.6-3.6c-1.6-0.4-3.1-1.4-4.1-2.7c-0.3-0.5-0.6-1-0.8-1.6c1.3-1.7,3.3-4.6,3.3-6.1
		c0-0.7-0.2-1.3-0.5-1.9c0.9-0.6,1.4-1.6,1.4-2.6c-0.1-1.3-1.2-2.7-3.9-4.5c-2.8-1.9-5.4-4-7.9-6.3l-0.2,0.2c0,0-0.3-0.4-0.6-1
		c-2.2-2.1-4.1-4.5-5.7-7.1c-2-3.5-2.5-7.6-1.4-11.4c1,1.9,2.3,3.7,2.3,3.7s4.2-5.2,4.2-7.4c0-0.8-0.2-1.5-0.6-2.1
		c8.8-5.3,19.8-5.5,28.9-0.6c-1.1,1-2.8,2.7-4.4,4h-0.3c-2.2,0-3.9,1.7-3.9,3.9c0,0,0,0,0,0.1c0,0.6,0.2,1.2,0.4,1.7
		c0.4,1,0.9,2,1.5,3c0.3,0.4,0.6,0.8,0.9,1.1c0.4,0.4,0.7,0.8,1,1.3c0.7,1.3,0.9,2.4,0.6,2.7c-0.1,0.2-0.6,0.1-1.2-0.1
		c-0.9-0.5-1.8-1.2-2.5-2c-3.3-3.1-8.3-7.8-16.3-1.4l-0.7,0.6c-2-0.9-4.3-0.1-5.2,1.9c-0.2,0.5-0.4,1.1-0.4,1.7c0,1.6,1.9,4.8,3,6.4
		l0.8,0.8c1.1-1.4,2.2-3,3.1-4.5l1.5,0.3c3.7,0.7,6.3,1.4,6.1,3.5c-0.4,6,2.5,10.1,7.8,10.9l0.2-1.5c-2.1-0.3-7-1.8-6.5-9.3
		c0.2-3.6-4-4.4-7.4-5.1l-1.2-0.2c0.1-0.4,0.2-0.8,0.2-1.2c0-1-0.4-1.9-1-2.6l0.4-0.4c6.9-5.5,11-1.7,14.3,1.3
		c0.9,0.9,1.9,1.7,3,2.3c1.9,0.8,2.7,0.1,3.1-0.4c0.8-1.2,0.2-3.2-0.9-4.9c1.3-1.7,3-4.4,3-5.8c0-1.4-0.7-2.6-1.9-3.3
		c1.6-1.4,3.2-2.9,4.1-3.8c8.7,5.3,14,14.8,14,25c0,0.5,0,1,0,1.5c0.5,0.2,1,0.5,1.5,0.8c0.1-0.8,0.1-1.5,0.1-2.3
		C61.7,13.9,47.9,0,30.9,0c-5.7,0-11.3,1.6-16.1,4.5C13,3.3,10.6,3.8,9.4,5.6C9,6.2,8.7,7,8.7,7.8c0,0.5,0.1,0.9,0.3,1.3
		c-12,12-12,31.6,0,43.6c9.7,9.7,24.5,11.8,36.5,5.3c-0.4-0.3-0.8-0.7-1.3-1.1C41.1,58.6,37.6,59.6,34,60z M20.1,24.3
		c-0.3,1-1.5,1.6-2.5,1.3c-1-0.3-1.6-1.5-1.3-2.5c0.3-0.8,1-1.3,1.8-1.4l0,0c1.1-0.1,2,0.8,2.1,1.9C20.2,23.8,20.2,24,20.1,24.3z
		 M42.1,13.2c0.1,1.1-0.8,2.1-1.9,2.1c-1.1,0.1-2.1-0.8-2.1-1.9c0-0.1,0-0.1,0-0.2c0-1.1,0.9-2,2-2.1h0.2
		C41.3,11.2,42.1,12.1,42.1,13.2L42.1,13.2z M10.6,7.6c0.2-1,1-1.7,2-1.7h0.1c1.1,0,2,1,2,2.1c0,1.1-1,2-2.1,2c-1.1,0-2-1-2-2.1
		C10.6,7.8,10.6,7.7,10.6,7.6L10.6,7.6z M25.6,48.1c-1.1,0.3-2.2-0.2-2.5-1.3c-0.3-1.1,0.2-2.2,1.3-2.5c1.1-0.3,2.2,0.2,2.5,1.3
		C27,45.8,27,46,27,46.2C27,47.1,26.5,47.9,25.6,48.1L25.6,48.1z M30.8,60.1C14.6,60.1,1.5,47,1.5,30.9c0-6.8,2.4-13.5,6.8-18.7
		c-0.9,3.9-0.2,8.1,1.9,11.5c4.1,6.6,10.1,11.2,14.9,14.6c2.1,1.5,3.2,2.6,3.2,3.3c0,0.3-0.1,0.7-0.9,1.4c-1.7-1.3-4.1-1-5.5,0.7
		C21.3,44.3,21,45.1,21,46c0,1.6,2,5,3,6.5c0.2,0.7,0.6,1.4,1,2c1.2,1.6,2.9,2.7,4.9,3.2c1.7,0.6,2.6,1,2.6,2.3
		C32,60.1,31.4,60.2,30.8,60.1L30.8,60.1z"/>
	<path class="st1" d="M36.1,5.9c0-2.2-1.8-3.9-3.9-3.9c-2.2,0-3.9,1.8-3.9,3.9c0,2.2,3.6,7.4,3.6,7.4S36.1,8.1,36.1,5.9z M30.1,6.1
		c0-1.1,0.9-2.1,2-2.1s2,0.9,2,2s-0.9,2.1-2,2.1l0,0C31.1,8.1,30.2,7.2,30.1,6.1L30.1,6.1z"/>
	<path class="st1" d="M61.6,33.1c-0.5-0.3-1-0.5-1.5-0.8c-11.1-5.1-22.1,2.8-22.1,2.8V47c1.1,3.8,3.2,7.3,6.2,9.9
		c0.4,0.4,0.8,0.8,1.3,1.1c1.8,1.5,3.7,2.7,5.8,3.7c10.5-3.5,13.3-15.6,13.3-15.6V35.2C63.7,34.4,62.7,33.7,61.6,33.1z M57.8,51.4
		l-3.6-0.3c1.3-1.2,2.4-2.6,3.1-4.3c0.5-1.3,0.6-2.7,0.3-4c-0.1-0.3-0.1-0.5-0.2-0.8c-1.7-5-8.6-4.2-10.6-1.9
		c-2.6,2.9-2.3,7.3,0.6,9.9c0.5,0.4,1,0.8,1.6,1.1c0.7,0.4,1.4,0.7,2,1s1.1,0.5,1.5,0.7c1.6,0.7,3.4,1.1,5.1,1.3l-1.9,2.4
		c-2.1-0.2-4.1-0.6-6-1.4c-0.5-0.2-1.1-0.4-1.6-0.7C47,53.9,46,53.2,45,52.3c-4-3.9-4.4-13.3,1.8-16.1c5.7-2.6,10.1-0.2,12.2,2.6
		c0.2,0.3,0.4,0.6,0.6,0.9c0.2,0.3,0.3,0.6,0.4,1C61.3,44,60.2,49.4,57.8,51.4z"/>
</g>
</svg>
