<svg id="Layer_1" data-name="Layer 1" xmlns="http://www.w3.org/2000/svg" xmlns:xlink="http://www.w3.org/1999/xlink" viewBox="0 0 143.5 72.25"><defs><style>.cls-1{fill:#d7d7d7;}.cls-2{fill:url(#linear-gradient);}.cls-3{fill:#eb1c24;}.cls-4{fill:#231f20;}.cls-5{fill:#222526;}</style><linearGradient id="linear-gradient" x1="71.59" y1="30.15" x2="71.59" y2="58.07" gradientUnits="userSpaceOnUse"><stop offset="0" stop-color="#fff"/><stop offset="1" stop-color="#eee"/></linearGradient></defs><title>logo vccorp</title><path class="cls-1" d="M118.41,21.85,107.59,5.55S105.81,1.11,98.4,1.4H5.94s-4.45-.3-4.74,3.85V66.31s-.3,4.45,5.63,4.45H136.34s5.63-.3,5.63-6.82V28.37s.59-6.22-5.33-6.52Z"/><path class="cls-2" d="M2.09,24.22H137.23A5.34,5.34,0,0,1,141.09,29V65.12s-.59,4.15-4.74,4.15H6.54a5.68,5.68,0,0,1-4.45-5.63Z"/><ellipse class="cls-3" cx="57.9" cy="47.19" rx="1.81" ry="1.85"/><polygon class="cls-4" points="10.31 31.28 14.8 31.28 30.57 59.11 28.28 63.25 10.31 31.28"/><polygon class="cls-4" points="18.16 31.28 22.78 31.28 32.31 48.27 41.92 31.28 46.41 31.28 32.28 56.31 18.16 31.28"/><path class="cls-4" d="M57.84,59.09a12,12,0,0,1,0-23.9A11.56,11.56,0,0,1,66,38.53l2.63-2.84a15.42,15.42,0,0,0-10.75-4.37,15.95,15.95,0,0,0,0,31.89,15.42,15.42,0,0,0,10.82-4.44l-2.76-3A11.55,11.55,0,0,1,57.84,59.09Z"/><path class="cls-4" d="M58,52.32a5.05,5.05,0,0,1,0-10.11,4.88,4.88,0,0,1,3.35,1.33L64,40.64a8.65,8.65,0,0,0-6-2.46,9,9,0,0,0,0,17.9,8.65,8.65,0,0,0,6-2.39l-2.57-2.76A4.89,4.89,0,0,1,58,52.32Z"/><path class="cls-4" d="M90.38,38.34a8.92,8.92,0,1,0,8.74,8.92A8.83,8.83,0,0,0,90.38,38.34Zm0,13.9a5,5,0,1,1,4.89-5A4.94,4.94,0,0,1,90.38,52.25Z"/><path class="cls-4" d="M75.53,52.27a5,5,0,0,1,0-10,4.84,4.84,0,0,1,3.35,1.34l2.55-2.86a8.66,8.66,0,0,0-6-2.44,9,9,0,0,0,0,17.92,8.67,8.67,0,0,0,6.12-2.54l-2.6-2.81A4.84,4.84,0,0,1,75.53,52.27Z"/><path class="cls-4" d="M112.06,50.1c3.9-1.7,3.16-6.25,3.16-6.25-.43-5.62-6.74-5.3-6.74-5.3H101v17.1h3.84l-.06-4.86,4,.06,2.6,4.8h4.33Zm-.4-5.17a2.83,2.83,0,0,1-2.91,2.75h-4V41.74h4.33A2.75,2.75,0,0,1,111.66,44.92Z"/><path class="cls-4" d="M132.14,43.66c-.34-5.14-6.22-5.12-6.22-5.12h-7.61V55.73h3.76l0-4.94,4.42,0,.65-.13C133,50,132.14,43.66,132.14,43.66Zm-3.48,1a2.91,2.91,0,0,1-3,3h-3.61v-6h3.49A2.84,2.84,0,0,1,128.66,44.68Z"/><path class="cls-5" d="M13.88,18,10.94,9H12.2l1.4,4.43c.39,1.21.72,2.31,1,3.37h0c.25-1,.63-2.18,1-3.35L17.14,9h1.24l-3.22,9Z"/><path class="cls-5" d="M20.38,15.19,19.45,18h-1.2L21.3,9h1.4l3.07,9H24.53l-1-2.83ZM22.48,7l1.39,1.52h-1L22,7.62h0l-.84.92h-1L21.58,7Zm.85,7.26-.88-2.59c-.2-.59-.33-1.12-.47-1.64h0c-.13.53-.28,1.08-.45,1.63l-.88,2.6Zm-2,5.47a.68.68,0,0,1,.67-.67.66.66,0,0,1,.64.67.65.65,0,1,1-1.31,0Z"/><path class="cls-5" d="M27.43,18V9H28.7l2.88,4.55A25.51,25.51,0,0,1,33.2,16.5h0c-.11-1.2-.13-2.3-.13-3.7V9h1.09v9H33l-2.86-4.57a28.57,28.57,0,0,1-1.68-3h0c.07,1.13.09,2.22.09,3.71V18Z"/><path class="cls-5" d="M40.87,9v3.77h4.35V9H46.4v9H45.22V13.8H40.87V18H39.71V9Z"/><path class="cls-5" d="M50.2,15.19,49.27,18h-1.2l3.06-9h1.4l3.07,9H54.35l-1-2.83ZM51.3,7l1.23,1.55h-.95L49.88,7Zm1.86,7.3-.88-2.59c-.2-.59-.33-1.12-.47-1.64h0c-.13.53-.28,1.08-.45,1.63l-.88,2.6Z"/><path class="cls-5" d="M57.25,18V9h1.27l2.88,4.55A25.51,25.51,0,0,1,63,16.5h0c-.11-1.2-.13-2.3-.13-3.7V9H64v9H62.83L60,13.45a28.57,28.57,0,0,1-1.68-3h0c.07,1.13.09,2.22.09,3.71V18Z"/><path class="cls-5" d="M67.53,9v3.77h4.35V9h1.17v9H71.88V13.8H67.53V18H66.36V9Z"/><path class="cls-5" d="M78.56,9.14A11.29,11.29,0,0,1,80.69,9a3.72,3.72,0,0,1,2.47.65,1.89,1.89,0,0,1,.75,1.59,2.14,2.14,0,0,1-1.52,2v0a2.32,2.32,0,0,1,1.86,2.26,2.43,2.43,0,0,1-.76,1.8,4.52,4.52,0,0,1-3.11.84,13.71,13.71,0,0,1-1.8-.11Zm1.16,3.69h1.05c1.23,0,1.95-.64,1.95-1.51,0-1.05-.8-1.47-2-1.47a5,5,0,0,0-1,.08Zm0,4.31a6.22,6.22,0,0,0,1,.05c1.2,0,2.31-.44,2.31-1.75S82,13.71,80.69,13.71h-1Z"/><path class="cls-5" d="M93.94,8a2.55,2.55,0,0,1,.24,1.09,1.13,1.13,0,0,1-1.4,1.19,4.8,4.8,0,0,1,1,3.18c0,3.1-1.88,4.74-4.18,4.74s-4-1.84-4-4.57,1.78-4.73,4.18-4.73a4.43,4.43,0,0,1,1.39.23,6.18,6.18,0,0,0,1.48.48c.44,0,.6-.2.6-.59A1.92,1.92,0,0,0,93,8.14ZM92.6,13.48c0-1.79-.93-3.66-2.87-3.66s-2.9,1.8-2.88,3.75,1,3.65,2.87,3.65S92.6,15.52,92.6,13.48ZM89.4,8.38c.23-.57.71-.68.71-1.12a.41.41,0,0,0-.45-.41.89.89,0,0,0-.65.47L88.55,7a1.47,1.47,0,0,1,1.32-.89,1,1,0,0,1,1.11,1c0,.68-.59.83-.95,1.44Z"/><path class="cls-5" d="M96.83,9v9H95.66V9Z"/></svg>