<svg xmlns="http://www.w3.org/2000/svg" viewBox="0 0 31.84 31.85"><defs><style>.cls-1{fill:#fff;}</style></defs><title>icon FB</title><g id="bảng_giá" data-name="bảng giá"><path class="cls-1" d="M31.84,15.92A15.92,15.92,0,1,0,15.92,31.84,15.92,15.92,0,0,0,31.84,15.92Zm-30.39,0A14.47,14.47,0,1,1,15.92,30.39,14.47,14.47,0,0,1,1.45,15.92Z"/><path class="cls-1" d="M16.53,25.11V15.92h3l.48-3H16.53V11.35c0-.79.26-1.55,1.4-1.55h2.28v-3H17c-2.72,0-3.46,1.79-3.46,4.27v1.84H11.64v3h1.87v9.19Z"/></g></svg>