<svg xmlns="http://www.w3.org/2000/svg" viewBox="0 0 25.44 25.44"><defs><style>.cls-1{fill:#427cff;}</style></defs><title>icon-hotline</title><g id="menu"><path class="cls-1" d="M16.57,15.11a1,1,0,0,0-1.57,0l-1.09,1.1a.22.22,0,0,1-.3.06c-.24-.13-.49-.23-.72-.38a11.36,11.36,0,0,1-2.74-2.49,6.49,6.49,0,0,1-1-1.57.23.23,0,0,1,.06-.29c.37-.35.72-.72,1.08-1.08a1,1,0,0,0,0-1.6L9.45,8,8.56,7.1A1,1,0,0,0,7,7.1c-.37.36-.72.74-1.1,1.09a1.78,1.78,0,0,0-.56,1.2,5.1,5.1,0,0,0,.39,2.19A13.33,13.33,0,0,0,8.1,15.53a14.64,14.64,0,0,0,4.85,3.79,7,7,0,0,0,2.69.78,2,2,0,0,0,1.69-.64c.31-.35.67-.67,1-1a1,1,0,0,0,0-1.59Z"/><path class="cls-1" d="M16,12.66l1.14-.19a5.1,5.1,0,0,0-4.31-4.18l-.16,1.14A3.94,3.94,0,0,1,16,12.66Z"/><path class="cls-1" d="M17.76,7.72A8.37,8.37,0,0,0,13,5.33L12.8,6.47a7.3,7.3,0,0,1,6.18,6l1.14-.19A8.43,8.43,0,0,0,17.76,7.72Z"/><path class="cls-1" d="M12.72,0A12.72,12.72,0,1,0,25.44,12.72,12.72,12.72,0,0,0,12.72,0Zm0,24.34A11.62,11.62,0,1,1,24.34,12.72,11.62,11.62,0,0,1,12.72,24.34Z"/></g></svg>