<svg xmlns="http://www.w3.org/2000/svg" viewBox="0 0 28.9 29.35"><defs><style>.cls-1{fill:#fff;}</style></defs><title>icon linkedin</title><g id="footer"><path class="cls-1" d="M26.76,0H2.14A2.1,2.1,0,0,0,0,2.07V26.83A2.1,2.1,0,0,0,2.14,28.9H26.76a2.1,2.1,0,0,0,2.14-2.07V2.07A2.1,2.1,0,0,0,26.76,0ZM4.46,24.18v-13H8.78v13ZM6.62,9.4h0a2.25,2.25,0,1,1,.06-4.5,2.25,2.25,0,1,1,0,4.5ZM24.38,24.18H20.05v-7c0-1.75-.63-2.94-2.19-2.94a2.37,2.37,0,0,0-2.22,1.58,3,3,0,0,0-.14,1.06v7.26H11.18s.06-11.79,0-13H15.5V13a4.29,4.29,0,0,1,3.9-2.15c2.85,0,5,1.86,5,5.86Z"/></g></svg>