<svg xmlns="http://www.w3.org/2000/svg" xmlns:xlink="http://www.w3.org/1999/xlink" viewBox="0 0 25.49 25.49"><defs><style>.cls-1{fill:none;}.cls-2{opacity:0.15;}.cls-3{clip-path:url(#clip-path);}.cls-4{fill:#427cff;}</style><clipPath id="clip-path"><rect class="cls-1" x="-1224.54" y="190.03" width="1920" height="315.1"/></clipPath></defs><title>header-icon-user</title><g id="bảng_giá" data-name="bảng giá"><path class="cls-4" d="M25.49,12.2v1.09c0,.18,0,.35,0,.53a12.42,12.42,0,0,1-1.24,4.47,12.83,12.83,0,0,1-10.84,7.19A12.66,12.66,0,0,1,4.05,22a12.59,12.59,0,0,1-4-8.36A12.34,12.34,0,0,1,.77,8.43,12.86,12.86,0,0,1,11.68,0a12.29,12.29,0,0,1,5,.6,12.73,12.73,0,0,1,6.71,5.2,12.37,12.37,0,0,1,2,5.55C25.45,11.67,25.47,11.93,25.49,12.2ZM14.69,14.14a8,8,0,0,1,4.08,2.73,7.31,7.31,0,0,1,1.67,4.58A11.47,11.47,0,0,0,24,9.55a11.7,11.7,0,0,0-22.74,1,11.55,11.55,0,0,0-.07,4,11.51,11.51,0,0,0,3.87,6.92A7.39,7.39,0,0,1,6.7,16.84a7.79,7.79,0,0,1,4.12-2.69,5.13,5.13,0,0,1-2.62-2.54A4.87,4.87,0,0,1,7.89,8a5.07,5.07,0,1,1,6.8,6.15Z"/></g></svg>