<svg xmlns="http://www.w3.org/2000/svg" viewBox="0 0 124.72 87.26"><defs><style>.cls-1{fill:#a4c2f7;}.cls-2{fill:#d4e1f4;}.cls-3{fill:#e3e7f2;}.cls-4{fill:#fff;}.cls-5{fill:#427cff;}</style></defs><title>chi phi-icon 3-select</title><g id="chi_phí_linh_hoạt" data-name="chi phí linh hoạt"><path class="cls-1" d="M43.69,20.44H52V35.71H43.69Z"/><path class="cls-2" d="M106.62,47.76l-.6,2.1L94.59,54,80.15,67.42A7,7,0,0,0,78.51,70,7,7,0,0,1,72,74.8H65.83A7,7,0,0,0,72.36,70,7,7,0,0,1,74,67.42L88.44,54l11.43-4.16.6-2.1a29,29,0,0,0-3.28-23.37L85.62,5.86,89.4,2.08l13.94,22.31A29,29,0,0,1,106.62,47.76Z"/><path class="cls-3" d="M100.47,47.76l-.6,2.1L88.44,54,74,67.42A7,7,0,0,0,72.36,70a7,7,0,0,1-6.52,4.76h-18l-.79-.21L31.22,70.64l-8.31-8.31-5.32.83-.83-.83-12.92,2a2,2,0,0,1-1.77-2.1C2.21,57.76,4,47.1,16.68,40.47c.66-.33,1.35-.69,2.08-1a98.45,98.45,0,0,1,24.93-6.75c3-.44,5.82-.77,8.31-1l.39,0c1.83-.17,3.45-.27,4.84-.35A2.06,2.06,0,0,1,59,34.72,30.78,30.78,0,0,0,52,54c0,8.35,5.46,11.22,10.14,12.13a23.41,23.41,0,0,0,4.3.44,4.13,4.13,0,0,0,3.35-1.66l13.8-18.39a29.09,29.09,0,0,0,3.57-28.63l-4-9.6,2.45-2.45L97.19,24.39A29,29,0,0,1,100.47,47.76Z"/><path class="cls-2" d="M43.69,22.85V33.76a98.45,98.45,0,0,0-24.93,6.75c-.73.31-1.41.66-2.08,1V33.86a4.16,4.16,0,0,1,2.47-3.8l16.23-7.21Z"/><path class="cls-3" d="M12.54,72.2a4.12,4.12,0,0,0,0,.52A12.47,12.47,0,0,0,37.22,75L21.77,59.31Z"/><path class="cls-3" d="M16.76,62.33l.83.83L9.78,64.41H4.15a.81.81,0,0,1-.31,0Z"/><path class="cls-2" d="M22.91,62.33c0,10.39-6.09,10.8-10.37,9.87a16.39,16.39,0,0,1-2.64-.83,2.08,2.08,0,0,1-1.28-2.31,43.75,43.75,0,0,1,1.15-4.65A24.63,24.63,0,0,1,28.23,47.69,24.75,24.75,0,0,1,47.46,52a15,15,0,0,1,4,18c-4.1,8.06-15.55,6.77-21,1.45-2.35-2.31-4.42-4.88-6.74-7.21A10.76,10.76,0,0,1,22.91,62.33Z"/><path class="cls-3" d="M122.64,72.72a12.47,12.47,0,0,1-12.47,12.47,12.85,12.85,0,0,1-3.12-.39,12.39,12.39,0,0,1-9.25-13.61c3.86-.46,6.86-3.14,9.93-4.49,2-.87,4-1.45,5.69-2a14,14,0,0,0,4.2-1.91A12.41,12.41,0,0,1,122.64,72.72Z"/><path class="cls-2" d="M116.41,72.72a12.51,12.51,0,0,1-9.35,12.07,12.39,12.39,0,0,1-9.25-13.61c3.86-.46,6.86-3.14,9.93-4.49,2-.87,4-1.45,5.69-2A12.41,12.41,0,0,1,116.41,72.72Z"/><path class="cls-2" d="M114.33,72.72a4.16,4.16,0,1,1-4.16-4.16A4.16,4.16,0,0,1,114.33,72.72Z"/><path class="cls-3" d="M119.77,61c-.5.46-1.23,1.06-2.14,1.77a41.51,41.51,0,0,1-19.82,8.44,30,30,0,0,1-6.69,0c-.66,0-1.33-.12-2-.23a2.08,2.08,0,0,1-1.68-2.26c.52-4.82,3.16-17.2,16.5-18.87a1.7,1.7,0,0,1,.33,0c13.21-1.54,15.71,6.25,16.19,9.27A2.1,2.1,0,0,1,119.77,61Z"/><path class="cls-2" d="M113.62,61c-.5.46-1.23,1.06-2.14,1.77a41.51,41.51,0,0,1-19.82,8.44,4.9,4.9,0,0,1-.54,0c-.66,0-1.33-.12-2-.23a2.08,2.08,0,0,1-1.68-2.26c.52-4.82,3.16-17.2,16.5-18.87a1.7,1.7,0,0,1,.33,0,10.85,10.85,0,0,1,10,9.27A2,2,0,0,1,113.62,61Z"/><path class="cls-2" d="M29.14,72.72A4.16,4.16,0,1,1,25,68.56,4.16,4.16,0,0,1,29.14,72.72Z"/><path class="cls-3" d="M32.65,55.27a7.37,7.37,0,1,0-3.3,14.36,7.37,7.37,0,1,0,3.3-14.36Z"/><path class="cls-3" d="M60.31,19.74a4.19,4.19,0,0,1-4.16,4.16H27.06a4.16,4.16,0,1,1,0-8.31H56.15A4.17,4.17,0,0,1,60.31,19.74Z"/><path class="cls-4" d="M44.46,75.39c-.35-.07-.7-.16-1-.25,0,.15-.09.3-.12.45C43.69,75.54,44.08,75.48,44.46,75.39Z"/><path class="cls-4" d="M53.28,74.59l-.21-.05-.58.26h1.57Z"/><path class="cls-4" d="M58.23,31.56v.19l.29,0A2,2,0,0,0,58.23,31.56Z"/><path class="cls-4" d="M18.75,72.72a4.12,4.12,0,0,1,0-.52,16.41,16.41,0,0,1-2.64-.83,2.08,2.08,0,0,1-1.28-2.31A43.76,43.76,0,0,1,16,64.41H10.38a.81.81,0,0,1-.31,0,2,2,0,0,1-1.77-2.1c.15-4.51,1.91-15.17,14.61-21.79V33.86a4.16,4.16,0,0,1,2.47-3.8l13.89-6.17h-6a4.16,4.16,0,1,1,0-8.31H27.06a4.16,4.16,0,1,0,0,8.31h6L19.14,30.07a4.16,4.16,0,0,0-2.47,3.8v6.61C4,47.1,2.21,57.76,2.07,62.27a2,2,0,0,0,1.77,2.1.81.81,0,0,0,.31,0H9.78a43.73,43.73,0,0,0-1.15,4.65A2.08,2.08,0,0,0,9.9,71.36a16.39,16.39,0,0,0,2.64.83,4,4,0,0,0,0,.52A12.31,12.31,0,0,0,28,84.77,12.47,12.47,0,0,1,18.75,72.72Z"/><path class="cls-4" d="M.07,64.66a24,24,0,0,1,.59-7.42,26.31,26.31,0,0,1,2.59-6.83,28.54,28.54,0,0,1,10-10.33,42.1,42.1,0,0,1,4.64-2.5l1.69,3.8a37.84,37.84,0,0,0-4.12,2.22,24.37,24.37,0,0,0-8.58,8.82,22.19,22.19,0,0,0-2.18,5.76,20.38,20.38,0,0,0-.52,6Z"/><path class="cls-5" d="M122,61.72a2.08,2.08,0,0,0,.61-1.47,13.13,13.13,0,0,0-4.26-9.16,15.27,15.27,0,0,0-9.6-3.49,31.2,31.2,0,0,0-3.71-24.36L91.16,1s-.07-.07-.1-.11a2,2,0,0,0-.38-.4L90.5.33A1.93,1.93,0,0,0,90,.1L89.82,0a2.05,2.05,0,0,0-.72,0h0L74.56,2.1a2.08,2.08,0,0,0,.59,4.11L83.52,5,81.68,6.85l-6.22,6.22A2.08,2.08,0,1,0,78.4,16l4-4,2.8,6.73a27.12,27.12,0,0,1-3.32,26.59L68.13,63.68a2.08,2.08,0,0,1-1.67.83c-5.65,0-12.38-1.85-12.38-10.49a29.16,29.16,0,0,1,9.61-21.23,2.08,2.08,0,0,0-1.3-3.7c-.36,0-3.53,0-8.31.37V24.93h2.08a6.23,6.23,0,0,0,0-12.47H27.06a6.23,6.23,0,0,0-1.21,12.34l-10,4.46a2.08,2.08,0,0,0-1.23,1.9v8.1a14.22,14.22,0,0,0-1.33.82L11.4,41.29a2.08,2.08,0,1,0,2.45,3.36l1.63-1a37.84,37.84,0,0,1,4.12-2.22c13.1-5.82,29.57-7.48,37.73-7.95a32.9,32.9,0,0,0-7.25,17.71,17.41,17.41,0,0,0-5.14-3.63c-8.14-3.78-18.49-2.13-24.87.42s-9.85,8.94-11.77,14.4H4.16a21.67,21.67,0,0,1,.92-5.54,2.18,2.18,0,0,0-1.32-2.56,2,2,0,0,0-2.67,1.38,24.62,24.62,0,0,0-1,8.76.24.24,0,0,0,0,0s0,0,0,.05v.21h0a2.05,2.05,0,0,0,2,1.82H7.06a37.79,37.79,0,0,0-.75,3.9,2.08,2.08,0,0,0,1,2.06,19,19,0,0,0,3.16,1.34,14.51,14.51,0,0,0,28.19,3.72,16.68,16.68,0,0,0,3.22.36,13.17,13.17,0,0,0,5.34-1.12,2.1,2.1,0,0,0,.59.12H72A8.85,8.85,0,0,0,80.39,71l.07-.2a4.82,4.82,0,0,1,1.16-1.87L86,64.47a26.39,26.39,0,0,0-.8,6.17,2.08,2.08,0,0,0,1.63,2,34,34,0,0,0,7.3.79c.49,0,1-.06,1.49-.08a14.54,14.54,0,0,0,29.05-.66,14.35,14.35,0,0,0-3.91-9.88C121.55,62.19,122,61.75,122,61.72ZM49.92,29.83q-2,.2-4.16.49V24.93h4.16ZM25,18.7a2.08,2.08,0,0,1,2.08-2.08H56.15a2.08,2.08,0,0,1,0,4.16H27.06A2.08,2.08,0,0,1,25,18.7ZM18.75,37.22v-4.7l17.06-7.58h5.79v6A99.81,99.81,0,0,0,18.75,37.22ZM25,83.11a10.39,10.39,0,0,1-10.2-8.52,10.55,10.55,0,0,0,4.1-.59A6.22,6.22,0,0,0,31,74.19a6.61,6.61,0,0,0,3.63,2.31A10.36,10.36,0,0,1,25,83.11Zm0-20.78a6.23,6.23,0,1,1,6.23,6.23h-.06a6.77,6.77,0,0,0-.8.19.09.09,0,0,0-.06,0l-.24.19L30,69a6.21,6.21,0,0,0-5-2.53c-.14,0-.26,0-.39,0A21.26,21.26,0,0,0,25,62.33Zm0,8.31a2.08,2.08,0,1,1-2.08,2.08A2.08,2.08,0,0,1,25,70.64ZM37.86,73c-.54-.17-1-.29-1.52-.4a4.25,4.25,0,0,1-1.59-.59,10.37,10.37,0,1,0-13.92-9.73c0,2.45-.39,5.67-2.23,7.15a6.54,6.54,0,0,1-5.61.69,14.26,14.26,0,0,1-2.32-.74A41.34,41.34,0,0,1,11.76,65c1.52-4.85,4.46-11.09,9.84-13.24,6.06-2.42,15.08-3.53,21.57-.51a13.18,13.18,0,0,1,4.83,20A9.56,9.56,0,0,1,37.86,73Zm40.83-7.1a8.65,8.65,0,0,0-2.08,3.31,1.79,1.79,0,0,0-.07.19A4.78,4.78,0,0,1,72,72.72H52.23a15.12,15.12,0,0,0,2.65-7.51,18.42,18.42,0,0,0,11.56,3.45h0a6.27,6.27,0,0,0,5-2.49L85.24,47.79A31.28,31.28,0,0,0,89.08,17.1L85.62,8.79,89,5.4l12.54,20.06a27.05,27.05,0,0,1,3.07,21.73l-.16.55-.79.07A19.58,19.58,0,0,0,93.61,52a2.07,2.07,0,0,0-1.53.6Zm10.82,3c.44-4.35,2.74-15.52,14.7-17,.4-.05.78-.08,1.16-.11l.09,0a1.92,1.92,0,0,0,1.43-.13,12.4,12.4,0,0,1,8.71,2.45,8.88,8.88,0,0,1,2.81,5.25c-.46.42-1.15,1-2,1.66a39.57,39.57,0,0,1-18.79,8A29.56,29.56,0,0,1,89.5,68.94Zm22.75,3.78a2.08,2.08,0,1,1-2.08-2.08A2.08,2.08,0,0,1,112.25,72.72Zm-2.08,10.39A10.4,10.4,0,0,1,99.78,73,37.18,37.18,0,0,0,104,72a6,6,0,0,0-.07.71,6.23,6.23,0,1,0,9.95-5c1.39-.81,2.62-1.61,3.65-2.34a10.25,10.25,0,0,1,3,7.33A10.4,10.4,0,0,1,110.17,83.11Z"/><path class="cls-5" d="M5.26,50.28a3.29,3.29,0,0,0,.33.25,2.4,2.4,0,0,0,1.57.29A2.08,2.08,0,0,0,8.8,48.58a2.38,2.38,0,0,0-.27-.77,2.18,2.18,0,0,0-.5-.64,2,2,0,0,0-1.51-.47,2.41,2.41,0,0,0-1.45.86,2.26,2.26,0,0,0-.38,1.66l.12.39A1.39,1.39,0,0,0,5,50,1.27,1.27,0,0,0,5.26,50.28Z"/></g></svg>