<svg xmlns="http://www.w3.org/2000/svg" viewBox="0 0 87.25 87.26"><defs><style>.cls-1{fill:#e8edfc;}.cls-2{fill:#cad9fc;}.cls-3{fill:#fff;}.cls-4{fill:#427cff;}</style></defs><title>chi phi-icon 1-select</title><g id="chi_phí_linh_hoạt" data-name="chi phí linh hoạt"><path class="cls-1" d="M52.75,19.4,41.39,15.24,28.57,10.56,22.16,8.22,10.29,3.85a1.57,1.57,0,0,0-1.63.37L2,10.87a1.49,1.49,0,0,0-.44,1.29,1.59,1.59,0,0,0,.73,1.15L38,34.71Z"/><path class="cls-1" d="M41.39,15.24l3-3A3.1,3.1,0,1,0,40,7.87l-5,5Z"/><path class="cls-1" d="M28.57,10.56,32.32,6.8a3.1,3.1,0,0,0-4.39-4.39L22.16,8.19Z"/><path class="cls-2" d="M83,78.64l-6.65,6.65a1.57,1.57,0,0,1-1.29.44A1.52,1.52,0,0,1,74,85l-.71-1.17L52.55,49.34,64.47,37.83l3.39-3.29L72,45.9l2.34,6.41,2.34,6.41L79,65.13,83.39,77A1.56,1.56,0,0,1,83,78.64Z"/><path class="cls-1" d="M78.44,78.64l-5.19,5.19L52.55,49.34,64.47,37.83l2.95,8.07,2.34,6.41,2.34,6.41,2.34,6.41L78.78,77A1.51,1.51,0,0,1,78.44,78.64Z"/><path class="cls-1" d="M74.37,52.29l5-5A3.1,3.1,0,0,0,75,42.9l-3,3Z"/><path class="cls-1" d="M79,65.11l5.78-5.78a3.1,3.1,0,0,0-4.39-4.39L76.68,58.7Z"/><path class="cls-1" d="M24.16,52.55,9,50.65a1.52,1.52,0,0,0-1.29.44L5.44,53.36A1.57,1.57,0,0,0,5,54.72a1.53,1.53,0,0,0,.88,1.12l13,6Z"/><path class="cls-1" d="M34.71,63.11l1.9,15.16a1.52,1.52,0,0,1-.44,1.29l-2.27,2.27a1.57,1.57,0,0,1-1.37.44,1.53,1.53,0,0,1-1.12-.88l-6-13Z"/><path class="cls-2" d="M62.94,39.64C45.41,57.16,22.33,73.39,18.09,69.18a2.89,2.89,0,0,1-.68-2.07C17.48,59.89,32,39.9,47.63,24.33,62.43,9.53,73.39,3.44,79,4.46a4.65,4.65,0,0,1,2.56,1.27C85.78,9.95,80.46,22.11,62.94,39.64Z"/><path class="cls-1" d="M59.45,37C44.36,52,25.16,66.16,17.4,67.11,17.48,59.89,32,39.9,47.63,24.33,62.43,9.53,73.39,3.44,79,4.46,81.15,9.6,75.3,21.09,59.45,37Z"/><path class="cls-3" d="M20.11,61h0l-9.87-4.49a1.58,1.58,0,0,1-.88-1.12A1.52,1.52,0,0,1,9.8,54l2.27-2.27a0,0,0,0,0,0,0l-3.36-.41a1.49,1.49,0,0,0-1.29.44L5.17,54a1.57,1.57,0,0,0-.44,1.37,1.44,1.44,0,0,0,.88,1.12l13,6h0"/><path class="cls-3" d="M38.07,34.59A154,154,0,0,0,24.52,52l-.68.54h0c3.66-5.53,9.46-11.82,14.87-18l-.12.12-34-19.26a1.48,1.48,0,0,1-.73-1.15A1.6,1.6,0,0,1,4.34,13l8.41-8.24-2.46-.9a1.57,1.57,0,0,0-1.63.37L2,10.87a1.49,1.49,0,0,0-.44,1.29,1.59,1.59,0,0,0,.73,1.15L38,34.71Z"/><path class="cls-4" d="M20,71.32a4.09,4.09,0,0,1-3-1c-6.19-6.19,16.19-33.69,29.54-47C63.67,6.09,77.17-.85,82.63,4.63s-1.46,19-18.6,36.1C52.26,52.51,29.45,71.32,20,71.32ZM77.71,5.88c-5,0-15,5.61-29,19.55C29.15,45,16.65,65.57,19.18,68.08s23.08-10,42.66-29.54C79.12,21.26,83.61,10,80.44,6.8A3.7,3.7,0,0,0,77.71,5.88Z"/><path class="cls-4" d="M52,30.23a1.54,1.54,0,0,1-1.1-2.63c15.19-15.19,23.25-18,25.35-18.45a1.53,1.53,0,0,1,1.49.44,1.5,1.5,0,0,1,.34,1.51,1.56,1.56,0,0,1-1.15,1c-1.37.32-8.87,2.63-23.86,17.62A1.29,1.29,0,0,1,52,30.23Z"/><path class="cls-3" d="M3.07,12,20.33,22.33l18.43,11L37.17,36,18.74,25,1.49,14.63Z"/><path class="cls-4" d="M8.92,17.28a1.55,1.55,0,0,0-.54-2.12L3.07,12,1.49,14.63,6.8,17.82A1.57,1.57,0,0,0,8.92,17.28Z"/><path class="cls-4" d="M37.15,36l1.58-2.66L19,21.52a1.55,1.55,0,0,0-1.58,2.66Z"/><path class="cls-4" d="M13.7,18.33a1.65,1.65,0,0,0-1.17-.17l-.27.1a1,1,0,0,0-.27.17,1.58,1.58,0,0,0-.22.2c-.07.07-.12.17-.2.24A1.65,1.65,0,0,0,11.41,20a1.53,1.53,0,0,0,1,1.1,1.46,1.46,0,0,0,1.44-.24,1.77,1.77,0,0,0,.41-.44,1.42,1.42,0,0,0,.17-1.17A1.63,1.63,0,0,0,13.7,18.33Z"/><path class="cls-4" d="M52.75,20.94a1.39,1.39,0,0,1-.54-.1L9.75,5.31,3.1,12a1.56,1.56,0,0,1,.78,1.37,1.54,1.54,0,0,1-2.36,1.29A3.08,3.08,0,0,1,.9,9.8L7.56,3.15a3.14,3.14,0,0,1,3.22-.73L53.26,18a1.56,1.56,0,0,1,1,1.73A1.52,1.52,0,0,1,52.75,20.94Z"/><path class="cls-4" d="M41.39,16.8a1.54,1.54,0,0,1-1.1-2.63l3-3a1.54,1.54,0,0,0,0-2.19,1.62,1.62,0,0,0-1.07-.44A1.49,1.49,0,0,0,41.07,9l-5,5a1.55,1.55,0,0,1-2.19-2.19l5-5a4.56,4.56,0,0,1,3.32-1.34A4.45,4.45,0,0,1,45.46,6.8a4.65,4.65,0,0,1,0,6.56l-3,3A1.55,1.55,0,0,1,41.39,16.8Z"/><path class="cls-4" d="M28.57,12.12a1.54,1.54,0,0,1-1.1-2.63l3.75-3.75a1.54,1.54,0,0,0,0-2.19,1.62,1.62,0,0,0-1.07-.44A1.58,1.58,0,0,0,29,3.54L23.25,9.31a1.55,1.55,0,0,1-2.19-2.19l5.78-5.78A4.56,4.56,0,0,1,30.15,0a4.69,4.69,0,0,1,3.27,1.34,4.65,4.65,0,0,1,0,6.56l-3.75,3.75A1.55,1.55,0,0,1,28.57,12.12Z"/><path class="cls-4" d="M75.3,87.26a2.1,2.1,0,0,1-.39,0,3.06,3.06,0,0,1-2.27-1.49L51.24,50.09a1.51,1.51,0,0,1,0-1.54,1.58,1.58,0,0,1,1.32-.8,1.56,1.56,0,0,1,1.37.76L75.3,84.17l6.65-6.65L66.42,35a1.58,1.58,0,0,1,.24-1.54,1.55,1.55,0,0,1,2.66.49L84.85,76.44a3.13,3.13,0,0,1-.73,3.27l-6.65,6.65A3,3,0,0,1,75.3,87.26Z"/><path class="cls-4" d="M74.37,53.85a1.54,1.54,0,0,1-1.1-2.63l5-5a1.51,1.51,0,0,0,.44-1.07A1.49,1.49,0,0,0,78.27,44a1.54,1.54,0,0,0-2.19,0l-3,3a1.55,1.55,0,0,1-2.19-2.19l3-3a4.64,4.64,0,0,1,6.56,6.56l-5,5A1.59,1.59,0,0,1,74.37,53.85Z"/><path class="cls-4" d="M79,66.67A1.54,1.54,0,0,1,78,64l5.78-5.78a1.47,1.47,0,0,0,.44-1.07,1.54,1.54,0,0,0-2.63-1.12l-3.75,3.75a1.55,1.55,0,0,1-2.19-2.19l3.75-3.75a4.74,4.74,0,0,1,6.56,0,4.65,4.65,0,0,1,0,6.56L80.12,66.2A1.45,1.45,0,0,1,79,66.67Z"/><path class="cls-4" d="M18.84,63.47a1.61,1.61,0,0,1-.66-.15l-13-6A3,3,0,0,1,3.49,55a3.12,3.12,0,0,1,.85-2.73L6.61,50a3.09,3.09,0,0,1,2.58-.88L24.33,51a1.55,1.55,0,0,1-.39,3.07L8.78,52.21,6.48,54.48l13,6a1.53,1.53,0,0,1,.85,1.73,1.47,1.47,0,0,1-1.46,1.22Z"/><path class="cls-4" d="M32.78,83.83a4,4,0,0,1-.54,0A3.09,3.09,0,0,1,30,82l-6-13a1.51,1.51,0,0,1,.15-1.54,1.59,1.59,0,0,1,1.41-.66,1.57,1.57,0,0,1,1.27.88l6,13,2.27-2.27-1.9-15.16a1.54,1.54,0,0,1,1.34-1.71,1.57,1.57,0,0,1,1.73,1.32l1.9,15.16a3.09,3.09,0,0,1-.88,2.58L35,82.9A3.1,3.1,0,0,1,32.78,83.83Z"/><path class="cls-4" d="M42.44,31.25a1.66,1.66,0,0,1-.76-.2L16.23,16.92a1.61,1.61,0,0,1-.83-1.34,1.54,1.54,0,0,1,2.32-1.37L43.17,28.35a1.56,1.56,0,0,1,.76,1.73,1.52,1.52,0,0,1-1.49,1.17Z"/><path class="cls-4" d="M71.71,71.81a1.56,1.56,0,0,1-1.37-.8L56.21,45.56a1.5,1.5,0,0,1,0-1.56,1.51,1.51,0,0,1,1.37-.76,1.56,1.56,0,0,1,1.34.83L73.05,69.52a1.51,1.51,0,0,1,0,1.54,1.54,1.54,0,0,1-1.32.76Z"/></g></svg>