<svg xmlns="http://www.w3.org/2000/svg" viewBox="0 0 134.56 69.03"><defs><style>.cls-1{fill:#e8edfc;}.cls-2{fill:#cad9fc;}.cls-3{fill:#bdc3c7;}.cls-4{fill:#fff;}.cls-5{fill:#427cff;}</style></defs><title>chi phi-icon 2-select</title><g id="chi_phí_linh_hoạt" data-name="chi phí linh hoạt"><path class="cls-1" d="M80.74,4v6.73L69,8.68Z"/><path class="cls-2" d="M132.32,53.33a4.5,4.5,0,0,1-4.49,4.49H6.73a4.49,4.49,0,0,1,0-9A10.62,10.62,0,0,1,9,35.39a51.77,51.77,0,0,0,11.21-15.7C22.34,15.37,26.58,9,46.94,8.5c.79,0,1.57,0,2.4,0,2.58,0,5.16,0,7.74.09,4.17.11,8.34.34,12.49.76a61.49,61.49,0,0,1,8.1,1.32,14.52,14.52,0,0,1,3,1,16,16,0,0,1,5.45,5c1.77,2.2,3.5,4.42,5.2,6.68a2.22,2.22,0,0,0,1.64.87L121.51,26a6.78,6.78,0,0,1,6.08,4.87,7.26,7.26,0,0,1,.25,1.86V48.85A4.5,4.5,0,0,1,132.32,53.33Z"/><path class="cls-1" d="M125.59,53.33a4.5,4.5,0,0,1-4.49,4.49H6.73a4.49,4.49,0,0,1,0-9A10.62,10.62,0,0,1,9,35.39a51.77,51.77,0,0,0,11.21-15.7C22.34,15.37,26.58,9,46.94,8.5l3.41.07c4.17.11,8.34.34,12.49.76a61.51,61.51,0,0,1,8.1,1.32c1,.25,7.76.54,8.72,1a16,16,0,0,1,5.45,5c1.77,2.2,3.5,4.42,5.2,6.68a2.22,2.22,0,0,0,1.64.87L114.78,26a6.78,6.78,0,0,1,6.08,4.87,7.35,7.35,0,0,1,.25,1.86V48.85A4.5,4.5,0,0,1,125.59,53.33Z"/><path class="cls-1" d="M116.62,55.58a11.21,11.21,0,1,1-11.21-11.21A11.21,11.21,0,0,1,116.62,55.58Z"/><path class="cls-1" d="M42.61,55.58A11.21,11.21,0,1,1,31.4,44.36,11.21,11.21,0,0,1,42.61,55.58Z"/><path class="cls-1" d="M35.88,55.58a4.49,4.49,0,1,1-4.49-4.49A4.49,4.49,0,0,1,35.88,55.58Z"/><path class="cls-3" d="M109.89,55.58a4.49,4.49,0,1,1-4.49-4.49A4.49,4.49,0,0,1,109.89,55.58Z"/><path class="cls-1" d="M109.89,55.58a4.49,4.49,0,1,1-4.49-4.49A4.49,4.49,0,0,1,109.89,55.58Z"/><path class="cls-4" d="M9,53.33a4.5,4.5,0,0,1,4.49-4.49A10.63,10.63,0,0,1,15.7,35.39a51.75,51.75,0,0,0,11.21-15.7C29,15.4,33.25,9.09,53.16,8.53c-1.27,0-2.55,0-3.82,0-.83,0-1.61,0-2.4,0C26.58,9,22.34,15.37,20.18,19.69A51.77,51.77,0,0,1,9,35.39,10.62,10.62,0,0,0,6.73,48.85a4.49,4.49,0,0,0,0,9h6.73A4.5,4.5,0,0,1,9,53.33Z"/><path class="cls-4" d="M4.86,50.09a12.39,12.39,0,0,1-1.61-4.22,12,12,0,0,1,0-4.42,14.33,14.33,0,0,1,4-7.49,52.29,52.29,0,0,0,8.67-11c.8-1.38,1.52-2.83,2.27-4.32l4,2c-.75,1.49-1.52,3-2.39,4.55A56.75,56.75,0,0,1,10.45,37.1a9.86,9.86,0,0,0-2.82,5.11,7.52,7.52,0,0,0,0,2.83,8.41,8.41,0,0,0,.94,2.57Z"/><path class="cls-5" d="M6.79,38.18a2.12,2.12,0,0,0-3.07,1.29,12.53,12.53,0,0,0-.62,5.4,12.77,12.77,0,0,0,1.77,5.23l3.73-2.49a8.72,8.72,0,0,1-1-3.22A8,8,0,0,1,8,40.94,2.48,2.48,0,0,0,6.79,38.18Z"/><path class="cls-5" d="M22.19,20.7l-4-2c-.75,1.49-1.47,2.94-2.27,4.32-.36.62-.72,1.23-1.11,1.82a2.3,2.3,0,0,0,.63,3.07,2.2,2.2,0,0,0,3.15-.65c.43-.66.83-1.33,1.22-2C20.67,23.73,21.44,22.19,22.19,20.7Z"/><path class="cls-5" d="M9.52,31.58a2.3,2.3,0,0,0-.59,1.57l.06.42a1.74,1.74,0,0,0,.15.42,1.45,1.45,0,0,0,.2.38,3.3,3.3,0,0,0,.29.34,2.31,2.31,0,0,0,1.6.64,2.25,2.25,0,0,0,.86-.22A2.34,2.34,0,0,0,13.43,33a2.37,2.37,0,0,0-.77-1.54A2.43,2.43,0,0,0,11,30.87,2.3,2.3,0,0,0,9.52,31.58Z"/><path class="cls-5" d="M20.41,60.06H6.73a6.73,6.73,0,1,1,0-13.46,2.24,2.24,0,0,1,0,4.49,2.24,2.24,0,1,0,0,4.49H20.41a2.24,2.24,0,1,1,0,4.49Z"/><path class="cls-5" d="M127.83,60.06H116.4a2.24,2.24,0,0,1,0-4.49h11.44a2.24,2.24,0,1,0,0-4.49,2.24,2.24,0,0,1-2.24-2.24V32.78a4.51,4.51,0,0,0-4.22-4.5l-28.53-1.8a4.46,4.46,0,0,1-3.29-1.76c-1.69-2.23-3.4-4.45-5.16-6.64l-.16-.19a13.7,13.7,0,0,0-4.51-4.21,13.86,13.86,0,0,0-2.59-.85,59.14,59.14,0,0,0-7.8-1.26c-3.58-.38-7.49-.62-12.3-.75q-3.84-.1-7.69-.1c-22.16,0-25.53,6.74-27.15,10a2.24,2.24,0,0,1-4-2c3.08-6.16,9.19-12.45,31.16-12.45q3.91,0,7.81.1c4.93.13,8.95.38,12.65.77a63.62,63.62,0,0,1,8.41,1.37,17.91,17.91,0,0,1,3.44,1.15,17.51,17.51,0,0,1,6.08,5.44l.16.19c1.79,2.22,3.53,4.47,5.25,6.74l28.52,1.79a9,9,0,0,1,8.43,9V47a6.73,6.73,0,0,1-2.24,13.07Z"/><path class="cls-5" d="M94.42,60.06h-52a2.24,2.24,0,1,1,0-4.49h52a2.24,2.24,0,0,1,0,4.49Z"/><path class="cls-5" d="M60.55,33.15H49.34a4.49,4.49,0,0,1-4.49-4.49v-9a4.49,4.49,0,0,1,4.49-4.49H60.55A4.49,4.49,0,0,1,65,19.69v9A4.49,4.49,0,0,1,60.55,33.15ZM49.34,19.69v9H60.56v-9Z"/><path class="cls-5" d="M38.13,33.15H26.91a4.49,4.49,0,0,1-4.49-4.49A13.47,13.47,0,0,1,35.88,15.21h2.24a4.49,4.49,0,0,1,4.49,4.49v9A4.49,4.49,0,0,1,38.13,33.15ZM35.88,19.69a9,9,0,0,0-9,9H38.13v-9Z"/><path class="cls-5" d="M83,33.15H71.77a4.49,4.49,0,0,1-4.49-4.49v-9a4.49,4.49,0,0,1,4.49-4.49H75.5a4.48,4.48,0,0,1,3.45,1.61l7.47,9A4.49,4.49,0,0,1,83,33.15ZM71.77,19.69v9H83l-7.47-9Z"/><path class="cls-5" d="M105.41,69a13.46,13.46,0,1,1,13.46-13.46A13.45,13.45,0,0,1,105.41,69Zm0-22.43a9,9,0,1,0,9,9A9,9,0,0,0,105.41,46.61Z"/><path class="cls-5" d="M31.4,69A13.46,13.46,0,1,1,44.85,55.58,13.46,13.46,0,0,1,31.4,69Zm0-22.43a9,9,0,1,0,9,9A9,9,0,0,0,31.4,46.61Z"/><path class="cls-5" d="M127.83,35.39h-4.49a2.24,2.24,0,0,1,0-4.49h4.49a2.24,2.24,0,1,1,0,4.49Z"/><path class="cls-5" d="M80.74,13.86a2.24,2.24,0,0,1-2.24-2.24V5l-14.91,5.6A2.24,2.24,0,0,1,62,6.38L78.42.21A3.37,3.37,0,0,1,83,3.37v8.25A2.24,2.24,0,0,1,80.74,13.86Z"/><path class="cls-5" d="M76.25,42.12H71.77a2.24,2.24,0,0,1,0-4.49h4.49a2.24,2.24,0,1,1,0,4.49Z"/><path class="cls-5" d="M51.58,42.12H47.1a2.24,2.24,0,0,1,0-4.49h4.49a2.24,2.24,0,1,1,0,4.49Z"/><path class="cls-5" d="M116.62,37.64h-.21L91.75,35.38a2.24,2.24,0,1,1,.4-4.47l24.67,2.24a2.24,2.24,0,0,1-.2,4.48Z"/><path class="cls-5" d="M132.32,69H15.7a2.24,2.24,0,1,1,0-4.49H132.32a2.24,2.24,0,1,1,0,4.49Z"/><path class="cls-5" d="M6.73,69H2.24a2.24,2.24,0,1,1,0-4.49H6.73a2.24,2.24,0,0,1,0,4.49Z"/><path class="cls-5" d="M20.18,39.88a2.24,2.24,0,1,1-2.24-2.24A2.24,2.24,0,0,1,20.18,39.88Z"/></g></svg>