<?xml version="1.0" encoding="utf-8"?>
<!-- Generator: Adobe Illustrator 21.1.0, SVG Export Plug-In . SVG Version: 6.00 Build 0)  -->
<svg version="1.1" id="Layer_1" xmlns="http://www.w3.org/2000/svg" xmlns:xlink="http://www.w3.org/1999/xlink" x="0px" y="0px"
	 viewBox="0 0 52.4 63.6" style="enable-background:new 0 0 52.4 63.6;" xml:space="preserve">
<style type="text/css">
	.st0{fill:#FFFFFF;}
</style>
<title>uu diem-icon 9</title>
<g id="ưu_điểm_vượt_trội">
	<polygon class="st0" points="32.6,38.7 37.1,34.2 32.6,38.6 	"/>
	<path class="st0" d="M24.2,57.5l-0.8,0.8c0.2-0.1,0.3-0.1,0.5-0.2c0.3-0.2,0.5-0.3,0.7-0.5C24.6,57.5,24.2,57.5,24.2,57.5z"/>
	<path class="st0" d="M51.9,24c-0.6-1.1-1.8-1.7-3-1.7l0.3-0.3c0.2-0.2,2-1.9,2.1-3.8c0-1-0.4-1.9-1.2-2.5c-0.7-0.7-1.7-1-2.6-1
		c-1.2,0.1-2.4,0.6-3.4,1.5c-0.1-0.2-0.3-0.3-0.4-0.5c-0.7-0.7-1.7-1-2.6-1c-1.5,0.2-2.8,0.9-3.8,1.9L37,16.8l-2.6,2.6
		c-0.1-0.5-0.4-1-0.7-1.4c-0.3-0.3-0.6-0.6-1-0.9c-2.4-1.6-5.2,0.7-5.3,0.7l-6.2,6.4c-0.6-0.5-1.3-0.8-2-0.9c-1.5-0.3-3,0.3-3.8,1.6
		c-0.6-0.9-1.5-1.4-2.5-1.6c-1-0.2-2.1,0-3,0.7c-0.9,0.8-1.5,2-1.6,3.2L5.4,43.5L0,49.4l13.5,14.2l3.4-3.2l3,3.2l4.9-4.6
		c1,0,4-0.2,5.5-1c1.5-0.9,16.4-15.6,18.1-17.3c0.1-0.1,2.3-2.6,0.8-5.2c-0.6-1-1.5-1.7-2.6-2l4.4-4l0,0
		C51.2,29.3,53.5,26.7,51.9,24z M16.1,27.5L16.1,27.5c0.1-0.9,0.4-1.7,1-2.2c0.5-0.4,1.2-0.5,1.8-0.3c0.4,0.1,0.8,0.2,1.1,0.5
		L15.7,30L16.1,27.5z M13.6,61.4L2.1,49.4l4.7-5.2l2.9-16.7v-0.1c0.1-0.8,0.4-1.6,1-2.2c0.5-0.4,1.2-0.5,1.8-0.3
		c0.6,0.1,1.2,0.4,1.5,0.9c0.4,0.9,0.5,1.9,0.3,2.8l-0.5,3.3l-2,11.7l-5.4,5.8l9.4,9.9L13.6,61.4z M49.9,28.3l-6.1,5.5l-1.3,1.3
		l-1.1,1.1l0,0l-6.2,6.1l1,1l5.3-5.3v0l1.6-1.5l1.5-1.5c1.2-0.5,2.6,0,3.1,1.2c0.9,1.5-0.4,3.2-0.6,3.4C41,45.9,30.6,56,29.5,56.7
		c-1.1,0.7-3.9,0.8-4.9,0.8c-0.2,0.2-0.5,0.4-0.7,0.5c-0.1,0.1-0.3,0.2-0.5,0.2L20,61.4l-2-2.1l-1-1.1l-8.5-8.9l4.7-5.2l2-11.6
		l5.6-5.8l1.2-1.3l6.3-6.5c0.3-0.2,2.2-1.5,3.5-0.6c0.3,0.2,0.5,0.4,0.7,0.7c0.2,0.3,0.3,0.6,0.3,0.9c0,0.3,0,0.7-0.1,1L21.1,32.8
		l0.2,0.2l0.9,0.9C24.8,31.3,33.5,22.7,34,22l3.8-3.8l0.3-0.3c0.3-0.3,0.6-0.6,0.9-0.8c0.9-0.7,2.4-1.4,3.6-0.3
		c0.1,0.1,0.2,0.3,0.3,0.4l-2.2,2.2c-0.3,0.3-1.5,1.5-1.6,1.6L27.5,32.8l1.1,1.1c2.6-2.6,11.3-11.2,11.8-11.9l2.5-2.5l1.6-1.6
		c0,0,0.1-0.1,0.3-0.3c0.7-0.7,2.7-2.2,4.3-0.8c0.4,0.3,0.7,0.8,0.7,1.4c-0.2,1.1-0.7,2-1.5,2.7l-2.8,2.8l-1.1,1.1L31.5,37.6l1,1
		l4.5-4.5l7.2-7.1l1.7-1.7l1-1.1c0.5-0.2,2.7-0.9,3.5,0.5C51.5,26.4,50.1,28.1,49.9,28.3z"/>
	<rect x="29.6" y="3.1" transform="matrix(0.7024 -0.7118 0.7118 0.7024 2.68 24.2441)" class="st0" width="1.5" height="11.6"/>
	<rect x="40" y="8.1" transform="matrix(0.7117 -0.7025 0.7025 0.7117 6.9255 34.7024)" class="st0" width="11.6" height="1.5"/>
	
		<rect x="32.4" y="5" transform="matrix(9.999500e-03 -0.9999 0.9999 9.999500e-03 32.0413 43.9589)" class="st0" width="11.6" height="1.5"/>
</g>
</svg>
