<svg xmlns="http://www.w3.org/2000/svg" viewBox="0 0 41.39 41.32"><defs><style>.cls-1{fill:#fff;}</style></defs><title>ha tang-icon 3</title><g id="hạ_tầng_mạnh_mẽ" data-name="hạ tầng mạnh mẽ"><path class="cls-1" d="M41.39,10.71V8.87H36.94V7.47a3.15,3.15,0,0,0-3.15-3.15H32.38V0H30.54V4.32H25.13V0H23.3V4.32H17.89V0H16.05V4.32H10.78V0H8.95V4.32H7.59A3.15,3.15,0,0,0,4.45,7.47V8.87H0v1.83H4.45V16H0v1.83H4.45v5.41H0v1.83H4.45v5.41H0V32.3H4.45v1.55A3.15,3.15,0,0,0,7.59,37H8.95v4.32h1.83V37h5.27v4.32h1.83V37H23.3v4.32h1.83V37h5.41v4.32h1.83V37h1.41a3.15,3.15,0,0,0,3.15-3.15V32.3h4.45V30.47H36.94V25.06h4.45V23.22H36.94V17.81h4.45V16H36.94V10.71Zm-6.26,23a1.4,1.4,0,0,1-1.4,1.4H7.66a1.4,1.4,0,0,1-1.4-1.4V7.63a1.4,1.4,0,0,1,1.4-1.4H33.72a1.4,1.4,0,0,1,1.4,1.4Z"/><path class="cls-1" d="M29,8.8H12.42A3.44,3.44,0,0,0,9,12.25V29a3.44,3.44,0,0,0,3.44,3.44H29A3.44,3.44,0,0,0,32.41,29V12.25A3.44,3.44,0,0,0,29,8.8ZM14.65,14.33h7.56a1,1,0,0,1,0,1.93H14.65a1,1,0,0,1,0-1.93ZM26.73,26.9H14.65a1,1,0,0,1,0-1.93H26.73a1,1,0,0,1,0,1.93Zm0-5.32H14.65a1,1,0,1,1,0-1.93H26.73a1,1,0,0,1,0,1.93Z"/></g></svg>