<?xml version="1.0" encoding="utf-8"?>
<!-- Generator: Adobe Illustrator 21.1.0, SVG Export Plug-In . SVG Version: 6.00 Build 0)  -->
<svg version="1.1" id="Layer_1" xmlns="http://www.w3.org/2000/svg" xmlns:xlink="http://www.w3.org/1999/xlink" x="0px" y="0px"
	 viewBox="0 0 56.8 63.3" style="enable-background:new 0 0 56.8 63.3;" xml:space="preserve">
<style type="text/css">
	.st0{fill:#FFFFFF;}
	.st1{fill:none;}
</style>
<title>uu diem-icon 6</title>
<g id="ưu_điểm_vượt_trội">
	<rect x="5.7" class="st0" width="1.5" height="7.6"/>
	<rect x="13.4" class="st0" width="1.5" height="7.6"/>
	<rect x="19.6" class="st0" width="1.5" height="7.6"/>
	<rect x="26.3" class="st0" width="1.5" height="7.6"/>
	<rect x="32.5" class="st0" width="1.5" height="7.6"/>
	<rect x="38.9" class="st0" width="1.5" height="7.6"/>
	<rect x="0.8" y="12.5" class="st0" width="46.2" height="1.5"/>
	<polygon class="st1" points="7.3,23.8 7.3,28.9 14,28.9 14,24.3 10.6,27.1 	"/>
	<polygon class="st1" points="14,36.2 14,35 7.3,35 7.3,35.4 10.7,38.9 	"/>
	<rect x="7.3" y="48.8" class="st1" width="6.8" height="7.8"/>
	<polygon class="st1" points="14,22.4 14,21.1 7.3,21.1 7.3,21.6 10.7,25.1 	"/>
	<polygon class="st1" points="7.3,37.6 7.3,42.8 14,42.8 14,38.2 10.6,41 	"/>
	<path class="st0" d="M35.1,61.8H1.5V4.1h44.6v29.4c0.5,0.2,1,0.4,1.5,0.6V2.6H0v60.8h47.7V62C43.7,63.7,39.1,63.7,35.1,61.8
		L35.1,61.8z"/>
	<rect x="19.1" y="28.6" class="st0" width="23.4" height="1.5"/>
	<polygon class="st0" points="15.6,23.1 14,24.3 14,28.9 7.3,28.9 7.3,23.8 5.9,22.4 7,21.3 7.3,21.6 7.3,21.1 14,21.1 14,22.4 
		15.6,21.1 15.6,19.6 5.7,19.6 5.7,30.4 15.6,30.4 	"/>
	<rect x="19.1" y="20.3" class="st0" width="23.4" height="1.5"/>
	<rect x="19.1" y="24.7" class="st0" width="23.4" height="1.5"/>
	<polygon class="st0" points="21.1,16.6 15.5,21.1 14,22.4 10.7,25.1 7.3,21.6 7,21.3 6,22.4 7.3,23.8 10.6,27.1 14,24.3 15.5,23.1 
		22,17.8 	"/>
	<path class="st0" d="M19.1,42.5V44h8c0.1-0.5,0.3-1,0.5-1.5H19.1z"/>
	<polygon class="st0" points="14,38.2 14,42.8 7.3,42.8 7.3,37.6 5.9,36.3 7,35.2 7.3,35.4 7.3,35 14,35 14,36.2 15.6,35 15.6,33.4 
		5.7,33.4 5.7,44.3 15.6,44.3 15.6,37 	"/>
	<path class="st0" d="M19.1,34.2v1.5h13.7c0.8-0.6,1.7-1.1,2.7-1.5H19.1z"/>
	<path class="st0" d="M19.1,38.6v1.5h9.7c0.3-0.5,0.7-1,1.1-1.5L19.1,38.6z"/>
	<polygon class="st0" points="21.1,30.5 15.5,35 14,36.2 10.7,38.9 7.3,35.4 7,35.2 6,36.3 7.3,37.6 10.6,41 14,38.2 15.5,37 
		22,31.7 	"/>
	<path class="st0" d="M19.1,56.4v1.5h11c-0.4-0.5-0.8-1-1.1-1.5H19.1z"/>
	<path class="st0" d="M5.7,58.2h9.8V47.3H5.7V58.2z M7.3,48.8H14v7.8H7.3L7.3,48.8z"/>
	<path class="st0" d="M19.1,48.1v1.5h7.5c-0.1-0.5-0.1-1-0.1-1.5H19.1z"/>
	<path class="st0" d="M19.1,52.4V54h8.6c-0.2-0.5-0.4-1-0.5-1.5L19.1,52.4z"/>
	<path class="st0" d="M47.7,34.1c-4.9-2.1-10.6-1.5-14.9,1.6c-2.4,1.7-4.2,4.1-5.3,6.8c-0.7,1.8-1.1,3.7-1,5.5c0,0.5,0,1,0.1,1.5
		c0.8,8.3,8.3,14.4,16.6,13.6c8.3-0.8,14.4-8.3,13.6-16.6C56.2,41,52.7,36.3,47.7,34.1z M52.4,51.9L50.6,53
		c-0.7,0.4-1.2,1.1-1.3,1.9L49.1,57c-0.2,1.4-1.5,2.4-2.9,2.3c-0.2,0-0.4-0.1-0.6-0.2l-2-0.7c-0.8-0.3-1.6-0.2-2.3,0.2l-1.8,1.1
		c-1.3,0.8-2.9,0.4-3.6-0.9c-0.1-0.2-0.2-0.4-0.3-0.5l-0.1-0.3L35,56.4v-0.1c-0.3-0.8-0.8-1.4-1.6-1.7L31.6,54l-0.3-0.1
		c-1.4-0.5-2.1-2-1.6-3.4c0.1-0.2,0.2-0.4,0.3-0.5l0.2-0.3l1-1.5l0-0.1c0.4-0.7,0.5-1.5,0.3-2.2l-0.6-1.8l-0.1-0.2
		c-0.5-1.4,0.3-2.9,1.7-3.4c0.2-0.1,0.4-0.1,0.6-0.1l2.1-0.2c0.8-0.1,1.6-0.5,2-1.2l0.3-0.5l0.8-1.3c0.8-1.2,2.4-1.6,3.7-0.8
		c0.2,0.1,0.3,0.2,0.5,0.4l1.5,1.5c0.6,0.6,1.4,0.9,2.2,0.8h0.1l1.5-0.2h0.5c1.5-0.1,2.8,0.9,2.9,2.4c0,0.2,0,0.4,0,0.6l-0.3,2.1
		c-0.1,0.8,0.2,1.6,0.7,2.2l1.5,1.5c1,1.1,1,2.7-0.1,3.7C52.8,51.7,52.6,51.8,52.4,51.9L52.4,51.9z"/>
	<path class="st0" d="M46.2,42c-3.3-2.5-8-1.9-10.6,1.4c-2,2.6-2,6.3-0.1,9c1.4,2,3.7,3.2,6.2,3.2c4.2,0,7.5-3.4,7.6-7.5
		C49.2,45.7,48.1,43.4,46.2,42z"/>
</g>
</svg>
