<svg xmlns="http://www.w3.org/2000/svg" viewBox="0 0 56.85 63.32"><defs><style>.cls-1{fill:#2776fb;}.cls-2{fill:none;}.cls-3{fill:#11a95e;}</style></defs><title>uu diem-icon 6</title><g id="ưu_điểm_vượt_trội" data-name="ưu điểm vượt trội"><rect class="cls-1" x="5.73" width="1.54" height="7.56"/><rect class="cls-1" x="13.42" width="1.54" height="7.56"/><rect class="cls-1" x="19.59" width="1.54" height="7.56"/><rect class="cls-1" x="26.27" width="1.54" height="7.56"/><rect class="cls-1" x="32.45" width="1.54" height="7.56"/><rect class="cls-1" x="38.86" width="1.54" height="7.56"/><rect class="cls-1" x="0.77" y="12.48" width="46.15" height="1.54"/><polygon class="cls-2" points="7.26 23.76 7.26 28.88 14.02 28.88 14.02 24.34 10.58 27.14 7.26 23.76"/><polygon class="cls-2" points="14.02 36.22 14.02 34.97 7.26 34.97 7.26 35.42 10.7 38.93 14.02 36.22"/><rect class="cls-2" x="7.26" y="48.84" width="6.75" height="7.78"/><polygon class="cls-2" points="14.02 22.36 14.02 21.11 7.26 21.11 7.26 21.56 10.7 25.06 14.02 22.36"/><polygon class="cls-2" points="7.26 37.62 7.26 42.75 14.02 42.75 14.02 38.21 10.58 41.01 7.26 37.62"/><path class="cls-1" d="M35.13,61.78H1.54V4.1H46.15V33.55a15.08,15.08,0,0,1,1.54.57V2.56H0V63.32H47.68V62a15.21,15.21,0,0,1-12.56-.23Z"/><rect class="cls-1" x="19.06" y="28.65" width="23.41" height="1.54"/><polygon class="cls-1" points="15.55 23.09 14.02 24.34 14.02 28.88 7.26 28.88 7.26 23.76 5.95 22.41 7.04 21.34 7.26 21.56 7.26 21.11 14.02 21.11 14.02 22.36 15.55 21.1 15.55 19.57 5.72 19.57 5.72 30.42 15.55 30.42 15.55 23.09"/><rect class="cls-1" x="19.06" y="20.34" width="23.41" height="1.54"/><rect class="cls-1" x="19.06" y="24.7" width="23.41" height="1.54"/><polygon class="cls-3" points="22.04 17.79 21.07 16.6 15.55 21.1 15.55 23.09 22.04 17.79"/><polygon class="cls-3" points="10.7 25.06 7.26 21.56 7.26 23.76 10.58 27.14 14.02 24.34 14.02 22.36 10.7 25.06"/><polygon class="cls-3" points="7.04 21.34 5.95 22.41 7.26 23.76 7.26 21.56 7.04 21.34"/><polygon class="cls-3" points="14.02 24.34 15.55 23.09 15.55 21.1 14.02 22.36 14.02 24.34"/><path class="cls-1" d="M19.06,42.51v1.54h8a15.06,15.06,0,0,1,.51-1.54Z"/><polygon class="cls-1" points="14.02 38.21 14.02 42.75 7.26 42.75 7.26 37.62 5.95 36.28 7.04 35.2 7.26 35.42 7.26 34.97 14.02 34.97 14.02 36.22 15.55 34.97 15.55 33.43 5.72 33.43 5.72 44.29 15.55 44.29 15.55 36.95 14.02 38.21"/><path class="cls-1" d="M19.06,34.2v1.54H32.79a15.17,15.17,0,0,1,2.67-1.54Z"/><path class="cls-1" d="M19.06,38.56V40.1h9.67a15.24,15.24,0,0,1,1.09-1.54Z"/><polygon class="cls-3" points="10.7 38.93 7.26 35.42 7.26 37.62 10.58 41.01 14.02 38.21 14.02 36.22 10.7 38.93"/><polygon class="cls-3" points="22.04 31.66 21.07 30.46 15.55 34.97 15.55 36.95 22.04 31.66"/><polygon class="cls-3" points="14.02 38.21 15.55 36.95 15.55 34.97 14.02 36.22 14.02 38.21"/><polygon class="cls-3" points="7.04 35.2 5.95 36.28 7.26 37.62 7.26 35.42 7.04 35.2"/><path class="cls-1" d="M19.06,56.38v1.54h11a15.24,15.24,0,0,1-1.15-1.54Z"/><path class="cls-1" d="M5.73,58.15h9.83V47.3H5.73Zm1.54-9.31H14v7.78H7.26Z"/><path class="cls-1" d="M19.06,48.07v1.54h7.49a15.36,15.36,0,0,1-.08-1.54Z"/><path class="cls-1" d="M19.06,52.43V54h8.6a15.1,15.1,0,0,1-.55-1.54Z"/><path class="cls-3" d="M47.68,34.12a15.17,15.17,0,0,0-14.9,1.62,15.16,15.16,0,0,0-5.27,6.77,15.18,15.18,0,0,0-1.05,5.55,15.36,15.36,0,0,0,.08,1.54A15.19,15.19,0,1,0,47.68,34.12Zm4.73,17.76L50.61,53a2.65,2.65,0,0,0-1.26,1.93L49.08,57a2.66,2.66,0,0,1-2.93,2.29,2.67,2.67,0,0,1-.62-.15l-2-.73a2.65,2.65,0,0,0-2.29.21l-1.8,1.08a2.65,2.65,0,0,1-3.89-1.44l-.11-.32L35,56.38l0-.13a2.65,2.65,0,0,0-1.6-1.66L31.65,54l-.3-.11a2.66,2.66,0,0,1-1.3-3.94l.2-.31.95-1.45.05-.09a2.65,2.65,0,0,0,.25-2.19l-.6-1.82-.06-.17a2.66,2.66,0,0,1,2.27-3.47l2.09-.2a2.67,2.67,0,0,0,2-1.19l.31-.47.85-1.29a2.65,2.65,0,0,1,4.13-.39l1.46,1.51a2.65,2.65,0,0,0,2.16.8h.06L47.68,39l.49,0a2.65,2.65,0,0,1,2.88,3l-.27,2.08a2.65,2.65,0,0,0,.72,2.19L53,47.77A2.65,2.65,0,0,1,52.41,51.89Z"/><path class="cls-3" d="M46.15,42A7.53,7.53,0,0,0,35.51,52.43a7.55,7.55,0,0,0,6.15,3.18A7.54,7.54,0,0,0,46.15,42Z"/></g></svg>