<svg xmlns="http://www.w3.org/2000/svg" viewBox="0 0 61.72 55.94"><defs><style>.cls-1{fill:#2776fb;}.cls-2{fill:#11a95e;}</style></defs><title>uu diem-icon 8</title><g id="ưu_điểm_vượt_trội" data-name="ưu điểm vượt trội"><circle class="cls-1" cx="6.54" cy="5.51" r="1.41"/><circle class="cls-1" cx="11.34" cy="5.51" r="1.41"/><circle class="cls-1" cx="16.15" cy="5.51" r="1.41"/><rect class="cls-1" x="6.54" y="14.68" width="13.18" height="1.54"/><rect class="cls-1" x="6.54" y="17.5" width="20.19" height="1.54"/><rect class="cls-1" x="0.77" y="9.61" width="57.55" height="1.54"/><path class="cls-1" d="M14.74,32.3v-8a7.69,7.69,0,1,0,7.68,8Z"/><path class="cls-1" d="M15.54,23.46v7.43H23.2S21.84,24.48,15.54,23.46Z"/><path class="cls-1" d="M36,42.17H1.54V1.54h56V34.71l.61-.65a13,13,0,0,1,.92,1.09V0H0V43.71H36c0-.26,0-.51,0-.77S36,42.43,36,42.17Z"/><rect class="cls-1" x="29.23" y="27.62" width="3.97" height="11.15"/><path class="cls-1" d="M39.42,14.48h-4V38.78h1.21a12.87,12.87,0,0,1,2.77-4.62Z"/><path class="cls-1" d="M45.57,14.48h-4v17.8a12.81,12.81,0,0,1,4-1.81Z"/><path class="cls-1" d="M51.5,30.35V22.43h-4v7.69a13,13,0,0,1,1.31-.07A12.9,12.9,0,0,1,51.5,30.35Z"/><path class="cls-2" d="M59.09,35.15a13,13,0,0,0-.92-1.09l-.61.65L53,39.49l2,2.3H50v-5.7l1.51,1.7.49.55L57,33a13,13,0,0,0-8.21-3,13,13,0,0,0-1.31.07A12.88,12.88,0,0,0,36,42.17c0,.25,0,.51,0,.77s0,.51,0,.77a12.82,12.82,0,0,0,2.92,7.44l5.19-4.93-2.25-2h5.7v5.06l-2.3-2-5.29,5A12.88,12.88,0,0,0,59.09,35.15Z"/></g></svg>