<?xml version="1.0" encoding="utf-8"?>
<!-- Generator: Adobe Illustrator 21.1.0, SVG Export Plug-In . SVG Version: 6.00 Build 0)  -->
<svg version="1.1" id="Layer_1" xmlns="http://www.w3.org/2000/svg" xmlns:xlink="http://www.w3.org/1999/xlink" x="0px" y="0px"
	 viewBox="0 0 61.7 55.9" style="enable-background:new 0 0 61.7 55.9;" xml:space="preserve">
<style type="text/css">
	.st0{fill:#FFFFFF;}
</style>
<title>uu diem-icon 8</title>
<g id="ưu_điểm_vượt_trội">
	<circle class="st0" cx="6.5" cy="5.5" r="1.4"/>
	<circle class="st0" cx="11.3" cy="5.5" r="1.4"/>
	<circle class="st0" cx="16.1" cy="5.5" r="1.4"/>
	<rect x="6.5" y="14.7" class="st0" width="13.2" height="1.5"/>
	<rect x="6.5" y="17.5" class="st0" width="20.2" height="1.5"/>
	<rect x="0.8" y="9.6" class="st0" width="57.5" height="1.5"/>
	<path class="st0" d="M14.7,32.3v-8C10.5,24.3,7,27.7,7,32s3.4,7.7,7.7,7.7c4.1,0,7.5-3.3,7.7-7.4H14.7z"/>
	<path class="st0" d="M15.5,23.5v7.4h7.7C23.2,30.9,21.8,24.5,15.5,23.5z"/>
	<path class="st0" d="M36,42.2H1.5V1.5h56v33.2l0.6-0.7c0.3,0.3,0.6,0.7,0.9,1.1V0H0v43.7h36c0-0.3,0-0.5,0-0.8S36,42.4,36,42.2z"/>
	<rect x="29.2" y="27.6" class="st0" width="4" height="11.1"/>
	<path class="st0" d="M39.4,14.5h-4v24.3h1.2c0.6-1.7,1.5-3.3,2.8-4.6L39.4,14.5z"/>
	<path class="st0" d="M45.6,14.5h-4v17.8c1.2-0.8,2.6-1.4,4-1.8V14.5z"/>
	<path class="st0" d="M51.5,30.4v-7.9h-4v7.7c0.4,0,0.9-0.1,1.3-0.1C49.7,30.1,50.6,30.2,51.5,30.4z"/>
	<path class="st0" d="M59.1,35.2c-0.3-0.4-0.6-0.7-0.9-1.1l-0.6,0.7L53,39.5l2,2.3h-5v-5.7l1.5,1.7l0.5,0.5l5-5.3
		c-2.3-1.9-5.2-3-8.2-3c-0.4,0-0.9,0-1.3,0.1c-6.3,0.7-11.1,5.8-11.5,12.1c0,0.3,0,0.5,0,0.8s0,0.5,0,0.8c0.2,2.7,1.2,5.3,2.9,7.4
		l5.2-4.9l-2.3-2h5.7v5.1l-2.3-2l-5.3,5c5.2,4.9,13.3,4.7,18.2-0.5C62.5,47.2,62.9,40.2,59.1,35.2z"/>
</g>
</svg>
