<svg xmlns="http://www.w3.org/2000/svg" viewBox="0 0 57.87 57.17"><defs><style>.cls-1{fill:#2776fb;}.cls-2{fill:#11a95e;}</style></defs><title>uu diem-icon 1</title><g id="ưu_điểm_vượt_trội" data-name="ưu điểm vượt trội"><rect class="cls-1" width="26.02" height="26.02" rx="3.33" ry="3.33"/><path class="cls-1" d="M52.62,26H34.41a3.91,3.91,0,0,1-3.9-3.91V3.91A3.91,3.91,0,0,1,34.41,0H52.62a3.91,3.91,0,0,1,3.9,3.91V22.12A3.91,3.91,0,0,1,52.62,26ZM34.41,1.54A2.37,2.37,0,0,0,32,3.91V22.12a2.37,2.37,0,0,0,2.37,2.37H52.62A2.37,2.37,0,0,0,55,22.12V3.91a2.37,2.37,0,0,0-2.37-2.37Z"/><path class="cls-1" d="M22.12,57.17H3.9A3.91,3.91,0,0,1,0,53.26V35.05a3.91,3.91,0,0,1,3.9-3.91H22.12A3.91,3.91,0,0,1,26,35.05V53.26A3.91,3.91,0,0,1,22.12,57.17ZM3.9,32.69a2.37,2.37,0,0,0-2.37,2.37V53.26A2.37,2.37,0,0,0,3.9,55.63H22.12a2.37,2.37,0,0,0,2.37-2.37V35.05a2.37,2.37,0,0,0-2.37-2.37Z"/><path class="cls-2" d="M44.22,56.72A13,13,0,1,1,55.48,37.18L54.15,38a11.47,11.47,0,1,0-3.79,15.45l.82,1.3A13,13,0,0,1,44.22,56.72Z"/><polygon class="cls-2" points="55.66 38.71 48.32 37.16 48.64 35.65 54.63 36.92 56.34 31.68 57.8 32.16 55.66 38.71"/></g></svg>