<svg xmlns="http://www.w3.org/2000/svg" viewBox="0 0 63.45 63.45"><defs><style>.cls-1{fill:#2776fb;}.cls-2{fill:#11a95e;}</style></defs><title>uu diem-icon 3</title><g id="ưu_điểm_vượt_trội" data-name="ưu điểm vượt trội"><path class="cls-1" d="M34,63.45c-9.61,0-17.8-11-19.49-26.07L16,37.21c1.6,14.31,9.15,24.7,18,24.7,10.07,0,18.27-13.54,18.27-30.19S44,1.54,34,1.54c-9.33,0-17.32,12-18.19,27.35l-1.54-.09C15.17,12.38,23.65,0,34,0c10.92,0,19.8,14.23,19.8,31.73S44.88,63.45,34,63.45Z"/><polygon class="cls-1" points="15.04 30.72 9.96 26.48 10.95 25.3 15.09 28.76 19.73 25.28 20.66 26.51 15.04 30.72"/><path class="cls-1" d="M34.65,48l-.09-1.54c15.34-.87,27.35-8.86,27.35-18.19C61.91,18.16,48.37,10,31.73,10S1.54,18.16,1.54,28.23c0,8.81,10.39,16.36,24.7,18l-.17,1.53C11,46,0,37.84,0,28.23,0,17.31,14.23,8.43,31.73,8.43s31.73,8.88,31.73,19.8C63.45,38.54,51.07,47,34.65,48Z"/><polygon class="cls-1" points="36.97 52.23 32.73 47.15 36.94 41.54 38.17 42.46 34.69 47.1 38.15 51.25 36.97 52.23"/><polygon class="cls-2" points="32.54 20.99 23.82 25.89 23.82 36.32 32.54 42 41.26 36.15 41.26 26.92 32.54 20.99"/></g></svg>