<svg id="Layer_1" data-name="Layer 1" xmlns="http://www.w3.org/2000/svg" xmlns:xlink="http://www.w3.org/1999/xlink" viewBox="0 0 421.07 205.68"><defs><style>.cls-1,.cls-2{fill:#000c7c;}.cls-1{fill-rule:evenodd;}.cls-3{fill:#2b70ed;}.cls-10,.cls-4,.cls-5,.cls-6,.cls-7,.cls-8,.cls-9{fill:#feda09;stroke-miterlimit:10;}.cls-4,.cls-5,.cls-6,.cls-7,.cls-8,.cls-9{stroke-width:3.68px;}.cls-4{stroke:url(#linear-gradient);}.cls-5{stroke:url(#linear-gradient-2);}.cls-6{stroke:url(#linear-gradient-3);}.cls-7{stroke:url(#linear-gradient-4);}.cls-8{stroke:url(#linear-gradient-5);}.cls-9{stroke:url(#linear-gradient-6);}.cls-10{stroke-width:3.37px;stroke:url(#linear-gradient-7);}.cls-11{fill:#fff;}</style><linearGradient id="linear-gradient" x1="61.27" y1="52.54" x2="108.66" y2="52.54" gradientUnits="userSpaceOnUse"><stop offset="0" stop-color="#1937e0"/><stop offset="1" stop-color="#903fe0"/></linearGradient><linearGradient id="linear-gradient-2" x1="108.63" y1="52.54" x2="157.32" y2="52.54" xlink:href="#linear-gradient"/><linearGradient id="linear-gradient-3" x1="154.01" y1="77.75" x2="176.13" y2="77.75" xlink:href="#linear-gradient"/><linearGradient id="linear-gradient-4" x1="175.03" y1="52.54" x2="223.72" y2="52.54" xlink:href="#linear-gradient"/><linearGradient id="linear-gradient-5" x1="223.96" y1="52.54" x2="272.65" y2="52.54" xlink:href="#linear-gradient"/><linearGradient id="linear-gradient-6" x1="272.9" y1="52.54" x2="321.59" y2="52.54" xlink:href="#linear-gradient"/><linearGradient id="linear-gradient-7" x1="327.48" y1="18.94" x2="361.55" y2="18.94" xlink:href="#linear-gradient"/></defs><title>banner-title</title><polygon class="cls-1" points="29.44 94.9 25.51 133.17 379.14 122.34 379.14 84.29 29.44 94.9"/><polygon class="cls-1" points="74.75 138.64 70.44 170.44 306.84 173.83 308.52 142.09 74.75 138.64"/><path class="cls-2" d="M92.57,83C76.81,83,67,71.29,67,52.5s9.82-30.39,25.63-30.39c14.34,0,22.35,9.39,22.6,18.23a2.79,2.79,0,0,1-2.79,2.87h-5.83c6,3.21,9.68,9.64,9.68,17.75C116.32,74.13,106.77,83,92.57,83Zm-.12-25.25c-2.84,0-3,3.13-3,3.76s.14,3.72,3,3.72,2.94-2.85,2.94-3.72C95.39,60.85,95.25,57.72,92.45,57.72Zm0-17.92A3.39,3.39,0,0,0,89.69,41a7.18,7.18,0,0,0-1.34,2.54A14.19,14.19,0,0,1,95,41.11l0-.16C94.8,40.23,93.54,39.81,92.41,39.81Z"/><path class="cls-3" d="M92.65,24.9c13.34,0,19.62,8.74,19.82,15.52H97.67C97.24,38.15,94.85,37,92.41,37c-6.83,0-8.08,8.82-7.42,14.15h.86c1.26-2.94,4-7.41,11.46-7.41,8.75,0,16.21,6.08,16.21,17.21,0,12.47-9.38,19.21-21,19.21-14.48,0-22.76-10.62-22.76-27.68S78,24.9,92.65,24.9M92.45,68c3.53,0,5.73-2.78,5.73-6.51S96,54.93,92.45,54.93s-5.77,2.94-5.77,6.55S88.88,68,92.45,68m.2-48.66C75.12,19.33,64.23,32,64.23,52.5c0,9.73,2.49,17.94,7.19,23.75,5,6.22,12.35,9.51,21.14,9.51,15.62,0,26.53-10.19,26.53-24.79A23.37,23.37,0,0,0,114,45.78a5.58,5.58,0,0,0,4-5.51c-.29-10.15-9.29-20.94-25.39-20.94Zm-.23,43.08a2.27,2.27,0,0,1-.16-.93,2.23,2.23,0,0,1,.18-1,2.36,2.36,0,0,1,.17,1,2.42,2.42,0,0,1-.15.93h0Z"/><path class="cls-2" d="M139.46,83c-15.24,0-25.08-11.39-25.08-29v-3c0-17.51,10-28.82,25.47-28.82S165,33.16,165,50.93v3C165,68.39,157.09,83,139.46,83Zm.2-42.42c-1.58,0-3.18,3.22-3.18,10.42v2.94c0,7.3,1.65,10.62,3.18,10.62s3.21-3.32,3.21-10.62V51C142.88,43.77,141.26,40.55,139.66,40.55Z"/><path class="cls-3" d="M139.86,24.9c14.48,0,22.33,10.62,22.33,26v3c0,13.76-7.34,26.23-22.72,26.23-14.44,0-22.29-11-22.29-26.23v-3c0-15.29,8.4-26,22.68-26m-.2,42.42c3.41,0,6-4,6-13.41V51c0-9.41-2.59-13.21-6-13.21s-6,3.72-6,13.21v2.94c0,9.49,2.55,13.41,6,13.41m.2-48C123,19.33,111.6,32,111.6,50.93v3c0,19.32,10.94,31.8,27.87,31.8,9,0,16.4-3.5,21.53-10.11,4.36-5.62,6.77-13.32,6.77-21.7v-3c0-19.2-11-31.61-27.91-31.61Zm-.19,39.91a30.21,30.21,0,0,1-.4-5.32V51a29.59,29.59,0,0,1,.4-5.28,28.85,28.85,0,0,1,.42,5.28v2.94a29,29,0,0,1-.42,5.32Z"/><path class="cls-2" d="M162.77,94.06A2.79,2.79,0,0,1,160,91l3.06-27.05a2.79,2.79,0,0,1,2.77-2.48h14.76a2.79,2.79,0,0,1,2.73,3.34l-5.45,27.05a2.79,2.79,0,0,1-2.73,2.24Z"/><path class="cls-3" d="M180.59,64.22l-5.45,27.05H162.77l3.06-27.05h14.76m0-5.58H165.83a5.58,5.58,0,0,0-5.54,5l-3.06,27.05a5.58,5.58,0,0,0,5.54,6.2h12.36a5.58,5.58,0,0,0,5.47-4.48l5.45-27.05a5.58,5.58,0,0,0-5.47-6.68Zm0,11.15h0Z"/><path class="cls-2" d="M205.86,83c-15.23,0-25.08-11.39-25.08-29v-3c0-17.51,10-28.82,25.47-28.82s25.12,11,25.12,28.82v3C231.37,68.39,223.48,83,205.86,83Zm.2-42.42c-1.58,0-3.18,3.22-3.18,10.42v2.94c0,7.3,1.65,10.62,3.18,10.62s3.22-3.32,3.22-10.62V51C209.27,43.77,207.66,40.55,206.06,40.55Z"/><path class="cls-3" d="M206.25,24.9c14.48,0,22.33,10.62,22.33,26v3c0,13.76-7.34,26.23-22.72,26.23-14.44,0-22.29-11-22.29-26.23v-3c0-15.29,8.4-26,22.68-26m-.2,42.42c3.41,0,6-4,6-13.41V51c0-9.41-2.59-13.21-6-13.21s-6,3.72-6,13.21v2.94c0,9.49,2.55,13.41,6,13.41m.2-48C189.35,19.33,178,32,178,50.93v3c0,19.32,10.94,31.8,27.87,31.8,9,0,16.4-3.5,21.53-10.11,4.36-5.62,6.77-13.32,6.77-21.7v-3c0-19.2-11-31.61-27.91-31.61Zm-.19,39.91a30.2,30.2,0,0,1-.4-5.32V51a29.59,29.59,0,0,1,.4-5.28,28.85,28.85,0,0,1,.42,5.28v2.94a29,29,0,0,1-.42,5.32Z"/><path class="cls-2" d="M254.8,83c-15.23,0-25.08-11.39-25.08-29v-3c0-17.51,10-28.82,25.47-28.82s25.12,11,25.12,28.82v3C280.31,68.39,272.42,83,254.8,83Zm.2-42.42c-1.58,0-3.18,3.22-3.18,10.42v2.94c0,7.3,1.65,10.62,3.18,10.62s3.21-3.32,3.21-10.62V51C258.21,43.77,256.59,40.55,255,40.55Z"/><path class="cls-3" d="M255.19,24.9c14.48,0,22.33,10.62,22.33,26v3c0,13.76-7.34,26.23-22.72,26.23-14.44,0-22.29-11-22.29-26.23v-3c0-15.29,8.4-26,22.68-26M255,67.32c3.41,0,6-4,6-13.41V51c0-9.41-2.59-13.21-6-13.21s-6,3.72-6,13.21v2.94c0,9.49,2.55,13.41,6,13.41m.2-48c-16.9,0-28.26,12.7-28.26,31.61v3c0,19.32,10.94,31.8,27.87,31.8,9,0,16.4-3.5,21.53-10.11C280.69,70,283.1,62.33,283.1,54v-3c0-19.2-11-31.61-27.91-31.61ZM255,59.23a30.21,30.21,0,0,1-.4-5.32V51a29.59,29.59,0,0,1,.4-5.28,28.85,28.85,0,0,1,.42,5.28v2.94a29,29,0,0,1-.42,5.32Z"/><path class="cls-2" d="M303.73,83c-15.23,0-25.08-11.39-25.08-29v-3c0-17.51,10-28.82,25.47-28.82s25.12,11,25.12,28.82v3C329.24,68.39,321.35,83,303.73,83Zm.2-42.42c-1.58,0-3.18,3.22-3.18,10.42v2.94c0,7.3,1.65,10.62,3.18,10.62s3.22-3.32,3.22-10.62V51C307.14,43.77,305.53,40.55,303.93,40.55Z"/><path class="cls-3" d="M304.12,24.9c14.48,0,22.33,10.62,22.33,26v3c0,13.76-7.34,26.23-22.72,26.23-14.44,0-22.29-11-22.29-26.23v-3c0-15.29,8.4-26,22.68-26m-.2,42.42c3.41,0,6-4,6-13.41V51c0-9.41-2.59-13.21-6-13.21s-6,3.72-6,13.21v2.94c0,9.49,2.55,13.41,6,13.41m.2-48c-16.9,0-28.26,12.7-28.26,31.61v3c0,19.32,10.94,31.8,27.87,31.8,9,0,16.4-3.5,21.53-10.11C329.63,70,332,62.33,332,54v-3c0-19.2-11-31.61-27.91-31.61Zm-.19,39.91a30.21,30.21,0,0,1-.4-5.32V51a29.59,29.59,0,0,1,.4-5.28,28.85,28.85,0,0,1,.42,5.28v2.94a29,29,0,0,1-.42,5.32Z"/><path class="cls-4" d="M91,40.43C90.54,38.15,88.14,37,85.71,37c-6.83,0-8.08,8.82-7.42,14.15h.86c1.26-2.94,4-7.41,11.46-7.41,8.75,0,16.21,6.08,16.21,17.21,0,12.47-9.38,19.21-21,19.21C71.38,80.18,63.1,69.56,63.1,52.5s8.16-27.6,22.84-27.6c13.34,0,19.62,8.74,19.82,15.52ZM85.75,68c3.53,0,5.73-2.78,5.73-6.51s-2.16-6.55-5.73-6.55S80,57.87,80,61.48,82.18,68,85.75,68Z"/><path class="cls-5" d="M110.47,50.93c0-15.29,8.4-26,22.68-26,14.48,0,22.33,10.62,22.33,26v3c0,13.76-7.34,26.23-22.72,26.23-14.44,0-22.29-11-22.29-26.23Zm16.52,3c0,9.49,2.55,13.41,6,13.41s6-4,6-13.41V51c0-9.41-2.59-13.21-6-13.21s-6,3.72-6,13.21Z"/><path class="cls-6" d="M156.07,91.27l3.06-27.05h14.76l-5.45,27.05Z"/><path class="cls-7" d="M176.87,50.93c0-15.29,8.4-26,22.68-26,14.48,0,22.33,10.62,22.33,26v3c0,13.76-7.34,26.23-22.72,26.23-14.44,0-22.29-11-22.29-26.23Zm16.52,3c0,9.49,2.55,13.41,6,13.41s6-4,6-13.41V51c0-9.41-2.59-13.21-6-13.21s-6,3.72-6,13.21Z"/><path class="cls-8" d="M225.8,50.93c0-15.29,8.4-26,22.68-26,14.48,0,22.33,10.62,22.33,26v3c0,13.76-7.34,26.23-22.72,26.23-14.44,0-22.29-11-22.29-26.23Zm16.52,3c0,9.49,2.55,13.41,6,13.41s6-4,6-13.41V51c0-9.41-2.59-13.21-6-13.21s-6,3.72-6,13.21Z"/><path class="cls-9" d="M274.74,50.93c0-15.29,8.4-26,22.68-26,14.48,0,22.33,10.62,22.33,26v3c0,13.76-7.34,26.23-22.72,26.23-14.44,0-22.29-11-22.29-26.23Zm16.52,3c0,9.49,2.55,13.41,6,13.41s6-4,6-13.41V51c0-9.41-2.59-13.21-6-13.21s-6,3.72-6,13.21Z"/><path class="cls-2" d="M343.34,37.92a2,2,0,0,1-2-2V27.13H333a2,2,0,0,1-2-2V15.44a2,2,0,0,1,2-2h8.31V4.73a2,2,0,0,1,2-2h10a2,2,0,0,1,2,2v8.66h8.31a2,2,0,0,1,2,2v9.65a2,2,0,0,1-2,2h-8.31v8.74a2,2,0,0,1-2,2Z"/><path class="cls-3" d="M353.34,4.73v10.7h10.35v9.65H353.34V35.87h-10V25.09H333V15.44h10.35V4.73h10m0-4.09h-10a4.09,4.09,0,0,0-4.09,4.09v6.62H333a4.09,4.09,0,0,0-4.09,4.09v9.65A4.09,4.09,0,0,0,333,29.17h6.27v6.7A4.09,4.09,0,0,0,343.34,40h10a4.09,4.09,0,0,0,4.09-4.09v-6.7h6.27a4.09,4.09,0,0,0,4.09-4.09V15.44a4.09,4.09,0,0,0-4.09-4.09h-6.27V4.73A4.09,4.09,0,0,0,353.34.65Z"/><path class="cls-10" d="M349.51,34.51h-10V23.72H329.17V14.07h10.35V3.37h10v10.7h10.35v9.65H349.51Z"/><path class="cls-11" d="M60.91,125l6-18.29,4.59-.17,6.08,17.84-4.13.15-1.37-4.44-5.94.22-1.35,4.54ZM69,110.21l-2.11,7.24,4.42-.17-2.14-7.08Z"/><path class="cls-11" d="M82.48,116.19c0,3.48,1.51,5.05,3.87,5a3.38,3.38,0,0,0,3.48-3.54l3.72-.14v.4c0,3.28-2.61,6.33-7.25,6.5-4.85.18-7.72-2.77-7.74-8v-2c0-5.28,2.86-8.48,7.7-8.66,4.52-.17,7.27,2.64,7.28,6.13v.38l-3.72.14a3.27,3.27,0,0,0-3.53-3.44c-2.31.09-3.82,1.85-3.81,5.32Z"/><path class="cls-11" d="M99.67,115.55c0,3.48,1.51,5.05,3.87,5A3.38,3.38,0,0,0,107,117l3.72-.14v.4c0,3.28-2.61,6.33-7.25,6.5-4.85.18-7.72-2.77-7.74-8v-2c0-5.28,2.86-8.48,7.7-8.66,4.52-.17,7.27,2.64,7.28,6.13v.38l-3.72.14a3.27,3.27,0,0,0-3.53-3.44c-2.31.09-3.82,1.85-3.8,5.32Z"/><path class="cls-11" d="M112.92,112.94c0-5.13,2.94-8.42,7.9-8.6s7.93,2.91,7.94,8v2.25c0,5.09-2.94,8.3-7.91,8.49s-7.91-2.8-7.93-7.9Zm3.94,2.12c0,3.37,1.68,4.94,4,4.85s4-1.78,4-5.15v-2.3c0-3.36-1.66-5-4-5s-4,1.9-4,5.26Z"/><path class="cls-11" d="M135.46,115.54c0,2.43,1.45,3.7,3.61,3.62a3.54,3.54,0,0,0,3.58-3.89l0-11.41,3.86-.14,0,11.8c0,4-2.91,6.71-7.44,6.88s-7.47-2.37-7.48-6.35l0-11.78,3.86-.14Z"/><path class="cls-11" d="M150.09,121.65,150,103.59l3.17-.12,7.85,11.3h.13l0-11.59,3.64-.14.06,18.06-3.15.12-7.86-11.38h-.13l0,11.67Z"/><path class="cls-11" d="M172,120.83,172,105.95l-5.12.19V103l14.1-.53v3.18l-5.12.19.05,14.89Z"/><path class="cls-11" d="M189.65,120.18l0-7.5-2.21.08v-3.31l2.21-.08,0-7.25,6.83-.25c5.89-.22,8.19,3.35,8.21,8.67s-2.24,9.18-8.15,9.4Zm6.25-3.41c3-.11,4.75-1.66,4.74-6.08,0-3.39-1.09-5.94-4.78-5.8l-2.39.09v4.25l3.14-.12v3.31l-3.14.12,0,4.33Z"/><path class="cls-11" d="M205.5,119.59l6-18.29,4.59-.17L222.15,119l-4.13.15-1.37-4.44-5.94.22-1.35,4.54Zm6.95-21.06c-.65,0-.85.6-.88,1.16l-1.92.07a2.71,2.71,0,0,1,2.49-3,2.61,2.61,0,0,1,2,.76c.4.33.66.65,1.1.63.63,0,.84-.76.86-1.34l1.92-.07a2.86,2.86,0,0,1-2.56,3,2.36,2.36,0,0,1-2-.66C213.23,98.88,212.93,98.5,212.45,98.52Zm1.13,6.3-2.12,7.24,4.42-.17-2.14-7.08Z"/><path class="cls-11" d="M230.78,118.64l0-7.5-2.21.08v-3.31l2.21-.08,0-7.25,6.83-.25c5.89-.22,8.19,3.35,8.21,8.67s-2.24,9.17-8.15,9.4Zm6.25-3.41c3-.11,4.75-1.66,4.74-6.08,0-3.39-1.09-5.94-4.78-5.8l-2.39.09v4.25l3.14-.12v3.31l-3.14.12,0,4.33Z"/><path class="cls-11" d="M246.63,118.05l6-18.29,4.59-.17,6.08,17.84-4.13.15-1.37-4.44-5.94.22-1.35,4.54Zm5.92-23.59c0,1.06.84,1.81,2.33,1.75s2.32-.87,2.32-1.93l2.15-.08c0,2.16-1.46,3.9-4.46,4s-4.52-1.51-4.53-3.68Zm2.16,8.83-2.12,7.24,4.42-.16-2.14-7.08Z"/><path class="cls-11" d="M265.33,117.35l-.06-18.06,3.17-.12,7.85,11.3h.13l0-11.59,3.64-.14.06,18.06-3.15.12-7.86-11.38h-.13l0,11.67Z"/><path class="cls-11" d="M294.49,104a3.2,3.2,0,0,0-3.59-2.86c-2.3.09-3.94,1.72-3.93,5.17v2.21c0,3,1.14,5.09,4,5,2.26-.08,3.66-1.54,3.65-3.26v-1l-3.57.13V106.6l7.24-.27v3.57c0,2.91-1.9,6.63-7.37,6.84s-7.84-3.27-7.86-8v-2.25c0-5,2.9-8.3,7.87-8.48,4.81-.18,7.19,2.78,7.32,5.91Z"/><path class="cls-11" d="M315.2,105.22l6.76,10-4.62.17-5-7.54-1.79,2.1,0,5.69-3.88.14-.06-18.06,3.88-.14,0,8h.17l6.67-8.2,4.21-.16Z"/><path class="cls-11" d="M328.22,115l0-6.68L322,97.17l4.26-.16,3.78,7.44h.13L334,96.73l4.16-.15-6.07,11.51,0,6.77Zm3.31-23,3.88-.14L331.19,95l-3.27.12Z"/><path class="cls-11" d="M92.95,160.14v-8.58l-2.93,0v-1.83l8.06.14v1.83l-2.93,0v8.58Z"/><path class="cls-11" d="M101.21,147.11l2.22,0L101,148.8l-1.87,0Zm-1.94,13.13V149.83l2.22,0v10.41Z"/><path class="cls-11" d="M103.64,160.32V149.9l1.81,0,4.46,6.76H110V150l2.08,0v10.41l-1.8,0-4.47-6.8h-.08v6.73Z"/><path class="cls-11" d="M120.65,160.6v-4.4l-4.2-.07v4.4l-2.22,0V150.08l2.22,0v4.2l4.2.07v-4.2l2.22,0v10.41Z"/><path class="cls-11" d="M128.79,160.74v-4.32l-1.26,0v-1.91l1.26,0v-4.18l3.91.07c3.37.06,4.68,2.18,4.68,5.25s-1.3,5.22-4.68,5.16Zm3.58-1.77c1.7,0,2.72-.81,2.72-3.36,0-2-.61-3.46-2.72-3.49l-1.37,0v2.45l1.79,0v1.91l-1.79,0v2.49Z"/><path class="cls-11" d="M145.81,161l-6.81-.11V150.5l6.81.11v1.79l-4.62-.08v2.53l4.34.07v1.66l-4.34-.07v2.65l4.62.08Zm-4.22-13.4,1.45,0,2.06,1.9-1.67,0-1-1h-.11l-1,1-1.67,0Zm3.69-1.16,1.63,0-2.08,1.8-.88-.43Z"/><path class="cls-11" d="M147.66,161.05V150.64l1.81,0,4.46,6.76H154v-6.68l2.08,0V161.2l-1.8,0-4.47-6.8h-.08v6.73Z"/><path class="cls-11" d="M167.74,161.39V157l-4.2-.07v4.4l-2.22,0V150.87l2.22,0v4.2l4.2.07V151l2.22,0v10.41Z"/><path class="cls-11" d="M178.93,161.58l-6.81-.11V151.05l6.81.11V153l-4.62-.08v2.53l4.34.07v1.66l-4.34-.07v2.65l4.62.08Zm-4.22-13.4,1.45,0,2.06,1.9-1.67,0-1-1h-.12l-1,1-1.67,0ZM178.4,147l1.63,0-2.08,1.8-.88-.43Z"/><path class="cls-11" d="M182.74,161.64v-8.58l-2.93,0v-1.83l8.06.14v1.83l-2.93,0v8.58Z"/><path class="cls-11" d="M194.09,161.83v-8.58l-2.93,0v-1.83l8.06.14v1.83l-2.93,0v8.58Z"/><path class="cls-11" d="M206.83,162v-4.4l-4.2-.07V162l-2.22,0V151.53l2.22,0v4.2l4.2.07v-4.2l2.22,0v10.41Z"/><path class="cls-11" d="M210.23,162.11l3.45-10.35,2.62,0,3.44,10.47-2.36,0-.77-2.6-3.39-.06-.78,2.57Zm4.65-8.26L213.66,158l2.53,0L215,153.85Zm.95-4.81,2.22,0-2.42,1.65-1.87,0Z"/><path class="cls-11" d="M220.93,162.28V151.87l1.81,0,4.46,6.76h.08V152l2.08,0v10.41l-1.8,0-4.47-6.8H223v6.73Z"/><path class="cls-11" d="M237.63,155.52a2,2,0,0,0-2-1.76c-1.31,0-2.25.87-2.25,2.86v1.27c0,1.72.64,3,2.28,3a1.85,1.85,0,0,0,2.09-1.77v-.59l-2,0v-1.62l4.14.07V159c0,1.68-1.1,3.77-4.23,3.71s-4.48-2.13-4.48-4.87v-1.3c0-2.86,1.67-4.69,4.52-4.65s4.1,1.82,4.17,3.63Z"/><path class="cls-11" d="M244.11,159.81a2.53,2.53,0,0,1,2.21-2.56v-.07a2.39,2.39,0,0,1-1.79-2.36c0-1.59,1.45-2.73,3.69-2.69s3.7,1.23,3.7,2.82a2.3,2.3,0,0,1-1.8,2.3v.07a2.63,2.63,0,0,1,2.2,2.62c0,1.81-1.61,3-4.12,3S244.11,161.61,244.11,159.81Zm6-.05a1.78,1.78,0,0,0-1.91-1.7,1.71,1.71,0,0,0-1.91,1.64,1.77,1.77,0,0,0,1.91,1.69A1.7,1.7,0,0,0,250.13,159.75Zm-.33-4.59a1.48,1.48,0,0,0-1.58-1.45,1.43,1.43,0,0,0-1.58,1.4,1.5,1.5,0,0,0,1.58,1.48A1.44,1.44,0,0,0,249.8,155.16Z"/><path class="cls-11" d="M252.81,164l3.52-13.11,1.93,0L254.75,164Z"/><path class="cls-11" d="M258.89,155.66v-.11c0-1.59,1.16-3.22,3.63-3.17,2.19,0,3.62,1.33,3.62,3,0,1.46-1,2.33-1.84,3.28L262,161.13v.07l4.29.07V163l-7.29-.12v-1.37l3.76-4a3.17,3.17,0,0,0,1.16-2.06,1.42,1.42,0,0,0-1.48-1.41,1.41,1.41,0,0,0-1.5,1.44s0,.11,0,.13Z"/><path class="cls-11" d="M267.55,157.51c0-3,1.46-5,4-5s4,2.08,4,5.12v.7c0,2.88-1.35,5-4,5s-4-2.1-4-5.12Zm2.22.73c0,2.17.7,3.28,1.79,3.3s1.8-1.08,1.8-3.24v-.69c0-2.17-.71-3.28-1.8-3.29s-1.79,1.06-1.79,3.23Z"/><path class="cls-11" d="M279.25,163.26v-8.32h-.08c-.28.15-2,1.26-2.38,1.51v-2c.39-.28,2.11-1.36,2.51-1.57l2.14,0V163.3Z"/><path class="cls-11" d="M285.4,160.68a1.52,1.52,0,0,0,1.57,1.19c1.51,0,2.1-1.65,2-3.53h-.11a2.37,2.37,0,0,1-2.48,1.45,3.22,3.22,0,0,1-3.23-3.45,3.48,3.48,0,0,1,3.78-3.55c2.55,0,4.11,1.79,4.11,5.35s-1.51,5.49-4.17,5.45a3.35,3.35,0,0,1-3.58-2.94Zm1.64-6.17a1.66,1.66,0,0,0-1.74,1.81,1.74,1.74,0,1,0,3.47.08A1.72,1.72,0,0,0,287,154.51Z"/><polygon class="cls-2" points="285.92 183.02 275.48 205.68 291.58 201.51 285.92 183.02"/><polygon class="cls-2" points="51.85 142.03 43.5 149.16 44.94 154.42 51.85 142.03"/><polygon class="cls-2" points="22.23 79.78 1.28 77.12 0 86.06 22.23 79.78"/><polygon class="cls-2" points="363.84 61.18 383.26 41.48 389.9 59.28 363.84 61.18"/><polygon class="cls-2" points="396.55 78.27 421.07 87.23 416.08 93.13 396.55 78.27"/><polygon class="cls-2" points="364.06 64.13 387.83 67.44 380.92 78.41 364.06 64.13"/></svg>