<svg id="Layer_1" data-name="Layer 1" xmlns="http://www.w3.org/2000/svg" xmlns:xlink="http://www.w3.org/1999/xlink" viewBox="0 0 337.15 288.99"><defs><style>.cls-1{fill:url(#Degradado_sin_nombre_75);filter:url(#luminosity-noclip);}.cls-2{fill:url(#Degradado_sin_nombre_75-2);filter:url(#luminosity-noclip-2);}.cls-3{fill:url(#Degradado_sin_nombre_75-3);filter:url(#luminosity-noclip-3);}.cls-4{fill:url(#Degradado_sin_nombre_75-4);filter:url(#luminosity-noclip-4);}.cls-5{fill:url(#Degradado_sin_nombre_75-5);filter:url(#luminosity-noclip-5);}.cls-6{fill:url(#Degradado_sin_nombre_75-6);filter:url(#luminosity-noclip-6);}.cls-7{fill:url(#Degradado_sin_nombre_75-7);filter:url(#luminosity-noclip-7);}.cls-24,.cls-26,.cls-27,.cls-29,.cls-30,.cls-31,.cls-32,.cls-8{stroke:#85a8e5;stroke-miterlimit:10;}.cls-8{stroke-width:1.14px;fill:url(#Degradado_sin_nombre_53);}.cls-9{opacity:0.3;}.cls-10{mask:url(#mask);}.cls-11{fill:url(#Degradado_sin_nombre_36);}.cls-12{mask:url(#mask-2);}.cls-13{fill:url(#Degradado_sin_nombre_36-2);}.cls-14{mask:url(#mask-3);}.cls-15{fill:url(#Degradado_sin_nombre_36-3);}.cls-16{mask:url(#mask-4);}.cls-17{fill:url(#Degradado_sin_nombre_36-4);}.cls-18{mask:url(#mask-5);}.cls-19{fill:url(#Degradado_sin_nombre_36-5);}.cls-20{mask:url(#mask-6);}.cls-21{fill:url(#Degradado_sin_nombre_36-6);}.cls-22{mask:url(#mask-7);}.cls-23{fill:url(#Degradado_sin_nombre_36-7);}.cls-24,.cls-26,.cls-27,.cls-29,.cls-30,.cls-31,.cls-32{stroke-width:1.39px;}.cls-24{fill:url(#Degradado_sin_nombre_53-2);}.cls-25{fill:#fff;}.cls-26{fill:url(#Degradado_sin_nombre_53-3);}.cls-27{fill:url(#Degradado_sin_nombre_53-4);}.cls-28{fill:#30457f;}.cls-29{fill:url(#Degradado_sin_nombre_53-5);}.cls-30{fill:url(#Degradado_sin_nombre_53-6);}.cls-31{fill:url(#Degradado_sin_nombre_53-7);}.cls-32{fill:url(#Degradado_sin_nombre_53-8);}.cls-33,.cls-81{fill:#e4f9fe;}.cls-34{fill:url(#Gradiente_sem_nome_38);}.cls-35{fill:url(#Gradiente_sem_nome_16);}.cls-36{fill:#cb9eae;}.cls-37{fill:url(#Gradiente_sem_nome_16-2);}.cls-38{fill:url(#Gradiente_sem_nome_44);}.cls-39{fill:url(#Gradiente_sem_nome_44-2);}.cls-40{fill:url(#Gradiente_sem_nome_16-3);}.cls-41{fill:url(#Gradiente_sem_nome_44-3);}.cls-42{fill:#0060ff;}.cls-43{fill:url(#Gradiente_sem_nome_44-4);}.cls-44{fill:url(#Gradiente_sem_nome_16-4);}.cls-45{fill:url(#Gradiente_sem_nome_60);}.cls-46{fill:url(#Gradiente_sem_nome_20);}.cls-47{fill:url(#Gradiente_sem_nome_40);}.cls-48{fill:url(#Gradiente_sem_nome_39);}.cls-49{fill:url(#Gradiente_sem_nome_60-2);}.cls-50{fill:#001462;}.cls-51{fill:url(#Gradiente_sem_nome_31);}.cls-52{fill:url(#Gradiente_sem_nome_31-2);}.cls-53{fill:url(#Gradiente_sem_nome_9);}.cls-54{fill:url(#Gradiente_sem_nome_17);}.cls-55{fill:url(#Gradiente_sem_nome_31-3);}.cls-56{fill:url(#Gradiente_sem_nome_31-4);}.cls-57{fill:url(#Gradiente_sem_nome_4);}.cls-58{fill:#385fd4;}.cls-59{fill:url(#Gradiente_sem_nome_9-2);}.cls-60{fill:url(#Gradiente_sem_nome_9-3);}.cls-61{fill:url(#Gradiente_sem_nome_9-4);}.cls-62{fill:url(#Gradiente_sem_nome_9-5);}.cls-63{fill:url(#Gradiente_sem_nome_31-5);}.cls-64{fill:url(#Gradiente_sem_nome_60-3);}.cls-65{fill:url(#Gradiente_sem_nome_31-6);}.cls-66{fill:url(#Gradiente_sem_nome_36);}.cls-67{fill:url(#Gradiente_sem_nome_36-2);}.cls-68{fill:url(#Gradiente_sem_nome_24);}.cls-69{fill:url(#Gradiente_sem_nome_24-2);}.cls-70{fill:url(#Gradiente_sem_nome_24-3);}.cls-71{fill:url(#Gradiente_sem_nome_34);}.cls-72{fill:url(#Gradiente_sem_nome_16-5);}.cls-73{fill:url(#Gradiente_sem_nome_16-6);}.cls-74{fill:url(#Gradiente_sem_nome_34-2);}.cls-75{fill:url(#Gradiente_sem_nome_15);}.cls-76{fill:url(#Gradiente_sem_nome_16-7);}.cls-77{fill:url(#Gradiente_sem_nome_15-2);}.cls-78{fill:url(#Gradiente_sem_nome_15-3);}.cls-79{fill:url(#Gradiente_sem_nome_14);}.cls-80{fill:url(#Gradiente_sem_nome_14-2);}.cls-81{opacity:0.51;}</style><linearGradient id="Degradado_sin_nombre_75" x1="82.27" y1="195.4" x2="82.27" y2="128.54" gradientUnits="userSpaceOnUse"><stop offset="0.11"/><stop offset="0.24" stop-color="#030303"/><stop offset="0.36" stop-color="#0e0e0e"/><stop offset="0.46" stop-color="#202020"/><stop offset="0.57" stop-color="#393939"/><stop offset="0.67" stop-color="#595959"/><stop offset="0.77" stop-color="#818181"/><stop offset="0.87" stop-color="#b0b0b0"/><stop offset="0.96" stop-color="#e5e5e5"/><stop offset="1" stop-color="#fff"/></linearGradient><linearGradient id="Degradado_sin_nombre_75-2" x1="296.91" y1="195.4" x2="296.91" y2="128.54" xlink:href="#Degradado_sin_nombre_75"/><linearGradient id="Degradado_sin_nombre_75-3" x1="128.71" y1="92.37" x2="128.71" y2="25.5" xlink:href="#Degradado_sin_nombre_75"/><linearGradient id="Degradado_sin_nombre_75-4" x1="244.2" y1="92.37" x2="244.2" y2="25.5" xlink:href="#Degradado_sin_nombre_75"/><linearGradient id="Degradado_sin_nombre_75-5" x1="101.28" y1="171.1" x2="101.28" y2="71.71" xlink:href="#Degradado_sin_nombre_75"/><linearGradient id="Degradado_sin_nombre_75-6" x1="187.08" y1="118.08" x2="187.08" y2="18.7" xlink:href="#Degradado_sin_nombre_75"/><linearGradient id="Degradado_sin_nombre_75-7" x1="280.93" y1="171.1" x2="280.93" y2="71.71" xlink:href="#Degradado_sin_nombre_75"/><linearGradient id="Degradado_sin_nombre_53" x1="193.89" y1="170.65" x2="193.89" y2="73.42" gradientUnits="userSpaceOnUse"><stop offset="0" stop-color="#fff" stop-opacity="0.5"/><stop offset="0.06" stop-color="#fff" stop-opacity="0.42"/><stop offset="0.17" stop-color="#fff" stop-opacity="0.29"/><stop offset="0.29" stop-color="#fff" stop-opacity="0.19"/><stop offset="0.42" stop-color="#fff" stop-opacity="0.1"/><stop offset="0.57" stop-color="#fff" stop-opacity="0.04"/><stop offset="0.74" stop-color="#fff" stop-opacity="0.01"/><stop offset="1" stop-color="#fff" stop-opacity="0"/></linearGradient><filter id="luminosity-noclip" x="64.04" y="128.54" width="36.47" height="66.86" filterUnits="userSpaceOnUse" color-interpolation-filters="sRGB"><feFlood flood-color="#fff" result="bg"/><feBlend in="SourceGraphic" in2="bg"/></filter><mask id="mask" x="64.04" y="128.54" width="36.47" height="66.86" maskUnits="userSpaceOnUse"><rect class="cls-1" x="64.04" y="128.54" width="36.47" height="66.86"/></mask><linearGradient id="Degradado_sin_nombre_36" x1="66.23" y1="163.84" x2="99.32" y2="163.84" gradientUnits="userSpaceOnUse"><stop offset="0" stop-color="#fff" stop-opacity="0.2"/><stop offset="0.05" stop-color="#fff" stop-opacity="0.19"/><stop offset="0.53" stop-color="#fff" stop-opacity="0.1"/><stop offset="0.61" stop-color="#fff" stop-opacity="0.13"/><stop offset="0.72" stop-color="#fff" stop-opacity="0.2"/><stop offset="0.85" stop-color="#fff" stop-opacity="0.33"/><stop offset="1" stop-color="#fff" stop-opacity="0.5"/></linearGradient><filter id="luminosity-noclip-2" x="278.67" y="128.54" width="36.47" height="66.86" filterUnits="userSpaceOnUse" color-interpolation-filters="sRGB"><feFlood flood-color="#fff" result="bg"/><feBlend in="SourceGraphic" in2="bg"/></filter><mask id="mask-2" x="278.67" y="128.54" width="36.47" height="66.86" maskUnits="userSpaceOnUse"><rect class="cls-2" x="278.67" y="128.54" width="36.47" height="66.86"/></mask><linearGradient id="Degradado_sin_nombre_36-2" x1="280.86" y1="163.84" x2="313.96" y2="163.84" xlink:href="#Degradado_sin_nombre_36"/><filter id="luminosity-noclip-3" x="110.47" y="25.5" width="36.47" height="66.86" filterUnits="userSpaceOnUse" color-interpolation-filters="sRGB"><feFlood flood-color="#fff" result="bg"/><feBlend in="SourceGraphic" in2="bg"/></filter><mask id="mask-3" x="110.47" y="25.5" width="36.47" height="66.86" maskUnits="userSpaceOnUse"><rect class="cls-3" x="110.47" y="25.5" width="36.47" height="66.86"/></mask><linearGradient id="Degradado_sin_nombre_36-3" x1="112.67" y1="60.81" x2="145.76" y2="60.81" xlink:href="#Degradado_sin_nombre_36"/><filter id="luminosity-noclip-4" x="225.96" y="25.5" width="36.47" height="66.86" filterUnits="userSpaceOnUse" color-interpolation-filters="sRGB"><feFlood flood-color="#fff" result="bg"/><feBlend in="SourceGraphic" in2="bg"/></filter><mask id="mask-4" x="225.96" y="25.5" width="36.47" height="66.86" maskUnits="userSpaceOnUse"><rect class="cls-4" x="225.96" y="25.5" width="36.47" height="66.86"/></mask><linearGradient id="Degradado_sin_nombre_36-4" x1="228.15" y1="60.81" x2="261.24" y2="60.81" xlink:href="#Degradado_sin_nombre_36"/><filter id="luminosity-noclip-5" x="74.18" y="71.71" width="54.21" height="99.39" filterUnits="userSpaceOnUse" color-interpolation-filters="sRGB"><feFlood flood-color="#fff" result="bg"/><feBlend in="SourceGraphic" in2="bg"/></filter><mask id="mask-5" x="74.18" y="71.71" width="54.21" height="99.39" maskUnits="userSpaceOnUse"><rect class="cls-5" x="74.18" y="71.71" width="54.21" height="99.39"/></mask><linearGradient id="Degradado_sin_nombre_36-5" x1="77.43" y1="124.18" x2="126.62" y2="124.18" xlink:href="#Degradado_sin_nombre_36"/><filter id="luminosity-noclip-6" x="159.97" y="18.7" width="54.21" height="99.39" filterUnits="userSpaceOnUse" color-interpolation-filters="sRGB"><feFlood flood-color="#fff" result="bg"/><feBlend in="SourceGraphic" in2="bg"/></filter><mask id="mask-6" x="159.97" y="18.7" width="54.21" height="99.39" maskUnits="userSpaceOnUse"><rect class="cls-6" x="159.97" y="18.7" width="54.21" height="99.39"/></mask><linearGradient id="Degradado_sin_nombre_36-6" x1="163.23" y1="71.17" x2="212.42" y2="71.17" xlink:href="#Degradado_sin_nombre_36"/><filter id="luminosity-noclip-7" x="253.83" y="71.71" width="54.21" height="99.39" filterUnits="userSpaceOnUse" color-interpolation-filters="sRGB"><feFlood flood-color="#fff" result="bg"/><feBlend in="SourceGraphic" in2="bg"/></filter><mask id="mask-7" x="253.83" y="71.71" width="54.21" height="99.39" maskUnits="userSpaceOnUse"><rect class="cls-7" x="253.83" y="71.71" width="54.21" height="99.39"/></mask><linearGradient id="Degradado_sin_nombre_36-7" x1="257.09" y1="124.18" x2="306.28" y2="124.18" xlink:href="#Degradado_sin_nombre_36"/><linearGradient id="Degradado_sin_nombre_53-2" x1="102.03" y1="102.62" x2="102.03" y2="53.43" xlink:href="#Degradado_sin_nombre_53"/><linearGradient id="Degradado_sin_nombre_53-3" x1="187.83" y1="49.48" x2="187.83" y2="0.29" xlink:href="#Degradado_sin_nombre_53"/><linearGradient id="Degradado_sin_nombre_53-4" x1="281.56" y1="102.62" x2="281.56" y2="53.43" xlink:href="#Degradado_sin_nombre_53"/><linearGradient id="Degradado_sin_nombre_53-5" x1="297.41" y1="149.29" x2="297.41" y2="116.19" xlink:href="#Degradado_sin_nombre_53"/><linearGradient id="Degradado_sin_nombre_53-6" x1="82.77" y1="149.29" x2="82.77" y2="116.19" xlink:href="#Degradado_sin_nombre_53"/><linearGradient id="Degradado_sin_nombre_53-7" x1="244.7" y1="46.24" x2="244.7" y2="13.15" xlink:href="#Degradado_sin_nombre_53"/><linearGradient id="Degradado_sin_nombre_53-8" x1="129.21" y1="46.24" x2="129.21" y2="13.15" xlink:href="#Degradado_sin_nombre_53"/><linearGradient id="Gradiente_sem_nome_38" x1="161.72" y1="119.09" x2="141.56" y2="290.9" gradientUnits="userSpaceOnUse"><stop offset="0.08" stop-color="#385fd4"/><stop offset="0.21" stop-color="#3358c9"/><stop offset="0.45" stop-color="#2444ab"/><stop offset="0.75" stop-color="#0d257b"/><stop offset="0.9" stop-color="#001462"/></linearGradient><linearGradient id="Gradiente_sem_nome_16" x1="157.15" y1="172.14" x2="140.52" y2="187.1" gradientUnits="userSpaceOnUse"><stop offset="0" stop-color="#f6b3b5"/><stop offset="1" stop-color="#fad1d3"/></linearGradient><linearGradient id="Gradiente_sem_nome_16-2" x1="137.46" y1="219.48" x2="144.37" y2="230.59" xlink:href="#Gradiente_sem_nome_16"/><linearGradient id="Gradiente_sem_nome_44" x1="184.26" y1="121.7" x2="164.09" y2="293.61" gradientUnits="userSpaceOnUse"><stop offset="0" stop-color="#385fd4"/><stop offset="0.16" stop-color="#3358c9"/><stop offset="0.44" stop-color="#2444ab"/><stop offset="0.81" stop-color="#0d257b"/><stop offset="0.99" stop-color="#001462"/></linearGradient><linearGradient id="Gradiente_sem_nome_44-2" x1="158.29" y1="192.91" x2="175.8" y2="249.47" xlink:href="#Gradiente_sem_nome_44"/><linearGradient id="Gradiente_sem_nome_16-3" x1="144.73" y1="148.35" x2="136.75" y2="179.03" xlink:href="#Gradiente_sem_nome_16"/><linearGradient id="Gradiente_sem_nome_44-3" x1="137.83" y1="116.29" x2="117.68" y2="288.1" xlink:href="#Gradiente_sem_nome_44"/><linearGradient id="Gradiente_sem_nome_44-4" x1="160.79" y1="213.06" x2="105.27" y2="222.77" xlink:href="#Gradiente_sem_nome_44"/><linearGradient id="Gradiente_sem_nome_16-4" x1="128.5" y1="193.4" x2="149.92" y2="193.4" xlink:href="#Gradiente_sem_nome_16"/><linearGradient id="Gradiente_sem_nome_60" x1="251.09" y1="239.98" x2="251.09" y2="173.66" gradientUnits="userSpaceOnUse"><stop offset="0" stop-color="#385fd4"/><stop offset="0.28" stop-color="#2d5fdd"/><stop offset="0.77" stop-color="#0f60f3"/><stop offset="0.99" stop-color="#0060ff"/></linearGradient><linearGradient id="Gradiente_sem_nome_20" x1="278.25" y1="300.17" x2="278.96" y2="209.97" gradientUnits="userSpaceOnUse"><stop offset="0" stop-color="#001462"/><stop offset="0.07" stop-color="#081e71"/><stop offset="0.25" stop-color="#193595"/><stop offset="0.44" stop-color="#2748b0"/><stop offset="0.62" stop-color="#3055c4"/><stop offset="0.81" stop-color="#365cd0"/><stop offset="1" stop-color="#385fd4"/></linearGradient><linearGradient id="Gradiente_sem_nome_40" x1="321.7" y1="256.48" x2="257.01" y2="256.48" gradientUnits="userSpaceOnUse"><stop offset="0" stop-color="#385fd4"/><stop offset="0.17" stop-color="#416ad9"/><stop offset="0.48" stop-color="#5988e5"/><stop offset="0.88" stop-color="#80b8f9"/><stop offset="0.99" stop-color="#8cc6ff"/></linearGradient><linearGradient id="Gradiente_sem_nome_39" x1="298.62" y1="208.08" x2="298.62" y2="300.59" gradientUnits="userSpaceOnUse"><stop offset="0" stop-color="#385fd4"/><stop offset="0.17" stop-color="#507ce0"/><stop offset="0.4" stop-color="#6a9cee"/><stop offset="0.62" stop-color="#7db3f7"/><stop offset="0.82" stop-color="#88c1fd"/><stop offset="1" stop-color="#8cc6ff"/></linearGradient><linearGradient id="Gradiente_sem_nome_60-2" x1="273.47" y1="231.25" x2="273.95" y2="170.58" xlink:href="#Gradiente_sem_nome_60"/><linearGradient id="Gradiente_sem_nome_31" x1="269.29" y1="182.08" x2="254.23" y2="192.7" gradientUnits="userSpaceOnUse"><stop offset="0" stop-color="#f6b3b5"/><stop offset="0.99" stop-color="#fad1d3"/></linearGradient><linearGradient id="Gradiente_sem_nome_31-2" x1="260.34" y1="156.72" x2="248.97" y2="170.31" xlink:href="#Gradiente_sem_nome_31"/><linearGradient id="Gradiente_sem_nome_9" x1="166.46" y1="68.15" x2="166.46" y2="408.38" gradientUnits="userSpaceOnUse"><stop offset="0" stop-color="#8cc6ff"/><stop offset="1" stop-color="#385fd4"/></linearGradient><linearGradient id="Gradiente_sem_nome_17" x1="217.47" y1="121.88" x2="217.47" y2="317.58" gradientUnits="userSpaceOnUse"><stop offset="0" stop-color="#8cc6ff"/><stop offset="0.17" stop-color="#83bbfa"/><stop offset="0.48" stop-color="#6b9dee"/><stop offset="0.88" stop-color="#446dda"/><stop offset="0.99" stop-color="#385fd4"/></linearGradient><linearGradient id="Gradiente_sem_nome_31-3" x1="231.91" y1="199.44" x2="203.75" y2="210.56" xlink:href="#Gradiente_sem_nome_31"/><linearGradient id="Gradiente_sem_nome_31-4" x1="216.26" y1="162.63" x2="212.31" y2="204.13" xlink:href="#Gradiente_sem_nome_31"/><linearGradient id="Gradiente_sem_nome_4" x1="212.23" y1="242.48" x2="229.78" y2="181.08" gradientUnits="userSpaceOnUse"><stop offset="0" stop-color="#8cc6ff"/><stop offset="1" stop-color="#f6b3b5"/></linearGradient><linearGradient id="Gradiente_sem_nome_9-2" x1="208.26" y1="267.3" x2="208.26" y2="186.93" xlink:href="#Gradiente_sem_nome_9"/><linearGradient id="Gradiente_sem_nome_9-3" x1="226.58" y1="267.3" x2="226.58" y2="186.93" xlink:href="#Gradiente_sem_nome_9"/><linearGradient id="Gradiente_sem_nome_9-4" x1="256.69" y1="88.41" x2="256.69" y2="401.86" xlink:href="#Gradiente_sem_nome_9"/><linearGradient id="Gradiente_sem_nome_9-5" x1="248.84" y1="88.41" x2="248.84" y2="401.86" xlink:href="#Gradiente_sem_nome_9"/><linearGradient id="Gradiente_sem_nome_31-5" x1="214.47" y1="287.42" x2="214.47" y2="270.11" xlink:href="#Gradiente_sem_nome_31"/><linearGradient id="Gradiente_sem_nome_60-3" x1="272.87" y1="264.7" x2="273.68" y2="162.44" xlink:href="#Gradiente_sem_nome_60"/><linearGradient id="Gradiente_sem_nome_31-6" x1="232.68" y1="261.89" x2="224.78" y2="238.92" xlink:href="#Gradiente_sem_nome_31"/><linearGradient id="Gradiente_sem_nome_36" x1="140.6" y1="216.03" x2="110.5" y2="222.57" gradientUnits="userSpaceOnUse"><stop offset="0" stop-color="#8cc6ff"/><stop offset="0.01" stop-color="#97c4f7"/><stop offset="0.02" stop-color="#b5bfe3"/><stop offset="0.03" stop-color="#e5b6c1"/><stop offset="0.03" stop-color="#f6b3b5"/><stop offset="0.99" stop-color="#0060ff"/></linearGradient><linearGradient id="Gradiente_sem_nome_36-2" x1="136.6" y1="197.64" x2="106.5" y2="204.18" xlink:href="#Gradiente_sem_nome_36"/><linearGradient id="Gradiente_sem_nome_24" x1="39.72" y1="252.25" x2="200.04" y2="283.03" gradientUnits="userSpaceOnUse"><stop offset="0.1" stop-color="#001462"/><stop offset="0.3" stop-color="#142e8a"/><stop offset="0.49" stop-color="#2343aa"/><stop offset="0.68" stop-color="#2f53c1"/><stop offset="0.85" stop-color="#365ccf"/><stop offset="1" stop-color="#385fd4"/></linearGradient><linearGradient id="Gradiente_sem_nome_24-2" x1="39.42" y1="253.82" x2="199.74" y2="284.59" xlink:href="#Gradiente_sem_nome_24"/><linearGradient id="Gradiente_sem_nome_24-3" x1="29.07" y1="206.35" x2="171.94" y2="354.52" xlink:href="#Gradiente_sem_nome_24"/><linearGradient id="Gradiente_sem_nome_34" x1="149.85" y1="118.56" x2="62.23" y2="232.9" gradientUnits="userSpaceOnUse"><stop offset="0" stop-color="#f6b3b5"/><stop offset="0.09" stop-color="#ebafb8"/><stop offset="0.24" stop-color="#cda5c1"/><stop offset="0.45" stop-color="#9d95d0"/><stop offset="0.69" stop-color="#5a7ee4"/><stop offset="0.97" stop-color="#0662fd"/><stop offset="0.99" stop-color="#0060ff"/></linearGradient><linearGradient id="Gradiente_sem_nome_16-5" x1="93.01" y1="146.99" x2="96.26" y2="173.3" xlink:href="#Gradiente_sem_nome_16"/><linearGradient id="Gradiente_sem_nome_16-6" x1="119.52" y1="132.39" x2="95.2" y2="159.96" xlink:href="#Gradiente_sem_nome_16"/><linearGradient id="Gradiente_sem_nome_34-2" x1="109.34" y1="33.28" x2="41.42" y2="252.27" xlink:href="#Gradiente_sem_nome_34"/><linearGradient id="Gradiente_sem_nome_15" x1="88.07" y1="230.65" x2="138.52" y2="196.83" gradientUnits="userSpaceOnUse"><stop offset="0" stop-color="#001462"/><stop offset="0.12" stop-color="#0f2880"/><stop offset="0.27" stop-color="#1e3c9e"/><stop offset="0.42" stop-color="#294bb6"/><stop offset="0.59" stop-color="#3256c7"/><stop offset="0.77" stop-color="#365dd1"/><stop offset="1" stop-color="#385fd4"/></linearGradient><linearGradient id="Gradiente_sem_nome_16-7" x1="84.68" y1="224.68" x2="84.68" y2="208.11" xlink:href="#Gradiente_sem_nome_16"/><linearGradient id="Gradiente_sem_nome_15-2" x1="209.03" y1="286.9" x2="214.88" y2="269.67" xlink:href="#Gradiente_sem_nome_15"/><linearGradient id="Gradiente_sem_nome_15-3" x1="-932.93" y1="285.36" x2="-925.81" y2="198.15" gradientTransform="matrix(-1, 0, 0, 1, -769.92, 0)" xlink:href="#Gradiente_sem_nome_15"/><linearGradient id="Gradiente_sem_nome_14" x1="345.07" y1="276.89" x2="280.06" y2="276.89" gradientUnits="userSpaceOnUse"><stop offset="0" stop-color="#0060ff"/><stop offset="0.09" stop-color="#0b64fc"/><stop offset="0.25" stop-color="#296ef3"/><stop offset="0.45" stop-color="#597ee4"/><stop offset="0.7" stop-color="#9c94d0"/><stop offset="0.98" stop-color="#f0b1b7"/><stop offset="1" stop-color="#f6b3b5"/></linearGradient><linearGradient id="Gradiente_sem_nome_14-2" x1="356.88" y1="268.58" x2="286.48" y2="268.58" xlink:href="#Gradiente_sem_nome_14"/></defs><title>banner-picture</title><circle class="cls-8" cx="193.89" cy="122.04" r="48.61"/><g class="cls-9"><g class="cls-10"><path class="cls-11" d="M82.75,149.32A16.77,16.77,0,0,1,66.23,135.4v57.22H99.32V135.07A16.77,16.77,0,0,1,82.75,149.32Z"/></g><g class="cls-12"><path class="cls-13" d="M297.38,149.32a16.77,16.77,0,0,1-16.52-13.92v57.22H314V135.07A16.77,16.77,0,0,1,297.38,149.32Z"/></g><g class="cls-14"><path class="cls-15" d="M129.19,46.28a16.77,16.77,0,0,1-16.52-13.92V89.59h33.09V32A16.77,16.77,0,0,1,129.19,46.28Z"/></g><g class="cls-16"><path class="cls-17" d="M244.67,46.28a16.77,16.77,0,0,1-16.52-13.92V89.59h33.09V32A16.77,16.77,0,0,1,244.67,46.28Z"/></g><g class="cls-18"><path class="cls-19" d="M102,102.59A24.93,24.93,0,0,1,77.43,81.9V167h49.19V81.41A24.93,24.93,0,0,1,102,102.59Z"/></g><g class="cls-20"><path class="cls-21" d="M187.79,49.58a24.93,24.93,0,0,1-24.56-20.69V114h49.19V28.4A24.93,24.93,0,0,1,187.79,49.58Z"/></g><g class="cls-22"><path class="cls-23" d="M281.64,102.59A24.93,24.93,0,0,1,257.09,81.9V167h49.19V81.41A24.93,24.93,0,0,1,281.64,102.59Z"/></g></g><circle class="cls-24" cx="102.03" cy="78.02" r="24.59"/><path class="cls-25" d="M105.49,76.33a9.58,9.58,0,1,0-6.93,0A17,17,0,0,0,85,93v.33h34.06V93A17,17,0,0,0,105.49,76.33Z"/><circle class="cls-26" cx="187.83" cy="24.89" r="24.59"/><circle class="cls-27" cx="281.56" cy="78.02" r="24.59"/><polygon class="cls-25" points="285.1 61.32 285.1 72.37 295.41 72.37 285.1 61.32"/><path class="cls-25" d="M274.37,83.83h-.7V87h.62c1.11,0,1.95-.42,1.95-1.65C276.23,84.33,275.38,83.83,274.37,83.83Z"/><path class="cls-25" d="M273.83,79.74c0-.27-.27-.3-.49-.3H273v.61h.38C273.63,80.05,273.83,80,273.83,79.74Z"/><polygon class="cls-25" points="280.25 85.99 281.58 85.99 280.91 84.3 280.25 85.99"/><path class="cls-25" d="M278.83,79.74c0-.26-.23-.3-.44-.3H278V80h.34C278.56,80,278.83,80,278.83,79.74Z"/><polygon class="cls-25" points="289.74 79.71 289.43 80.51 290.06 80.51 289.74 79.71"/><path class="cls-25" d="M283.64,73.83V60.47h-14V94.89h26.49V73.83ZM289.53,79H290l1.13,2.59h-.64l-.22-.55h-1l-.22.55h-.63Zm-4,0h.78l1.1,1.8h0V79H288v2.59h-.75l-1.13-1.84h0v1.84h-.57Zm-2-.07a1.36,1.36,0,1,1-1.4,1.36A1.31,1.31,0,0,1,283.54,78.89Zm-3.65.84a.89.89,0,0,1,1-.84,1.17,1.17,0,0,1,.79.27l-.39.43a.55.55,0,0,0-.41-.17c-.16,0-.38.07-.38.27,0,.47,1.19.17,1.19,1.08,0,.58-.46.85-1,.85a1.23,1.23,0,0,1-.87-.33l.41-.45a.64.64,0,0,0,.5.25c.19,0,.4-.09.4-.27C281.11,80.34,279.89,80.59,279.89,79.73ZM275,79h1.76v.53h-1.19V80h1.12v.53h-1.12V81h1.26v.53H275Zm-2.51,0h1c.54,0,1,.17,1,.79s-.41.79-1,.79H273v1h-.57Zm2,9.2h-2V82.73h1.79c1.75,0,3.21.74,3.21,2.73A2.76,2.76,0,0,1,274.43,88.15Zm3.59-6.6h-.57V79h1c.53,0,1,.18,1,.79a.67.67,0,0,1-.56.71l.66,1.09h-.68l-.54-1H278Zm4.43,6.6L282,87h-2.11l-.45,1.15h-1.32l2.34-5.42h1l2.36,5.42Zm3.81,0h-1.19V83.78h-1.55V82.73h4.29v1.06h-1.55Zm5.61,0L291.4,87H289.3l-.45,1.15h-1.32l2.34-5.42h1l2.36,5.42Zm1.35-6.6h-1.63V79h.57V81h1.06Z"/><polygon class="cls-25" points="289.67 85.99 291 85.99 290.33 84.3 289.67 85.99"/><path class="cls-25" d="M283.54,81.08a.84.84,0,1,0-.8-.83A.78.78,0,0,0,283.54,81.08Z"/><path class="cls-25" d="M304.55,129.47v-3a7.14,7.14,0,0,0-14.29,0v3h-.81v13.44h15.9V129.47Zm-12-3a4.85,4.85,0,0,1,9.7,0v3h-9.7Z"/><path class="cls-28" d="M298.76,134.91a1.35,1.35,0,1,0-2.06,1.14v1.56a.71.71,0,1,0,1.43,0v-1.56A1.35,1.35,0,0,0,298.76,134.91Z"/><circle class="cls-29" cx="297.41" cy="132.74" r="16.55"/><circle class="cls-30" cx="82.77" cy="132.74" r="16.55"/><path class="cls-25" d="M70.9,125.3v14.88h23.3V125.3Zm10.49,1.83H92.73V128H81.39Zm0,1.86H92.73v.88H81.39Zm0,1.86H92.73v.88H81.39Zm0,1.86H92.73v.88H81.39Zm-6.53-2.09a2.33,2.33,0,1,1,2.42,0,3.43,3.43,0,0,1,2.33,3.24H72.53A3.43,3.43,0,0,1,74.86,130.62Zm18.38,8H72.53v-.88H93.24Z"/><path class="cls-25" d="M244.7,16.08a10.52,10.52,0,0,0-10.52,10.52c0,5.81,10.52,17.69,10.52,17.69s10.52-11.88,10.52-17.69A10.52,10.52,0,0,0,244.7,16.08Zm0,16.08a5.55,5.55,0,1,1,5.55-5.55A5.55,5.55,0,0,1,244.7,32.16Z"/><circle class="cls-31" cx="244.7" cy="29.7" r="16.55"/><circle class="cls-32" cx="129.21" cy="29.7" r="16.55"/><path class="cls-25" d="M140.61,34.15V21.81h-22.8V34.15h9.56v2.94h-6.74v1.39H137.8V37.09h-6.74V34.15Zm-21.75-1.06V22.87h20.69V33.09Z"/><path class="cls-33" d="M235,124.73a14.69,14.69,0,0,0-19.59-13.87c0-.06,0-.12,0-.19a8.88,8.88,0,0,0-13.48-7.6,17.69,17.69,0,0,0-31.11,7l-.48,0a14.23,14.23,0,0,0-5.32,27.43,8.88,8.88,0,0,0,5.24,1.67s52.14.22,53.15,0C223.48,139.11,235,138.33,235,124.73Z"/><path class="cls-25" d="M171.1,14.21V35.57h33.45V14.21Zm15.05,2.63h16.28V18.1H186.16Zm0,2.67h16.28v1.27H186.16Zm0,2.67h16.28v1.27H186.16Zm0,2.67h16.28v1.27H186.16Zm-9.37-3a3.35,3.35,0,1,1,3.48,0,4.93,4.93,0,0,1,3.34,4.66H173.44A4.93,4.93,0,0,1,176.78,21.85ZM203.17,33.4H173.44V32.13h29.73Z"/><path class="cls-34" d="M127.69,265.85c1.53,6.46,3.78,13.71,6.11,20.55h38.7c.87-2.81,1.74-5.83,2.56-9,4.75-18.52-.25-34.53-4.75-41.79s-8.38-15.89-1.51-26.48,7.52-18.82,7.52-18.82c-1-4-4.13-5.38-12.25-9.26l-1.24-.42c-1.72,7-5.35,12.55-11.78,13.68-8.38,1.48-15.95-3.64-19.77-12.61-3.69,1.09-7.8,2.25-9.76,3.35,0,0,10.26,22.27,12.22,34.87S123,246.08,127.69,265.85Z"/><path class="cls-35" d="M151,194.27c6.43-1.13,10.06-6.69,11.78-13.68-2.69-.91-9-3.08-10.78-4-2.25-1.13-1.63-10.26-1.63-10.26l-11.89,3.39v8.87c0,.83-3.4,1.89-7.25,3C135.09,190.64,142.66,195.75,151,194.27Z"/><path class="cls-36" d="M150.41,166.52l-11.89,3.39v7.54a24.24,24.24,0,0,1,12.58,17c6.39-1.16,10-6.7,11.72-13.66-2.69-.91-9-3.08-10.78-4C149.79,175.65,150.41,166.52,150.41,166.52Z"/><path class="cls-37" d="M157.75,221.77c-5.31,1.62-10.32,3.41-13,3.41-5.26,0-13-7.38-16.68-2.87s-4.21,7.5-1.34,9.5,12-.75,16.4.13a110.37,110.37,0,0,0,15.7.62C159.46,229.74,159.38,224.6,157.75,221.77Z"/><path class="cls-38" d="M176.52,190.27c-1.23-4.93-11.39,4.13-8.88,12.39,2.15,7.08,1.37,16.6,1.37,16.6l9.94,10.06C182.32,225.18,177.52,194.27,176.52,190.27Z"/><path class="cls-39" d="M172.31,219.3c-3.84-.56-9.35.88-14.56,2.47,1.63,2.82,1.71,8,1.11,10.79,8.79-.14,18.21-1,20.08-3.25C178.94,229.31,183.45,220.93,172.31,219.3Z"/><path class="cls-40" d="M135.78,152.71c-2.09,4.06-1.86,17.86,3.94,19.14,5.07,1.11,7.89-3.83,7.89-3.83v-9.15a6.69,6.69,0,0,1-3.25-5c-.31-2.81-2-3.1-2-3.1S138.91,152.83,135.78,152.71Z"/><path class="cls-41" d="M126.76,219.88c-2.62-5.27-4.36-11.92-5.89-15.67-2.89-7.08-3.36-16.95.64-19.2,7.38-3.78,10.51,9.22,11,13s1.5,12.59,4.25,15.75Z"/><path class="cls-42" d="M159.47,174.24c-5-3.13.57-20.38-7.82-27a11,11,0,0,0-17.93,9v24.73c2.73-.85,4.8-1.64,4.8-2.29v-7.27c-4.61-2.93-4.7-14.85-2.74-18.65,3.13.12,6.61-1.94,6.61-1.94s1.66.3,2,3.1a6.69,6.69,0,0,0,3.25,5V168c0,8.59,2.07,18,7,18.51s5.73-5.94,9.49-5.52C164.06,181,164.48,177.36,159.47,174.24Z"/><path class="cls-43" d="M133.92,207.41c-2.73,3.74-7,7-7.16,12.48,2.32,4.68,5.34,8.27,9.52,7.8,6.16-.69,8.29-7.94,9-14.57C141.18,213.43,135.94,210.18,133.92,207.41Z"/><path class="cls-44" d="M143.21,173.69c-1.17.53-5.34,4.16-5.34,5.07s1.87,7.74,1.87,9.82-1.91,11.15-4.41,16.51a14,14,0,0,1-1.42,2.32c2,2.77,7.26,6,11.37,5.71a72.36,72.36,0,0,0,.37-7.83s.42-15.17,1.11-16.24.62-2.61.62-4v-2.81s1-.06,1-1.7q0-.07,0-.15C148.4,178.6,144.38,173.16,143.21,173.69Z"/><path class="cls-45" d="M243.93,180.4v44.27s14.77.45,14.32,0,0-20.57,0-20.57Z"/><path class="cls-46" d="M273.12,229.39a87.9,87.9,0,0,1,0,21.29c-.46,3.57-11,35.45-11,35.45h25.61l7.05-33.77-9.36-25.8Z"/><path class="cls-47" d="M273.12,229.39a87.9,87.9,0,0,1,0,21.29c-.46,3.57-13.06,35.71-13.06,35.71h27.71l7.05-34-9.36-25.8Z"/><path class="cls-48" d="M303.3,220.61c3.77,11.83,20.68,15.65,16,34.75-3.37,13.79-10.23,31-10.23,31h-32s10-30.06,10-34-6.29-24.44-6.29-24.44Z"/><path class="cls-49" d="M249.1,170.39c-3.77,1.8-7.22,9.81-3.77,17.32s3.94,6.17,5.24,12.08.79,9.17,11.59,16.53,10.47,9.32,11,13.08,30.89,2.94,30.4-11.11.29-30.29-8.77-37.94S249.1,170.39,249.1,170.39Z"/><path class="cls-50" d="M245.32,153v42.19s15.32-8.22,15.18-16.26S253.58,153,253.58,153Z"/><path class="cls-51" d="M256.08,178.3s2,3.3,2.73,4.72-2.38,7.69-1.37,13.07,7.67,4.46,9.15,0c.45-1.34,1.64-10.89,1.64-10.89V169.43Z"/><path class="cls-36" d="M258.81,183c4.3-4.82,8.76,15.6,1.7,16.63h.05l1,.11a5.39,5.39,0,0,0,5-3.68c.45-1.34,1.64-10.89,1.64-10.89V169.43l-12.16,8.87S258.12,181.6,258.81,183Z"/><path class="cls-52" d="M247.11,151.78c-2.09,13,.21,24.95,6.47,26.36s15.23-5.43,15.23-11.47,6.05-21.77-.83-25.37S248.44,143.51,247.11,151.78Z"/><path class="cls-50" d="M252.37,150.6a55.09,55.09,0,0,1-5.67,4.17c-2.4,1.43-1.81-6.8,2.83-10.67s10.73-7.16,13.2-4.94c0,0,7.74-2.14,12.43,5.76s5,15,6.5,17,4,3.21,2.8,6.91c0,0,8.23-1.65,9.46,4s.82,7.52.82,7.52a29.43,29.43,0,0,0-7.8-3.84s-3.53,2.78-6.91,2.78-7.63,13.61-13.55,13.61l0-32.42S253.06,158.76,252.37,150.6Z"/><path class="cls-53" d="M177.27,219.57c-15.55,16.19-28.94,65.58-28.94,65.58h22.32l14-32.79Z"/><path class="cls-54" d="M258.25,222.24c-3.25-3.7-20.58-15.86-42.67-14.54-19.48,1.17-35.24,7.18-38.31,11.86-2.25,3.42,2.67,26.53,6.1,35.73a80.69,80.69,0,0,1,4.92,27.39s55.1-.32,55.42,0,6.85-20.33,7.7-30.6S250.33,230.48,258.25,222.24Z"/><path class="cls-55" d="M228.44,188.53s.27,17.12,0,22.23-8.2,9.71-11.14,9.84-9.46-4.22-10.48-11.5V193.64Z"/><path class="cls-36" d="M228.54,197.83c0-5-.1-9.3-.1-9.3l-21.61,5.11v12.68c1.8,7.92,13.75,5.76,16.6-1.75C225.05,200.26,226.45,199,228.54,197.83Z"/><path class="cls-56" d="M201.09,181.88c.81,12.55,5.92,24.69,14,23.41,10-1.59,13.1-16.83,12.7-25.13s-5.13-13.5-12.33-13.5C208.63,166.64,200.4,171.25,201.09,181.88Z"/><path class="cls-57" d="M230.18,186.06c-.54,2.5-1.75,4.4-2.72,4.24s-1.31-2.32-.77-4.82,1.75-4.4,2.72-4.24S230.72,183.55,230.18,186.06Z"/><path class="cls-42" d="M201.25,183.84c-1.53-2.34-1.64-3.26-1.52-7.15s3.4-4,3.33-5.69,2.05-6.13,10.71-6.49,8.14,3.61,10.82,3.87,6.84,3,4.82,12.86c0,0-2.36.22-3.28,5a.43.43,0,0,1-.76.14,6.24,6.24,0,0,1-.79-1.82c-.65-2.38-3.24,1.2-3.71-3.55-.34-3.38-8.58,2.82-14.7-2.66,0,0-.91,1.21-3.52,1.13C201.14,179.42,201.25,183.84,201.25,183.84Z"/><path class="cls-58" d="M206.82,229.23s.71.91,2-1.12,5.89-8.21,7.47-7.6h0c-3.21-.67-8.58-4.83-9.51-11.4v-.53c-2.55.35-5,.79-7.31,1.28C198.86,213.48,201.58,225.22,206.82,229.23Z"/><path class="cls-58" d="M228.43,210.76c-.24,4.44-6.26,8.5-9.76,9.57h0c1.65-.64,7.72,7.34,8.78,9.1s3-.62,4.91-5.53c1.4-3.56,3.55-9.71,2.65-14a62.06,62.06,0,0,0-6.5-1.45C228.49,209.34,228.46,210.14,228.43,210.76Z"/><path class="cls-59" d="M206.82,209.1v-3.72c-3.23,1.42-6.22,2.62-6.55,4.47-.65,3.62,2.26,14.15,6.55,17.87,0,0,.71.91,2-1.12s5.89-6.69,7.47-6.08h0C213.12,219.83,207.74,215.67,206.82,209.1Z"/><path class="cls-60" d="M233.84,208.47c-.89-2-3.79-3.67-5.28-4.37,0,2.75,0,5.2-.12,6.66-.24,4.44-6.26,8.5-9.76,9.57h0c1.65-.64,7.72,5.82,8.78,7.58s2.35-.29,4.49-5.11S235.29,211.77,233.84,208.47Z"/><path class="cls-61" d="M268.95,272.42c0-14.2-4.14-42.66-10.7-50.18,0,0-10.27,5.49-13.52,22.9-1,5.2.68,20.07,1.11,26.34Z"/><path class="cls-62" d="M228.9,286.4h31.16c4.62,0,9.58-3.77,8.88-14s-17.4-8.78-23.11-.93l-17.17,2.62Z"/><path class="cls-63" d="M213.2,285.77l1.47-1.38,4.48,1.59a7.25,7.25,0,0,0,2.42.42h8.9a5.89,5.89,0,0,0,4.35-5.87,6.07,6.07,0,0,0-6-6.42h-9.75a7.11,7.11,0,0,1-1.45-.15l-6.94-1.45a4.27,4.27,0,0,0-3,.48l-3.93,2.26a9.92,9.92,0,0,0-2.08,1.59L194.53,284a1.41,1.41,0,0,0,1,2.41h16.09A2.31,2.31,0,0,0,213.2,285.77Z"/><path class="cls-64" d="M295.85,182.12c-6.68-3.86-18.39,7.12-15.87,20.1s-11.74,29.09-11.74,29.09-16.16,6.49-22.64,7.72a25.11,25.11,0,0,1,4.13,9.72c10.61-.87,25.84-3,32-8.16,9.3-7.75,19.18-36.33,19.18-45.41C300.9,184.61,295.85,182.12,295.85,182.12Z"/><path class="cls-65" d="M243.9,239.23H223s-14.92,5.05-15.31,5.92-1.16,6,0,7.21,8.72,3.34,10.66,3,17.05-6,20.54-6c1.18,0,5.4-.11,10.83-.56a25.11,25.11,0,0,0-4.13-9.72A9.62,9.62,0,0,1,243.9,239.23Z"/><path class="cls-66" d="M110,225.35s5.23,4.14,10.59,0,1.67-11.22,1.67-11.22L110,220.66Z"/><polygon class="cls-67" points="117.57 186.53 117.57 217.51 107.5 217.51 107.5 188.23 117.57 186.53"/><path class="cls-68" d="M101.15,263.49c-1,5.17-6.48,12.43-10,22.91h20c1.92-12.59,3.65-29.49.92-44.51H100.56C101.63,246.95,102.06,258.63,101.15,263.49Z"/><path class="cls-69" d="M82,262.37s2.32,11.25,3.9,24h5.32c3.5-10.48,9-17.74,10-22.91.91-4.86.48-16.54-.59-21.6H82.43Z"/><path class="cls-70" d="M100.56,241.88a10.83,10.83,0,0,0-.44-1.6H65.33c.48,16.75,1.8,33.41,2.59,46.11H91.17c3.5-10.48,9-17.74,10-22.91C102.06,258.63,101.63,246.95,100.56,241.88Z"/><path class="cls-71" d="M89,159c-20.58-5.52-34.48,3.67-36.76,16.86-2.08,12.05,13,49.36,13,64.45,0,0,24.39,12.57,46.77,1.6,0,0-3.36-16,0-30.18s7.82-22.3,4-32.46C112.82,170.36,98.67,161.55,89,159Z"/><path class="cls-72" d="M96.74,145.34s-7.77,9.77-11,12.88,2.77,9.48,7.36,12.19c3,1.79,9.42,3.77,7.54-1.8,0,0-1.06-3.11,4.1-7.54C104.68,161.07,98.95,143.95,96.74,145.34Z"/><path class="cls-36" d="M104.68,161.07a113.32,113.32,0,0,0-5.05-12.56L97.1,149.7c-2.95,6-3.48,17.44,3.49,18.91C100.59,168.61,99.52,165.49,104.68,161.07Z"/><path class="cls-73" d="M99.8,143.58c.66-3.72-2.67-4-3.71-.9-1.19,3.55.12,6,1.49,5.19,0,0-2.65,8,.69,12.85s7.6,3,12.93-2.27c4.58-4.51,7.57-10,8-12.15,1.21-5.54-4.55-10-9.95-9.73C102.66,136.93,99.8,143.58,99.8,143.58Z"/><path class="cls-50" d="M99.8,143.58c-.21,2.19.15,3.89,1.44,3.15s4.34-5.16,7.13-2,5,6.16,10,5.63c6.38-.68,7.86-9.32,2.24-10.86,0,0,2.44-3-1.9-4.34-4-1.26-4.14-.48-6.92-3.6-1.6-1.8-11.21-.84-13.82,9C97.94,140.61,100.12,140.17,99.8,143.58Z"/><path class="cls-74" d="M68.24,207.27c.2-4.29,2.86-15.42,6.6-22.54s1.91-16.26-3.18-19.84-12.14-2.93-15.5,2c-9,13.32-6.4,43.27-1.54,53.38,1,2,3.3,3.31,6.46,4.09C54.24,221.26,61.11,205.64,68.24,207.27Z"/><path class="cls-75" d="M94.79,219.47l13.52-16.36a2.32,2.32,0,0,1,2.41-.76l22.94,6.32a.74.74,0,0,1,.3,1.27L116.6,225.6a1.51,1.51,0,0,1-1.36.35l-19.86-4.7A1.11,1.11,0,0,1,94.79,219.47Z"/><path class="cls-76" d="M111,213a7.57,7.57,0,0,0-4.34-4.31c-1-.27-8-.15-11.83-.06a8.17,8.17,0,0,0-4.17,1.24,9.58,9.58,0,0,1-3.43,1.58H75.29a41.69,41.69,0,0,0-7-4.19c-7.14-1.63-14,14-7.16,17.12,11.52,2.86,34.26-1.31,43.82-4.58a10.47,10.47,0,0,0,5.27-3.89A3.52,3.52,0,0,0,111,213Z"/><polygon class="cls-50" points="30.06 286.39 68.44 286 106.83 285.78 183.6 285.59 260.37 285.77 298.76 286 337.15 286.39 298.76 286.78 260.37 287 183.6 287.19 106.83 287 68.44 286.78 30.06 286.39"/><path class="cls-77" d="M192.12,289h32.73a3.4,3.4,0,0,0,3.4-3.4h0a1.55,1.55,0,0,0-1.55-1.55H192.12a1.55,1.55,0,0,0-1.55,1.55v1.85A1.55,1.55,0,0,0,192.12,289Z"/><path class="cls-78" d="M134.19,289h68.37a4,4,0,0,0,3.85-5.05L194.35,240a6.55,6.55,0,0,0-6.32-4.82H119.66a4,4,0,0,0-3.85,5.05l12.07,43.93A6.55,6.55,0,0,0,134.19,289Z"/><path class="cls-42" d="M334.73,255a12,12,0,0,0-4,2.94,62.32,62.32,0,0,1-5.51,4.92c-1.32,1-2.63,1.95-3.9,2.85s-2.46,1.78-3.52,2.66c-2.16,1.73-3.8,3.43-4.37,4.7.57-1.26.81-3.61,1.88-6.46a20.87,20.87,0,0,1,2.29-4.44,18.69,18.69,0,0,1,3.95-4.17,15.07,15.07,0,0,1,8-2.87C331.89,254.92,333.7,255.26,334.73,255Z"/><path class="cls-42" d="M312.55,272.1c.1-1.27-.52-3.32-.93-6a25.64,25.64,0,0,1,.17-9.69,35.8,35.8,0,0,1,4.84-11.17c1.86-2.95,3.62-5.08,4.29-6.61-.68,1.53-1,4.28-1.43,7.63a107,107,0,0,1-1.77,11.49,45.9,45.9,0,0,1-3.09,8.73C313.54,268.89,312.65,270.82,312.55,272.1Z"/><path class="cls-42" d="M293.55,250.08c1,.48,3,.49,5.41,1.21a16.45,16.45,0,0,1,7.71,4.68,21.12,21.12,0,0,1,4.89,10.16c.62,3.17.44,5.67.75,7.12-.31-1.46-1.64-3.59-3.52-5.85s-4.26-4.67-6.64-7.36c-2-2.17-3.46-4.36-4.87-6.21A12.45,12.45,0,0,0,293.55,250.08Z"/><path class="cls-79" d="M324.8,264.79H304.61a1.79,1.79,0,0,0-1.77,2l2.46,20.64a1.79,1.79,0,0,0,1.77,1.57h15.26a1.79,1.79,0,0,0,1.77-1.57l2.46-20.64A1.79,1.79,0,0,0,324.8,264.79Z"/><path class="cls-80" d="M301.85,264.86l.91,7.64a.84.84,0,0,0,.84.74h22.22a.84.84,0,0,0,.84-.74l.91-7.64a.84.84,0,0,0-.83-.94h-24A.84.84,0,0,0,301.85,264.86Z"/><path class="cls-81" d="M45.54,187.11a8.48,8.48,0,0,0-11.31-8s0-.07,0-.11a5.12,5.12,0,0,0-7.78-4.39,10.22,10.22,0,0,0-18,4H8.22a8.21,8.21,0,0,0-3.07,15.83,5.13,5.13,0,0,0,3,1s30.1.13,30.68,0C38.86,195.41,45.54,195,45.54,187.11Z"/></svg>