<svg id="Layer_1" data-name="Layer 1" xmlns="http://www.w3.org/2000/svg" viewBox="0 0 72.55 72.56"><defs><style>.cls-1{fill:#11a95e;}.cls-2{fill:#2776fb;}</style></defs><title>x4-icon 3</title><path class="cls-1" d="M28.76,52.47,20.29,41.59a1.25,1.25,0,0,0-1.77-.14l-.14.14L9.91,52.47a1.21,1.21,0,0,0,1,2H14.5V64.1a1.21,1.21,0,0,0,1.21,1.21H23a1.21,1.21,0,0,0,1.21-1.21V54.42H27.8a1.21,1.21,0,0,0,1-2ZM23,52a1.21,1.21,0,0,0-1.21,1.21v9.67H16.92V53.21A1.21,1.21,0,0,0,15.71,52H13.34l6-7.7,6,7.7Z"/><path class="cls-2" d="M71.34,18.14h-6V9.67a1.21,1.21,0,0,0-1.21-1.21H27.8V1.21A1.21,1.21,0,0,0,26.59,0H7.24A1.21,1.21,0,0,0,6,1.21v38A19.33,19.33,0,1,0,37.7,59.26h24A10.9,10.9,0,0,0,72.55,48.37v-29A1.21,1.21,0,0,0,71.34,18.14ZM8.45,2.42H25.38V9.67a1.21,1.21,0,0,0,1.21,1.21H62.87v7.26H15.71a1.21,1.21,0,0,0-1.21,1.21V34.5a19.26,19.26,0,0,0-6,2.73ZM19.33,70.14A16.93,16.93,0,1,1,36.27,53.21,16.93,16.93,0,0,1,19.33,70.14ZM70.13,48.37a8.48,8.48,0,0,1-8.47,8.47H38.33A19.24,19.24,0,0,0,16.92,34V20.56H70.13Z"/><rect class="cls-2" x="32.64" y="22.98" width="2.42" height="2.42"/><rect class="cls-2" x="10.87" y="4.84" width="2.42" height="2.42"/><rect class="cls-2" x="15.71" y="4.84" width="2.42" height="2.42"/><rect class="cls-2" x="20.54" y="4.84" width="2.42" height="2.42"/><rect class="cls-2" x="19.33" y="22.98" width="10.88" height="2.42"/><rect class="cls-2" x="45.94" y="29.02" width="2.42" height="2.42"/><rect class="cls-2" x="19.33" y="29.02" width="24.19" height="2.42"/></svg>