<svg id="Layer_1" data-name="Layer 1" xmlns="http://www.w3.org/2000/svg" viewBox="0 0 76.51 76.47"><defs><style>.cls-1{fill:#2776fb;}.cls-2{fill:#11a95e;}</style></defs><title>x4-icon 4</title><path class="cls-1" d="M41.1,8.75a4,4,0,0,0-5.7,0L8.79,35.37a4,4,0,0,0,0,5.7L35.4,67.69a4,4,0,0,0,5.7,0L67.72,41.07a4,4,0,0,0,0-5.7ZM65.82,39.16,39.2,65.78a1.34,1.34,0,0,1-1.9,0L10.68,39.16a1.34,1.34,0,0,1,0-1.9L37.3,10.65a1.34,1.34,0,0,1,1.9,0L65.82,37.26A1.34,1.34,0,0,1,65.82,39.16Z"/><path class="cls-1" d="M41.1,1.14a4.13,4.13,0,0,0-5.7,0L1.18,35.37a4,4,0,0,0,0,5.7L35.4,75.29a4,4,0,0,0,5.7,0L75.33,41.07a4,4,0,0,0,0-5.7Zm32.32,38L39.2,73.39a1.34,1.34,0,0,1-1.9,0L3.08,39.16a1.34,1.34,0,0,1,0-1.9L37.3,3a1.34,1.34,0,0,1,1.9,0L73.43,37.26A1.34,1.34,0,0,1,73.43,39.16Z"/><path class="cls-2" d="M38,18.43a5.16,5.16,0,0,0-5.15,5.44l1,18a4,4,0,0,0,4,3.81h.29a4,4,0,0,0,4-3.81l1-18A5.16,5.16,0,0,0,38,18.43Zm1.49,23.31A1.35,1.35,0,0,1,38.18,43h-.29a1.34,1.34,0,0,1-1.34-1.27l-1-18a2.47,2.47,0,1,1,4.94,0Z"/><path class="cls-2" d="M38.25,48.39a4,4,0,1,0,4,4A4,4,0,0,0,38.25,48.39Zm0,5.38a1.34,1.34,0,1,1,1.34-1.34A1.34,1.34,0,0,1,38.25,53.77Z"/></svg>