<?xml version="1.0" encoding="utf-8"?>
<!-- Generator: Adobe Illustrator 21.1.0, SVG Export Plug-In . SVG Version: 6.00 Build 0)  -->
<svg version="1.1" id="Layer_1" xmlns="http://www.w3.org/2000/svg" xmlns:xlink="http://www.w3.org/1999/xlink" x="0px" y="0px"
	 viewBox="0 0 487 333.2" style="enable-background:new 0 0 487 333.2;" xml:space="preserve">
<style type="text/css">
	.st0{fill:url(#SVGID_1_);}
	.st1{fill:#FDD900;}
	.st2{fill:#FEE060;}
	.st3{fill:url(#SVGID_2_);}
	.st4{fill:#FFFFFF;}
	.st5{fill:#EB2227;}
	.st6{fill:#231F20;}
	.st7{enable-background:new    ;}
	.st8{fill:#272660;}
	.st9{fill:#D2D3D4;}
	.st10{fill:#2683C6;}
	.st11{fill:none;stroke:#272660;stroke-width:0.88;stroke-miterlimit:10;}
	.st12{fill:none;stroke:#272660;stroke-width:0.88;stroke-miterlimit:10;stroke-dasharray:4.4,4.4;}
	.st13{fill:url(#SVGID_3_);}
</style>
<title>title</title>
<image style="overflow:visible;opacity:0.2;enable-background:new    ;" width="262" height="210" xlink:href="293D57A0.png"  transform="matrix(0.2382 0 0 0.2389 -5.1 51.24)">
</image>
<linearGradient id="SVGID_1_" gradientUnits="userSpaceOnUse" x1="3.8594" y1="976.735" x2="39.41" y2="976.735" gradientTransform="matrix(1 0 0 1 0 -905)">
	<stop  offset="0" style="stop-color:#3BC6F3"/>
	<stop  offset="1.000000e-02" style="stop-color:#3BC6F3"/>
	<stop  offset="0.21" style="stop-color:#458DCB"/>
	<stop  offset="0.37" style="stop-color:#4F69B2"/>
	<stop  offset="0.46" style="stop-color:#535BA9"/>
	<stop  offset="1" style="stop-color:#785AA6"/>
</linearGradient>
<path class="st0" d="M39.4,83.4c0,0-36.5-2-35.5-14.2v-9.1h35.5V83.4z"/>
<image style="overflow:visible;opacity:0.2;enable-background:new    ;" width="2058" height="845" xlink:href="293D57AD.png"  transform="matrix(0.2399 0 0 0.24 4.26 45.72)">
</image>
<polygon class="st1" points="40.3,54.7 480,54.7 468,230.5 13.1,230.5 "/>
<path class="st2" d="M41.5,54.7c0,0,397.9,33.8,428.1,175.9L480,54.7H41.5z"/>
<image style="overflow:visible;opacity:0.2;enable-background:new    ;" width="1085" height="379" xlink:href="293D57AE.png"  transform="matrix(0.24 0 0 0.24 -5.1 -4.68)">
</image>
<linearGradient id="SVGID_2_" gradientUnits="userSpaceOnUse" x1="3.8601" y1="941.21" x2="237.34" y2="941.21" gradientTransform="matrix(1 0 0 1 0 -905)">
	<stop  offset="0" style="stop-color:#3BC6F3"/>
	<stop  offset="1.000000e-02" style="stop-color:#3BC6F3"/>
	<stop  offset="0.21" style="stop-color:#458DCB"/>
	<stop  offset="0.37" style="stop-color:#4F69B2"/>
	<stop  offset="0.46" style="stop-color:#535BA9"/>
	<stop  offset="1" style="stop-color:#785AA6"/>
</linearGradient>
<path class="st3" d="M224.1,68.2H3.9V12.4c0,0-1-7.1,11.2-8.1h222.3L224.1,68.2z"/>
<g>
	<path class="st4" d="M42.6,37.3c0.7,0.9,1,2.1,1,3.2c0.1,1.7-0.8,3.4-2.3,4.3c-2,1.1-4.3,1.7-6.7,1.5h-12V25.1h11.4
		c2.8,0,5,0.5,6.4,1.5c1.4,0.9,2.2,2.4,2.2,4c0,0.9-0.2,1.9-0.7,2.7c-0.5,0.8-1.3,1.5-2.2,1.9C40.9,35.7,41.9,36.4,42.6,37.3z
		 M29.8,30.2v3.2h3.3c1.6,0,2.3-0.5,2.3-1.6c0-1.1-0.8-1.6-2.3-1.6H29.8z M36.5,39.7c0-1.1-0.8-1.7-2.4-1.7h-4.3v3.3h4.3
		C35.7,41.4,36.5,40.8,36.5,39.7L36.5,39.7z"/>
	<path class="st4" d="M46.2,25.1h7.2v21.2h-7.2V25.1z"/>
	<path class="st4" d="M75.6,40.8v5.5H56V42l9.7-11.3h-9.4v-5.6h18.7v4.4l-9.7,11.3H75.6z"/>
	<path class="st4" d="M84.8,30.5v3.6h8.9v5.4h-8.9v6.8h-7.2V25.1h17.3v5.4H84.8z"/>
	<path class="st4" d="M97.2,25.1h7.2v15.7h9.6v5.5H97.2V25.1z"/>
	<path class="st4" d="M126.4,38.7v7.7h-7.2v-7.8l-8-13.4h7.6l4.3,7.3l4.4-7.3h6.9L126.4,38.7z"/>
	<path class="st4" d="M149.4,45.5c-1.7-0.9-3.2-2.3-4.2-3.9c-2-3.6-2-7.9,0-11.5c1-1.7,2.5-3,4.2-3.9c1.9-1,4-1.4,6.1-1.4
		c1.9,0,3.8,0.3,5.5,1.1c1.6,0.7,3,1.8,4,3.2l-4.5,4c-1.1-1.5-2.8-2.5-4.6-2.5c-1.4-0.1-2.7,0.5-3.6,1.4c-0.9,1.1-1.4,2.4-1.4,3.9
		c-0.1,1.4,0.4,2.8,1.4,3.9c0.9,1,2.3,1.5,3.6,1.4c1.9,0,3.6-1,4.6-2.5l4.5,4c-1,1.4-2.4,2.5-4,3.2c-1.7,0.8-3.6,1.1-5.5,1.1
		C153.3,46.9,151.2,46.4,149.4,45.5z"/>
	<path class="st4" d="M167,25.1h10.5c2.2,0,4.3,0.4,6.3,1.3c1.8,0.8,3.2,2.1,4.3,3.7c1,1.7,1.5,3.7,1.5,5.6c0,2-0.5,3.9-1.5,5.6
		c-1,1.6-2.5,2.9-4.2,3.7c-2,0.9-4.1,1.3-6.3,1.3H167V25.1z M177.2,40.8c1.4,0.1,2.7-0.4,3.7-1.3c1-1,1.5-2.3,1.4-3.7
		c0.1-1.4-0.4-2.7-1.4-3.7c-1-0.9-2.3-1.4-3.7-1.3h-3v10.1L177.2,40.8z"/>
	<path class="st4" d="M213,25.1v21.2h-5.9l-8.1-9.6v9.6h-7V25.1h6l8,9.6v-9.6H213z"/>
</g>
<ellipse class="st5" cx="419.5" cy="30" rx="1.5" ry="1.5"/>
<polygon class="st6" points="380.9,17.1 384.5,17.1 397.3,39.7 395.5,43 "/>
<polygon class="st6" points="387.3,17.1 391,17.1 398.7,30.9 406.5,17.1 410.1,17.1 398.7,37.4 "/>
<path class="st6" d="M419.4,39.7c-5.3,0.2-9.8-4-10-9.4s4-9.8,9.4-10c0.2,0,0.4,0,0.6,0c2.5,0,4.8,1,6.6,2.7l2.1-2.3
	c-2.3-2.3-5.5-3.5-8.7-3.5c-7.1,0.2-12.8,6.1-12.6,13.3c0.2,6.9,5.7,12.4,12.6,12.6c3.3,0,6.4-1.3,8.8-3.6l-2.3-2.4
	C424.2,38.7,421.8,39.7,419.4,39.7z"/>
<path class="st6" d="M419.5,34.2c-2.3-0.2-4-2.1-3.8-4.4c0.1-2,1.8-3.7,3.8-3.8c1,0,2,0.4,2.7,1.1l2.2-2.3c-1.3-1.3-3.1-2-4.9-2
	c-4-0.1-7.4,3-7.5,7s3,7.4,7,7.5c0.2,0,0.4,0,0.5,0c1.8,0,3.5-0.7,4.8-1.9l-2.1-2.3C421.5,33.7,420.5,34.2,419.5,34.2z"/>
<path class="st6" d="M445.8,22.9c-4-0.1-7.3,3.1-7.3,7.1s3.1,7.3,7.1,7.3c4,0.1,7.3-3.1,7.3-7.1c0,0,0-0.1,0-0.1
	C452.9,26.1,449.7,22.9,445.8,22.9z M445.8,34.1c-2.2,0-4-1.8-4-4c0-2.2,1.8-4,4-4c2.2,0,3.9,1.7,4,3.9c0,0,0,0.1,0,0.1
	C449.8,32.3,448,34.1,445.8,34.1C445.8,34.1,445.8,34.1,445.8,34.1z"/>
<path class="st6" d="M433.7,34.1c-2.2-0.2-3.9-2.1-3.8-4.3c0.1-2,1.7-3.6,3.8-3.8c1,0,2,0.4,2.7,1.1l2.1-2.3c-1.3-1.3-3.1-2-4.9-2
	c-4,0-7.3,3.3-7.3,7.3c0,4,3.2,7.3,7.3,7.3c1.9,0,3.7-0.7,5-2.1l-2.1-2.3C435.7,33.7,434.8,34.1,433.7,34.1z"/>
<path class="st6" d="M463.3,32.4c3.2-1.4,2.6-5.1,2.6-5.1c-0.4-4.6-5.5-4.3-5.5-4.3h-6.1v13.8h3.1v-3.9h3.2l2.1,3.9h3.5L463.3,32.4z
	 M463,28.2c0,1.3-1.1,2.3-2.4,2.2h-3.2v-4.8h3.5c1.2,0.1,2.2,1.2,2.1,2.4C463,28.1,463,28.1,463,28.2L463,28.2z"/>
<path class="st6" d="M479.6,27.1c-0.3-4.2-5-4.1-5-4.1h-6.2v13.9h3v-4h3.6l0.5-0.1C480.3,32.3,479.6,27.1,479.6,27.1z M476.8,28
	c0,1.3-1,2.4-2.3,2.4h-3.1v-4.8h2.8c1.3-0.2,2.4,0.8,2.6,2C476.8,27.7,476.8,27.9,476.8,28L476.8,28z"/>
<g class="st7">
	<path class="st8" d="M270.5,23.9c0.8,0.4,1.5,0.9,2,1.6c0.5,0.7,0.7,1.5,0.7,2.5c0,1-0.2,1.8-0.7,2.5c-0.5,0.7-1.1,1.3-2,1.6
		c-0.8,0.4-1.8,0.6-3,0.6h-2.6v3.6h-3v-13h5.6C268.6,23.4,269.6,23.6,270.5,23.9z M269.4,29.7c0.5-0.4,0.7-0.9,0.7-1.7
		c0-0.7-0.2-1.3-0.7-1.7c-0.5-0.4-1.2-0.6-2.1-0.6h-2.4v4.5h2.4C268.2,30.3,268.9,30.1,269.4,29.7z"/>
</g>
<g class="st7">
	<path class="st8" d="M277,35.8c-0.8-0.4-1.5-1-2-1.8s-0.7-1.7-0.7-2.7c0-1,0.2-1.9,0.7-2.7c0.5-0.8,1.1-1.4,2-1.8
		c0.8-0.4,1.8-0.7,2.8-0.7s2,0.2,2.8,0.7c0.8,0.4,1.5,1,1.9,1.8c0.5,0.8,0.7,1.7,0.7,2.7c0,1-0.2,1.9-0.7,2.7s-1.1,1.4-1.9,1.8
		s-1.8,0.7-2.8,0.7S277.8,36.3,277,35.8z M281.6,33.4c0.5-0.5,0.7-1.2,0.7-2s-0.2-1.5-0.7-2c-0.5-0.5-1.1-0.8-1.8-0.8
		s-1.4,0.3-1.8,0.8c-0.5,0.5-0.7,1.2-0.7,2s0.2,1.5,0.7,2c0.5,0.5,1.1,0.8,1.8,0.8S281.1,33.9,281.6,33.4z"/>
	<path class="st8" d="M302.6,26.4l-3.6,10h-2.8l-2.2-6.2l-2.3,6.2h-2.8l-3.6-10h2.7l2.4,6.7l2.4-6.7h2.4l2.4,6.7l2.4-6.7H302.6z"/>
</g>
<g class="st7">
	<path class="st8" d="M313.7,32.2h-7.5c0.1,0.6,0.5,1.1,1,1.5c0.5,0.4,1.1,0.5,1.9,0.5c0.5,0,1-0.1,1.4-0.2c0.4-0.2,0.8-0.4,1.1-0.7
		l1.5,1.7c-0.9,1.1-2.3,1.6-4.1,1.6c-1.1,0-2.1-0.2-3-0.7c-0.9-0.4-1.5-1-2-1.8s-0.7-1.7-0.7-2.7c0-1,0.2-1.9,0.7-2.6
		c0.5-0.8,1.1-1.4,1.9-1.8c0.8-0.4,1.7-0.7,2.7-0.7c1,0,1.9,0.2,2.7,0.6s1.4,1,1.9,1.8s0.7,1.7,0.7,2.7
		C313.8,31.4,313.8,31.7,313.7,32.2z M307,29c-0.4,0.4-0.7,0.9-0.8,1.5h4.9c-0.1-0.6-0.4-1.1-0.8-1.5c-0.4-0.4-1-0.6-1.6-0.6
		C307.9,28.4,307.4,28.6,307,29z"/>
</g>
<g class="st7">
	<path class="st8" d="M319.9,26.6c0.6-0.2,1.3-0.4,2-0.4v2.7c-0.3,0-0.5,0-0.6,0c-0.8,0-1.5,0.2-1.9,0.7s-0.7,1.2-0.7,2.1v4.7h-2.9
		v-10h2.8v1.3C318.8,27.2,319.3,26.8,319.9,26.6z"/>
</g>
<g class="st7">
	<path class="st8" d="M333.3,32.2h-7.5c0.1,0.6,0.5,1.1,1,1.5s1.1,0.5,1.9,0.5c0.5,0,1-0.1,1.4-0.2c0.4-0.2,0.8-0.4,1.1-0.7l1.5,1.7
		c-0.9,1.1-2.3,1.6-4.1,1.6c-1.1,0-2.1-0.2-3-0.7s-1.5-1-2-1.8s-0.7-1.7-0.7-2.7c0-1,0.2-1.9,0.7-2.6c0.5-0.8,1.1-1.4,1.9-1.8
		c0.8-0.4,1.7-0.7,2.7-0.7c1,0,1.9,0.2,2.7,0.6s1.4,1,1.9,1.8s0.7,1.7,0.7,2.7C333.3,31.4,333.3,31.7,333.3,32.2z M326.5,29
		c-0.4,0.4-0.7,0.9-0.8,1.5h4.9c-0.1-0.6-0.4-1.1-0.8-1.5c-0.4-0.4-1-0.6-1.6-0.6C327.5,28.4,326.9,28.6,326.5,29z"/>
	<path class="st8" d="M345.4,22.6v13.8h-2.8v-1.1c-0.7,0.9-1.8,1.3-3.1,1.3c-0.9,0-1.8-0.2-2.5-0.6c-0.8-0.4-1.4-1-1.8-1.8
		c-0.4-0.8-0.6-1.7-0.6-2.7c0-1,0.2-1.9,0.6-2.7c0.4-0.8,1-1.4,1.8-1.8c0.8-0.4,1.6-0.6,2.5-0.6c1.3,0,2.3,0.4,3,1.2v-4.8H345.4z
		 M341.8,33.4c0.5-0.5,0.7-1.2,0.7-2s-0.2-1.5-0.7-2c-0.5-0.5-1.1-0.8-1.8-0.8c-0.7,0-1.4,0.3-1.8,0.8c-0.5,0.5-0.7,1.2-0.7,2
		s0.2,1.5,0.7,2c0.5,0.5,1.1,0.8,1.8,0.8C340.7,34.1,341.4,33.9,341.8,33.4z"/>
</g>
<g class="st7">
	<path class="st8" d="M361.7,26.9c0.8,0.4,1.4,1,1.8,1.8s0.6,1.7,0.6,2.7c0,1-0.2,1.9-0.6,2.7c-0.4,0.8-1,1.4-1.8,1.8
		s-1.6,0.6-2.5,0.6c-1.4,0-2.4-0.4-3.1-1.3v1.1h-2.8V22.6h2.9v4.8c0.7-0.8,1.7-1.2,3-1.2C360.1,26.2,361,26.4,361.7,26.9z
		 M360.5,33.4c0.5-0.5,0.7-1.2,0.7-2s-0.2-1.5-0.7-2c-0.5-0.5-1.1-0.8-1.8-0.8s-1.4,0.3-1.8,0.8c-0.5,0.5-0.7,1.2-0.7,2
		s0.2,1.5,0.7,2s1.1,0.8,1.8,0.8S360.1,33.9,360.5,33.4z"/>
</g>
<g class="st7">
	<path class="st8" d="M375.7,26.4L371.2,37c-0.5,1.1-1,2-1.7,2.4c-0.7,0.5-1.5,0.7-2.4,0.7c-0.5,0-1-0.1-1.5-0.2s-0.9-0.4-1.2-0.7
		l1.1-2.1c0.2,0.2,0.5,0.4,0.8,0.5s0.6,0.2,0.9,0.2c0.4,0,0.7-0.1,1-0.3c0.2-0.2,0.5-0.5,0.7-1l0-0.1l-4.3-10h3l2.8,6.8l2.8-6.8
		H375.7z"/>
</g>
<g class="st7">
	<path class="st8" d="M93,91.8c1.2,0.5,2.1,1.3,2.7,2.3c0.6,1,1,2.1,1,3.5c0,1.3-0.3,2.5-1,3.5c-0.6,1-1.5,1.7-2.7,2.3
		s-2.6,0.8-4.2,0.8h-3.6v5H81V91h7.8C90.5,91,91.8,91.2,93,91.8z M91.5,99.8c0.7-0.5,1-1.3,1-2.3c0-1-0.3-1.8-1-2.3
		c-0.7-0.5-1.6-0.8-2.9-0.8h-3.4v6.3h3.4C89.9,100.7,90.8,100.4,91.5,99.8z"/>
</g>
<g class="st7">
	<path class="st8" d="M116.3,91V109h-4.2v-7.4h-8.2v7.4h-4.2V91h4.2v7.1h8.2V91H116.3z"/>
	<path class="st8" d="M122.5,107.2c-1.4-1.4-2.2-3.5-2.2-6.1V91h4.2v10c0,3.2,1.3,4.9,4,4.9c1.3,0,2.3-0.4,3-1.2s1-2,1-3.7V91h4.1
		v10.1c0,2.7-0.7,4.7-2.2,6.1c-1.4,1.4-3.4,2.1-6,2.1S124,108.6,122.5,107.2z M127.3,114c-0.3-0.3-0.5-0.7-0.5-1.3s0.2-0.9,0.5-1.3
		c0.3-0.3,0.8-0.5,1.3-0.5c0.5,0,0.9,0.2,1.3,0.5c0.3,0.3,0.5,0.8,0.5,1.3s-0.2,0.9-0.5,1.3s-0.8,0.5-1.3,0.5
		C128.1,114.5,127.6,114.3,127.3,114z"/>
	<path class="st8" d="M144.5,108.2c-1.5-0.8-2.7-1.9-3.5-3.3c-0.9-1.4-1.3-3-1.3-4.8c0-1.8,0.4-3.4,1.3-4.8c0.9-1.4,2-2.5,3.5-3.3
		c1.5-0.8,3.2-1.2,5-1.2c1.6,0,3,0.3,4.2,0.8c1.3,0.6,2.3,1.3,3.2,2.4l-2.7,2.5c-1.2-1.4-2.7-2.1-4.5-2.1c-1.1,0-2.1,0.2-3,0.7
		c-0.9,0.5-1.6,1.2-2.1,2.1s-0.7,1.9-0.7,3c0,1.1,0.2,2.1,0.7,3s1.2,1.6,2.1,2.1s1.9,0.7,3,0.7c1.8,0,3.3-0.7,4.5-2.1l2.7,2.5
		c-0.9,1.1-1.9,1.9-3.2,2.4c-1.3,0.6-2.7,0.8-4.3,0.8C147.7,109.4,146,109,144.5,108.2z"/>
	<path class="st8" d="M184.5,91l-7.8,18.1h-4.1L164.7,91h4.5l5.5,12.9l5.6-12.9H184.5z"/>
	<path class="st8" d="M188.4,107.2c-1.4-1.4-2.2-3.5-2.2-6.1V91h4.2v10c0,3.2,1.3,4.9,4,4.9c1.3,0,2.3-0.4,3-1.2s1-2,1-3.7V91h4.1
		v10.1c0,2.7-0.7,4.7-2.2,6.1c-1.4,1.4-3.4,2.1-6,2.1S189.8,108.6,188.4,107.2z M193.2,114c-0.3-0.3-0.5-0.7-0.5-1.3
		s0.2-0.9,0.5-1.3c0.3-0.3,0.8-0.5,1.3-0.5c0.5,0,0.9,0.2,1.3,0.5c0.3,0.3,0.5,0.8,0.5,1.3s-0.2,0.9-0.5,1.3s-0.8,0.5-1.3,0.5
		C193.9,114.5,193.5,114.3,193.2,114z"/>
</g>
<g class="st7">
	<path class="st8" d="M160,122V140h-4.2v-7.4h-8.2v7.4h-4.2V122h4.2v7.1h8.2V122H160z"/>
	<path class="st8" d="M182.1,127.2c0.5,1.2,0.8,2.5,0.8,3.8c0,1.8-0.4,3.4-1.3,4.8c-0.9,1.4-2,2.5-3.5,3.3c-1.5,0.8-3.2,1.2-5.1,1.2
		c-1.9,0-3.6-0.4-5.1-1.2c-1.5-0.8-2.7-1.9-3.5-3.3c-0.9-1.4-1.3-3-1.3-4.8c0-1.8,0.4-3.4,1.3-4.8c0.9-1.4,2.1-2.5,3.6-3.3
		c1.5-0.8,3.3-1.2,5.2-1.2c0.8,0,1.7,0.1,2.8,0.2c0.9,0.1,1.5,0.2,1.9,0.2c0.7,0,1.2-0.1,1.6-0.4s0.6-0.7,0.6-1.3
		c0-0.5-0.2-1-0.5-1.5l2.4-0.9c0.6,0.8,0.8,1.6,0.8,2.6s-0.3,1.7-0.7,2.4c-0.5,0.6-1.2,1.1-2.1,1.3C180.9,125,181.6,126,182.1,127.2
		z M176,136c0.9-0.5,1.5-1.2,2-2.1c0.5-0.9,0.7-1.9,0.7-3c0-1.1-0.2-2.1-0.7-3c-0.5-0.9-1.2-1.6-2-2.1c-0.9-0.5-1.8-0.7-2.9-0.7
		c-1.1,0-2,0.2-2.9,0.7c-0.9,0.5-1.5,1.2-2,2.1c-0.5,0.9-0.7,1.9-0.7,3c0,1.1,0.2,2.1,0.7,3c0.5,0.9,1.2,1.6,2,2.1
		c0.9,0.5,1.8,0.7,2.9,0.7C174.1,136.8,175.1,136.5,176,136z"/>
	<path class="st8" d="M202.7,122V140h-3.4l-9-11v11h-4.1V122h3.5l9,11v-11H202.7z"/>
</g>
<path class="st9" d="M231.3,122.5v4.1c0,2.8,1.2,4.3,3.6,4.3s3.5-1.4,3.5-4.3v-9.7c0-2.9-1.2-4.3-3.5-4.3s-3.6,1.4-3.6,4.3v1.3h-6.5
	l1.3-25.4h18.1V99h-12l-0.6,10.5c1.3-2.1,3.6-3.3,6-3.2c5.1,0,7.6,3.3,7.6,10v9.8c0,7.3-3.4,11-10.3,11s-10.3-3.7-10.3-11v-3.6
	L231.3,122.5z"/>
<path class="st9" d="M249.3,103.3c0-7.3,3.5-11,10.5-11c7,0,10.5,3.7,10.5,11v22.8c0,7.3-3.5,11-10.5,11c-7,0-10.4-3.7-10.4-11
	L249.3,103.3z M256.2,126.5c0,2.9,1.2,4.3,3.6,4.3s3.6-1.4,3.6-4.3v-23.7c0-2.9-1.2-4.3-3.6-4.3c-2.4,0-3.6,1.4-3.6,4.3V126.5z"/>
<path class="st9" d="M274.7,136.6V130h6.6v5.9l-3,7h-2.8l1.8-6.3L274.7,136.6z"/>
<path class="st9" d="M285.7,103.3c0-7.3,3.5-11,10.5-11s10.5,3.7,10.5,11v22.8c0,7.3-3.5,11-10.5,11s-10.5-3.7-10.5-11V103.3z
	 M292.6,126.5c0,2.9,1.2,4.3,3.6,4.3s3.6-1.4,3.6-4.3v-23.7c0-2.9-1.2-4.3-3.6-4.3c-2.4,0-3.6,1.4-3.5,4.3L292.6,126.5z"/>
<path class="st9" d="M310.5,103.3c0-7.3,3.5-11,10.5-11s10.5,3.7,10.5,11v22.8c0,7.3-3.5,11-10.5,11s-10.5-3.7-10.5-11V103.3z
	 M317.4,126.5c0,2.9,1.2,4.3,3.6,4.3s3.6-1.4,3.6-4.3v-23.7c0-2.9-1.2-4.3-3.6-4.3c-2.4,0-3.6,1.4-3.6,4.3V126.5z"/>
<path class="st9" d="M335.3,103.3c0-7.3,3.5-11,10.5-11s10.5,3.7,10.5,11v22.8c0,7.3-3.5,11-10.5,11s-10.5-3.7-10.5-11V103.3z
	 M342.2,126.5c0,2.9,1.2,4.3,3.6,4.3s3.6-1.4,3.6-4.3v-23.7c0-2.9-1.2-4.3-3.6-4.3c-2.4,0-3.6,1.4-3.6,4.3V126.5z"/>
<path class="st9" d="M360.7,136.6V130h6.6v5.9l-3,7h-2.8l1.8-6.3L360.7,136.6z"/>
<path class="st9" d="M371.7,103.3c0-7.3,3.5-11,10.5-11s10.5,3.7,10.5,11v22.8c0,7.3-3.5,11-10.5,11s-10.5-3.7-10.5-11V103.3z
	 M378.5,126.5c0,2.9,1.2,4.3,3.6,4.3s3.6-1.4,3.6-4.3v-23.7c0-2.9-1.2-4.3-3.6-4.3c-2.4,0-3.6,1.4-3.6,4.3V126.5z"/>
<path class="st9" d="M396.5,103.3c0-7.3,3.5-11,10.5-11s10.5,3.7,10.5,11v22.8c0,7.3-3.5,11-10.5,11s-10.5-3.7-10.5-11V103.3z
	 M403.4,126.5c0,2.9,1.2,4.3,3.6,4.3c2.4,0,3.6-1.4,3.6-4.3v-23.7c0-2.9-1.2-4.3-3.6-4.3s-3.6,1.4-3.6,4.3V126.5z"/>
<path class="st9" d="M421.3,103.3c0-7.3,3.5-11,10.5-11c7,0,10.5,3.7,10.5,11v22.8c0,7.3-3.5,11-10.5,11c-7,0-10.5-3.7-10.5-11
	V103.3z M428.1,126.5c0,2.9,1.2,4.3,3.6,4.3c2.4,0,3.6-1.4,3.6-4.3v-23.7c0-2.9-1.2-4.3-3.6-4.3s-3.6,1.4-3.6,4.3V126.5z"/>
<path class="st10" d="M229.2,121.2v4.1c0,2.9,1.2,4.3,3.6,4.3s3.6-1.4,3.6-4.3v-9.6c0-2.9-1.2-4.3-3.6-4.3c-2.4,0-3.6,1.4-3.6,4.3
	v1.3h-6.5l1.3-25.4h18.1v6.3h-12l-0.6,10.4c1.3-2.1,3.6-3.3,6-3.2c5.1,0,7.6,3.3,7.6,10v9.8c0,7.3-3.4,11-10.3,11s-10.3-3.7-10.3-11
	v-3.6L229.2,121.2z"/>
<path class="st10" d="M247.3,102.1c0-7.3,3.5-11,10.4-11c7,0,10.5,3.7,10.5,11v22.8c0,7.3-3.5,11-10.5,11c-7,0-10.4-3.7-10.4-11
	V102.1z M254.1,125.3c0,2.9,1.2,4.3,3.6,4.3c2.4,0,3.6-1.4,3.6-4.3v-23.7c0-2.9-1.2-4.3-3.6-4.3c-2.4,0-3.6,1.4-3.6,4.3V125.3z"/>
<path class="st10" d="M272.6,135.4v-6.6h6.6v5.9l-3,7h-2.8l1.8-6.3L272.6,135.4z"/>
<path class="st10" d="M283.7,102.1c0-7.3,3.5-11,10.5-11s10.5,3.7,10.5,11v22.8c0,7.3-3.5,11-10.5,11s-10.5-3.7-10.5-11V102.1z
	 M290.5,125.3c0,2.9,1.2,4.3,3.6,4.3c2.4,0,3.6-1.4,3.6-4.3v-23.7c0-2.9-1.2-4.3-3.6-4.3s-3.6,1.4-3.6,4.3V125.3z"/>
<path class="st10" d="M308.4,102.1c0-7.3,3.5-11,10.5-11s10.5,3.7,10.5,11v22.8c0,7.3-3.5,11-10.5,11s-10.5-3.7-10.5-11V102.1z
	 M315.3,125.3c0,2.9,1.2,4.3,3.6,4.3c2.4,0,3.6-1.4,3.6-4.3v-23.7c0-2.9-1.2-4.3-3.6-4.3s-3.6,1.4-3.6,4.3V125.3z"/>
<path class="st10" d="M333.2,102.1c0-7.3,3.5-11,10.5-11s10.5,3.7,10.5,11v22.8c0,7.3-3.5,11-10.5,11s-10.5-3.7-10.5-11V102.1z
	 M340.1,125.3c0,2.9,1.2,4.3,3.6,4.3s3.6-1.4,3.6-4.3v-23.7c0-2.9-1.2-4.3-3.6-4.3c-2.4,0-3.6,1.4-3.6,4.3V125.3z"/>
<path class="st10" d="M358.5,135.4v-6.6h6.6v5.9l-3,7h-2.8l1.8-6.3L358.5,135.4z"/>
<path class="st10" d="M369.6,102.1c0-7.3,3.5-11,10.5-11s10.5,3.7,10.4,11v22.8c0,7.3-3.5,11-10.4,11c-7,0-10.4-3.7-10.5-11V102.1z
	 M376.5,125.3c0,2.9,1.2,4.3,3.6,4.3s3.6-1.4,3.6-4.3v-23.7c0-2.9-1.2-4.3-3.6-4.3c-2.4,0-3.6,1.4-3.6,4.3V125.3z"/>
<path class="st10" d="M394.4,102.1c0-7.3,3.5-11,10.5-11c7,0,10.5,3.7,10.5,11v22.8c0,7.3-3.5,11-10.5,11c-7,0-10.5-3.7-10.5-11
	V102.1z M401.3,125.3c0,2.9,1.2,4.3,3.6,4.3s3.6-1.4,3.6-4.3v-23.7c0-2.9-1.2-4.3-3.6-4.3c-2.4,0-3.6,1.4-3.6,4.3V125.3z"/>
<path class="st10" d="M419.2,102.1c0-7.3,3.5-11,10.5-11s10.5,3.7,10.5,11v22.8c0,7.3-3.5,11-10.5,11s-10.5-3.7-10.5-11V102.1z
	 M426,125.3c0,2.9,1.2,4.3,3.6,4.3s3.6-1.4,3.6-4.3v-23.7c0-2.9-1.2-4.3-3.6-4.3c-2.4,0-3.6,1.4-3.6,4.3V125.3z"/>
<g>
	<path class="st8" d="M66.1,189.3v20.3h-4v-28h5.6l4.5,16.8v-16.8h3.9v28h-4.5L66.1,189.3z"/>
	<path class="st8" d="M85.9,194h6.2v8.9c0,4.7-2.2,7-6.6,7c-4.4,0-6.6-2.3-6.6-7v-14.6c0-4.7,2.2-7,6.6-7s6.6,2.3,6.6,7v2.7h-4.2v-3
		c0-1.8-0.8-2.8-2.3-2.8s-2.3,0.9-2.3,2.8v15.1c0,1.8,0.8,2.7,2.3,2.7s2.3-0.9,2.3-2.7V198h-2L85.9,194z"/>
	<path class="st8" d="M107.8,187.3v15.6c0,4.7-2.2,7-6.6,7c-4.4,0-6.6-2.3-6.6-7v-21.4h4.4v21.6c0,1.8,0.8,2.7,2.3,2.7
		c1.5,0,2.3-0.9,2.3-2.7v-21.6h1.9v-1.8h3.8v3.6L107.8,187.3z"/>
	<path class="st8" d="M123.9,187.1c0,0.4,0,0.7,0,1.1v14.6c0,4.7-2.2,7-6.7,7c-4.5,0-6.7-2.3-6.7-7v-14.6c0-4.7,2.2-7,6.7-7
		c1.5-0.1,3.1,0.3,4.4,1.2v-2.7h3.8v3.6L123.9,187.1z M116.5,175.5l2.9,4.7h-3.3l-4.3-4.7H116.5z M114.9,203.1
		c0,1.9,0.8,2.8,2.3,2.8c1.5,0,2.3-0.9,2.3-2.8V188c0-1.8-0.8-2.8-2.3-2.8s-2.3,0.9-2.3,2.8L114.9,203.1z"/>
	<path class="st8" d="M126.7,181.5h4.4v28h-4.4L126.7,181.5z"/>
	<path class="st8" d="M140.5,181.5h7c4.4,0,6.6,2.3,6.6,6.9v14.2c0,4.6-2.2,6.9-6.6,6.9h-7V181.5z M144.9,185.5v20h2.5
		c1.5,0,2.3-0.9,2.3-2.7v-14.5c0-1.8-0.8-2.7-2.3-2.7L144.9,185.5z"/>
	<path class="st8" d="M161.1,181.5v21.6c0,1.8,0.8,2.7,2.3,2.7c1.5,0,2.3-0.9,2.3-2.7v-21.6h4.2v21.4c0,4.7-2.2,7-6.6,7
		c-4.4,0-6.6-2.3-6.6-7v-21.4H161.1z M162.6,175.5l2.9,4.7h-3.3l-4.3-4.7H162.6z"/>
	<path class="st8" d="M176.7,189.3v20.3h-4v-28h5.5l4.5,16.8v-16.8h3.9v28h-4.5L176.7,189.3z"/>
	<path class="st8" d="M196.5,194h6.2v8.9c0,4.7-2.2,7-6.6,7c-4.4,0-6.6-2.3-6.6-7v-14.6c0-4.7,2.2-7,6.6-7s6.6,2.3,6.6,7v2.7h-4.2
		v-3c0-1.8-0.8-2.8-2.3-2.8c-1.5,0-2.3,0.9-2.3,2.8v15.1c0,1.8,0.8,2.7,2.3,2.7s2.3-0.9,2.3-2.7V198h-2L196.5,194z"/>
	<path class="st8" d="M211.7,181.5h4.4v28h-4.4V181.5z"/>
	<path class="st8" d="M223.3,189.3v20.3h-4v-28h5.5l4.5,16.8v-16.8h3.9v28h-4.5L223.3,189.3z"/>
	<path class="st8" d="M235.2,181.5h13.6v4h-4.6v24h-4.4v-24h-4.6L235.2,181.5z"/>
	<path class="st8" d="M255.2,193.4h6.1v4h-6.1v8.2h7.6v4h-12v-28h12v4h-7.6V193.4z"/>
	<path class="st8" d="M274.8,209.6c-0.1-0.4-0.2-0.7-0.3-1.1c-0.1-0.8-0.1-1.5-0.1-2.3v-4.4c0-2.4-1-3.6-2.9-3.6H270v11.4h-4.4v-28
		h6.6c4.4,0,6.5,2.2,6.5,6.5v2.2c0,2.9-1,4.8-2.9,5.7c2,0.8,2.9,2.8,2.9,6v4.3c-0.1,1.2,0.1,2.3,0.5,3.4L274.8,209.6z M270,185.6
		v8.6h1.7c1.8,0,2.7-1,2.7-3v-2.8c0-1.9-0.8-2.9-2.3-2.9L270,185.6z"/>
	<path class="st8" d="M285.6,189.3v20.3h-4v-28h5.5l4.5,16.8v-16.8h3.9v28H291L285.6,189.3z"/>
	<path class="st8" d="M303.1,193.4h6.1v4h-6.1v8.2h7.6v4h-12v-28h12v4h-7.6V193.4z"/>
	<path class="st8" d="M312.3,181.5h13.6v4h-4.6v24h-4.4v-24h-4.6L312.3,181.5z"/>
	<path class="st8" d="M340.8,204.4l3.4-22.9h4l-4.3,28h-6.6l-4.3-28h4.4L340.8,204.4z"/>
	<path class="st8" d="M350.2,181.5h4.4v28h-4.4V181.5z"/>
	<path class="st8" d="M362.2,193.4h6.1v4h-6.1v8.2h7.6v4h-12v-28h12v4h-7.6V193.4z M357.9,180.2l3.7-4.7h4.2l3.7,4.7h-4l-1.9-2.3
		l-1.8,2.3H357.9z M365.9,211.7v4.1h-4.1v-4.1H365.9z"/>
	<path class="st8" d="M371.3,181.5H385v4h-4.6v24H376v-24h-4.6L371.3,181.5z"/>
	<path class="st8" d="M397.1,189.3v20.3h-4v-28h5.5l4.5,16.8v-16.8h3.9v28h-4.5L397.1,189.3z"/>
	<path class="st8" d="M424.5,209.6h-4.4l-0.8-5.1h-5.4l-0.8,5.1h-4l4.5-28h6.4L424.5,209.6z M414.5,200.7h4.3l-2.1-14.2L414.5,200.7
		z"/>
	<path class="st8" d="M435.9,201.4l3-19.9h6.1v28h-4.2v-20.1l-3,20.1h-4.2l-3.3-19.8v19.8h-3.9v-28h6.1L435.9,201.4z"/>
</g>
<line class="st11" x1="48.1" y1="158.5" x2="50.3" y2="158.5"/>
<line class="st12" x1="54.7" y1="158.5" x2="448.9" y2="158.5"/>
<line class="st11" x1="451.1" y1="158.5" x2="453.3" y2="158.5"/>
<linearGradient id="SVGID_3_" gradientUnits="userSpaceOnUse" x1="163.89" y1="1205.7966" x2="335.3" y2="1205.7966" gradientTransform="matrix(1 0 0 1 0 -905)">
	<stop  offset="0" style="stop-color:#3BC6F3"/>
	<stop  offset="1.000000e-02" style="stop-color:#3BC6F3"/>
	<stop  offset="0.21" style="stop-color:#458DCB"/>
	<stop  offset="0.37" style="stop-color:#4F69B2"/>
	<stop  offset="0.46" style="stop-color:#535BA9"/>
	<stop  offset="1" style="stop-color:#785AA6"/>
</linearGradient>
<path class="st13" d="M183.7,280.3h131.8c10.9,0,19.8,9.2,19.8,20.5l0,0c0,11.3-8.9,20.5-19.8,20.5H183.7
	c-10.9,0-19.8-9.2-19.8-20.5l0,0C163.9,289.5,172.8,280.3,183.7,280.3z"/>
<g>
	<path class="st4" d="M198.5,301.5h7.8v2h-7.8V301.5z M200.2,296.3h5.8c1.3,0,2.5,0.2,3.7,0.8c1,0.5,1.9,1.3,2.5,2.2
		c1.2,2.1,1.2,4.6,0,6.7c-0.6,1-1.4,1.7-2.5,2.2c-1.1,0.5-2.4,0.8-3.7,0.8h-5.8V296.3z M205.8,306.5c1.1,0.1,2.2-0.3,3-1.1
		c1.5-1.6,1.5-4.1,0-5.7c-0.8-0.7-1.9-1.1-3-1.1h-2.7v7.9L205.8,306.5z"/>
	<path class="st4" d="M225.5,306.2h-5.9l-1.1,2.7h-3l5.7-12.7h2.9l5.7,12.7h-3.1L225.5,306.2z M220.2,294.6c-0.6-0.5-1-1.2-1-2h1.8
		c0,0.4,0.2,0.7,0.5,0.9c0.7,0.5,1.5,0.5,2.2,0c0.3-0.2,0.5-0.6,0.5-0.9h1.8c0,0.8-0.4,1.5-1,2C223.5,295.6,221.6,295.6,220.2,294.6
		L220.2,294.6z M224.6,304l-2-4.8l-2,4.9L224.6,304z"/>
	<path class="st4" d="M244.8,296.3v12.7h-2.4l-6.3-7.7v7.7h-2.9v-12.7h2.4l6.3,7.7v-7.7H244.8z"/>
	<path class="st4" d="M258.5,302.4h2.7v5.1c-0.7,0.5-1.5,0.9-2.4,1.2c-0.9,0.3-1.8,0.4-2.7,0.4c-1.2,0-2.5-0.3-3.5-0.8
		c-1-0.5-1.9-1.3-2.5-2.3c-1.2-2.1-1.2-4.7,0-6.8c0.6-1,1.5-1.8,2.5-2.3c1.1-0.6,2.3-0.9,3.6-0.8c1,0,2.1,0.2,3,0.6
		c0.9,0.4,1.7,0.9,2.3,1.6l-1.9,1.7c-0.8-0.9-2-1.4-3.3-1.4c-0.7,0-1.5,0.2-2.1,0.5c-0.6,0.3-1.1,0.8-1.5,1.4
		c-0.7,1.3-0.7,2.9,0,4.3c0.3,0.6,0.8,1.1,1.5,1.4c0.7,0.4,1.4,0.5,2.1,0.5c0.8,0,1.6-0.2,2.3-0.5L258.5,302.4z"/>
	<path class="st4" d="M275.8,304l-1.7,1.8v3.2h-2.9v-12.7h2.9v5.9l5.6-5.9h3.3l-5.3,5.7l5.6,7h-3.4L275.8,304z"/>
	<path class="st4" d="M292.9,304.4v4.5H290v-4.5l-4.9-8.2h3.1l3.4,5.6l3.4-5.6h2.9L292.9,304.4z M292.3,292.6h3l-3.3,2.6h-2.1
		L292.3,292.6z"/>
</g>
</svg>
