<svg xmlns="http://www.w3.org/2000/svg" viewBox="0 0 24.42 24.42"><defs><style>.cls-1{fill:#031b4e;}</style></defs><title>icon Ram</title><g id="tùy_chỉnh_cấu_hình" data-name="tùy chỉnh cấu hình"><path class="cls-1" d="M15.66,6.13H8.76A2.63,2.63,0,0,0,6.13,8.76v6.9a2.63,2.63,0,0,0,2.63,2.63h6.9a2.63,2.63,0,0,0,2.63-2.63V8.76A2.63,2.63,0,0,0,15.66,6.13Zm1.2,9.53a1.2,1.2,0,0,1-1.2,1.2H8.76a1.2,1.2,0,0,1-1.2-1.2V8.76a1.2,1.2,0,0,1,1.2-1.2h6.9a1.2,1.2,0,0,1,1.2,1.2Z"/><path class="cls-1" d="M23.7,9.67a.72.72,0,0,0,0-1.43H21.35V6.41H23.7A.72.72,0,0,0,23.7,5H21.25a2.64,2.64,0,0,0-1.82-1.82V.72A.72.72,0,1,0,18,.72V3.06H16.18V.72a.72.72,0,0,0-1.43,0V3.06H12.92V.72a.72.72,0,1,0-1.43,0V3.06H9.67V.72a.72.72,0,1,0-1.43,0V3.06H6.41V.72A.72.72,0,0,0,5,.72V3.16A2.64,2.64,0,0,0,3.16,5H.72a.72.72,0,0,0,0,1.43H3.06V8.24H.72a.72.72,0,0,0,0,1.43H3.06v1.83H.72a.72.72,0,1,0,0,1.43H3.06v1.83H.72a.72.72,0,1,0,0,1.43H3.06V18H.72a.72.72,0,1,0,0,1.43H3.16A2.64,2.64,0,0,0,5,21.25V23.7a.72.72,0,0,0,1.43,0V21.35H8.24V23.7a.72.72,0,0,0,1.43,0V21.35h1.83V23.7a.72.72,0,0,0,1.43,0V21.35h1.83V23.7a.72.72,0,0,0,1.43,0V21.35H18V23.7a.72.72,0,0,0,1.43,0V21.25a2.64,2.64,0,0,0,1.82-1.82H23.7a.72.72,0,0,0,0-1.43H21.35V16.18H23.7a.72.72,0,0,0,0-1.43H21.35V12.92H23.7a.72.72,0,1,0,0-1.43H21.35V9.67Zm-5,10.25H5.7a1.2,1.2,0,0,1-1.2-1.2V5.7A1.2,1.2,0,0,1,5.7,4.5h13a1.2,1.2,0,0,1,1.2,1.2v13A1.2,1.2,0,0,1,18.72,19.92Z"/></g></svg>