<svg id="Layer_1" data-name="Layer 1" xmlns="http://www.w3.org/2000/svg" xmlns:xlink="http://www.w3.org/1999/xlink" viewBox="0 0 327.5 148.25"><defs><style>.cls-1{fill:#fff;stroke:#fff;stroke-width:4.54px;}.cls-1,.cls-11,.cls-12,.cls-13,.cls-14,.cls-15,.cls-16,.cls-17,.cls-18,.cls-19,.cls-20,.cls-21{stroke-miterlimit:10;}.cls-2{fill:#0056ec;}.cls-11,.cls-12,.cls-13,.cls-14,.cls-15,.cls-16,.cls-17,.cls-18,.cls-19,.cls-20,.cls-21,.cls-3{fill:#feda09;}.cls-4{fill:url(#linear-gradient);}.cls-5{fill:url(#linear-gradient-2);}.cls-6{fill:url(#linear-gradient-3);}.cls-7{fill:url(#linear-gradient-4);}.cls-8{fill:url(#linear-gradient-5);}.cls-9{fill:url(#linear-gradient-6);}.cls-10{fill:#4072ff;}.cls-11,.cls-12,.cls-13,.cls-14,.cls-15,.cls-16,.cls-17,.cls-18,.cls-19,.cls-20,.cls-21{stroke-width:2.72px;}.cls-11{stroke:url(#linear-gradient-7);}.cls-12{stroke:url(#linear-gradient-8);}.cls-13{stroke:url(#linear-gradient-9);}.cls-14{stroke:url(#linear-gradient-10);}.cls-15{stroke:url(#linear-gradient-11);}.cls-16{stroke:url(#linear-gradient-12);}.cls-17{stroke:url(#linear-gradient-13);}.cls-18{stroke:url(#linear-gradient-14);}.cls-19{stroke:url(#linear-gradient-15);}.cls-20{stroke:url(#linear-gradient-16);}.cls-21{stroke:url(#linear-gradient-17);}</style><linearGradient id="linear-gradient" x1="194.98" y1="92.48" x2="309.22" y2="88.92" gradientUnits="userSpaceOnUse"><stop offset="0" stop-color="#1937e0"/><stop offset="1" stop-color="#903fe0"/></linearGradient><linearGradient id="linear-gradient-2" x1="224.71" y1="79.39" x2="300.58" y2="79.39" gradientTransform="translate(-12.89 19.53) rotate(-1.78)" xlink:href="#linear-gradient"/><linearGradient id="linear-gradient-3" x1="143.61" y1="94.74" x2="224.39" y2="92.23" xlink:href="#linear-gradient"/><linearGradient id="linear-gradient-4" x1="239.01" y1="237.91" x2="251.92" y2="237.91" gradientTransform="translate(164.91 -247.88) rotate(19.63)" xlink:href="#linear-gradient"/><linearGradient id="linear-gradient-5" x1="246.5" y1="595.47" x2="259.4" y2="595.47" gradientTransform="matrix(0.52, 0.67, -0.84, 0.28, 689.34, -264.33)" xlink:href="#linear-gradient"/><linearGradient id="linear-gradient-6" x1="349.11" y1="-267.17" x2="359.04" y2="-267.17" gradientTransform="matrix(0.64, -0.55, 0.32, 0.82, 167.65, 468.41)" xlink:href="#linear-gradient"/><linearGradient id="linear-gradient-7" x1="36.11" y1="4.12" x2="60.79" y2="4.12" gradientTransform="translate(-8.91 20.65) rotate(-2.03)" xlink:href="#linear-gradient"/><linearGradient id="linear-gradient-8" x1="60.43" y1="4.12" x2="80.65" y2="4.12" gradientTransform="translate(-8.91 20.65) rotate(-2.03)" xlink:href="#linear-gradient"/><linearGradient id="linear-gradient-9" x1="79.13" y1="4.12" x2="104.24" y2="4.12" gradientTransform="translate(-8.91 20.65) rotate(-2.03)" xlink:href="#linear-gradient"/><linearGradient id="linear-gradient-10" x1="104.39" y1="4.39" x2="129.06" y2="4.39" gradientTransform="translate(-8.91 20.65) rotate(-2.03)" xlink:href="#linear-gradient"/><linearGradient id="linear-gradient-11" x1="129.76" y1="4.12" x2="154.1" y2="4.12" gradientTransform="translate(-8.91 20.65) rotate(-2.03)" xlink:href="#linear-gradient"/><linearGradient id="linear-gradient-12" x1="165.45" y1="4.12" x2="190.17" y2="4.12" gradientTransform="translate(-8.91 20.65) rotate(-2.03)" xlink:href="#linear-gradient"/><linearGradient id="linear-gradient-13" x1="190.07" y1="4.12" x2="211.46" y2="4.12" gradientTransform="translate(-8.91 20.65) rotate(-2.03)" xlink:href="#linear-gradient"/><linearGradient id="linear-gradient-14" x1="211.47" y1="4.12" x2="235.77" y2="4.12" gradientTransform="translate(-8.91 20.65) rotate(-2.03)" xlink:href="#linear-gradient"/><linearGradient id="linear-gradient-15" x1="232.95" y1="4.12" x2="260.41" y2="4.12" gradientTransform="translate(-8.91 20.65) rotate(-2.03)" xlink:href="#linear-gradient"/><linearGradient id="linear-gradient-16" x1="259.55" y1="4.12" x2="280.94" y2="4.12" gradientTransform="translate(-8.91 20.65) rotate(-2.03)" xlink:href="#linear-gradient"/><linearGradient id="linear-gradient-17" x1="280.95" y1="4.12" x2="305.26" y2="4.12" gradientTransform="translate(-8.91 20.65) rotate(-2.03)" xlink:href="#linear-gradient"/></defs><title>banner-title</title><path class="cls-1" d="M40.91,96.49l.34,10.81c-.36,0-.65.08-.94.09-3.34.11-6.67.19-10,.33-.77,0-1-.21-1-1q-.59-19.84-1.23-39.68c0-.58,0-1,.77-1,6.86-.17,13.71-.51,20.57-.53a17.27,17.27,0,0,1,12.26,4.51C65,73.23,66.21,77.23,66,81.7c-.32,8-6.09,12.75-13.2,14a102.56,102.56,0,0,1-10.6.77C41.82,96.47,41.4,96.47,40.91,96.49ZM40.64,87s.08.11.13.11a81.21,81.21,0,0,0,8.69-.53c3.3-.53,4.7-2.74,4.54-6.27a5.26,5.26,0,0,0-5.1-5.19,61.71,61.71,0,0,0-6.26,0c-.78,0-1.55,0-2.37.07Z"/><path class="cls-1" d="M109.8,105.22l-1.71.05c-3.25.1-6.49.18-9.74.32a1.09,1.09,0,0,1-1.22-.78c-.92-2.18-1.91-4.32-2.84-6.49a1,1,0,0,0-1.09-.69q-7.92.28-15.83.49a1,1,0,0,0-1.09.83c-.8,2.25-1.66,4.49-2.47,6.74a.87.87,0,0,1-.9.7c-3.61.09-7.22.21-10.83.32a4.85,4.85,0,0,1-.57-.06c.12-.35.21-.66.33-.95Q70,85.56,78.13,65.42a1.18,1.18,0,0,1,1.25-.89c3.31-.06,6.61-.17,9.92-.31a1.13,1.13,0,0,1,1.25.74q9.42,19.67,18.88,39.32C109.55,104.52,109.63,104.78,109.8,105.22ZM90.2,88.91,84.6,76.14l-4.76,13c.28,0,.46.05.63,0Z"/><path class="cls-1" d="M115.63,104.93l-.09-3c-.12-3.73-.22-7.46-.37-11.19a3.17,3.17,0,0,0-.46-1.51q-7.66-12-15.37-24L98.55,64c.43,0,.71-.08,1-.09,3.55-.11,7.1-.21,10.65-.35a1.36,1.36,0,0,1,1.37.76c3.05,4.82,6.14,9.61,9.21,14.41.16.25.34.49.56.81l5.78-10.41c1-1.86,2-3.72,3.11-5.55a1.31,1.31,0,0,1,.86-.63c3.52-.15,7-.24,10.56-.34a1.68,1.68,0,0,1,.36.1c-.16.32-.29.61-.45.89q-7,12.64-14,25.3a3.53,3.53,0,0,0-.41,1.71c.1,4.37.25,8.74.39,13.11,0,.5.1,1-.67,1-3.58.09-7.16.21-10.74.31A2.83,2.83,0,0,1,115.63,104.93Z"/><path class="cls-1" d="M54.06,138.67c-2.26.07-4.43.15-6.6.18-.2,0-.49-.31-.6-.54-.51-1.06-1-2.14-1.44-3.24a1,1,0,0,0-1.14-.75c-2.76.13-5.52.2-8.28.26a.94.94,0,0,0-1,.75c-.35,1.12-.78,2.23-1.22,3.32-.11.26-.4.63-.63.64-2.11.11-4.23.16-6.51.23.14-.44.22-.74.34-1q4.49-11.11,9-22.23a1.11,1.11,0,0,1,1.19-.83c1.73,0,3.46-.12,5.18-.12a1.19,1.19,0,0,1,.91.49Q48.62,127,54,138.22A2.39,2.39,0,0,1,54.06,138.67Zm-14.3-16.5-2.66,7.31,5.78-.18Z"/><path class="cls-1" d="M143.24,117.54l0,.88c.17,5.49.33,11,.53,16.47,0,.73-.14,1-.92,1-1.75,0-3.5.09-5.31.15l-.11-1.42a19,19,0,0,1-3.73,1.64c-4.64,1-9-1.11-9.46-6.49-.32-3.74-.33-7.51-.48-11.27a2.06,2.06,0,0,1,.07-.4l6.48-.2,0,1c.09,2.73.16,5.46.26,8.19a8,8,0,0,0,.19,1.44,2.61,2.61,0,0,0,2.6,2.34,3.08,3.08,0,0,0,3.15-2,7.27,7.27,0,0,0,.34-2.32c0-2.58-.14-5.16-.22-7.74l0-1.06Z"/><path class="cls-1" d="M111.74,137.17c-4.31,0-7.56-1.1-9.72-4.36a9.41,9.41,0,0,1,6.42-14.44,12.57,12.57,0,0,1,7.14.61,9.08,9.08,0,0,1,5.74,9.24,9.2,9.2,0,0,1-6.81,8.4A24.56,24.56,0,0,1,111.74,137.17Zm3-9.67a12.14,12.14,0,0,0-.34-1.59,3.37,3.37,0,0,0-2.79-2.44,3.6,3.6,0,0,0-3.76,1.48,5.06,5.06,0,0,0,.24,5.64,4.1,4.1,0,0,0,1.86,1.2C112.65,132.52,114.79,130.53,114.75,127.49Z"/><path class="cls-1" d="M78.66,114.15c2.4-.07,4.61-.17,6.82-.18.27,0,.61.34.79.61,1.64,2.51,3.25,5,4.87,7.57.16.25.34.49.56.81,1.61-2.89,3.19-5.68,4.71-8.5a1.52,1.52,0,0,1,1.56-.92c1.52,0,3-.08,4.55-.12l1,0c-.61,1.11-1.1,2-1.61,3-2.19,3.95-4.4,7.89-6.56,11.85A3.43,3.43,0,0,0,95,129.8c0,2.48.13,5,.21,7.53-.36,0-.66.08-.95.09-1.61.06-3.22.07-4.82.17-.77,0-1.07-.14-1.07-1,0-2.24-.09-4.49-.21-6.73a3.44,3.44,0,0,0-.48-1.6c-2.67-4.23-5.39-8.43-8.09-12.64C79.31,115.22,79.05,114.78,78.66,114.15Z"/><path class="cls-1" d="M70.52,125.47a10.63,10.63,0,0,0-6.28-1.11,3.29,3.29,0,0,0-1.28.4,1.12,1.12,0,0,0-.52.84,1,1,0,0,0,.67.71c1.27.27,2.57.42,3.85.66a19.27,19.27,0,0,1,3.18.73c4,1.48,3.85,5.95,2,8a8.45,8.45,0,0,1-5.35,2.65,18.66,18.66,0,0,1-9.75-1c-.75-.29-.88-.64-.55-1.35.53-1.15,1-2.35,1.5-3.65l.82.36a12.42,12.42,0,0,0,6.83,1,1.49,1.49,0,0,0,.69-.17,8.56,8.56,0,0,0,.87-.93c-.31-.28-.59-.74-.95-.81-1.45-.28-2.93-.43-4.4-.66a14.78,14.78,0,0,1-1.87-.38,5.13,5.13,0,0,1-2.35-8.57,8.87,8.87,0,0,1,5.51-2.52,17.8,17.8,0,0,1,8.34.78c.68.23.91.51.57,1.25C71.5,122.93,71.06,124.15,70.52,125.47Z"/><path class="cls-2" d="M40.91,96.49l.34,10.81c-.36,0-.65.08-.94.09-3.34.11-6.67.19-10,.33-.77,0-1-.21-1-1q-.59-19.84-1.23-39.68c0-.58,0-1,.77-1,6.86-.17,13.71-.51,20.57-.53a17.27,17.27,0,0,1,12.26,4.51C65,73.23,66.21,77.23,66,81.7c-.32,8-6.09,12.75-13.2,14a102.56,102.56,0,0,1-10.6.77C41.82,96.47,41.4,96.47,40.91,96.49ZM40.64,87s.08.11.13.11a81.21,81.21,0,0,0,8.69-.53c3.3-.53,4.7-2.74,4.54-6.27a5.26,5.26,0,0,0-5.1-5.19,61.71,61.71,0,0,0-6.26,0c-.78,0-1.55,0-2.37.07Z"/><path class="cls-2" d="M109.8,105.22l-1.71.05c-3.25.1-6.49.18-9.74.32a1.09,1.09,0,0,1-1.22-.78c-.92-2.18-1.91-4.32-2.84-6.49a1,1,0,0,0-1.09-.69q-7.92.28-15.83.49a1,1,0,0,0-1.09.83c-.8,2.25-1.66,4.49-2.47,6.74a.87.87,0,0,1-.9.7c-3.61.09-7.22.21-10.83.32a4.85,4.85,0,0,1-.57-.06c.12-.35.21-.66.33-.95Q70,85.56,78.13,65.42a1.18,1.18,0,0,1,1.25-.89c3.31-.06,6.61-.17,9.92-.31a1.13,1.13,0,0,1,1.25.74q9.42,19.67,18.88,39.32C109.55,104.52,109.63,104.78,109.8,105.22ZM90.2,88.91,84.6,76.14l-4.76,13c.28,0,.46.05.63,0Z"/><path class="cls-2" d="M115.63,104.93l-.09-3c-.12-3.73-.22-7.46-.37-11.19a3.17,3.17,0,0,0-.46-1.51q-7.66-12-15.37-24L98.55,64c.43,0,.71-.08,1-.09,3.55-.11,7.1-.21,10.65-.35a1.36,1.36,0,0,1,1.37.76c3.05,4.82,6.14,9.61,9.21,14.41.16.25.34.49.56.81l5.78-10.41c1-1.86,2-3.72,3.11-5.55a1.31,1.31,0,0,1,.86-.63c3.52-.15,7-.24,10.56-.34a1.68,1.68,0,0,1,.36.1c-.16.32-.29.61-.45.89q-7,12.64-14,25.3a3.53,3.53,0,0,0-.41,1.71c.1,4.37.25,8.74.39,13.11,0,.5.1,1-.67,1-3.58.09-7.16.21-10.74.31A2.83,2.83,0,0,1,115.63,104.93Z"/><path class="cls-2" d="M54.06,138.67c-2.26.07-4.43.15-6.6.18-.2,0-.49-.31-.6-.54-.51-1.06-1-2.14-1.44-3.24a1,1,0,0,0-1.14-.75c-2.76.13-5.52.2-8.28.26a.94.94,0,0,0-1,.75c-.35,1.12-.78,2.23-1.22,3.32-.11.26-.4.63-.63.64-2.11.11-4.23.16-6.51.23.14-.44.22-.74.34-1q4.49-11.11,9-22.23a1.11,1.11,0,0,1,1.19-.83c1.73,0,3.46-.12,5.18-.12a1.19,1.19,0,0,1,.91.49Q48.62,127,54,138.22A2.39,2.39,0,0,1,54.06,138.67Zm-14.3-16.5-2.66,7.31,5.78-.18Z"/><path class="cls-2" d="M143.24,117.54l0,.88c.17,5.49.33,11,.53,16.47,0,.73-.14,1-.92,1-1.75,0-3.5.09-5.31.15l-.11-1.42a19,19,0,0,1-3.73,1.64c-4.64,1-9-1.11-9.46-6.49-.32-3.74-.33-7.51-.48-11.27a2.06,2.06,0,0,1,.07-.4l6.48-.2,0,1c.09,2.73.16,5.46.26,8.19a8,8,0,0,0,.19,1.44,2.61,2.61,0,0,0,2.6,2.34,3.08,3.08,0,0,0,3.15-2,7.27,7.27,0,0,0,.34-2.32c0-2.58-.14-5.16-.22-7.74l0-1.06Z"/><path class="cls-2" d="M111.74,137.17c-4.31,0-7.56-1.1-9.72-4.36a9.41,9.41,0,0,1,6.42-14.44,12.57,12.57,0,0,1,7.14.61,9.08,9.08,0,0,1,5.74,9.24,9.2,9.2,0,0,1-6.81,8.4A24.56,24.56,0,0,1,111.74,137.17Zm3-9.67a12.14,12.14,0,0,0-.34-1.59,3.37,3.37,0,0,0-2.79-2.44,3.6,3.6,0,0,0-3.76,1.48,5.06,5.06,0,0,0,.24,5.64,4.1,4.1,0,0,0,1.86,1.2C112.65,132.52,114.79,130.53,114.75,127.49Z"/><path class="cls-2" d="M78.66,114.15c2.4-.07,4.61-.17,6.82-.18.27,0,.61.34.79.61,1.64,2.51,3.25,5,4.87,7.57.16.25.34.49.56.81,1.61-2.89,3.19-5.68,4.71-8.5a1.52,1.52,0,0,1,1.56-.92c1.52,0,3-.08,4.55-.12l1,0c-.61,1.11-1.1,2-1.61,3-2.19,3.95-4.4,7.89-6.56,11.85A3.43,3.43,0,0,0,95,129.8c0,2.48.13,5,.21,7.53-.36,0-.66.08-.95.09-1.61.06-3.22.07-4.82.17-.77,0-1.07-.14-1.07-1,0-2.24-.09-4.49-.21-6.73a3.44,3.44,0,0,0-.48-1.6c-2.67-4.23-5.39-8.43-8.09-12.64C79.31,115.22,79.05,114.78,78.66,114.15Z"/><path class="cls-2" d="M70.52,125.47a10.63,10.63,0,0,0-6.28-1.11,3.29,3.29,0,0,0-1.28.4,1.12,1.12,0,0,0-.52.84,1,1,0,0,0,.67.71c1.27.27,2.57.42,3.85.66a19.27,19.27,0,0,1,3.18.73c4,1.48,3.85,5.95,2,8a8.45,8.45,0,0,1-5.35,2.65,18.66,18.66,0,0,1-9.75-1c-.75-.29-.88-.64-.55-1.35.53-1.15,1-2.35,1.5-3.65l.82.36a12.42,12.42,0,0,0,6.83,1,1.49,1.49,0,0,0,.69-.17,8.56,8.56,0,0,0,.87-.93c-.31-.28-.59-.74-.95-.81-1.45-.28-2.93-.43-4.4-.66a14.78,14.78,0,0,1-1.87-.38,5.13,5.13,0,0,1-2.35-8.57,8.87,8.87,0,0,1,5.51-2.52,17.8,17.8,0,0,1,8.34.78c.68.23.91.51.57,1.25C71.5,122.93,71.06,124.15,70.52,125.47Z"/><path class="cls-3" d="M205.91,92.18c-1.07-26.69,21.27-47.08,44.72-47.7,25.28-.67,47,19.6,47.67,44.82a46.33,46.33,0,0,1-45.78,47.64C227.43,137.19,206.48,117,205.91,92.18Z"/><path class="cls-4" d="M251.85,44.47c24.76,0,45.8,20,46.45,44.84a46.33,46.33,0,0,1-45.78,47.64h-.45c-24.89,0-45.59-20.06-46.17-44.76-1.07-26.69,21.27-47.08,44.72-47.7l1.22,0m0-10.93h0l-1.51,0A57.57,57.57,0,0,0,210.24,52,55.85,55.85,0,0,0,195,92.53c.76,30.53,26.35,55.35,57.09,55.35h.55a57.58,57.58,0,0,0,40.61-17.54,56.88,56.88,0,0,0,16-41.31c-.81-30.59-26.54-55.48-57.37-55.48Z"/><path class="cls-5" d="M252.08,128.66c-20.42,0-37.42-16.5-37.89-36.77A37,37,0,0,1,224.3,65a38.22,38.22,0,0,1,26.61-12.25h1c20.48,0,37.57,16.52,38.1,36.82A37.77,37.77,0,0,1,279.41,117a38.23,38.23,0,0,1-27,11.65Z"/><path class="cls-3" d="M251.92,56.77c18.17,0,33.61,14.7,34.09,32.91a34,34,0,0,1-33.6,35h-.33A34,34,0,0,1,218.2,91.79c-.79-19.59,15.61-34.56,32.83-35h.89m0-8h-1.11a42.25,42.25,0,0,0-29.44,13.52A41,41,0,0,0,210.18,92c.56,22.41,19.34,40.63,41.9,40.63h.4a42.26,42.26,0,0,0,29.81-12.88A41.75,41.75,0,0,0,294,89.47c-.59-22.45-19.48-40.72-42.11-40.72Z"/><path class="cls-3" d="M212.7,69.5l-11,11.29c-.6-.59-1.31-1.35-2.09-2-5.8-5.18-12.4-6.3-19.59-3.52a14.42,14.42,0,0,0-8.23,8.1c-3.13,7.43-2.9,14.84,1.24,21.82,3.18,5.37,8.16,7.9,14.43,7.82a20.48,20.48,0,0,0,8.82-2.13,1.05,1.05,0,0,0,.68-1.15c-.2-5.69-.37-11.39-.54-17.08,0-1.08,0-1.08,1.08-1.12l13.33-.42,1.08,0,0,1q.42,13.42.85,26.83a1.47,1.47,0,0,1-.6,1.34,41,41,0,0,1-18.23,8.28,37,37,0,0,1-16.68-.25c-10.05-2.65-17.42-8.72-21.59-18.19-5.22-11.85-5.19-23.83.91-35.4,4.72-9,12.37-14.33,22.27-16.32a36.17,36.17,0,0,1,22.95,2.42,29.56,29.56,0,0,1,10.27,7.93C212.25,68.9,212.41,69.12,212.7,69.5Z"/><path class="cls-6" d="M187,57.5a34.64,34.64,0,0,1,14.81,3.26,29.56,29.56,0,0,1,10.27,7.93c.18.21.34.43.63.81l-11,11.29c-.6-.59-1.31-1.35-2.09-2a18,18,0,0,0-12.19-5A20.48,20.48,0,0,0,180,75.22a14.42,14.42,0,0,0-8.23,8.1c-3.13,7.43-2.9,14.84,1.24,21.82,3.14,5.29,8,7.82,14.17,7.82h.26a20.48,20.48,0,0,0,8.82-2.13,1.05,1.05,0,0,0,.68-1.15c-.2-5.69-.37-11.39-.54-17.08,0-1.08,0-1.08,1.08-1.12l13.33-.42,1.08,0,0,1q.42,13.42.85,26.83a1.47,1.47,0,0,1-.6,1.34,41,41,0,0,1-18.23,8.28,42.39,42.39,0,0,1-8.13.83,33.43,33.43,0,0,1-8.55-1.08c-10.05-2.65-17.42-8.72-21.59-18.19-5.22-11.85-5.19-23.83.91-35.4,4.72-9,12.37-14.33,22.27-16.32A41.28,41.28,0,0,1,187,57.5m0-8.31h0a49.78,49.78,0,0,0-9.77,1c-12.53,2.52-22.21,9.64-28,20.59-7.11,13.49-7.52,28.23-1.17,42.63,5.14,11.65,14.5,19.56,27.08,22.87a41.93,41.93,0,0,0,10.67,1.35,50.93,50.93,0,0,0,9.72-1,49.47,49.47,0,0,0,21.86-10,9.75,9.75,0,0,0,3.69-8.09q-.36-10.84-.69-21.69l-.16-5.13,0-1-.26-8.31-8.31.26h-.25l7.26-7.44,5.05-5.18-4.43-5.72-.23-.3c-.23-.31-.41-.54-.6-.76a37.93,37.93,0,0,0-13.13-10.13,43.05,43.05,0,0,0-18.32-4Zm.19,55.47c-3.36,0-5.46-1.12-7-3.75-2.7-4.55-2.93-9.12-.73-14.36A6.15,6.15,0,0,1,183,83a12.34,12.34,0,0,1,4.4-.92A9,9,0,0,1,193,84.11c-3.21,1.48-5.07,4.61-4.94,8.75l.1,3.3q.13,4.21.26,8.43-.55.06-1.12.06Z"/><path class="cls-7" d="M311.42,63.12a2.14,2.14,0,0,1-2.68-2.77c.92-2.46,7.17-7.1,7.17-7.1a3.73,3.73,0,0,1,3.73,0L322,54.7a2.82,2.82,0,0,1-.55,5.11Z"/><path class="cls-8" d="M312.6,68.26c-1.65-.64-1.87-2.3-.35-2.78,2.23-.7,9.9.41,9.9.41a4.21,4.21,0,0,1,2.85,2l1,2c.84,1.71-1.34,3-3.58,2.18Z"/><path class="cls-9" d="M307.79,57.72c-.42,1.3-1.69,1.53-2.12.38-.63-1.69-.1-7.62-.1-7.62A3.24,3.24,0,0,1,307,48.22l1.47-.82c1.28-.72,2.39.9,1.82,2.66Z"/><rect class="cls-2" x="0.23" y="10.52" width="326.92" height="23.11" rx="11.29" ry="11.29" transform="translate(-0.75 6.5) rotate(-2.27)"/><path class="cls-10" d="M32.7,22.15a9.7,9.7,0,0,1,2.65-7.56q2.85-2.83,8.2-3c5.49-.19,9.09,1.79,10.84,6a1.37,1.37,0,0,1-.91,2l-3.84,1.52a1.6,1.6,0,0,1-1.24.08,1.55,1.55,0,0,1-.76-1,3.69,3.69,0,0,0-3.87-2.23c-2.66.09-4,1.41-3.87,3.92l.23,6.62c.09,2.51,1.48,3.73,4.13,3.64a3.63,3.63,0,0,0,3.7-2.5,1.81,1.81,0,0,1,.69-1.08,1.66,1.66,0,0,1,1.24,0l3.94,1.24a1.37,1.37,0,0,1,1.05,1.93c-1.45,4.31-4.9,6.55-10.39,6.74q-5.35.19-8.39-2.43a9.7,9.7,0,0,1-3.17-7.35Z"/><path class="cls-10" d="M62.33,11.45a1.35,1.35,0,0,1,1.58,1.47l.63,17.93,8.76-.31A1.35,1.35,0,0,1,74.9,32L75,35.33a1.35,1.35,0,0,1-1.47,1.58l-14.4.51a1.36,1.36,0,0,1-1.62-1.47l-.81-22.77a1.36,1.36,0,0,1,1.51-1.58Z"/><path class="cls-10" d="M75.7,20.63a9.7,9.7,0,0,1,2.65-7.56q2.85-2.83,8.2-3c3.53-.12,6.32.69,8.35,2.44a9.7,9.7,0,0,1,3.17,7.35l.23,6.55a9.7,9.7,0,0,1-2.65,7.56c-1.9,1.89-4.63,2.89-8.16,3s-6.36-.69-8.39-2.43a9.7,9.7,0,0,1-3.17-7.35Zm15.15-.86c-.08-2.33-1.43-3.45-4.09-3.35s-4,1.31-3.88,3.63l.25,7.2c.08,2.33,1.47,3.44,4.12,3.35s3.92-1.3,3.84-3.63Z"/><path class="cls-10" d="M108.39,26.5c.08,2.22,1.36,3.3,3.86,3.21s3.74-1.26,3.66-3.48l-.54-15.13a1.35,1.35,0,0,1,1.47-1.58L121,9.38a1.36,1.36,0,0,1,1.62,1.47l.52,14.8a9.67,9.67,0,0,1-2.54,7.41q-2.79,2.83-8.09,3c-3.53.12-6.25-.69-8.24-2.44a9.68,9.68,0,0,1-3.06-7.21l-.52-14.8A1.35,1.35,0,0,1,102.13,10l4.11-.15a1.36,1.36,0,0,1,1.62,1.47Z"/><path class="cls-10" d="M136.39,8.83c3.53-.12,6.32.69,8.35,2.44a9.71,9.71,0,0,1,3.17,7.35l.19,5.46a9.62,9.62,0,0,1-2.65,7.52c-1.9,1.92-4.63,2.93-8.16,3.06l-8.87.31a1.36,1.36,0,0,1-1.62-1.47L126,10.73a1.36,1.36,0,0,1,1.51-1.58ZM140.72,19c-.09-2.62-1.56-3.88-4.36-3.78l-3,.11.46,13.09,3-.11c2.8-.1,4.17-1.46,4.08-4.08Z"/><path class="cls-10" d="M164.68,9.54C166.55,8,169.22,7.12,172.6,7c5.09-.18,8.53,1.41,10.33,4.73.51.93.24,1.63-.8,2.07l-3.58,1.69a1.52,1.52,0,0,1-1.12.22,2,2,0,0,1-.87-.92c-.66-1.25-1.92-1.83-3.74-1.76-2.29.08-3.43.74-3.39,2,0,.69.52,1.22,1.47,1.51a13.92,13.92,0,0,0,3.37.54,17,17,0,0,1,6.5,1.66c2.19,1.27,3.36,3.45,3.47,6.47a7.14,7.14,0,0,1-3,6.26,13.82,13.82,0,0,1-8,2.43c-5.67.2-9.27-1.57-10.78-5.26a1.44,1.44,0,0,1,.91-2l3.37-1.36a1.58,1.58,0,0,1,2.17.72c.7,1.25,2.11,1.86,4.18,1.78,2.58-.09,3.87-.83,3.82-2.21,0-1.05-1.48-1.7-4.33-2A19.64,19.64,0,0,1,165.85,22c-2.41-1.23-3.65-3.4-3.76-6.49A7.21,7.21,0,0,1,164.68,9.54Z"/><path class="cls-10" d="M203,6.48a1.36,1.36,0,0,1,1.62,1.47l.12,3.27a1.37,1.37,0,0,1-1.51,1.62l-9.6.34.11,3.24,7.67-.27a1.36,1.36,0,0,1,1.62,1.47l.12,3.27a1.37,1.37,0,0,1-1.51,1.62l-7.67.27.12,3.49,9.93-.35a1.35,1.35,0,0,1,1.58,1.47l.12,3.31a1.35,1.35,0,0,1-1.47,1.58l-15.57.55a1.36,1.36,0,0,1-1.62-1.47L186.28,8.6A1.36,1.36,0,0,1,187.79,7Z"/><path class="cls-10" d="M219.54,5.89a9.27,9.27,0,0,1,6.66,2,8.56,8.56,0,0,1,2.7,6.42c.12,3.53-1.1,6.08-3.66,7.63a7.08,7.08,0,0,1,1,1.53l3.49,6.1a1.53,1.53,0,0,1,.23,1.27,1.17,1.17,0,0,1-1.11.55l-3.93.14c-1.71.06-2.82-.48-3.41-1.63l-2.5-4.9a2.94,2.94,0,0,0-2.79-1.76l-.84,0,.25,7.06a1.35,1.35,0,0,1-1.47,1.58l-4.11.15a1.36,1.36,0,0,1-1.62-1.47l-.81-22.77a1.36,1.36,0,0,1,1.51-1.58ZM219,12.28l-3.93.14.17,4.8,3.93-.14a2.13,2.13,0,0,0,2.31-2.52A2.11,2.11,0,0,0,219,12.28Z"/><path class="cls-10" d="M252.68,4.72c1,0,1.36.46,1,1.46l-7.22,23.34a1.81,1.81,0,0,1-1.85,1.34L240.1,31a1.77,1.77,0,0,1-1.93-1.13L229.27,7c-.4-1-.05-1.49,1-1.53l4.15-.15q2.35-.08,2.78,1.43l3.89,12.32a25.27,25.27,0,0,1,1,4.66h.33a22.68,22.68,0,0,1,.6-4.68l3-12.6q.33-1.54,2.56-1.62Z"/><path class="cls-10" d="M272.46,4a1.36,1.36,0,0,1,1.62,1.47l.12,3.27a1.37,1.37,0,0,1-1.51,1.62l-9.6.34L263.2,14l7.67-.27a1.36,1.36,0,0,1,1.62,1.47l.12,3.27a1.37,1.37,0,0,1-1.51,1.62l-7.67.27.12,3.49,9.93-.35a1.35,1.35,0,0,1,1.58,1.47l.12,3.31a1.35,1.35,0,0,1-1.47,1.58l-15.57.55a1.36,1.36,0,0,1-1.62-1.47l-.81-22.77a1.36,1.36,0,0,1,1.51-1.58Z"/><path class="cls-10" d="M289,3.44a9.27,9.27,0,0,1,6.66,2,8.56,8.56,0,0,1,2.7,6.42c.12,3.53-1.1,6.08-3.66,7.63a7.08,7.08,0,0,1,1,1.53l3.49,6.1a1.53,1.53,0,0,1,.23,1.27,1.17,1.17,0,0,1-1.11.55l-3.93.14c-1.71.06-2.82-.48-3.41-1.63l-2.5-4.9a2.94,2.94,0,0,0-2.79-1.76l-.84,0,.25,7.06a1.35,1.35,0,0,1-1.47,1.58l-4.11.15a1.36,1.36,0,0,1-1.62-1.47L277.1,5.38a1.36,1.36,0,0,1,1.51-1.58Zm-.57,6.39-3.93.14.17,4.8,3.93-.14a2.13,2.13,0,0,0,2.31-2.52A2.11,2.11,0,0,0,288.4,9.83Z"/><path class="cls-11" d="M28.57,20.17a9.7,9.7,0,0,1,2.65-7.56q2.85-2.83,8.2-3c5.49-.19,9.09,1.79,10.84,6a1.37,1.37,0,0,1-.91,2L45.5,19.1a1.6,1.6,0,0,1-1.24.08,1.55,1.55,0,0,1-.76-1A3.69,3.69,0,0,0,39.64,16c-2.66.09-4,1.41-3.87,3.92L36,26.5c.09,2.51,1.48,3.73,4.13,3.64a3.63,3.63,0,0,0,3.7-2.5,1.81,1.81,0,0,1,.69-1.08,1.66,1.66,0,0,1,1.24,0l3.94,1.24a1.37,1.37,0,0,1,1.05,1.93c-1.45,4.31-4.9,6.55-10.39,6.74Q35,36.69,32,34.07a9.7,9.7,0,0,1-3.17-7.35Z"/><path class="cls-12" d="M58.2,9.47a1.35,1.35,0,0,1,1.58,1.47l.63,17.93,8.76-.31A1.35,1.35,0,0,1,70.76,30l.12,3.31a1.35,1.35,0,0,1-1.47,1.58L55,35.44A1.36,1.36,0,0,1,53.39,34L52.58,11.2a1.36,1.36,0,0,1,1.51-1.58Z"/><path class="cls-13" d="M71.56,18.65a9.7,9.7,0,0,1,2.65-7.56q2.85-2.83,8.2-3c3.53-.12,6.32.69,8.35,2.44a9.7,9.7,0,0,1,3.17,7.35l.23,6.55A9.7,9.7,0,0,1,91.51,32c-1.9,1.89-4.63,2.89-8.16,3S77,34.3,75,32.55A9.7,9.7,0,0,1,71.8,25.2Zm15.15-.86c-.08-2.33-1.43-3.45-4.09-3.35s-4,1.31-3.88,3.63l.25,7.2c.08,2.33,1.47,3.44,4.12,3.35S87.05,27.31,87,25Z"/><path class="cls-14" d="M104.26,24.52c.08,2.22,1.36,3.3,3.86,3.21s3.74-1.26,3.66-3.48l-.54-15.13a1.35,1.35,0,0,1,1.47-1.58l4.11-.15a1.36,1.36,0,0,1,1.62,1.47l.52,14.8a9.67,9.67,0,0,1-2.54,7.41q-2.79,2.83-8.09,3c-3.53.12-6.25-.69-8.24-2.44A9.68,9.68,0,0,1,97,24.45l-.52-14.8A1.35,1.35,0,0,1,98,8.06l4.11-.15a1.36,1.36,0,0,1,1.62,1.47Z"/><path class="cls-15" d="M132.26,6.85c3.53-.12,6.32.69,8.35,2.44a9.71,9.71,0,0,1,3.17,7.35L144,22.1a9.62,9.62,0,0,1-2.65,7.52c-1.9,1.92-4.63,2.93-8.16,3.06L124.3,33a1.36,1.36,0,0,1-1.62-1.47l-.81-22.77a1.36,1.36,0,0,1,1.51-1.58ZM136.58,17c-.09-2.62-1.56-3.88-4.36-3.78l-3,.11.46,13.09,3-.11c2.8-.1,4.17-1.46,4.08-4.08Z"/><path class="cls-16" d="M160.54,7.56C162.42,6,165.08,5.15,168.46,5c5.09-.18,8.53,1.41,10.33,4.73.51.93.24,1.63-.8,2.07l-3.58,1.69a1.52,1.52,0,0,1-1.12.22,2,2,0,0,1-.87-.92c-.66-1.25-1.92-1.83-3.74-1.76-2.29.08-3.43.74-3.39,2,0,.69.52,1.22,1.47,1.51a13.92,13.92,0,0,0,3.37.54,17,17,0,0,1,6.5,1.66c2.19,1.27,3.36,3.45,3.47,6.47a7.14,7.14,0,0,1-3,6.26,13.82,13.82,0,0,1-8,2.43c-5.67.2-9.27-1.57-10.78-5.26a1.44,1.44,0,0,1,.91-2l3.37-1.36a1.58,1.58,0,0,1,2.17.72c.7,1.25,2.11,1.86,4.18,1.78,2.58-.09,3.87-.83,3.82-2.21,0-1.05-1.48-1.7-4.33-2A19.64,19.64,0,0,1,161.71,20c-2.41-1.23-3.65-3.4-3.76-6.49A7.21,7.21,0,0,1,160.54,7.56Z"/><path class="cls-17" d="M198.89,4.5A1.36,1.36,0,0,1,200.51,6l.12,3.27a1.37,1.37,0,0,1-1.51,1.62l-9.6.34.11,3.24,7.67-.27a1.36,1.36,0,0,1,1.62,1.47l.12,3.27a1.37,1.37,0,0,1-1.51,1.62l-7.67.27.12,3.49,9.93-.35a1.35,1.35,0,0,1,1.58,1.47l.12,3.31a1.35,1.35,0,0,1-1.47,1.58l-15.57.55a1.36,1.36,0,0,1-1.62-1.47l-.81-22.77A1.36,1.36,0,0,1,183.65,5Z"/><path class="cls-18" d="M215.41,3.91a9.27,9.27,0,0,1,6.66,2,8.56,8.56,0,0,1,2.7,6.42c.12,3.53-1.1,6.08-3.66,7.63a7.08,7.08,0,0,1,1,1.53l3.49,6.1a1.53,1.53,0,0,1,.23,1.27,1.17,1.17,0,0,1-1.11.55l-3.93.14c-1.71.06-2.82-.48-3.41-1.63l-2.5-4.9a2.94,2.94,0,0,0-2.79-1.76l-.84,0,.25,7.06A1.35,1.35,0,0,1,210.06,30L206,30.1a1.36,1.36,0,0,1-1.62-1.47l-.81-22.77A1.36,1.36,0,0,1,205,4.28Zm-.57,6.39-3.93.14.17,4.8,3.93-.14a2.13,2.13,0,0,0,2.31-2.52A2.11,2.11,0,0,0,214.83,10.3Z"/><path class="cls-19" d="M248.54,2.74c1,0,1.36.46,1,1.46l-7.22,23.34a1.81,1.81,0,0,1-1.85,1.34L236,29A1.77,1.77,0,0,1,234,27.91L225.14,5.06c-.4-1-.05-1.49,1-1.53l4.15-.15q2.35-.08,2.78,1.43L237,17.13a25.27,25.27,0,0,1,1,4.66h.33a22.68,22.68,0,0,1,.6-4.68l3-12.6q.33-1.54,2.56-1.62Z"/><path class="cls-20" d="M268.33,2a1.36,1.36,0,0,1,1.62,1.47l.12,3.27a1.37,1.37,0,0,1-1.51,1.62l-9.6.34.11,3.24,7.67-.27a1.36,1.36,0,0,1,1.62,1.47l.12,3.27A1.37,1.37,0,0,1,267,18.07l-7.67.27.12,3.49,9.93-.35A1.35,1.35,0,0,1,270.93,23l.12,3.31a1.35,1.35,0,0,1-1.47,1.58L254,28.4a1.36,1.36,0,0,1-1.62-1.47l-.81-22.77a1.36,1.36,0,0,1,1.51-1.58Z"/><path class="cls-21" d="M284.84,1.46a9.27,9.27,0,0,1,6.66,2,8.56,8.56,0,0,1,2.7,6.42c.12,3.53-1.1,6.08-3.66,7.63a7.08,7.08,0,0,1,1,1.53l3.49,6.1a1.53,1.53,0,0,1,.23,1.27,1.17,1.17,0,0,1-1.11.55l-3.93.14c-1.71.06-2.82-.48-3.41-1.63l-2.5-4.9a2.94,2.94,0,0,0-2.79-1.76l-.84,0,.25,7.06a1.35,1.35,0,0,1-1.47,1.58l-4.11.15a1.36,1.36,0,0,1-1.62-1.47L273,3.41a1.36,1.36,0,0,1,1.51-1.58Zm-.57,6.39L280.34,8l.17,4.8,3.93-.14a2.13,2.13,0,0,0,2.31-2.52A2.11,2.11,0,0,0,284.27,7.85Z"/></svg>