<svg xmlns="http://www.w3.org/2000/svg" xmlns:xlink="http://www.w3.org/1999/xlink" viewBox="0 0 1070 329"><defs><style>.cls-1{mix-blend-mode:multiply;fill:url(#radial-gradient);}.cls-2{fill:url(#radial-gradient-2);}.cls-3{isolation:isolate;}.cls-4{fill:url(#linear-gradient);}.cls-5{opacity:0.26;}.cls-10,.cls-11,.cls-12,.cls-14,.cls-16,.cls-6{mix-blend-mode:screen;}.cls-10,.cls-11,.cls-7{fill:#92d6e2;}.cls-8{opacity:0.4;}.cls-9{opacity:0.6;}.cls-11{opacity:0.5;}.cls-12{opacity:0.2;}.cls-13{mask:url(#mask);}.cls-14{fill:url(#radial-gradient-3);}.cls-15{mask:url(#mask-2);}.cls-16{fill:url(#radial-gradient-4);}.cls-17{opacity:0.15;}.cls-18{fill:url(#Áåçûìÿííûé_ãðàäèåíò_18);}.cls-19{fill:url(#Áåçûìÿííûé_ãðàäèåíò_25);}.cls-20{fill:#fff;}.cls-21{opacity:0.22;}.cls-22{fill:url(#Áåçûìÿííûé_ãðàäèåíò_18-2);}.cls-23{fill:url(#Áåçûìÿííûé_ãðàäèåíò_25-2);}.cls-24{opacity:0.36;}.cls-25{fill:url(#Áåçûìÿííûé_ãðàäèåíò_17);}.cls-26{fill:url(#Áåçûìÿííûé_ãðàäèåíò_2);}.cls-27{fill:url(#Áåçûìÿííûé_ãðàäèåíò_17-2);}.cls-28{fill:url(#Áåçûìÿííûé_ãðàäèåíò_2-2);}</style><radialGradient id="radial-gradient" cx="938.55" cy="426.6" r="9.02" gradientTransform="matrix(0.91, 0, 0, 1.38, 144.59, -499.09)" gradientUnits="userSpaceOnUse"><stop offset="0" stop-color="#fff"/><stop offset="0.14" stop-color="#e2e2e2"/><stop offset="0.43" stop-color="#999"/><stop offset="0.87" stop-color="#262626"/><stop offset="1"/></radialGradient><radialGradient id="radial-gradient-2" cx="923.04" cy="666.5" r="5.47" gradientTransform="matrix(1, 0, 0, 1.11, 72.43, -654.76)" gradientUnits="userSpaceOnUse"><stop offset="0" stop-color="#fff"/><stop offset="0.21" stop-color="#c4c4c4"/><stop offset="0.6" stop-color="#5c5c5c"/><stop offset="0.87" stop-color="#1a1a1a"/><stop offset="1"/></radialGradient><linearGradient id="linear-gradient" x1="182.94" y1="-3192.33" x2="218.85" y2="-3623.45" gradientTransform="matrix(1, 0, 0, -1, 331.61, -3273.38)" gradientUnits="userSpaceOnUse"><stop offset="0" stop-color="#489ed7"/><stop offset="0.15" stop-color="#5bb9e8"/><stop offset="1" stop-color="#fff"/></linearGradient><mask id="mask" x="982.98" y="79.39" width="24.74" height="16.46" maskUnits="userSpaceOnUse"><ellipse class="cls-1" cx="995.35" cy="87.63" rx="8.18" ry="12.4" transform="translate(807.18 1068.95) rotate(-84.18)"/></mask><radialGradient id="radial-gradient-3" cx="938.55" cy="426.6" r="9.02" gradientTransform="matrix(0.91, 0, 0, 1.38, 144.59, -499.09)" gradientUnits="userSpaceOnUse"><stop offset="0" stop-color="#eaebd0"/><stop offset="1"/></radialGradient><mask id="mask-2" x="989.72" y="81.95" width="11.54" height="11.49" maskUnits="userSpaceOnUse"><ellipse class="cls-2" cx="995.49" cy="87.69" rx="5.74" ry="5.78" transform="translate(478.22 942.75) rotate(-63.86)"/></mask><radialGradient id="radial-gradient-4" cx="923.04" cy="666.5" r="5.47" gradientTransform="matrix(1, 0, 0, 1.11, 72.43, -654.76)" gradientUnits="userSpaceOnUse"><stop offset="0" stop-color="#ffefa0"/><stop offset="0.13" stop-color="#e5d790"/><stop offset="0.4" stop-color="#a39967"/><stop offset="0.79" stop-color="#3b3725"/><stop offset="1"/></radialGradient><linearGradient id="Áåçûìÿííûé_ãðàäèåíò_18" x1="-618.41" y1="934.75" x2="-558.44" y2="934.75" gradientTransform="translate(1336.95 -310.54) rotate(38.35)" gradientUnits="userSpaceOnUse"><stop offset="0.4" stop-color="#f05c22"/><stop offset="0.41" stop-color="#f05b22"/><stop offset="0.54" stop-color="#e54324"/><stop offset="0.68" stop-color="#de3225"/><stop offset="0.82" stop-color="#d92726"/><stop offset="1" stop-color="#d82426"/></linearGradient><linearGradient id="Áåçûìÿííûé_ãðàäèåíò_25" x1="-614.88" y1="867.81" x2="-550.85" y2="964.38" gradientTransform="translate(1336.95 -310.54) rotate(38.35)" gradientUnits="userSpaceOnUse"><stop offset="0.4" stop-color="#f58a1f"/><stop offset="0.5" stop-color="#f37b20"/><stop offset="0.65" stop-color="#f16a21"/><stop offset="0.81" stop-color="#f05f22"/><stop offset="1" stop-color="#f05c22"/></linearGradient><linearGradient id="Áåçûìÿííûé_ãðàäèåíò_18-2" x1="-642.92" y1="1238.99" x2="-582.95" y2="1238.99" xlink:href="#Áåçûìÿííûé_ãðàäèåíò_18"/><linearGradient id="Áåçûìÿííûé_ãðàäèåíò_25-2" x1="-639.39" y1="1172.06" x2="-575.36" y2="1268.62" xlink:href="#Áåçûìÿííûé_ãðàäèåíò_25"/><linearGradient id="Áåçûìÿííûé_ãðàäèåíò_17" x1="-541.63" y1="-944.37" x2="-517.51" y2="-944.37" gradientTransform="translate(1095.78 478.7) rotate(-40.69)" gradientUnits="userSpaceOnUse"><stop offset="0" stop-color="#3999d5"/><stop offset="0.1" stop-color="#3590cf"/><stop offset="0.35" stop-color="#2d80c3"/><stop offset="0.64" stop-color="#2876bb"/><stop offset="1" stop-color="#2773b9"/></linearGradient><linearGradient id="Áåçûìÿííûé_ãðàäèåíò_2" x1="-547.29" y1="-963.83" x2="-528.68" y2="-935.76" gradientTransform="translate(1095.78 478.7) rotate(-40.69)" gradientUnits="userSpaceOnUse"><stop offset="0" stop-color="#5ebcea"/><stop offset="1" stop-color="#81d3f6"/></linearGradient><linearGradient id="Áåçûìÿííûé_ãðàäèåíò_17-2" x1="62.65" y1="-226.55" x2="118.6" y2="-226.55" xlink:href="#Áåçûìÿííûé_ãðàäèåíò_17"/><linearGradient id="Áåçûìÿííûé_ãðàäèåíò_2-2" x1="49.53" y1="-271.68" x2="92.7" y2="-206.57" xlink:href="#Áåçûìÿííûé_ãðàäèåíò_2"/></defs><title>banner-BG</title><g class="cls-3"><g id="Layer_1" data-name="Layer 1"><rect class="cls-4" width="1070" height="329" transform="translate(1070 329) rotate(-180)"/><g class="cls-5"><g class="cls-6"><path class="cls-7" d="M778.86,149.06l-2-1.14.35-.6,2,1.14Zm-3.08-1.78-2-1.14.35-.6,2,1.14Zm-3.08-1.78-2-1.14.35-.6,2,1.13Zm-3.08-1.78-2-1.13.35-.6,2,1.14ZM766.55,142l-2-1.13.35-.6,2,1.13Zm-3.08-1.78-2-1.14.35-.6,2,1.14Zm-3.08-1.78-2-1.14.35-.6,2,1.14Zm-3.08-1.78-2-1.14.35-.6,2,1.14Zm-3.08-1.78-2-1.14.35-.6,2,1.14Zm-3.08-1.78-2-1.14.35-.6,2,1.14Zm-3.08-1.78-2-1.14.35-.6,2,1.14ZM745,129.52l-2-1.14.35-.6,2,1.14Zm-3.08-1.78-2-1.14.35-.6,2,1.14ZM738.85,126l-2-1.13.35-.6,2,1.13Z"/><path class="cls-7" d="M785.31,204.81l-.35-.6,2-1.14.35.6Zm3.07-1.78-.35-.6,2-1.14.35.6Zm3.07-1.78-.35-.6,2-1.14.35.6Zm3.07-1.78-.35-.6,2-1.14.35.6Zm3.07-1.78-.35-.6,2-1.14.35.6Zm3.07-1.78-.35-.6,2-1.14.35.6Zm3.07-1.78-.35-.6,2-1.14.35.6Zm3.07-1.78-.35-.6,2-1.14.35.6Zm3.07-1.78-.35-.6,2-1.14.35.6Zm3.07-1.78-.35-.6,2-1.14.35.6Zm3.07-1.78-.35-.6,2-1.14.35.6Zm3.07-1.78-.35-.6,2-1.14.35.6Zm3.07-1.78-.35-.6,2-1.14.35.6Zm3.07-1.78-.35-.6,2-1.14.35.6Z"/><path class="cls-7" d="M670.81,149.15l-.26-.63,2.08-.87.26.63Zm3.26-1.36-.26-.63,2.08-.87.26.63Zm3.26-1.36-.26-.63,2.08-.87.26.63Zm3.26-1.36-.26-.63,2.08-.87.26.63Zm3.26-1.36-.26-.63,2.08-.87.26.63Zm3.26-1.36-.26-.63,2.08-.87.26.63Zm3.26-1.36-.26-.63,2.08-.87.26.63Zm3.26-1.36-.26-.63,2.08-.87.26.63Zm3.25-1.36-.26-.63,2.08-.87.26.63Zm3.26-1.36-.26-.63,2.08-.87.26.63Zm3.26-1.36-.26-.63,2.08-.87.26.63Zm3.26-1.36-.26-.63,2.08-.87.26.63Zm3.26-1.36-.26-.63,2.08-.87.26.63Zm3.26-1.36-.26-.63,2.08-.87.26.63Zm3.26-1.36-.26-.63,2.08-.87.26.63Zm3.26-1.36-.26-.63,2.08-.87.26.63Zm3.26-1.36-.26-.63,2.08-.87.26.63Zm3.26-1.36-.26-.63,2.08-.87.26.63Zm3.26-1.36-.26-.63,2.08-.87.26.63Zm98.2-2.29-2-1.19.36-.6,2,1.19Zm-91-1.2-.35-.61,2-1.14.35.61Zm87.86-.66-2-1.19.36-.6,2,1.19Zm-84.71-1.13-.35-.61,2-1.14.35.61Zm81.6-.73-2-1.19.36-.6,2,1.19Zm-78.45-1.06-.35-.61,2-1.14.35.61Zm75.35-.8-2-1.19.36-.6,2,1.19Zm-72.19-1-.35-.61,2-1.14.35.61Zm69.09-.87-2-1.19.36-.6,2,1.19ZM749.25,114l-.35-.61,2-1.14.35.61Zm62.83-.94-2-1.19.36-.6,2,1.19Zm-59.68-.85-.35-.61,2-1.14.35.61Zm56.57-1-2-1.19.36-.6,2,1.19Zm-53.42-.78-.35-.61,2-1.14.35.61Zm50.32-1.07-2-1.19.36-.6,2,1.19Zm-47.16-.71-.35-.61,2-1.14.35.61Zm44.06-1.14-2-1.19.36-.6,2,1.19Zm-40.91-.65-.35-.61,2-1.14.35.61Zm37.8-1.21-2-1.19.36-.6,2,1.19ZM765,105.09l-.35-.61,2-1.14.35.61Zm31.55-1.28-2-1.19.36-.6,2,1.19Zm-28.39-.51-.35-.61,2-1.14.35.61ZM793.46,102l-2-1.19.36-.6,2,1.19Zm-22.14-.44-.35-.61,2-1.14.35.61Zm19-1.42-2-1.19.36-.6,2,1.19Zm-15.88-.37-.35-.61,2-1.14.35.61Zm12.77-1.49-2-1.19.36-.6,2,1.19Zm-9.62-.3-.35-.61,2-1.14.35.61Z"/><path class="cls-7" d="M878,94.09v1.53h.57l.56.57.47-.47L878,94.09Zm2.48,2.51-.47.47,1.54,1.56.47-.47-1.54-1.56Zm-1.81.26H878V99h.67V96.85ZM882.92,99l-.47.47,1.54,1.56.47-.47L882.92,99Zm-4.22,1.25H878v2.19h.67v-2.19Zm6.63,1.2-.47.47,1.54,1.56.48-.47-1.54-1.56Zm-6.63,2.24H878v2.19h.67v-2.19Zm9,.21-.47.47,1.54,1.56.47-.47-1.54-1.56Zm2.41,2.44-.47.47,1.54,1.56.47-.47-1.54-1.56Zm-11.45.78H878v2.19h.67v-2.19Zm13.86,1.66-.48.47,1.54,1.56.47-.47-1.54-1.56Zm-13.86,1.77H878v2.19h.67v-2.19Zm16.27.67-.47.47,1.54,1.56.47-.47L895,111.25Zm2.41,2.44-.47.47,1.54,1.56.47-.47-1.54-1.56ZM878.7,114H878v2.19h.67V114Zm21.09,2.13-.48.47,1.54,1.56.48-.47-1.54-1.56Zm-21.09,1.3H878v2.19h.67v-2.19Zm23.5,1.14-.47.47,1.54,1.56.47-.47-1.54-1.56Zm-23.5,2.29H878v2.19h.67v-2.19Zm25.91.15-.48.47,1.54,1.56.48-.47L904.61,121Zm2.41,2.44-.47.47,1.54,1.56.47-.47L907,123.46Zm-28.32.84H878v2.19h.67V124.3Zm30.73,1.6-.47.47,1.54,1.56.48-.47-1.54-1.56Zm-30.73,1.83H878v2.19h.67v-2.19Zm33.14.61-.48.47,1.54,1.56.48-.47-1.54-1.56Zm2.41,2.44-.47.47,1.54,1.56.47-.47-1.54-1.56Zm-35.55.37H878v2.19h.67v-2.19Zm38,2.07-.47.47,1.54,1.56.48-.47-1.54-1.56Zm-38,1.36H878v2.19h.67V134.6Zm40.37,1.08-.48.47,1.54,1.56.48-.47-1.54-1.56ZM878.7,138H878v2.19h.67V138Zm42.78.09-.47.47,1.54,1.56.47-.47-1.54-1.56Zm2.41,2.44-.48.47,1.54,1.56.48-.47-1.54-1.56Zm-45.19.9H878v2.19h.67v-2.19ZM926.3,143l-.47.47,1.54,1.56.47-.47L926.3,143Zm-47.6,1.89H878v2.19h.67v-2.19Zm50,.56-.47.47,1.54,1.56.47-.47-1.54-1.56Zm2.41,2.44-.48.47.5.51.48-.47-.5-.51Z"/><path class="cls-7" d="M715.92,95.58h-2.27v-.69h2.27Zm-3.55,0H710.1v-.69h2.27Zm-3.55,0h-2.27v-.69h2.27Zm-3.55,0H703v-.69h2.27Zm-3.55,0h-2.27v-.69h2.27Zm-3.55,0h-2.27v-.69h2.27Zm-3.55,0h-2.27v-.69h2.27Zm-3.55,0h-2.27v-.69H691Zm-3.55,0h-2.27v-.69h2.27Z"/><path class="cls-7" d="M735.93,176.47l-.35-.62,2-1.14.35.62Zm3.21-1.79-.35-.62,2-1.14.35.62Zm3.21-1.79-.35-.62,2-1.14.35.62Zm3.21-1.79-.35-.62,2-1.14.35.62Zm3.21-1.79-.35-.62,2-1.14.35.62Zm3.21-1.79-.35-.62,2-1.14.35.62Zm3.21-1.79-.35-.62,2-1.14.35.62Zm3.21-1.79-.35-.62,2-1.14.35.62Zm3.21-1.79-.35-.62,2-1.14.35.62Zm3.21-1.79-.35-.62,2-1.14.35.62Zm3.21-1.79-.35-.62,2-1.14.35.62Zm3.21-1.79-.35-.62,2-1.14.35.62Zm3.21-1.79-.35-.62,2-1.14.35.62Zm3.21-1.79-.35-.62,2-1.14.35.62Z"/></g><g class="cls-6"><polygon class="cls-7" points="766.11 123.25 733.7 123.25 717.35 94.93 733.55 66.85 734.41 67.35 718.49 94.93 734.26 122.26 766.11 122.26 766.11 123.25"/><rect class="cls-7" x="758.08" y="219.65" width="32.13" height="0.99" transform="translate(196.79 780.88) rotate(-60.04)"/><path class="cls-7" d="M814.47,151.07h-32.7l-16.35-28.32,16.35-28.32h32.7l16.35,28.32Zm-32.13-1H813.9l15.78-27.33L813.9,95.42H782.34l-15.78,27.33Z"/><polygon class="cls-7" points="814.47 206.72 781.77 206.72 765.57 178.65 766.42 178.16 782.34 205.74 813.9 205.74 829.68 178.41 813.76 150.83 814.62 150.33 830.82 178.41 814.47 206.72"/><polygon class="cls-7" points="766.4 178.9 733.7 178.9 717.35 150.58 733.7 122.26 766.11 122.26 766.11 123.25 734.26 123.25 718.49 150.58 734.26 177.91 765.83 177.91 781.75 150.33 782.6 150.83 766.4 178.9"/><polygon class="cls-7" points="862.75 178.65 861.89 178.16 877.81 150.58 862.03 123.25 830.19 123.25 830.19 122.26 862.6 122.26 878.95 150.58 862.75 178.65"/><rect class="cls-7" x="854.29" y="108.35" width="32.13" height="0.99" transform="translate(340.95 808.19) rotate(-60)"/><rect class="cls-7" x="878.38" y="150.09" width="54.91" height="0.99"/><rect class="cls-7" x="668.65" y="150.09" width="49.27" height="0.99"/></g><g class="cls-6"><circle class="cls-7" cx="766.11" cy="178.41" r="1.6"/><circle class="cls-7" cx="733.98" cy="178.41" r="1.6"/><circle class="cls-7" cx="766.11" cy="234.06" r="1.6"/><circle class="cls-7" cx="782.18" cy="150.58" r="1.6"/><circle class="cls-7" cx="782.18" cy="206.23" r="1.6"/><circle class="cls-7" cx="814.45" cy="150.58" r="1.6"/><circle class="cls-7" cx="814.45" cy="94.93" r="1.6"/><circle class="cls-7" cx="782.06" cy="94.93" r="1.6"/><circle class="cls-7" cx="878.38" cy="150.58" r="1.6"/><circle class="cls-7" cx="933.29" cy="150.58" r="1.6"/><circle class="cls-7" cx="717.91" cy="150.58" r="1.6"/><circle class="cls-7" cx="668.65" cy="150.58" r="1.6"/><circle class="cls-7" cx="766.11" cy="122.75" r="1.6"/><circle class="cls-7" cx="733.98" cy="122.75" r="1.6"/><circle class="cls-7" cx="862.27" cy="122.75" r="1.6"/><circle class="cls-7" cx="878.38" cy="94.93" r="1.6"/><circle class="cls-7" cx="830.14" cy="122.75" r="1.6"/><circle class="cls-7" cx="814.45" cy="206.23" r="1.6"/><circle class="cls-7" cx="830.14" cy="178.41" r="1.6"/><circle class="cls-7" cx="862.27" cy="178.41" r="1.6"/><circle class="cls-7" cx="717.91" cy="94.93" r="1.6"/><circle class="cls-7" cx="733.98" cy="67.56" r="1.6"/></g><g class="cls-6"><path class="cls-7" d="M797.74,109.44a.31.31,0,0,0-.32,0,.31.31,0,0,0-.17.28v2.63a11,11,0,0,0-10.34,10.83,10.71,10.71,0,0,0,2.82,7.23.3.3,0,0,0,.22.1.29.29,0,0,0,.18-.06l2.55-2a.29.29,0,0,0,.11-.21.3.3,0,0,0-.09-.23,6.83,6.83,0,0,1-2-4.82,7,7,0,0,1,6.54-6.92v2.63a.3.3,0,0,0,.17.27.31.31,0,0,0,.32,0l3-2.36.06,0,1.15-.92,1.78-1.4a.31.31,0,0,0,.12-.24.29.29,0,0,0-.12-.24Z"/><path class="cls-7" d="M805.34,115.48l-2.72,2.16a.31.31,0,0,0-.12.23.29.29,0,0,0,.09.23,6.82,6.82,0,0,1,2.23,5.05,7,7,0,0,1-7,6.94v-2.72a.3.3,0,0,0-.17-.27.31.31,0,0,0-.32,0l-2.91,2.25a.29.29,0,0,0-.13.09v0l-2.73,2.1a.29.29,0,0,0-.11.23.3.3,0,0,0,.11.23l5.79,4.72a.32.32,0,0,0,.19.07.31.31,0,0,0,.13,0,.29.29,0,0,0,.17-.26V134A11,11,0,0,0,809,123.15a10.7,10.7,0,0,0-3.22-7.65A.33.33,0,0,0,805.34,115.48Z"/></g><g class="cls-6"><g class="cls-8"><path class="cls-7" d="M891.08,102l1.15,1.2a.51.51,0,0,0,.79-.06,17.68,17.68,0,0,0-15.29-27.5,18.24,18.24,0,0,0-2,.18A17.68,17.68,0,0,0,864.29,104a.51.51,0,0,0,.79,0l1.07-1.27a.51.51,0,0,0,0-.63,15.06,15.06,0,1,1,24.86-.82A.51.51,0,0,0,891.08,102Z"/></g><g class="cls-9"><path class="cls-7" d="M886.93,97.38l1.38,1.43a.58.58,0,0,0,.94-.16,11.84,11.84,0,0,0,1.1-5.41,12,12,0,0,0-24,.79,11.86,11.86,0,0,0,1.45,5.33.58.58,0,0,0,1,.1L870,97.93a.57.57,0,0,0,.08-.61,9,9,0,0,1-.79-3.4,9.06,9.06,0,1,1,17.54,2.85A.57.57,0,0,0,886.93,97.38Z"/></g><path class="cls-7" d="M888.78,108.6l-.16-4.94a1.85,1.85,0,0,0-1.08-1.76,1.67,1.67,0,0,0-1.25.1h-.11a1.44,1.44,0,0,0-1.22-1.08,2,2,0,0,0-1.54.36,1.63,1.63,0,0,0-1.77-.87,2,2,0,0,0-1.39.8L880.13,97c0-.83-.08-1.65-.08-2.48A1.76,1.76,0,0,0,878.3,93a1.86,1.86,0,0,0-1.35.63,2,2,0,0,0-.38,1.4v7.62c0,.17.07,4.06.07,4.06-.34-.32-.72-.7-1.06-1.05a5.52,5.52,0,0,0-3.16-1.44,1.55,1.55,0,0,0-1.12.24l-.23.21a1.6,1.6,0,0,0-.45,1.83,1.93,1.93,0,0,0,.68.56,4.66,4.66,0,0,1,1.43,1c.78.93,2.59,3,3.69,4.13.23.13.71.58.94.69a8.33,8.33,0,0,1,1.45,1,8.1,8.1,0,0,0,4.58,1.35c1.49,0,2.85,0,3.83-.92h.05l0-.07a5,5,0,0,0,1.53-3.72Z"/><path class="cls-7" d="M878.19,89.17a4.29,4.29,0,0,0-2.72,7.38V94.79a2.84,2.84,0,0,1,5.68,0v1.83a4.32,4.32,0,0,0-3-7.45Z"/></g><g class="cls-6"><path class="cls-7" d="M798.37,173.95a15.09,15.09,0,0,0-10.44,4.17,2.31,2.31,0,0,0-.08,3.27,2.31,2.31,0,0,0,3.27.08,10.53,10.53,0,0,1,14.48,0,2.32,2.32,0,0,0,3.27-.09,2.31,2.31,0,0,0-.09-3.27A15.1,15.1,0,0,0,798.37,173.95Z"/><path class="cls-7" d="M813.65,171.75a22.25,22.25,0,0,0-30.6,0,2.32,2.32,0,0,0-.08,3.27,2.33,2.33,0,0,0,1.68.72,2.3,2.3,0,0,0,1.59-.64,17.62,17.62,0,0,1,24.23,0,2.32,2.32,0,0,0,3.27-.09,2.32,2.32,0,0,0-.09-3.27Z"/><path class="cls-7" d="M798.74,182.35a4.51,4.51,0,1,0,4.51,4.52A4.52,4.52,0,0,0,798.74,182.35Zm0,4.52s-.06,0-.06,0a0,0,0,0,1,0,0A0,0,0,0,1,798.77,186.86Z"/></g><path class="cls-10" d="M763.94,84l-2.54-2.54a4.14,4.14,0,0,0-3.29-1.15,5.18,5.18,0,0,0-3.21,1.53L750,86.68a1.88,1.88,0,0,0-.27.35,4.38,4.38,0,0,0-1.62-.17,5.18,5.18,0,0,0-3.21,1.53l-7.79,7.79a5.2,5.2,0,0,0-1.53,3.15,4.09,4.09,0,0,0,1.15,3.35l2.54,2.54a4.06,4.06,0,0,0,2.9,1.17l.45,0a5.2,5.2,0,0,0,3.15-1.53l4.45-4.45a1.85,1.85,0,0,0,.48-.85,4.27,4.27,0,0,0,1.45.25,5.15,5.15,0,0,0,3.59-1.54l7.79-7.79a5.2,5.2,0,0,0,1.52-3.15A4.09,4.09,0,0,0,763.94,84Zm-14.56,9.47a.48.48,0,0,1-.07-.35,1.48,1.48,0,0,1,.45-.87,1.86,1.86,0,0,0,.26-.33l1.3,1.3a.48.48,0,0,1,.07.35,1.48,1.48,0,0,1-.45.87,1.83,1.83,0,0,0-.26.33ZM754,90.56l-1.27-1.27,4.85-4.85a1.5,1.5,0,0,1,.85-.45.46.46,0,0,1,.36.07l2.54,2.54a.48.48,0,0,1,.07.35,1.48,1.48,0,0,1-.45.87l-5.8,5.8A4,4,0,0,0,754,90.56Zm-6.35,7.19-4.45,4.45a1.48,1.48,0,0,1-.86.45.46.46,0,0,1-.35-.07L739.4,100a.48.48,0,0,1-.07-.35,1.48,1.48,0,0,1,.45-.87l5.8-5.8a4,4,0,0,0,1.16,3.06l1.33,1.33A1.86,1.86,0,0,0,747.61,97.75Z"/><g class="cls-6"><path class="cls-7" d="M926.3,199.07a.76.76,0,0,1-.7-.47,16.1,16.1,0,0,1-1.27-6.3.76.76,0,1,1,1.53,0A14.58,14.58,0,0,0,927,198a.76.76,0,0,1-.41,1A.77.77,0,0,1,926.3,199.07Z"/><path class="cls-7" d="M954.27,200.87a.76.76,0,0,1-.32-.07.77.77,0,0,1-.37-1,14.54,14.54,0,0,0,1.28-4.39.76.76,0,1,1,1.52.19,16.12,16.12,0,0,1-1.41,4.85A.76.76,0,0,1,954.27,200.87Z"/><path class="cls-7" d="M956,193.07a.76.76,0,0,1-.76-.76,14.65,14.65,0,0,0-9-13.51.76.76,0,1,1,.6-1.41,16.17,16.17,0,0,1,9.89,14.92A.76.76,0,0,1,956,193.07Z"/><path class="cls-7" d="M925.94,188a.76.76,0,0,1-.72-1,16.21,16.21,0,0,1,15.3-10.87.76.76,0,1,1,0,1.53,14.68,14.68,0,0,0-13.86,9.84A.77.77,0,0,1,925.94,188Z"/><path class="cls-7" d="M928.27,194.57a.76.76,0,0,1-.76-.67,13.3,13.3,0,0,1-.1-1.6A13.16,13.16,0,0,1,933.93,181a.76.76,0,0,1,.77,1.32,11.63,11.63,0,0,0-5.76,10,11.83,11.83,0,0,0,.09,1.41.76.76,0,0,1-.67.85Z"/><path class="cls-7" d="M948.11,183.33a.76.76,0,0,1-.47-.16,11.47,11.47,0,0,0-7.12-2.44,11.69,11.69,0,0,0-1.67.12.76.76,0,0,1-.22-1.51,13.28,13.28,0,0,1,1.89-.14,13,13,0,0,1,8.06,2.77.76.76,0,0,1-.47,1.37Z"/><path class="cls-7" d="M948.64,206.19a.76.76,0,0,1-.59-1.25c4-4.85,5.88-13.25,2.2-18.93a.76.76,0,1,1,1.28-.83,15.61,15.61,0,0,1,2,10.71,20.86,20.86,0,0,1-4.33,10A.76.76,0,0,1,948.64,206.19Z"/><path class="cls-7" d="M941.31,197.71a.76.76,0,0,1-.76-.74,19.22,19.22,0,0,0-.62-4.24.76.76,0,1,1,1.48-.4,20.78,20.78,0,0,1,.67,4.58.76.76,0,0,1-.73.79Z"/><path class="cls-7" d="M939.53,208.5a.78.78,0,0,1-.28-.06.76.76,0,0,1-.43-1,26.49,26.49,0,0,0,1.83-7.86.76.76,0,0,1,1.53.11,28.06,28.06,0,0,1-1.94,8.32A.77.77,0,0,1,939.53,208.5Z"/><path class="cls-7" d="M928.45,202.68a.77.77,0,0,1-.74-1,11.84,11.84,0,0,0,.34-4.67.76.76,0,1,1,1.52-.19,13.38,13.38,0,0,1-.39,5.28A.77.77,0,0,1,928.45,202.68Z"/><path class="cls-7" d="M949.87,193.07a.76.76,0,0,1-.76-.76,8.59,8.59,0,0,0-3.74-7.09.76.76,0,0,1,.86-1.26,10.12,10.12,0,0,1,4.4,8.35A.76.76,0,0,1,949.87,193.07Z"/><path class="cls-7" d="M931.17,193.07a.76.76,0,0,1-.76-.76,10.13,10.13,0,0,1,10.12-10.12,10,10,0,0,1,1,.05.76.76,0,1,1-.16,1.52c-.29,0-.59,0-.88,0a8.6,8.6,0,0,0-8.59,8.59A.76.76,0,0,1,931.17,193.07Z"/><path class="cls-7" d="M930.93,205.16a.75.75,0,0,1-.27,0,.76.76,0,0,1-.45-1,14.87,14.87,0,0,0,.53-8.64.76.76,0,1,1,1.49-.36,16.4,16.4,0,0,1-.58,9.53A.77.77,0,0,1,930.93,205.16Z"/><path class="cls-7" d="M942.55,208.55a.76.76,0,0,1-.43-1.39,16.33,16.33,0,0,0,7-11.43.76.76,0,1,1,1.52.2A17.84,17.84,0,0,1,943,208.41.76.76,0,0,1,942.55,208.55Z"/><path class="cls-7" d="M935,190.2a.77.77,0,0,1-.68-1.12,7,7,0,0,1,10.87-1.93.76.76,0,0,1-1,1.13,5.44,5.44,0,0,0-8.48,1.51A.77.77,0,0,1,935,190.2Z"/><path class="cls-7" d="M935.29,200.45a.77.77,0,0,1-.76-.76,24.45,24.45,0,0,0-.88-6.46.76.76,0,1,1,1.47-.41,26,26,0,0,1,.94,6.86.76.76,0,0,1-.76.77Z"/><path class="cls-7" d="M933.84,207a.77.77,0,0,1-.7-1.08,13.77,13.77,0,0,0,1-3.46.76.76,0,0,1,1.51.25,15.31,15.31,0,0,1-1.17,3.85A.76.76,0,0,1,933.84,207Z"/><path class="cls-7" d="M947.37,197h0a.76.76,0,0,1-.71-.81,13.27,13.27,0,0,0-.72-5.25.76.76,0,0,1,1.44-.51,14.81,14.81,0,0,1,.8,5.86A.77.77,0,0,1,947.37,197Z"/><path class="cls-7" d="M936.53,208a.75.75,0,0,1-.31-.07.76.76,0,0,1-.39-1,19.33,19.33,0,0,0,.91-2.49.76.76,0,1,1,1.47.42,20.92,20.92,0,0,1-1,2.69A.76.76,0,0,1,936.53,208Z"/><path class="cls-7" d="M938,203h-.12a.76.76,0,0,1-.64-.87,17.19,17.19,0,0,0,.16-3.64,17.37,17.37,0,0,0-.2-1.74.76.76,0,1,1,1.51-.25,18.77,18.77,0,0,1,0,5.86A.76.76,0,0,1,938,203Z"/><path class="cls-7" d="M944.69,198a.77.77,0,0,1-.76-.76c0-2.56-.71-7.41-3.41-7.41A2.48,2.48,0,0,0,938,192.3s0,.09,0,.14a.76.76,0,1,1-1.53.09c0-.07,0-.15,0-.22a4,4,0,0,1,4-4c3.64,0,4.94,4.82,4.94,8.94A.76.76,0,0,1,944.69,198Z"/><path class="cls-7" d="M943.24,204.88a.77.77,0,0,1-.31-.07.76.76,0,0,1-.39-1,16.08,16.08,0,0,0,1.2-4.08.76.76,0,1,1,1.51.23,17.55,17.55,0,0,1-1.31,4.47A.76.76,0,0,1,943.24,204.88Z"/></g><g class="cls-6"><path class="cls-7" d="M848.68,278.1a35.64,35.64,0,1,1,35.81-35.46A35.68,35.68,0,0,1,848.68,278.1Zm.33-67.43a31.8,31.8,0,1,0,31.64,32A31.83,31.83,0,0,0,849,210.67Z"/><path class="cls-7" d="M848.64,285.6a43.18,43.18,0,0,1-42.92-43.35l3.31,0a39.83,39.83,0,1,0,40-39.63l0-3.31a43.14,43.14,0,0,1-.42,86.27Z"/><path class="cls-7" d="M884.59,278.79l-2.33-2.35a47.58,47.58,0,0,0,.33-67.21l2.35-2.33A50.89,50.89,0,0,1,884.59,278.79Z"/><rect class="cls-7" x="907" y="229.39" width="0.33" height="17.91" transform="translate(664.41 1144.34) rotate(-89.72)"/><polygon class="cls-7" points="925.55 252.81 889.49 252.64 889.49 252.31 925.55 252.48 925.55 252.81"/><rect class="cls-7" x="904.64" y="234.65" width="0.33" height="61.19" transform="translate(635.14 1168.75) rotate(-89.72)"/><circle class="cls-7" cx="916.12" cy="238.55" r="1.96" transform="matrix(0, -1, 1, 0, 673.04, 1153.49)"/><circle class="cls-7" cx="925.55" cy="252.39" r="1.96" transform="matrix(0, -1, 1, 0, 668.56, 1176.68)"/><circle class="cls-7" cx="935.4" cy="265.4" r="1.96" transform="translate(665.38 1199.48) rotate(-89.72)"/><path class="cls-7" d="M863.31,234.58h-2.45v-3.14a11.84,11.84,0,0,0-23.67,0v3.14H835a2.34,2.34,0,0,0-2.33,2.33v22.78A2.34,2.34,0,0,0,835,262h28.34a2.34,2.34,0,0,0,2.33-2.33V236.91A2.34,2.34,0,0,0,863.31,234.58Zm-11.84,17.19a2.33,2.33,0,1,1-4.67,0v-6.93a2.33,2.33,0,1,1,4.67,0Zm4.72-17.19H841.86v-3.14a7.17,7.17,0,0,1,14.33,0Z"/></g><g class="cls-6"><path class="cls-7" d="M760.55,185.11l12,20.72-12,20.72H736.63l-12-20.72,12-20.72Zm.64-1.1H736l-12.6,21.82L736,227.64h25.2l12.6-21.82L761.19,184Z"/><path class="cls-10" d="M750.57,207.21h-.89c-.1,0-.14-.1-.15-.13a7.37,7.37,0,0,0-.35-.85.15.15,0,0,1,0-.16l.65-.65a1.29,1.29,0,0,0,0-1.82l-1.4-1.4a1.29,1.29,0,0,0-.91-.37h0a1.29,1.29,0,0,0-.91.37l-.66.65c-.05.05-.14,0-.16,0a7.48,7.48,0,0,0-.85-.35s-.12,0-.12-.14v-.91a1.29,1.29,0,0,0-1.28-1.28h-2a1.29,1.29,0,0,0-1.28,1.28v.91c0,.09-.09.13-.12.14a7.33,7.33,0,0,0-.85.35s-.11,0-.16,0l-.65-.65a1.29,1.29,0,0,0-.91-.37h0a1.29,1.29,0,0,0-.91.37l-1.4,1.4a1.29,1.29,0,0,0,0,1.82l.65.65a.15.15,0,0,1,0,.16,7.38,7.38,0,0,0-.36.85s-.05.13-.15.13h-.89a1.29,1.29,0,0,0-1.28,1.28v2a1.29,1.29,0,0,0,1.28,1.28h.88a.13.13,0,0,1,.13.08,7.23,7.23,0,0,0,.39.94.11.11,0,0,1,0,.13l-.63.63a1.29,1.29,0,0,0,0,1.82l1.4,1.4a1.29,1.29,0,0,0,.91.37h0a1.29,1.29,0,0,0,.91-.37l.62-.62a.11.11,0,0,1,.13,0,7.47,7.47,0,0,0,.94.39.15.15,0,0,1,.09.14v.85a1.29,1.29,0,0,0,1.28,1.28h2a1.29,1.29,0,0,0,1.28-1.28v-.85a.15.15,0,0,1,.09-.14,7.31,7.31,0,0,0,.94-.39.11.11,0,0,1,.13,0l.62.62a1.29,1.29,0,0,0,.91.37h0a1.29,1.29,0,0,0,.91-.37l1.4-1.4a1.29,1.29,0,0,0,0-1.82l-.63-.63a.11.11,0,0,1,0-.13,7.43,7.43,0,0,0,.39-.94.13.13,0,0,1,.13-.08h.88a1.29,1.29,0,0,0,1.28-1.28v-2A1.29,1.29,0,0,0,750.57,207.21Zm-4.42,2.27a3.6,3.6,0,1,1-3.6-3.6A3.6,3.6,0,0,1,746.15,209.49Zm15.94-9.64h-.61c-.07,0-.09-.07-.1-.09a5,5,0,0,0-.24-.58.1.1,0,0,1,0-.11l.44-.44a.88.88,0,0,0,0-1.25l-1-1a.89.89,0,0,0-.62-.25h0a.88.88,0,0,0-.62.25l-.45.45s-.09,0-.11,0a5,5,0,0,0-.58-.24s-.08,0-.08-.09v-.63a.88.88,0,0,0-.88-.88H755.9a.88.88,0,0,0-.88.88v.63c0,.06-.06.09-.08.09a5.1,5.1,0,0,0-.58.24s-.07,0-.11,0l-.45-.45a.88.88,0,0,0-.62-.25h0a.88.88,0,0,0-.62.25l-1,1a.88.88,0,0,0,0,1.25l.44.44a.1.1,0,0,1,0,.11,4.91,4.91,0,0,0-.24.58s0,.09-.1.09h-.61a.88.88,0,0,0-.88.88v1.36a.88.88,0,0,0,.88.88h.6a.09.09,0,0,1,.09.06,5,5,0,0,0,.27.65.08.08,0,0,1,0,.09l-.43.43a.88.88,0,0,0,0,1.25l1,1a.88.88,0,0,0,.62.25h0a.89.89,0,0,0,.62-.25l.43-.43a.08.08,0,0,1,.09,0,5.19,5.19,0,0,0,.65.27.1.1,0,0,1,.06.1v.59a.88.88,0,0,0,.88.88h1.36a.88.88,0,0,0,.88-.88v-.59a.1.1,0,0,1,.06-.1,5.09,5.09,0,0,0,.65-.27.08.08,0,0,1,.09,0l.43.43a.89.89,0,0,0,.62.25h0a.88.88,0,0,0,.62-.25l1-1a.88.88,0,0,0,0-1.25l-.43-.43a.08.08,0,0,1,0-.09,5.06,5.06,0,0,0,.27-.65.09.09,0,0,1,.09-.06h.6a.88.88,0,0,0,.88-.88v-1.36A.88.88,0,0,0,762.09,199.85Zm-3,1.56a2.47,2.47,0,1,1-2.47-2.47A2.47,2.47,0,0,1,759.05,201.41Z"/></g><path class="cls-11" d="M1083.55,175.44l-.59,1-12.32,21.35H1046l-9.67-16.74-2.44-4.22-.23-.4-.42-.72H1010a1.65,1.65,0,1,0,0,1h22.71L1045,198.1l-12.31,21.33H1008l-.07-.13v1.14h25.31l12.48-21.62h25.48l12.91-22.36Z"/><g class="cls-12"><path class="cls-7" d="M862.58,123.37H830l-16.3-28.23L830,66.92h32.6l16.3,28.23Zm-32-1H862l15.73-27.24L862,67.9H830.56L814.83,95.14Z"/></g><g class="cls-12"><path class="cls-7" d="M766.27,290.28h-32.6L717.38,262l16.3-28.23h32.6L782.57,262Zm-32-1H765.7L781.43,262,765.7,234.8H734.24L718.51,262Z"/></g><g class="cls-12"><path class="cls-7" d="M958.86,123.59H926.26L910,95.36l16.3-28.23h32.59l16.3,28.23Zm-32-1h31.46L974,95.36,958.29,68.12H926.83L911.1,95.36Z"/></g><g class="cls-12"><path class="cls-7" d="M958.86,297.8H926.26L910,269.57l16.3-28.23h32.59l16.3,28.23Zm-32-1h31.46L974,269.57l-15.73-27.24H926.83L911.1,269.57Z"/></g><g class="cls-12"><path class="cls-7" d="M1027.63,330.83H995l-16.3-28.23L995,274.37h32.59l16.3,28.23Zm-32-1h31.46l15.73-27.24-15.73-27.24H995.6L979.87,302.6Z"/></g><g class="cls-13"><ellipse class="cls-14" cx="995.35" cy="87.63" rx="8.18" ry="12.4" transform="translate(807.18 1068.95) rotate(-84.18)"/></g><g class="cls-15"><ellipse class="cls-16" cx="995.49" cy="87.69" rx="5.74" ry="5.78" transform="translate(478.22 942.75) rotate(-63.86)"/></g></g><g class="cls-17"><path class="cls-18" d="M335.79,54.78l-47-37.22L265.94,46.39h0a1.89,1.89,0,0,0-.2,2l11,27.73A7.25,7.25,0,0,0,282,80l28.44,4.18A2.77,2.77,0,0,0,313,83.6h0Z"/><path class="cls-19" d="M299.56,47.36l-11-27.73c-.71-1.79.5-3,2.7-2.66l28.45,4.18A7.25,7.25,0,0,1,325,25l11,27.73c.71,1.79-.5,3-2.7,2.66L304.84,51.2A7.25,7.25,0,0,1,299.56,47.36Z"/><path class="cls-20" d="M305.28,42.33l-6.05-15.26c-.39-1,.27-1.64,1.49-1.47l15.65,2.3A4,4,0,0,1,319.27,30l6.05,15.26c.39,1-.27,1.64-1.49,1.47l-15.65-2.3A4,4,0,0,1,305.28,42.33Z"/><path class="cls-20" d="M334,54.5l-28.44-4.18a7.25,7.25,0,0,1-5.28-3.84l-11-27.73a2.19,2.19,0,0,1-.11-1.49,1.77,1.77,0,0,0-.58,2.36l11,27.73a7.25,7.25,0,0,0,5.28,3.84l28.44,4.18c1.51.22,2.53-.27,2.81-1.18A3.17,3.17,0,0,1,334,54.5Z"/></g><g class="cls-21"><path class="cls-22" d="M127.78,278.16l-47-37.22L57.94,269.77h0a1.89,1.89,0,0,0-.2,2l11,27.73A7.25,7.25,0,0,0,74,303.4l28.44,4.18A2.77,2.77,0,0,0,105,307h0Z"/><path class="cls-23" d="M91.56,270.74,80.55,243c-.71-1.79.5-3,2.7-2.66l28.45,4.18a7.25,7.25,0,0,1,5.28,3.84l11,27.73c.71,1.79-.5,3-2.7,2.66l-28.44-4.18A7.25,7.25,0,0,1,91.56,270.74Z"/><path class="cls-20" d="M97.27,265.71l-6.05-15.26c-.39-1,.27-1.64,1.49-1.47l15.65,2.3a4,4,0,0,1,2.91,2.11l6.05,15.26c.39,1-.27,1.64-1.49,1.47l-15.65-2.3A4,4,0,0,1,97.27,265.71Z"/><path class="cls-20" d="M126,277.89l-28.44-4.18a7.25,7.25,0,0,1-5.28-3.84l-11-27.73a2.19,2.19,0,0,1-.11-1.49,1.77,1.77,0,0,0-.58,2.36l11,27.73a7.25,7.25,0,0,0,5.28,3.84l28.44,4.18c1.51.22,2.53-.27,2.81-1.18A3.17,3.17,0,0,1,126,277.89Z"/></g><g class="cls-24"><path class="cls-25" d="M72.38,102.79,59.16,114.16l7,8.1h0a.55.55,0,0,0,.57.17l8.52-1.61a2.11,2.11,0,0,0,1.39-1.3l2.76-7.89a.81.81,0,0,0,0-.74h0Z"/><path class="cls-26" d="M68.26,112.72l-8.52,1.61c-.55.1-.82-.31-.61-.92l2.76-7.89a2.11,2.11,0,0,1,1.39-1.3l8.52-1.61c.55-.1.82.31.61.92l-2.76,7.89A2.11,2.11,0,0,1,68.26,112.72Z"/><path class="cls-20" d="M72.2,103.29l-2.76,7.89a2.11,2.11,0,0,1-1.39,1.3l-8.52,1.61a.64.64,0,0,1-.43-.05.51.51,0,0,0,.64.3l8.52-1.61a2.11,2.11,0,0,0,1.39-1.3l2.76-7.89c.15-.42.06-.74-.18-.87A.92.92,0,0,1,72.2,103.29Z"/></g><g class="cls-24"><path class="cls-27" d="M1002.6,236l-30.66,26.37,16.16,18.8h0a1.27,1.27,0,0,0,1.33.4l19.77-3.73a4.89,4.89,0,0,0,3.22-3l6.41-18.3a1.87,1.87,0,0,0-.07-1.72h0Z"/><path class="cls-28" d="M993,259l-19.77,3.73c-1.28.24-1.91-.71-1.42-2.13l6.41-18.3a4.89,4.89,0,0,1,3.22-3l19.77-3.73c1.28-.24,1.91.71,1.42,2.13L996.27,256A4.89,4.89,0,0,1,993,259Z"/><path class="cls-20" d="M1002.19,237.15l-6.41,18.3a4.89,4.89,0,0,1-3.22,3l-19.77,3.73a1.48,1.48,0,0,1-1-.12,1.19,1.19,0,0,0,1.49.69L993,259a4.89,4.89,0,0,0,3.22-3l6.41-18.3c.34-1,.14-1.71-.42-2A2.14,2.14,0,0,1,1002.19,237.15Z"/></g></g></g></svg>