<svg id="Layer_1" data-name="Layer 1" xmlns="http://www.w3.org/2000/svg" xmlns:xlink="http://www.w3.org/1999/xlink" viewBox="0 0 330 223.33"><defs><style>.cls-1{fill:#1c30c4;}.cls-2{fill:#fff;}.cls-3{fill:url(#linear-gradient);}.cls-4{fill:#feda09;}.cls-5{fill:url(#linear-gradient-2);}.cls-6{fill:url(#linear-gradient-3);}.cls-7{fill:url(#linear-gradient-4);}.cls-8{fill:url(#linear-gradient-5);}.cls-9{fill:url(#linear-gradient-6);}.cls-10{fill:url(#linear-gradient-7);}.cls-11{fill:url(#linear-gradient-8);}.cls-12{fill:url(#linear-gradient-9);}.cls-13{fill:url(#linear-gradient-10);}.cls-14{fill:url(#linear-gradient-11);}.cls-15{fill:url(#linear-gradient-12);}.cls-16{fill:url(#linear-gradient-13);}.cls-17{fill:url(#linear-gradient-14);}.cls-18{fill:url(#linear-gradient-15);}.cls-19{fill:url(#linear-gradient-16);}.cls-20{fill:url(#linear-gradient-17);}.cls-21{fill:url(#linear-gradient-18);}.cls-22{fill:url(#linear-gradient-19);}.cls-23{fill:url(#linear-gradient-20);}.cls-24{fill:url(#linear-gradient-21);}.cls-25{fill:url(#linear-gradient-22);}.cls-26{fill:url(#linear-gradient-23);}.cls-27{fill:url(#linear-gradient-24);}.cls-28{fill:url(#linear-gradient-25);}.cls-29{fill:url(#linear-gradient-26);}.cls-30{fill:url(#linear-gradient-27);}</style><linearGradient id="linear-gradient" x1="52.52" y1="129.92" x2="145.34" y2="129.92" gradientTransform="matrix(0.97, -0.03, 0.01, 1.04, 6.36, -11.16)" gradientUnits="userSpaceOnUse"><stop offset="0" stop-color="#4a00de"/><stop offset="1" stop-color="#7f00ff"/></linearGradient><linearGradient id="linear-gradient-2" x1="244.7" y1="103.8" x2="280.33" y2="103.8" xlink:href="#linear-gradient"/><linearGradient id="linear-gradient-3" x1="255.69" y1="103.8" x2="269.34" y2="103.8" xlink:href="#linear-gradient"/><linearGradient id="linear-gradient-4" x1="143.3" y1="103.8" x2="303.42" y2="103.8" xlink:href="#linear-gradient"/><linearGradient id="linear-gradient-5" x1="15.78" y1="184.48" x2="32.25" y2="184.48" gradientUnits="userSpaceOnUse"><stop offset="0" stop-color="#1937e0"/><stop offset="1" stop-color="#903fe0"/></linearGradient><linearGradient id="linear-gradient-6" x1="29.95" y1="184.48" x2="38.39" y2="184.48" xlink:href="#linear-gradient-5"/><linearGradient id="linear-gradient-7" x1="36.01" y1="184.48" x2="51.86" y2="184.48" xlink:href="#linear-gradient-5"/><linearGradient id="linear-gradient-8" x1="49.51" y1="184.48" x2="64.28" y2="184.48" xlink:href="#linear-gradient-5"/><linearGradient id="linear-gradient-9" x1="61.52" y1="184.48" x2="76.29" y2="184.48" xlink:href="#linear-gradient-5"/><linearGradient id="linear-gradient-10" x1="72.18" y1="184.48" x2="90.35" y2="184.48" xlink:href="#linear-gradient-5"/><linearGradient id="linear-gradient-11" x1="92.36" y1="184.48" x2="108.43" y2="184.48" xlink:href="#linear-gradient-5"/><linearGradient id="linear-gradient-12" x1="105.84" y1="184.48" x2="122.12" y2="184.48" xlink:href="#linear-gradient-5"/><linearGradient id="linear-gradient-13" x1="119.95" y1="184.48" x2="136.75" y2="184.48" xlink:href="#linear-gradient-5"/><linearGradient id="linear-gradient-14" x1="133.86" y1="184.48" x2="150.34" y2="184.48" xlink:href="#linear-gradient-5"/><linearGradient id="linear-gradient-15" x1="146.47" y1="184.48" x2="164.51" y2="184.48" xlink:href="#linear-gradient-5"/><linearGradient id="linear-gradient-16" x1="161.69" y1="184.48" x2="170.13" y2="184.48" xlink:href="#linear-gradient-5"/><linearGradient id="linear-gradient-17" x1="168.29" y1="184.48" x2="185.09" y2="184.48" xlink:href="#linear-gradient-5"/><linearGradient id="linear-gradient-18" x1="183.24" y1="184.48" x2="198.31" y2="184.48" xlink:href="#linear-gradient-5"/><linearGradient id="linear-gradient-19" x1="196.08" y1="184.48" x2="212.63" y2="184.48" xlink:href="#linear-gradient-5"/><linearGradient id="linear-gradient-20" x1="215.53" y1="184.48" x2="232.08" y2="184.48" xlink:href="#linear-gradient-5"/><linearGradient id="linear-gradient-21" x1="229.58" y1="184.48" x2="244.65" y2="184.48" xlink:href="#linear-gradient-5"/><linearGradient id="linear-gradient-22" x1="242.12" y1="184.48" x2="258.18" y2="184.48" xlink:href="#linear-gradient-5"/><linearGradient id="linear-gradient-23" x1="256.04" y1="184.48" x2="264.48" y2="184.48" xlink:href="#linear-gradient-5"/><linearGradient id="linear-gradient-24" x1="262.1" y1="184.48" x2="278.16" y2="184.48" xlink:href="#linear-gradient-5"/><linearGradient id="linear-gradient-25" x1="274.69" y1="184.48" x2="291.16" y2="184.48" xlink:href="#linear-gradient-5"/><linearGradient id="linear-gradient-26" x1="288.3" y1="184.48" x2="304.85" y2="184.48" xlink:href="#linear-gradient-5"/><linearGradient id="linear-gradient-27" x1="301.1" y1="184.48" x2="319.27" y2="184.48" xlink:href="#linear-gradient-5"/></defs><title>title</title><rect class="cls-1" x="0.89" y="-0.33" width="328.52" height="33.55" rx="16.77" ry="16.77"/><path class="cls-2" d="M119.34,132c-2.13.06-5-.74-6.53-4.91a15.67,15.67,0,0,1-.58-2.07,18.7,18.7,0,0,1-.36-4.37,17.21,17.21,0,0,1,.9-6.37c1.17-3.28,3.52-5.21,6.45-5.29h.13c3,0,5.46,1.94,6.45,5.15a21.44,21.44,0,0,1,.11,12.29c-1,3.48-3.28,5.46-6.5,5.57Z"/><path class="cls-2" d="M115,120.58a13.7,13.7,0,0,1,.69-5.13c.71-2,1.92-3,3.57-3a3.62,3.62,0,0,1,3.46,2.87,17.87,17.87,0,0,1,.09,10.23c-.59,2.11-1.75,3-3.5,3.09s-2.85-.77-3.59-2.81a12.31,12.31,0,0,1-.44-1.6A15.09,15.09,0,0,1,115,120.58Z"/><path class="cls-2" d="M67.7,128.1c-.45,0-.9,0-1.35,0l-1.07,0-1.08,0A3.54,3.54,0,0,1,61,126.74a4.07,4.07,0,0,1-.56-3.43q.9-3.47,1.83-6.93l1.38-5.2,5.13.67L70,116.31c.54,2.09,1.08,4.17,1.64,6.25a4.51,4.51,0,0,1-.5,3.88A3.83,3.83,0,0,1,68,128.09Z"/><path class="cls-2" d="M66.3,115l-.33,0c-.82,3.08-1.64,6.15-2.44,9.24-.15.59.26.61.65.6,1.21,0,2.43-.11,3.64-.09.85,0,.94-.35.73-1.12C67.78,120.71,67,117.84,66.3,115Z"/><path class="cls-2" d="M53.88,141a4.34,4.34,0,0,1-3.45-1.21,5.16,5.16,0,0,1-1.24-3.6c-.11-25.38-.26-52-.45-79a5.29,5.29,0,0,1,1.19-3.63,4.4,4.4,0,0,1,3.27-1.38h.15c1.2,0,2.41,0,3.61-.08l3.84-.12c1.77-.05,3.86-.1,6-.08,6.15,0,10.63,2.17,13.68,6.48,2.82,4,3.89,8.94,3.25,15.14-.6,5.88-3,10.33-7.15,13.23A18.38,18.38,0,0,1,67,89.83c-.74.05-1.51.09-2.37.11H64.1c0,4.71.07,8.81.07,12.61l5.43-.17,6.25-.16q2.72-9.06,5.48-18.09l3.13-10.29q2.92-9.61,5.82-19.22a4.68,4.68,0,0,1,4.5-3.72H95c1.06,0,2.18,0,3.41,0s2.56-.09,3.84-.16h.12A4.12,4.12,0,0,1,106.61,54q3.74,12.14,7.49,24.28,3.5,11.34,7,22.68l2.39-.09,1.76,0c0-5.29-.07-10.61-.09-15.79l-.05-.12L117.84,69.5,111.94,57c-.59-1.24-1.36-2.88-.32-4.71s2.76-1.89,4-1.92l3.87-.1c1,0,1.91-.06,2.87-.12h.17A4.43,4.43,0,0,1,126.91,53c2,4.27,4,8.6,5.94,12.81l.64-1.53c1.55-3.71,3.16-7.55,4.69-11.34a4.8,4.8,0,0,1,4.48-3.36h.2c1.09,0,2.23,0,3.4,0s2.27-.08,3.47-.15H150a3.65,3.65,0,0,1,3.51,1.74,4.65,4.65,0,0,1,0,4.35q-2.55,5.69-5.08,11.39c-2.23,5-4.53,10.19-6.83,15.28a11.42,11.42,0,0,0-1.2,5.35c.15,4.31.14,8.67.12,12.89l3.76-.15,2.28-.08,2.33-.09.74,2.35.45,1.47a54.59,54.59,0,0,0,1.8,5.25c3.51,8.29,8.68,14.15,15.81,17.91a31.67,31.67,0,0,0,9.49,3.33,3.78,3.78,0,0,1,1.31.51l-.07,0-1.21,6.51-.54,0c-.43,0-.92.09-1.43.1l-25,.72q-48.17,1.39-96.33,2.8Zm65.35-28.1a3.89,3.89,0,0,0-3.87,2.81,12.77,12.77,0,0,0,.18,10.21,3.59,3.59,0,0,0,3.48,2.31h.35a3.94,3.94,0,0,0,3.6-2.31,10.71,10.71,0,0,0,1.12-5.46,11.12,11.12,0,0,0-.87-4.84c-.93-2-2.12-2.78-4-2.72l0-3.41ZM63.57,124.32l2.56-.05q1.3,0,2.59-.11h.08q-1.3-4.21-2.62-8.42C65.31,118.61,64.44,121.48,63.57,124.32ZM92.51,96.89c-.42,1.63-.86,3.27-1.3,4.91l7.3-.22,7-.19c-.46-1.61-.9-3.22-1.34-4.83l-1.84.06-3.9.11-4.06.12Zm5.83-22.28q-1.08,4-2.17,8.06l2.38-.07,1.85,0c-.48-1.82-.94-3.63-1.4-5.4ZM64,66c0,1,0,2,0,3q0,1,0,2.07v2c0,.94,0,1.9,0,2.86.39,0,.79,0,1.18-.08,2.42-.29,2.92-1.37,3.2-2.37a9.54,9.54,0,0,0,.1-4.77A2.89,2.89,0,0,0,65.69,66,10.15,10.15,0,0,0,64,66Z"/><path class="cls-2" d="M176.55,133.7a34.83,34.83,0,0,1-10.38-3.64c-8-4.22-13.6-10.86-17.26-19.52-1-2.28-1.63-4.67-2.37-7-2.71.11-5.42.18-8.13.35-.94.06-1.15-.26-1.14-1.22,0-5,.07-10-.11-15a15.16,15.16,0,0,1,1.53-7c4-8.86,7.92-17.78,11.91-26.66.49-1.09.3-1.3-.76-1.24-2.35.13-4.7.21-7,.2-.93,0-1.33.37-1.69,1.26-1.94,4.78-3.94,9.53-5.92,14.28-.69,1.66-1.4,3.32-2.19,5.17-.32-.67-.55-1.11-.76-1.57-2.73-5.86-5.47-11.71-8.17-17.59a1.4,1.4,0,0,0-1.57-1c-2.27.13-4.54.15-6.81.22-1.65,0-1.64,0-.89,1.63q6.58,14,13.16,27.91a3.69,3.69,0,0,1,.39,1.61c0,6,0,12.09.11,18.13,0,.86-.25,1.13-1,1.14-2.51,0-5,.08-7.53.22-.86,0-1.18-.28-1.43-1.11Q111,79.19,103.59,55.1c-.23-.75-.52-1-1.27-1-2.47.12-4.94.22-7.41.2-.95,0-1.33.37-1.61,1.3q-3.94,13.1-7.94,26.18-3.45,11.34-6.87,22.7c-.23.78-.55,1.1-1.35,1.12-5,.1-10,.26-15.07.42-.74,0-1.07-.11-1.07-1q0-8.74-.09-17.48c0-.76.22-1,.9-1,1.7,0,3.41,0,5.1-.15a15.41,15.41,0,0,0,8-2.59c3.61-2.53,5.23-6.28,5.68-10.68.47-4.58,0-9-2.63-12.73-2.79-3.93-6.83-5.13-11.23-5.17s-8.91.23-13.37.28c-1.08,0-1.41.28-1.4,1.51q.28,39.52.45,79c0,1.31.37,1.52,1.49,1.48q60.65-1.79,121.3-3.52c.6,0,1.21-.09,1.81-.14A1.75,1.75,0,0,0,176.55,133.7ZM61.72,62.59a36.94,36.94,0,0,1,4.49.07,6,6,0,0,1,5.4,5.09,13.17,13.17,0,0,1-.15,6.58c-.89,3.14-3.12,4.48-6,4.82-1.25.15-2.51.09-3.76.19-.71.06-.89-.23-.88-1,0-2.44,0-4.87,0-7.31s0-5-.06-7.43C60.74,62.85,61,62.57,61.72,62.59ZM92.18,85.24c2-7.42,4-14.85,6-22.27a7,7,0,0,1,.31-.67l2.82,10.89c1,3.83,2,7.66,3,11.47.26,1,.13,1.23-.86,1.24-3.48,0-7,.16-10.45.29C92.3,86.21,91.92,86.2,92.18,85.24Zm-5,19.18q1.39-5,2.67-9.94c.19-.72.49-1,1.18-1,2.43,0,4.86-.12,7.29-.19s4.78-.12,7.17-.22c.69,0,1.08.09,1.3.91.85,3.24,1.77,6.46,2.7,9.68.21.73.1,1-.67,1q-10.51.27-21,.6C87.1,105.33,87,105.15,87.18,104.42ZM74.6,132.64c-1,0-2,0-3,.09-.54,0-.67-.32-.79-.76-.32-1.2-.66-2.4-1-3.6a.89.89,0,0,0-1-.79c-1.82.1-3.64.14-5.46.16-.6,0-.87.28-1,.88-.28,1.18-.64,2.35-.9,3.53a1,1,0,0,1-1.09.92c-2.85.15-2.84.17-1.94-2.76,1.83-6,3.66-11.94,5.45-17.92.24-.81.57-1.09,1.35-1.11,2.9-.08,2.91-.12,3.84,2.84q2.7,8.64,5.36,17.3A2.09,2.09,0,0,1,74.6,132.64Zm11.72-1.93c-1.91,2-4.38,2.29-6.83,2-3.26-.44-3-.3-2.48-4a9.1,9.1,0,0,0,4.21,1,2.84,2.84,0,0,0,2.86-2.19,3,3,0,0,0-1.33-3.53c-1-.67-2.11-1.24-3.17-1.86a6.17,6.17,0,0,1-3.06-6.92,5.9,5.9,0,0,1,5.61-4.59,9.81,9.81,0,0,1,2.54.1c2.62.53,2.11,0,2.06,2.93,0,.71-.28.78-.84.54a6.67,6.67,0,0,0-3.45-.47,2.43,2.43,0,0,0-2.26,1.88,2.45,2.45,0,0,0,.94,2.84c1.21.83,2.52,1.51,3.77,2.27A6.67,6.67,0,0,1,86.32,130.71ZM110,112.29c-1.37,3.08-2.72,6.17-4.13,9.24a7.22,7.22,0,0,0-.72,3.39c.08,2,0,3.91.06,5.87,0,.7-.14,1-.86,1-2.77.17-2.93.2-2.75-2.78a18.9,18.9,0,0,0-2.39-10.86c-1.37-2.4-2.4-5-3.67-7.73,1.26,0,2.34-.05,3.42-.1.61,0,.7.5.89.9,1,2.15,2,4.31,3,6.46a1.91,1.91,0,0,0,.66,1c1-2.4,2-4.73,2.94-7.11a2,2,0,0,1,2.16-1.55C111,110.06,111,110,110,112.29Zm15.7,15.32a7.16,7.16,0,0,1-6.82,4,6.65,6.65,0,0,1-6.2-4.19,16.34,16.34,0,0,1-.24-13,7.15,7.15,0,0,1,6.77-5c3.21-.1,5.45,1.55,6.86,4.54a14.55,14.55,0,0,1,1.21,6.32A14.32,14.32,0,0,1,125.69,127.61ZM144.24,124c-.06,2.72-1,5.07-3.51,6.28a7,7,0,0,1-7.62-.52c-1.8-1.32-2.39-3.45-2.44-5.67-.12-4.6-.07-9.21-.12-13.81,0-.67.18-.88.82-.93,2.85-.2,2.85-.22,2.87,2.83l0,5.21h0c0,2.35,0,4.7.06,7,.1,2.7,1.34,3.82,3.72,3.51a2.65,2.65,0,0,0,2.35-2.15,9.55,9.55,0,0,0,.25-2.59c0-4.26,0-8.52-.09-12.77,0-1,.16-1.39,1.18-1.39,2.5,0,2.5-.08,2.51,2.58C144.26,115.79,144.34,119.91,144.24,124Z"/><polygon class="cls-3" points="147.49 134.1 57.9 136.68 57.73 107.23 147.33 104.65 147.49 134.1"/><path class="cls-2" d="M260.48,110.93c-11.23.32-20.43-9.22-20.5-21.28s9-22.13,20.25-22.45,20.43,9.22,20.5,21.28S271.71,110.61,260.48,110.93Zm-.16-27.78a5.89,5.89,0,0,0-5.48,6.07A5.57,5.57,0,0,0,260.38,95a5.89,5.89,0,0,0,5.48-6.07A5.57,5.57,0,0,0,260.32,83.15Z"/><path class="cls-2" d="M260.25,70.62c-9.5.27-17.15,8.76-17.09,18.95s7.8,18.23,17.3,18,17.15-8.76,17.09-18.95S269.74,70.34,260.25,70.62Zm.16,27.78c-4.8.14-8.71-3.93-8.74-9.08s3.84-9.44,8.64-9.58S269,83.67,269,88.82,265.2,98.26,260.4,98.4Z"/><path class="cls-2" d="M260.41,99.55c-5.38.15-9.79-4.42-9.82-10.2s4.32-10.6,9.7-10.76,9.79,4.42,9.82,10.2S265.79,99.39,260.41,99.55Z"/><path class="cls-2" d="M260.31,82a7,7,0,0,0-6.54,7.25,6.65,6.65,0,0,0,6.62,6.88,7,7,0,0,0,6.54-7.25A6.65,6.65,0,0,0,260.31,82Z"/><path class="cls-2" d="M186,137.89a54.1,54.1,0,0,1-9.41-.58,26.88,26.88,0,0,1-9.61-2.68,39.6,39.6,0,0,1-18.68-17.17A47.39,47.39,0,0,1,143.63,106l0-.15a6.58,6.58,0,0,1-.28-2.14c-2-9.78-1.48-18.81,1.63-26.86,6.9-17.83,19.33-27.78,37-29.56,1.23-.12,2.46-.2,3.67-.24a43.76,43.76,0,0,1,20.62,4.35c4.39,2.14,8.39,5.27,13,10.17a4.31,4.31,0,0,1-.15,6.17L217.89,69c-2.48,2.69-5,5.48-7.5,8.25a4,4,0,0,1-2.91,1.53,3.9,3.9,0,0,1-3-1.42,25.14,25.14,0,0,0-7.14-5.62,25.68,25.68,0,0,0-12.26-3,22.28,22.28,0,0,0-11.5,3.75A23.94,23.94,0,0,0,162.79,90.6a23.62,23.62,0,0,0,7.39,19.73c4.69,4.32,9.9,6.43,15.49,6.26a26.9,26.9,0,0,0,9.85-2.36,13.4,13.4,0,0,0,5.78-5l-5.56.15c-3.57.1-6.46.2-9.08.3h-.09a4.24,4.24,0,0,1-3.32-1.23,5.07,5.07,0,0,1-1.19-3.64c0-3.67,0-7.53-.06-11.5a5,5,0,0,1,1.13-3.51,4.29,4.29,0,0,1,3.21-1.38l14-.38q8.12-.23,16.25-.44a48.72,48.72,0,0,1,10.15-28.06,43.18,43.18,0,0,1,25.52-16.3,44.4,44.4,0,0,1,7.31-.83c15.74-.45,29.46,7.7,37.65,22.37,11.51,20.62,5.33,48.53-13.77,62.2A42.44,42.44,0,0,1,260,135.09h0A41.11,41.11,0,0,1,227.3,120a43.89,43.89,0,0,1-5-7.41,47.89,47.89,0,0,1-5,8.87c-6.43,9-15.06,14.37-25.66,15.93A48.12,48.12,0,0,1,186,137.89Zm74.19-70.74c-11.26.32-20.37,10.42-20.3,22.51s9.29,21.65,20.55,21.33,20.37-10.42,20.3-22.51S271.49,66.83,260.23,67.15Z"/><path class="cls-2" d="M294.52,66.57c-8.81-15.78-24.63-23.36-41.71-20-18.78,3.72-33.15,22.29-33,42.74,0,1.22-.21,1.61-1.43,1.63-10.65.25-21.31.59-32,.86-1,0-1.22.3-1.2,1.33q.12,5.8.07,11.61c0,1.14.21,1.53,1.37,1.48,6.28-.25,12.56-.4,18.84-.57.42,0,.83,0,1.36,0-2.27,5.2-5.26,9.57-10.16,11.69-10.38,4.49-20.11,3.34-28.58-4.46-12.91-11.89-11-33.81,3.92-43.39,8.74-5.63,17.8-5.41,26.75-.91a28.35,28.35,0,0,1,8,6.29c.49.54.76.62,1.32,0,2.85-3.21,5.76-6.36,8.67-9.52.42-.45.67-.77.12-1.36a41.87,41.87,0,0,0-12.06-9.5,41.37,41.37,0,0,0-22.7-3.82c-16.51,1.67-27.92,11-34.26,27.41-3.19,8.24-3.2,16.83-1.34,25.39a2.86,2.86,0,0,0,.15,1.53,44.21,44.21,0,0,0,4.37,10.6,36.36,36.36,0,0,0,17.22,15.82,23.93,23.93,0,0,0,8.69,2.44,48.32,48.32,0,0,0,14.28.12,34,34,0,0,0,23.51-14.59,43.51,43.51,0,0,0,7-15.55c.35.1.34.4.43.63a42.65,42.65,0,0,0,7.44,13.19c13.31,15.86,35.15,18.55,52.07,6.44C299.36,111.54,305.12,85.56,294.52,66.57Zm-34,47.83c-13,.38-23.67-10.66-23.75-24.65s10.42-25.63,23.46-26S283.87,74.4,284,88.39,273.53,114,260.5,114.4Z"/><path class="cls-4" d="M115,120.58a13.7,13.7,0,0,1,.69-5.13c.71-2,1.92-3,3.57-3a3.62,3.62,0,0,1,3.46,2.87,17.87,17.87,0,0,1,.09,10.23c-.59,2.11-1.75,3-3.5,3.09s-2.85-.77-3.59-2.81a12.31,12.31,0,0,1-.44-1.6A15.09,15.09,0,0,1,115,120.58Z"/><path class="cls-4" d="M66.3,115l-.33,0c-.82,3.08-1.64,6.15-2.44,9.24-.15.59.26.61.65.6,1.21,0,2.43-.11,3.64-.09.85,0,.94-.35.73-1.12C67.78,120.71,67,117.84,66.3,115Z"/><path class="cls-4" d="M176.55,133.7a34.83,34.83,0,0,1-10.38-3.64c-8-4.22-13.6-10.86-17.26-19.52-1-2.28-1.63-4.67-2.37-7-2.71.11-5.42.18-8.13.35-.94.06-1.15-.26-1.14-1.22,0-5,.07-10-.11-15a15.16,15.16,0,0,1,1.53-7c4-8.86,7.92-17.78,11.91-26.66.49-1.09.3-1.3-.76-1.24-2.35.13-4.7.21-7,.2-.93,0-1.33.37-1.69,1.26-1.94,4.78-3.94,9.53-5.92,14.28-.69,1.66-1.4,3.32-2.19,5.17-.32-.67-.55-1.11-.76-1.57-2.73-5.86-5.47-11.71-8.17-17.59a1.4,1.4,0,0,0-1.57-1c-2.27.13-4.54.15-6.81.22-1.65,0-1.64,0-.89,1.63q6.58,14,13.16,27.91a3.69,3.69,0,0,1,.39,1.61c0,6,0,12.09.11,18.13,0,.86-.25,1.13-1,1.14-2.51,0-5,.08-7.53.22-.86,0-1.18-.28-1.43-1.11Q111,79.19,103.59,55.1c-.23-.75-.52-1-1.27-1-2.47.12-4.94.22-7.41.2-.95,0-1.33.37-1.61,1.3q-3.94,13.1-7.94,26.18-3.45,11.34-6.87,22.7c-.23.78-.55,1.1-1.35,1.12-5,.1-10,.26-15.07.42-.74,0-1.07-.11-1.07-1q0-8.74-.09-17.48c0-.76.22-1,.9-1,1.7,0,3.41,0,5.1-.15a15.41,15.41,0,0,0,8-2.59c3.61-2.53,5.23-6.28,5.68-10.68.47-4.58,0-9-2.63-12.73-2.79-3.93-6.83-5.13-11.23-5.17s-8.91.23-13.37.28c-1.08,0-1.41.28-1.4,1.51q.28,39.52.45,79c0,1.31.37,1.52,1.49,1.48q60.65-1.79,121.3-3.52c.6,0,1.21-.09,1.81-.14A1.75,1.75,0,0,0,176.55,133.7ZM61.72,62.59a36.94,36.94,0,0,1,4.49.07,6,6,0,0,1,5.4,5.09,13.17,13.17,0,0,1-.15,6.58c-.89,3.14-3.12,4.48-6,4.82-1.25.15-2.51.09-3.76.19-.71.06-.89-.23-.88-1,0-2.44,0-4.87,0-7.31s0-5-.06-7.43C60.74,62.85,61,62.57,61.72,62.59ZM92.18,85.24c2-7.42,4-14.85,6-22.27a7,7,0,0,1,.31-.67l2.82,10.89c1,3.83,2,7.66,3,11.47.26,1,.13,1.23-.86,1.24-3.48,0-7,.16-10.45.29C92.3,86.21,91.92,86.2,92.18,85.24Zm-5,19.18q1.39-5,2.67-9.94c.19-.72.49-1,1.18-1,2.43,0,4.86-.12,7.29-.19s4.78-.12,7.17-.22c.69,0,1.08.09,1.3.91.85,3.24,1.77,6.46,2.7,9.68.21.73.1,1-.67,1q-10.51.27-21,.6C87.1,105.33,87,105.15,87.18,104.42ZM74.6,132.64c-1,0-2,0-3,.09-.54,0-.67-.32-.79-.76-.32-1.2-.66-2.4-1-3.6a.89.89,0,0,0-1-.79c-1.82.1-3.64.14-5.46.16-.6,0-.87.28-1,.88-.28,1.18-.64,2.35-.9,3.53a1,1,0,0,1-1.09.92c-2.85.15-2.84.17-1.94-2.76,1.83-6,3.66-11.94,5.45-17.92.24-.81.57-1.09,1.35-1.11,2.9-.08,2.91-.12,3.84,2.84q2.7,8.64,5.36,17.3A2.09,2.09,0,0,1,74.6,132.64Zm11.72-1.93c-1.91,2-4.38,2.29-6.83,2-3.26-.44-3-.3-2.48-4a9.1,9.1,0,0,0,4.21,1,2.84,2.84,0,0,0,2.86-2.19,3,3,0,0,0-1.33-3.53c-1-.67-2.11-1.24-3.17-1.86a6.17,6.17,0,0,1-3.06-6.92,5.9,5.9,0,0,1,5.61-4.59,9.81,9.81,0,0,1,2.54.1c2.62.53,2.11,0,2.06,2.93,0,.71-.28.78-.84.54a6.67,6.67,0,0,0-3.45-.47,2.43,2.43,0,0,0-2.26,1.88,2.45,2.45,0,0,0,.94,2.84c1.21.83,2.52,1.51,3.77,2.27A6.67,6.67,0,0,1,86.32,130.71ZM110,112.29c-1.37,3.08-2.72,6.17-4.13,9.24a7.22,7.22,0,0,0-.72,3.39c.08,2,0,3.91.06,5.87,0,.7-.14,1-.86,1-2.77.17-2.93.2-2.75-2.78a18.9,18.9,0,0,0-2.39-10.86c-1.37-2.4-2.4-5-3.67-7.73,1.26,0,2.34-.05,3.42-.1.61,0,.7.5.89.9,1,2.15,2,4.31,3,6.46a1.91,1.91,0,0,0,.66,1c1-2.4,2-4.73,2.94-7.11a2,2,0,0,1,2.16-1.55C111,110.06,111,110,110,112.29Zm15.7,15.32a7.16,7.16,0,0,1-6.82,4,6.65,6.65,0,0,1-6.2-4.19,16.34,16.34,0,0,1-.24-13,7.15,7.15,0,0,1,6.77-5c3.21-.1,5.45,1.55,6.86,4.54a14.55,14.55,0,0,1,1.21,6.32A14.32,14.32,0,0,1,125.69,127.61ZM144.24,124c-.06,2.72-1,5.07-3.51,6.28a7,7,0,0,1-7.62-.52c-1.8-1.32-2.39-3.45-2.44-5.67-.12-4.6-.07-9.21-.12-13.81,0-.67.18-.88.82-.93,2.85-.2,2.85-.22,2.87,2.83l0,5.21h0c0,2.35,0,4.7.06,7,.1,2.7,1.34,3.82,3.72,3.51a2.65,2.65,0,0,0,2.35-2.15,9.55,9.55,0,0,0,.25-2.59c0-4.26,0-8.52-.09-12.77,0-1,.16-1.39,1.18-1.39,2.5,0,2.5-.08,2.51,2.58C144.26,115.79,144.34,119.91,144.24,124Z"/><path class="cls-5" d="M260.25,70.62c-9.5.27-17.15,8.76-17.09,18.95s7.8,18.23,17.3,18,17.15-8.76,17.09-18.95S269.74,70.34,260.25,70.62Zm.16,27.78c-4.8.14-8.71-3.93-8.74-9.08s3.84-9.44,8.64-9.58S269,83.67,269,88.82,265.2,98.26,260.4,98.4Z"/><path class="cls-6" d="M260.31,82a7,7,0,0,0-6.54,7.25,6.65,6.65,0,0,0,6.62,6.88,7,7,0,0,0,6.54-7.25A6.65,6.65,0,0,0,260.31,82Z"/><path class="cls-7" d="M294.52,66.57c-8.81-15.78-24.63-23.36-41.71-20-18.78,3.72-33.15,22.29-33,42.74,0,1.22-.21,1.61-1.43,1.63-10.65.25-21.31.59-32,.86-1,0-1.22.3-1.2,1.33q.12,5.8.07,11.61c0,1.14.21,1.53,1.37,1.48,6.28-.25,12.56-.4,18.84-.57.42,0,.83,0,1.36,0-2.27,5.2-5.26,9.57-10.16,11.69-10.38,4.49-20.11,3.34-28.58-4.46-12.91-11.89-11-33.81,3.92-43.39,8.74-5.63,17.8-5.41,26.75-.91a28.35,28.35,0,0,1,8,6.29c.49.54.76.62,1.32,0,2.85-3.21,5.76-6.36,8.67-9.52.42-.45.67-.77.12-1.36a41.87,41.87,0,0,0-12.06-9.5,41.37,41.37,0,0,0-22.7-3.82c-16.51,1.67-27.92,11-34.26,27.41-3.19,8.24-3.2,16.83-1.34,25.39a2.86,2.86,0,0,0,.15,1.53,44.21,44.21,0,0,0,4.37,10.6,36.36,36.36,0,0,0,17.22,15.82,23.93,23.93,0,0,0,8.69,2.44,48.32,48.32,0,0,0,14.28.12,34,34,0,0,0,23.51-14.59,43.51,43.51,0,0,0,7-15.55c.35.1.34.4.43.63a42.65,42.65,0,0,0,7.44,13.19c13.31,15.86,35.15,18.55,52.07,6.44C299.36,111.54,305.12,85.56,294.52,66.57Zm-34,47.83c-13,.38-23.67-10.66-23.75-24.65s10.42-25.63,23.46-26S283.87,74.4,284,88.39,273.53,114,260.5,114.4Z"/><path class="cls-1" d="M140.24,147.35l-3.54,13.11h-3.87l-3.2-13.11h3.57l1.63,8.54,1.57-8.54Z"/><path class="cls-1" d="M148.5,152.2a4.17,4.17,0,0,1,.47.77,5.83,5.83,0,0,1,.54,2.56,5.38,5.38,0,0,1-1.09,3.47,4.21,4.21,0,0,1-3.44,1.59,4.15,4.15,0,0,1-3.37-1.6,5.36,5.36,0,0,1-1.07-3.45,5.76,5.76,0,0,1,.54-2.56,4.31,4.31,0,0,1,1.65-1.85,4.22,4.22,0,0,1,2.25-.64,4.31,4.31,0,0,1,1.86.41V151a1.23,1.23,0,0,0,.37.89,1.24,1.24,0,0,0,.92.38A1.35,1.35,0,0,0,148.5,152.2Zm-1.86,3.36a3.22,3.22,0,0,0-.49-1.87A1.37,1.37,0,0,0,145,153a1.32,1.32,0,0,0-1.13.69,3.44,3.44,0,0,0-.46,1.84,3.2,3.2,0,0,0,.45,1.79A1.34,1.34,0,0,0,145,158a1.43,1.43,0,0,0,1.19-.68A3,3,0,0,0,146.65,155.57Zm.07-8.22-1.33,2.52H144l.69-2.52ZM149,151a.86.86,0,0,1-.27.63.92.92,0,0,1-1.29,0,.86.86,0,0,1-.27-.63.89.89,0,0,1,.27-.65.91.91,0,0,1,1.29,0A.89.89,0,0,1,149,151Z"/><path class="cls-1" d="M153.29,148.58a1.84,1.84,0,0,1-.42,1.24,1.42,1.42,0,0,1-1.14.49,1.45,1.45,0,0,1-1.16-.49,1.84,1.84,0,0,1-.42-1.24,1.81,1.81,0,0,1,.42-1.22,1.5,1.5,0,0,1,1.16-.5,1.41,1.41,0,0,1,1.14.5A1.84,1.84,0,0,1,153.29,148.58Zm-.13,11.88h-2.87v-9.89h2.87Z"/><path class="cls-1" d="M167.46,160.46h-2.82l0-.54a2.19,2.19,0,0,1-1.65.59,3.45,3.45,0,0,1-2.69-1.39,5.44,5.44,0,0,1-1.24-3.58,5.63,5.63,0,0,1,1.07-3.61,3.33,3.33,0,0,1,2.73-1.4l.38,0a3.14,3.14,0,0,1,1.39.48v-3.67h2.85Zm-2.85-4.16v-1.59q-.24-1.46-1.31-1.46-1.37,0-1.36,2.28t1.36,2.28Q164.37,157.79,164.61,156.3Z"/><path class="cls-1" d="M171.31,148.58a1.84,1.84,0,0,1-.42,1.24,1.42,1.42,0,0,1-1.14.49,1.45,1.45,0,0,1-1.16-.49,1.84,1.84,0,0,1-.42-1.24,1.81,1.81,0,0,1,.42-1.22,1.5,1.5,0,0,1,1.16-.5,1.41,1.41,0,0,1,1.14.5A1.84,1.84,0,0,1,171.31,148.58Zm-.13,11.88h-2.87v-9.89h2.87Zm-.17,2.4a1.11,1.11,0,0,1-.34.81,1.18,1.18,0,0,1-1.66,0,1.11,1.11,0,0,1-.34-.81,1.17,1.17,0,1,1,2.35,0Z"/><path class="cls-1" d="M178.48,160.11A4.6,4.6,0,0,1,173,159a5.42,5.42,0,0,1-1-3.44,5.93,5.93,0,0,1,.56-2.65,4.13,4.13,0,0,1,1.69-1.86,4.36,4.36,0,0,1,2.3-.64,4.17,4.17,0,0,1,1.86.43v2.53a2.91,2.91,0,0,0-1.49-.43,1.86,1.86,0,0,0-1.42.6,3,3,0,0,0-.62,2,2.7,2.7,0,0,0,.67,2,2,2,0,0,0,1.49.58,2.25,2.25,0,0,0,1.45-.48Z"/><path class="cls-1" d="M186.86,160.46H184V154a1,1,0,0,0-.33-.82,1,1,0,0,0-.74-.28q-.85,0-1,1.06v6.47H179V147.35h2.86V151a1.46,1.46,0,0,1,.74-.43,4,4,0,0,1,1.31-.21,2.89,2.89,0,0,1,2,.69,3.44,3.44,0,0,1,.93,2.65Z"/><path class="cls-1" d="M201.16,150.57l-2.41,9.89H195l-2.41-9.89h3.05l1.22,6.43,1.24-6.43Z"/><path class="cls-1" d="M209.49,160.46h-2.86v-.62a1.32,1.32,0,0,1-.75.49,3.63,3.63,0,0,1-1.27.18,2.89,2.89,0,0,1-2-.8,3.13,3.13,0,0,1-1-2.4v-6.74h2.88v6.35a1.18,1.18,0,0,0,.32.86,1,1,0,0,0,.74.33q.88,0,1.06-1.17v-6.37h2.87Zm-2.37,2.4a1.11,1.11,0,0,1-.34.81,1.18,1.18,0,0,1-1.66,0,1.11,1.11,0,0,1-.34-.81,1.17,1.17,0,1,1,2.35,0Z"/><path class="cls-4" d="M23.88,172.24q5.7,0,5.7,5.63v.87q0,3.77-2.49,4.93Q30,184.8,30,188.91v2q0,5.8-5.84,5.8h-6V172.24Zm-2,3.5v6.47h1.5q2.32,0,2.32-2.58v-1.36q0-2.52-2-2.52Zm0,10v7.51h2.2q2,0,2-2.41v-2.13q0-3-2.47-3Z"/><path class="cls-8" d="M23.88,172.24q5.7,0,5.7,5.63v.87q0,3.77-2.49,4.93Q30,184.8,30,188.91v2q0,5.8-5.84,5.8h-6V172.24h5.8m-2,10h1.5q2.32,0,2.32-2.58v-1.36q0-2.52-2-2.52H21.91v6.47m0,11h2.2q2,0,2-2.41v-2.13q0-3-2.47-3H21.91v7.51m2-23.27h-5.8a2.3,2.3,0,0,0-2.3,2.3v24.47a2.3,2.3,0,0,0,2.3,2.3h6c5.17,0,8.14-3,8.14-8.1v-2a8.4,8.4,0,0,0-1.6-5.39,8.58,8.58,0,0,0,1.22-4.78v-.87c0-5-2.92-7.93-8-7.93Z"/><path class="cls-4" d="M32.25,172.24h3.84v24.47H32.25Z"/><path class="cls-9" d="M36.09,172.24v24.47H32.25V172.24h3.84m0-2.3H32.25a2.3,2.3,0,0,0-2.3,2.3v24.47a2.3,2.3,0,0,0,2.3,2.3h3.84a2.3,2.3,0,0,0,2.3-2.3V172.24a2.3,2.3,0,0,0-2.3-2.3Z"/><path class="cls-4" d="M49.55,172.24v3.43l-7.3,17.54h7.3v3.5H38.31v-3.43l7.3-17.54h-7v-3.5Z"/><path class="cls-10" d="M49.55,172.24v3.43l-7.3,17.54h7.3v3.5H38.31v-3.43l7.3-17.54h-7v-3.5h10.9m0-2.3H38.65a2.3,2.3,0,0,0-2.3,2.3v3.5a2.3,2.3,0,0,0,2.3,2.3h3.51l-6,14.35a2.3,2.3,0,0,0-.18.88v3.43a2.3,2.3,0,0,0,2.3,2.3H49.55a2.3,2.3,0,0,0,2.3-2.3v-3.5a2.3,2.3,0,0,0-2.3-2.3H45.7l6-14.35a2.3,2.3,0,0,0,.18-.88v-3.43a2.3,2.3,0,0,0-2.3-2.3Z"/><path class="cls-4" d="M55.65,183.11h5v3.5h-5v10.1H51.81V172.24H62v3.5H55.65Z"/><path class="cls-11" d="M62,172.24v3.5H55.65v7.37h5v3.5h-5v10.1H51.81V172.24H62m0-2.3H51.81a2.3,2.3,0,0,0-2.3,2.3v24.47a2.3,2.3,0,0,0,2.3,2.3h3.84a2.3,2.3,0,0,0,2.3-2.3v-7.8h2.66a2.3,2.3,0,0,0,2.3-2.3v-3.5a2.3,2.3,0,0,0-2.3-2.3H57.95V178h4a2.3,2.3,0,0,0,2.3-2.3v-3.5a2.3,2.3,0,0,0-2.3-2.3Z"/><path class="cls-4" d="M63.82,172.24h3.84v21H74v3.5H63.82Z"/><path class="cls-12" d="M67.66,172.24v21H74v3.5H63.82V172.24h3.84m0-2.3H63.82a2.3,2.3,0,0,0-2.3,2.3v24.47a2.3,2.3,0,0,0,2.3,2.3H74a2.3,2.3,0,0,0,2.3-2.3v-3.5a2.3,2.3,0,0,0-2.3-2.3H70V172.24a2.3,2.3,0,0,0-2.3-2.3Z"/><path class="cls-4" d="M79.34,188.61l-4.86-16.36h4l2.93,11.16,2.93-11.16H88l-4.86,16.36v8.1H79.34Z"/><path class="cls-13" d="M88,172.24h0m0,0-4.86,16.36v8.1H79.34v-8.1l-4.86-16.36h4l2.93,11.16,2.93-11.16H88m0-2.3H84.38a2.3,2.3,0,0,0-2.22,1.72l-.71,2.7-.71-2.7a2.3,2.3,0,0,0-2.22-1.72h-4a2.3,2.3,0,0,0-2.21,3l4.77,16v7.77a2.3,2.3,0,0,0,2.3,2.3h3.84a2.3,2.3,0,0,0,2.3-2.3v-7.77L90.22,173a2.3,2.3,0,0,0-2.17-3.06Zm0,4.6h0Z"/><path class="cls-4" d="M106.13,187.58v3.26q0,6.14-5.73,6.14t-5.73-6.14V178.11q0-6.14,5.73-6.14t5.73,6.14v2.39H102.5v-2.63q0-2.4-2-2.4t-2,2.4v13.21q0,2.39,2,2.39t2-2.39v-3.5Z"/><path class="cls-14" d="M100.4,172q5.73,0,5.73,6.14v2.39H102.5v-2.63q0-2.4-2-2.4t-2,2.4v13.21q0,2.39,2,2.39t2-2.39v-3.5h3.63v3.26q0,6.14-5.73,6.14t-5.73-6.14V178.11q0-6.14,5.73-6.14m0-2.3c-5.11,0-8,3.08-8,8.44v12.73c0,5.37,2.93,8.44,8,8.44s8-3.08,8-8.44v-3.26a2.3,2.3,0,0,0-2.3-2.3H102.5a2.29,2.29,0,0,0-1.69.74v-4a2.29,2.29,0,0,0,1.69.74h3.63a2.3,2.3,0,0,0,2.3-2.3v-2.39c0-5.37-2.93-8.44-8-8.44Zm.45,7.75Zm-.7,0h0Zm0,14.11Zm.7,0Z"/><path class="cls-4" d="M108.14,178.11q0-6.14,5.84-6.14t5.84,6.14v12.73q0,6.14-5.84,6.14t-5.84-6.14Zm3.84,13q0,2.42,2,2.42t2-2.42V177.87q0-2.4-2-2.4t-2,2.4Z"/><path class="cls-15" d="M114,172q5.83,0,5.84,6.14v12.73q0,6.14-5.84,6.14t-5.84-6.14V178.11q0-6.14,5.84-6.14m0,21.53q2,0,2-2.42V177.87q0-2.4-2-2.4t-2,2.4v13.21q0,2.42,2,2.42m0-23.83c-5.17,0-8.14,3.08-8.14,8.44v12.73c0,5.37,3,8.44,8.14,8.44s8.14-3.08,8.14-8.44V178.11c0-5.37-3-8.44-8.14-8.44Zm.35,7.75h0Zm-.7,0h0Z"/><path class="cls-4" d="M125.72,179v17.71h-3.46V172.24h4.83L131,186.9V172.24h3.43v24.47h-4Z"/><path class="cls-16" d="M134.45,172.24v24.47h-4L125.72,179v17.71h-3.46V172.24h4.83L131,186.9V172.24h3.43m0-2.3H131a2.3,2.3,0,0,0-2,1.11,2.3,2.3,0,0,0-2-1.11h-4.83a2.3,2.3,0,0,0-2.3,2.3v24.47a2.3,2.3,0,0,0,2.3,2.3h3.46a2.3,2.3,0,0,0,2.3-2.3v-.35l.26.95a2.3,2.3,0,0,0,2.22,1.7h4a2.3,2.3,0,0,0,2.3-2.3V172.24a2.3,2.3,0,0,0-2.3-2.3Z"/><path class="cls-4" d="M136.16,172.24H148v3.5h-4v21h-3.84v-21h-4Z"/><path class="cls-17" d="M148,172.24v3.5h-4v21h-3.84v-21h-4v-3.5H148m0-2.3H136.16a2.3,2.3,0,0,0-2.3,2.3v3.5a2.3,2.3,0,0,0,2.3,2.3h1.73v18.67a2.3,2.3,0,0,0,2.3,2.3H144a2.3,2.3,0,0,0,2.3-2.3V178H148a2.3,2.3,0,0,0,2.3-2.3v-3.5a2.3,2.3,0,0,0-2.3-2.3Z"/><path class="cls-4" d="M162.21,196.71h-3.87l-.67-4.44H153l-.67,4.44h-3.53l3.91-24.47h5.63Zm-8.77-7.76h3.72l-1.86-12.37Z"/><path class="cls-18" d="M158.31,172.24l3.91,24.47h-3.87l-.67-4.44H153l-.67,4.44h-3.53l3.91-24.47h5.63m-4.86,16.7h3.72l-1.86-12.37-1.86,12.37m4.86-19h-5.63a2.3,2.3,0,0,0-2.27,1.94l-3.91,24.47a2.3,2.3,0,0,0,2.27,2.66h3.53a2.3,2.3,0,0,0,2.28-2l.37-2.48h.75l.37,2.48a2.3,2.3,0,0,0,2.28,2h3.87a2.3,2.3,0,0,0,2.27-2.66l-3.91-24.47a2.3,2.3,0,0,0-2.27-1.94Z"/><path class="cls-4" d="M164,172.24h3.84v24.47H164Z"/><path class="cls-19" d="M167.83,172.24v24.47H164V172.24h3.84m0-2.3H164a2.3,2.3,0,0,0-2.3,2.3v24.47A2.3,2.3,0,0,0,164,199h3.84a2.3,2.3,0,0,0,2.3-2.3V172.24a2.3,2.3,0,0,0-2.3-2.3Z"/><path class="cls-4" d="M174.05,179v17.71h-3.46V172.24h4.83l3.94,14.66V172.24h3.43v24.47h-4Z"/><path class="cls-20" d="M182.79,172.24v24.47h-4L174.05,179v17.71h-3.46V172.24h4.83l3.94,14.66V172.24h3.43m0-2.3h-3.43a2.3,2.3,0,0,0-2,1.11,2.3,2.3,0,0,0-2-1.11h-4.83a2.3,2.3,0,0,0-2.3,2.3v24.47a2.3,2.3,0,0,0,2.3,2.3h3.46a2.3,2.3,0,0,0,2.3-2.3v-.35l.26.95a2.3,2.3,0,0,0,2.22,1.7h4a2.3,2.3,0,0,0,2.3-2.3V172.24a2.3,2.3,0,0,0-2.3-2.3Z"/><path class="cls-4" d="M189.38,182.56h5.29V186h-5.29v7.17H196v3.5H185.54V172.24H196v3.5h-6.64Z"/><path class="cls-21" d="M196,172.24v3.5h-6.64v6.82h5.29V186h-5.29v7.17H196v3.5H185.54V172.24H196m0-2.3H185.54a2.3,2.3,0,0,0-2.3,2.3v24.47a2.3,2.3,0,0,0,2.3,2.3H196a2.3,2.3,0,0,0,2.3-2.3v-3.5a2.3,2.3,0,0,0-2.3-2.3h-4.34v-2.56h3A2.3,2.3,0,0,0,197,186v-3.48a2.3,2.3,0,0,0-2.3-2.3h-3V178H196a2.3,2.3,0,0,0,2.3-2.3v-3.5a2.3,2.3,0,0,0-2.3-2.3Z"/><path class="cls-4" d="M206.42,196.71a7,7,0,0,1-.26-1,17.2,17.2,0,0,1-.09-2v-3.84q0-3.12-2.53-3.12h-1.33v10h-3.84V172.24h5.8q5.7,0,5.7,5.63v1.93q0,3.77-2.53,5,2.56,1.06,2.56,5.2v3.77a8.17,8.17,0,0,0,.41,3Zm-4.2-21v7.52h1.5q2.32,0,2.32-2.59v-2.41q0-2.52-2-2.52Z"/><path class="cls-22" d="M204.19,172.24q5.7,0,5.7,5.63v1.93q0,3.77-2.53,5,2.56,1.06,2.56,5.2v3.77a8.17,8.17,0,0,0,.41,3h-3.91a7,7,0,0,1-.26-1,17.2,17.2,0,0,1-.09-2v-3.84q0-3.12-2.53-3.12h-1.33v10h-3.84V172.24h5.8m-2,11h1.5q2.32,0,2.32-2.59v-2.41q0-2.52-2-2.52h-1.86v7.52m2-13.32h-5.8a2.3,2.3,0,0,0-2.3,2.3v24.47a2.3,2.3,0,0,0,2.3,2.3h3.84a2.3,2.3,0,0,0,2.1-1.36,2.3,2.3,0,0,0,2.1,1.36h3.91a2.3,2.3,0,0,0,2.13-3.18,6,6,0,0,1-.23-2.09V190a9,9,0,0,0-1.37-5.23,8.45,8.45,0,0,0,1.33-4.94v-1.93c0-5-2.92-7.93-8-7.93Z"/><path class="cls-4" d="M225.87,196.71a7,7,0,0,1-.26-1,17.2,17.2,0,0,1-.09-2v-3.84q0-3.12-2.53-3.12h-1.33v10h-3.84V172.24h5.8q5.7,0,5.7,5.63v1.93q0,3.77-2.53,5,2.56,1.06,2.56,5.2v3.77a8.17,8.17,0,0,0,.41,3Zm-4.2-21v7.52h1.5q2.32,0,2.32-2.59v-2.41q0-2.52-2-2.52Z"/><path class="cls-23" d="M223.64,172.24q5.7,0,5.7,5.63v1.93q0,3.77-2.53,5,2.56,1.06,2.56,5.2v3.77a8.17,8.17,0,0,0,.41,3h-3.91a7,7,0,0,1-.26-1,17.21,17.21,0,0,1-.09-2v-3.84q0-3.12-2.53-3.12h-1.33v10h-3.84V172.24h5.8m-2,11h1.5q2.32,0,2.32-2.59v-2.41q0-2.52-2-2.52h-1.86v7.52m2-13.32h-5.8a2.3,2.3,0,0,0-2.3,2.3v24.47a2.3,2.3,0,0,0,2.3,2.3h3.84a2.3,2.3,0,0,0,2.1-1.36,2.3,2.3,0,0,0,2.1,1.36h3.91a2.3,2.3,0,0,0,2.13-3.18,6,6,0,0,1-.23-2.09V190a9,9,0,0,0-1.37-5.23,8.45,8.45,0,0,0,1.33-4.94v-1.93c0-5-2.92-7.93-8-7.93Z"/><path class="cls-4" d="M235.72,182.56H241V186h-5.29v7.17h6.64v3.5H231.88V172.24h10.48v3.5h-6.64Z"/><path class="cls-24" d="M242.35,172.24v3.5h-6.64v6.82H241V186h-5.29v7.17h6.64v3.5H231.88V172.24h10.48m0-2.3H231.88a2.3,2.3,0,0,0-2.3,2.3v24.47a2.3,2.3,0,0,0,2.3,2.3h10.48a2.3,2.3,0,0,0,2.3-2.3v-3.5a2.3,2.3,0,0,0-2.3-2.3H238v-2.56h3a2.3,2.3,0,0,0,2.3-2.3v-3.48a2.3,2.3,0,0,0-2.3-2.3h-3V178h4.34a2.3,2.3,0,0,0,2.3-2.3v-3.5a2.3,2.3,0,0,0-2.3-2.3Z"/><path class="cls-4" d="M250.49,183.08h5.39v7.76q0,6.14-5.73,6.14t-5.73-6.14V178.11q0-6.14,5.73-6.14t5.73,6.14v2.39h-3.63v-2.63q0-2.4-2-2.4t-2,2.4v13.21q0,2.39,2,2.39t2-2.39v-4.5h-1.76Z"/><path class="cls-25" d="M250.15,172q5.73,0,5.73,6.14v2.39h-3.63v-2.63q0-2.4-2-2.4t-2,2.4v13.21q0,2.39,2,2.39t2-2.39v-4.5h-1.76v-3.5h5.39v7.76q0,6.14-5.73,6.14t-5.73-6.14V178.11q0-6.14,5.73-6.14m0-2.3c-5.11,0-8,3.08-8,8.44v12.73c0,5.37,2.93,8.44,8,8.44s8-3.08,8-8.44v-7.76a2.29,2.29,0,0,0-.39-1.29,2.29,2.29,0,0,0,.39-1.29v-2.39c0-5.37-2.93-8.44-8-8.44Zm-.25,7.75h0Zm.7,0Zm-.7,14.11Z"/><path class="cls-4" d="M258.34,172.24h3.84v24.47h-3.84Z"/><path class="cls-26" d="M262.18,172.24v24.47h-3.84V172.24h3.84m0-2.3h-3.84a2.3,2.3,0,0,0-2.3,2.3v24.47a2.3,2.3,0,0,0,2.3,2.3h3.84a2.3,2.3,0,0,0,2.3-2.3V172.24a2.3,2.3,0,0,0-2.3-2.3Z"/><path class="cls-4" d="M270.16,172q5.66,0,5.66,6.14v1.3h-3.63v-1.54q0-2.4-1.93-2.4t-1.93,2.4a5.11,5.11,0,0,0,1.18,3.17,13.17,13.17,0,0,0,1.21,1.3l1,1,.36.32a18.91,18.91,0,0,1,1.36,1.36,10.39,10.39,0,0,1,1.21,1.59,8,8,0,0,1,1.18,4.27q0,6.14-5.73,6.14t-5.73-6.14v-2.37H268v2.61q0,2.39,2,2.39t2-2.39a5.08,5.08,0,0,0-1.16-3.16,14.63,14.63,0,0,0-1.21-1.31l-1.38-1.28q-.85-.78-1.38-1.36a11.5,11.5,0,0,1-1.19-1.57,8.06,8.06,0,0,1-1.18-4.28Q264.5,172,270.16,172Z"/><path class="cls-27" d="M270.16,172q5.66,0,5.66,6.14v1.3h-3.63v-1.54q0-2.4-1.93-2.4t-1.93,2.4a5.11,5.11,0,0,0,1.18,3.17,13.16,13.16,0,0,0,1.21,1.3l1,1,.36.32a18.89,18.89,0,0,1,1.36,1.36,10.4,10.4,0,0,1,1.21,1.59,8,8,0,0,1,1.18,4.27q0,6.14-5.73,6.14t-5.73-6.14v-2.37H268v2.61q0,2.39,2,2.39t2-2.39a5.08,5.08,0,0,0-1.16-3.16,14.64,14.64,0,0,0-1.21-1.31l-1.38-1.28q-.85-.78-1.38-1.36a11.5,11.5,0,0,1-1.19-1.57,8.06,8.06,0,0,1-1.18-4.28q0-6.14,5.66-6.14m0-2.3c-5.06,0-8,3.08-8,8.44a10.37,10.37,0,0,0,1.51,5.48,13.88,13.88,0,0,0,1.44,1.9c.19.21.41.44.64.67h-1.4a2.3,2.3,0,0,0-2.3,2.3v2.37c0,5.37,2.93,8.44,8,8.44s8-3.08,8-8.44a10.28,10.28,0,0,0-1.52-5.47,12.73,12.73,0,0,0-1.47-1.93,20.76,20.76,0,0,0-1.51-1.51l-.24-.22h2.41a2.3,2.3,0,0,0,2.3-2.3v-1.3c0-5.37-2.9-8.44-8-8.44Zm.21,21.85Z"/><path class="cls-4" d="M277,172.24h11.88v3.5h-4v21H281v-21h-4Z"/><path class="cls-28" d="M288.86,172.24v3.5h-4v21H281v-21h-4v-3.5h11.88m0-2.3H277a2.3,2.3,0,0,0-2.3,2.3v3.5A2.3,2.3,0,0,0,277,178h1.73v18.67A2.3,2.3,0,0,0,281,199h3.84a2.3,2.3,0,0,0,2.3-2.3V178h1.71a2.3,2.3,0,0,0,2.3-2.3v-3.5a2.3,2.3,0,0,0-2.3-2.3Z"/><path class="cls-4" d="M298.64,196.71a7,7,0,0,1-.26-1,17.2,17.2,0,0,1-.09-2v-3.84q0-3.12-2.53-3.12h-1.33v10H290.6V172.24h5.8q5.7,0,5.7,5.63v1.93q0,3.77-2.53,5,2.56,1.06,2.56,5.2v3.77a8.17,8.17,0,0,0,.41,3Zm-4.2-21v7.52h1.5q2.32,0,2.32-2.59v-2.41q0-2.52-2-2.52Z"/><path class="cls-29" d="M296.4,172.24q5.7,0,5.7,5.63v1.93q0,3.77-2.53,5,2.56,1.06,2.56,5.2v3.77a8.17,8.17,0,0,0,.41,3h-3.91a7,7,0,0,1-.26-1,17.2,17.2,0,0,1-.09-2v-3.84q0-3.12-2.53-3.12h-1.33v10H290.6V172.24h5.8m-2,11h1.5q2.32,0,2.32-2.59v-2.41q0-2.52-2-2.52h-1.86v7.52m2-13.32h-5.8a2.3,2.3,0,0,0-2.3,2.3v24.47a2.3,2.3,0,0,0,2.3,2.3h3.84a2.3,2.3,0,0,0,2.1-1.36,2.3,2.3,0,0,0,2.1,1.36h3.91a2.3,2.3,0,0,0,2.13-3.18,6,6,0,0,1-.23-2.09V190a9,9,0,0,0-1.37-5.23,8.45,8.45,0,0,0,1.33-4.94v-1.93c0-5-2.92-7.93-8-7.93Z"/><path class="cls-4" d="M308.26,188.61l-4.86-16.36h4l2.93,11.16,2.93-11.16H317l-4.86,16.36v8.1h-3.84Z"/><path class="cls-30" d="M317,172.24h0m0,0-4.86,16.36v8.1h-3.84v-8.1l-4.86-16.36h4l2.93,11.16,2.93-11.16H317m0-2.3H313.3a2.3,2.3,0,0,0-2.22,1.72l-.71,2.7-.71-2.7a2.3,2.3,0,0,0-2.22-1.72h-4a2.3,2.3,0,0,0-2.21,3l4.77,16v7.77a2.3,2.3,0,0,0,2.3,2.3h3.84a2.3,2.3,0,0,0,2.3-2.3v-7.77L319.14,173a2.3,2.3,0,0,0-2.17-3.06Zm0,4.6h0Z"/><path class="cls-2" d="M18.31,23.38a6,6,0,0,1-2.94.68,7,7,0,0,1-2.73-.53,5.42,5.42,0,0,1-2.28-1.71,8,8,0,0,1-1.48-5,9,9,0,0,1,.78-3.87,6.2,6.2,0,0,1,2.48-2.7,6.53,6.53,0,0,1,6-.31v3.68A4.35,4.35,0,0,0,16,13a2.88,2.88,0,0,0-2.19.88,4.08,4.08,0,0,0-1,2.89,3.68,3.68,0,0,0,1,2.85,3.13,3.13,0,0,0,2.26.85,3.41,3.41,0,0,0,2.19-.73Z"/><path class="cls-2" d="M27.32,23.82H24.19v-7a1.13,1.13,0,0,0-.36-.89,1.11,1.11,0,0,0-.81-.3q-.93,0-1.11,1.15v7H18.8V9.57h3.11v4a1.59,1.59,0,0,1,.81-.47,4.3,4.3,0,0,1,1.42-.23,3.13,3.13,0,0,1,2.17.75,3.74,3.74,0,0,1,1,2.88Z"/><path class="cls-2" d="M31.18,23.82H28.06V13.07h3.11Zm0-14.25-1.44,2.74H28.23L29,9.57Z"/><path class="cls-2" d="M40.43,23.82H37.3v-7a1.14,1.14,0,0,0-.34-.87,1.11,1.11,0,0,0-.79-.32q-1,0-1.17,1.19v7H31.93V13.07H35v.69a1.38,1.38,0,0,1,.77-.5,4,4,0,0,1,3.57.56,3.42,3.42,0,0,1,1.08,2.78Z"/><path class="cls-2" d="M49.68,23.82H46.55v-7a1.13,1.13,0,0,0-.36-.89,1.11,1.11,0,0,0-.81-.3q-.93,0-1.11,1.15v7H41.16V9.57h3.11v4a1.59,1.59,0,0,1,.81-.47,4.3,4.3,0,0,1,1.42-.23,3.13,3.13,0,0,1,2.17.75,3.74,3.74,0,0,1,1,2.88Z"/><path class="cls-2" d="M61.66,23.75a8,8,0,0,1-1.46.14,3.5,3.5,0,0,1-2.33-.72A2.57,2.57,0,0,1,57,21.09V15.42H55.94V13.07H57V10.87l3.15-1.13v3.34H61.5v2.35H60.17v4.94q0,.87.76.87a2.73,2.73,0,0,0,.73-.12Z"/><path class="cls-2" d="M70.78,23.82H67.65v-7a1.13,1.13,0,0,0-.36-.89,1.11,1.11,0,0,0-.81-.3q-.93,0-1.11,1.15v7H62.26V9.57h3.11v4a1.59,1.59,0,0,1,.81-.47,4.3,4.3,0,0,1,1.42-.23,3.13,3.13,0,0,1,2.17.75,3.74,3.74,0,0,1,1,2.88Z"/><path class="cls-2" d="M80.08,14.85v9H77v-.68a1.43,1.43,0,0,1-.81.53,3.94,3.94,0,0,1-1.38.2A3.15,3.15,0,0,1,72.59,23a3.4,3.4,0,0,1-1.06-2.61V13.07h3.13V20a1.28,1.28,0,0,0,.35.93,1.09,1.09,0,0,0,.8.36q1,0,1.15-1.27V13.07h1.4a1.49,1.49,0,0,0-.06.44,1.33,1.33,0,0,0,.41,1,1.37,1.37,0,0,0,1,.41A1.54,1.54,0,0,0,80.08,14.85ZM78,9.57l-1.44,2.74H75.06l.75-2.74Zm2.64,3.94a.94.94,0,0,1-.29.69,1,1,0,0,1-.7.29A1,1,0,0,1,79,14.2a.94.94,0,0,1-.29-.69,1,1,0,0,1,.29-.7,1,1,0,0,1,.71-.29.94.94,0,0,1,.7.29A1,1,0,0,1,80.66,13.51Z"/><path class="cls-2" d="M87.87,23.44a5,5,0,0,1-5.92-1.17,5.9,5.9,0,0,1-1.11-3.74,6.45,6.45,0,0,1,.6-2.88,4.49,4.49,0,0,1,1.83-2,4.74,4.74,0,0,1,2.5-.69,4.52,4.52,0,0,1,2,.46v2.75a3.16,3.16,0,0,0-1.62-.47,2,2,0,0,0-1.55.65,3.25,3.25,0,0,0-.68,2.17,2.93,2.93,0,0,0,.73,2.13,2.21,2.21,0,0,0,1.62.63,2.45,2.45,0,0,0,1.57-.52Z"/><path class="cls-2" d="M102.27,23.82H99.09v-.52a3.45,3.45,0,0,1-1.86.58,3,3,0,0,1-2.22-1,3.82,3.82,0,0,1-1-2.42,3.54,3.54,0,0,1,1-2.84,3.59,3.59,0,0,1,2.62-1,4,4,0,0,1,1.46.28,2.08,2.08,0,0,0-.13-1,1.81,1.81,0,0,0-1.45-.45,3.18,3.18,0,0,0-2.5.84V13.46a7.74,7.74,0,0,1,3.17-.62,5.15,5.15,0,0,1,2.83.69A2.74,2.74,0,0,1,102.27,16Zm-3.2-3V19.42a.76.76,0,0,0-.35-.41,1,1,0,0,0-.58-.15,1.1,1.1,0,0,0-.8.38,1.38,1.38,0,0,0,0,1.79,1.1,1.1,0,0,0,.8.38A.83.83,0,0,0,99.07,20.85ZM100.2,9.57l-1.44,2.74H97.25L98,9.57Z"/><path class="cls-2" d="M112.15,18.28a6.4,6.4,0,0,1-1.17,4,3.6,3.6,0,0,1-3,1.58,2.31,2.31,0,0,1-.4,0,3.11,3.11,0,0,1-1.49-.52v4.47H103V13.07h3.11v.65a2.54,2.54,0,0,1,1.62-.65l.5,0a3.39,3.39,0,0,1,2.84,1.43A6.23,6.23,0,0,1,112.15,18.28Zm-3.15.15q0-2.48-1.49-2.48-1.17,0-1.41,1.65v1.73q.26,1.58,1.41,1.58Q109,20.9,109,18.43Z"/><path class="cls-2" d="M127.52,23.82h-3.06l0-.59a2.38,2.38,0,0,1-1.79.64,3.75,3.75,0,0,1-2.93-1.51,5.91,5.91,0,0,1-1.35-3.9,6.12,6.12,0,0,1,1.17-3.92,3.62,3.62,0,0,1,3-1.52l.42,0a3.42,3.42,0,0,1,1.51.52v-4h3.1Zm-3.1-4.52V17.57Q124.16,16,123,16q-1.49,0-1.48,2.48T123,20.94Q124.16,20.92,124.42,19.3Z"/><path class="cls-2" d="M136.83,23.82h-3.1v-.68a1.43,1.43,0,0,1-.81.53,3.94,3.94,0,0,1-1.38.2,3.15,3.15,0,0,1-2.19-.87,3.4,3.4,0,0,1-1.06-2.61V13.07h3.13V20a1.28,1.28,0,0,0,.35.93,1.09,1.09,0,0,0,.8.36q1,0,1.15-1.27V13.07h3.12Zm-2.58,2.61a1.2,1.2,0,0,1-.37.88,1.28,1.28,0,0,1-1.81,0,1.2,1.2,0,0,1-.37-.88,1.28,1.28,0,1,1,2.55,0Z"/><path class="cls-2" d="M146.09,23.82H143v-7a1.14,1.14,0,0,0-.34-.87,1.11,1.11,0,0,0-.79-.32q-1,0-1.17,1.19v7h-3.08V13.07h3.08v.69a1.38,1.38,0,0,1,.77-.5,4,4,0,0,1,3.57.56,3.42,3.42,0,0,1,1.08,2.78Z"/><path class="cls-2" d="M156,23.35a4.16,4.16,0,0,1-1.64,3.5,5.54,5.54,0,0,1-3.48,1.09,5.43,5.43,0,0,1-3.08-.84V24a3.39,3.39,0,0,0,1.29,1,3.8,3.8,0,0,0,1.62.37,2.35,2.35,0,0,0,1.53-.47,1.75,1.75,0,0,0,.64-1.48v-.22a3.4,3.4,0,0,1-2,.69,3.51,3.51,0,0,1-3.1-1.82,6.54,6.54,0,0,1-1-3.62,6.58,6.58,0,0,1,1.12-3.92A3.39,3.39,0,0,1,150.8,13l.47,0a2.6,2.6,0,0,1,1.62.67v-.61H156Zm-3.11-4V17.57q-.26-1.63-1.42-1.63-1.46,0-1.48,2.46t1.48,2.46Q152.63,20.87,152.89,19.3Z"/><path class="cls-2" d="M170.8,23.82h-3.13v-7a1.13,1.13,0,0,0-.36-.89,1.11,1.11,0,0,0-.81-.3q-.93,0-1.11,1.15v7h-3.11V9.57h3.11v4a1.59,1.59,0,0,1,.81-.47,4.3,4.3,0,0,1,1.42-.23,3.13,3.13,0,0,1,2.17.75,3.74,3.74,0,0,1,1,2.88Z"/><path class="cls-2" d="M174.66,23.82h-3.11V13.07h3.11Zm-.12-11.51H173l-1.44-2.74h2.21Z"/><path class="cls-2" d="M183.91,23.82h-3.13v-7a1.14,1.14,0,0,0-.34-.87,1.11,1.11,0,0,0-.79-.32q-1,0-1.17,1.19v7h-3.08V13.07h3.08v.69a1.38,1.38,0,0,1,.77-.5,4,4,0,0,1,3.57.56,3.42,3.42,0,0,1,1.08,2.78Z"/><path class="cls-2" d="M193.17,23.82H190v-7a1.13,1.13,0,0,0-.36-.89,1.11,1.11,0,0,0-.81-.3q-.93,0-1.11,1.15v7h-3.11V9.57h3.11v4a1.59,1.59,0,0,1,.81-.47,4.3,4.3,0,0,1,1.42-.23,3.13,3.13,0,0,1,2.17.75,3.74,3.74,0,0,1,1,2.88Z"/><path class="cls-2" d="M205.15,23.75a8,8,0,0,1-1.46.14,3.5,3.5,0,0,1-2.33-.72,2.57,2.57,0,0,1-.85-2.08V15.42h-1.08V13.07h1.08V10.87l3.15-1.13v3.34H205v2.35h-1.33v4.94q0,.87.76.87a2.73,2.73,0,0,0,.73-.12Z"/><path class="cls-2" d="M214.27,23.82h-3.13v-7a1.13,1.13,0,0,0-.36-.89,1.11,1.11,0,0,0-.81-.3q-.93,0-1.11,1.15v7h-3.11V9.57h3.11v4a1.59,1.59,0,0,1,.81-.47,4.3,4.3,0,0,1,1.42-.23,3.13,3.13,0,0,1,2.17.75,3.74,3.74,0,0,1,1,2.88Z"/><path class="cls-2" d="M223.56,14.85v9h-3.1v-.68a1.43,1.43,0,0,1-.81.53,3.94,3.94,0,0,1-1.38.2,3.15,3.15,0,0,1-2.19-.87A3.4,3.4,0,0,1,215,20.39V13.07h3.13V20a1.28,1.28,0,0,0,.35.93,1.09,1.09,0,0,0,.8.36q1,0,1.15-1.27V13.07h1.4a1.49,1.49,0,0,0-.06.44,1.33,1.33,0,0,0,.41,1,1.37,1.37,0,0,0,1,.41A1.54,1.54,0,0,0,223.56,14.85ZM221.5,9.57l-1.44,2.74h-1.51l.75-2.74Zm2.64,3.94a.94.94,0,0,1-.29.69,1,1,0,0,1-.7.29,1,1,0,0,1-.71-.29.94.94,0,0,1-.29-.69,1,1,0,0,1,.29-.7,1,1,0,0,1,.71-.29.94.94,0,0,1,.7.29A1,1,0,0,1,224.14,13.51Z"/><path class="cls-2" d="M231.35,23.44a5,5,0,0,1-5.92-1.17,5.9,5.9,0,0,1-1.11-3.74,6.45,6.45,0,0,1,.6-2.88,4.49,4.49,0,0,1,1.83-2,4.74,4.74,0,0,1,2.5-.69,4.52,4.52,0,0,1,2,.46v2.75a3.16,3.16,0,0,0-1.62-.47,2,2,0,0,0-1.55.65,3.25,3.25,0,0,0-.68,2.17,2.93,2.93,0,0,0,.73,2.13,2.21,2.21,0,0,0,1.62.63,2.45,2.45,0,0,0,1.57-.52Z"/><path class="cls-2" d="M243.17,23.75a8,8,0,0,1-1.46.14,3.5,3.5,0,0,1-2.33-.72,2.57,2.57,0,0,1-.85-2.08V15.42h-1.08V13.07h1.08V10.87l3.15-1.13v3.34H243v2.35h-1.33v4.94q0,.87.76.87a2.73,2.73,0,0,0,.73-.12Z"/><path class="cls-2" d="M252.29,23.82h-3.13v-7a1.13,1.13,0,0,0-.36-.89,1.11,1.11,0,0,0-.81-.3q-.93,0-1.11,1.15v7h-3.11V9.57h3.11v4a1.59,1.59,0,0,1,.81-.47,4.3,4.3,0,0,1,1.42-.23,3.13,3.13,0,0,1,2.17.75,3.74,3.74,0,0,1,1,2.88Z"/><path class="cls-2" d="M261.34,23.82h-3.18v-.52a3.45,3.45,0,0,1-1.86.58,3,3,0,0,1-2.22-1,3.82,3.82,0,0,1-1-2.42,3.54,3.54,0,0,1,1-2.84,3.59,3.59,0,0,1,2.62-1,4,4,0,0,1,1.46.28,2.08,2.08,0,0,0-.13-1,1.81,1.81,0,0,0-1.45-.45,3.18,3.18,0,0,0-2.5.84V13.46a7.74,7.74,0,0,1,3.17-.62,5.15,5.15,0,0,1,2.83.69A2.74,2.74,0,0,1,261.34,16Zm-3.2-3V19.42a.76.76,0,0,0-.35-.41,1,1,0,0,0-.58-.15,1.1,1.1,0,0,0-.8.38,1.38,1.38,0,0,0,0,1.79,1.1,1.1,0,0,0,.8.38A.83.83,0,0,0,258.14,20.85Z"/><path class="cls-2" d="M270.65,23.82h-3.13v-7a1.14,1.14,0,0,0-.34-.87,1.11,1.11,0,0,0-.79-.32q-1,0-1.17,1.19v7h-3.08V13.07h3.08v.69a1.38,1.38,0,0,1,.77-.5,4,4,0,0,1,3.57.56,3.42,3.42,0,0,1,1.08,2.78Z"/><path class="cls-2" d="M279.9,23.82h-3.13v-7a1.13,1.13,0,0,0-.36-.89,1.11,1.11,0,0,0-.81-.3q-.93,0-1.11,1.15v7h-3.11V9.57h3.11v4a1.59,1.59,0,0,1,.81-.47,4.3,4.3,0,0,1,1.42-.23,3.13,3.13,0,0,1,2.17.75,3.74,3.74,0,0,1,1,2.88Z"/><path class="cls-2" d="M291.88,23.75a8,8,0,0,1-1.46.14,3.5,3.5,0,0,1-2.33-.72,2.57,2.57,0,0,1-.85-2.08V15.42h-1.08V13.07h1.08V10.87l3.15-1.13v3.34h1.33v2.35h-1.33v4.94q0,.87.76.87a2.73,2.73,0,0,0,.73-.12Z"/><path class="cls-2" d="M301.66,15.68a6.34,6.34,0,0,1,.59,2.78,5.84,5.84,0,0,1-1.18,3.77A4.57,4.57,0,0,1,297.32,24a4.52,4.52,0,0,1-3.67-1.74,5.83,5.83,0,0,1-1.17-3.75,6.27,6.27,0,0,1,.59-2.78,4.69,4.69,0,0,1,1.8-2,4.71,4.71,0,0,1,4.92,0A4.46,4.46,0,0,1,301.66,15.68Zm-2.54,2.82a3.54,3.54,0,0,0-.52-2,1.48,1.48,0,0,0-1.27-.71,1.43,1.43,0,0,0-1.23.75,3.74,3.74,0,0,0-.5,2,3.48,3.48,0,0,0,.49,1.95,1.45,1.45,0,0,0,1.24.75,1.56,1.56,0,0,0,1.29-.74A3.17,3.17,0,0,0,299.12,18.5Z"/><path class="cls-2" d="M311.24,23.82h-3.18v-.52a3.45,3.45,0,0,1-1.86.58,3,3,0,0,1-2.22-1,3.82,3.82,0,0,1-1-2.42,3.54,3.54,0,0,1,1-2.84,3.59,3.59,0,0,1,2.62-1,4,4,0,0,1,1.46.28,2.08,2.08,0,0,0-.13-1,1.81,1.81,0,0,0-1.45-.45,3.18,3.18,0,0,0-2.5.84V13.46a7.74,7.74,0,0,1,3.17-.62,5.15,5.15,0,0,1,2.83.69A2.74,2.74,0,0,1,311.24,16Zm-3.2-3V19.42a.76.76,0,0,0-.35-.41,1,1,0,0,0-.58-.15,1.1,1.1,0,0,0-.8.38,1.38,1.38,0,0,0,0,1.79,1.1,1.1,0,0,0,.8.38A.83.83,0,0,0,308,20.85Zm1.13-11.28-1.44,2.74h-1.51L307,9.57Z"/><path class="cls-2" d="M320.46,23.82h-3.13v-7a1.14,1.14,0,0,0-.34-.87,1.11,1.11,0,0,0-.79-.32q-1,0-1.17,1.19v7H312V13.07H315v.69a1.38,1.38,0,0,1,.77-.5,4,4,0,0,1,3.57.56,3.42,3.42,0,0,1,1.08,2.78Z"/><path class="cls-1" d="M13.68,219.24l-3.52-4.57-1.36,1.68v2.89H7.73V208.69H8.79v6.06h0l4.83-6.06H15l-4.18,5.15,4.18,5.4Z"/><path class="cls-1" d="M23.66,215.71h-7.1a2.82,2.82,0,0,0,1,2,3,3,0,0,0,2.06.83,3.07,3.07,0,0,0,1.68-.49,2.68,2.68,0,0,0,1.11-1.36h1.06a4,4,0,0,1-1.49,2,4.06,4.06,0,0,1-6.41-3.32,4,4,0,0,1,1.18-2.89,4,4,0,0,1,5.76,0,4.07,4.07,0,0,1,1.19,2.93Zm-1-.9a3.19,3.19,0,0,0-1-1.91,3,3,0,0,0-4,0,3.15,3.15,0,0,0-1,1.91Zm-1.77-4.68-1.22-1-1.25,1h-1.3l2.07-1.78h.94l2,1.78Zm1.75-2.81a1.42,1.42,0,0,1-.16.19l-.09.1-.29.28-.16.21a1.24,1.24,0,0,0-.15.61h-.88v-.19a1.35,1.35,0,0,1,.19-.69,1.71,1.71,0,0,1,.19-.25l.18-.18.19-.18.17-.2a.56.56,0,0,0,.11-.34.59.59,0,0,0-.18-.46.62.62,0,0,0-.42-.19.63.63,0,0,0-.61.53,3.58,3.58,0,0,0,0,.42h-.9v-.27a1.34,1.34,0,0,1,.47-1,1.51,1.51,0,0,1,1.06-.4,1.45,1.45,0,0,1,1.05.39,1.34,1.34,0,0,1,.43,1A1.16,1.16,0,0,1,22.63,207.32Z"/><path class="cls-1" d="M31,212.34v6.9h-1v-6.9H28.41v-.9h1.64v-2.76h1v2.76h1.86v.9Z"/><path class="cls-1" d="M40.75,212.6v6.64h-.94V218h0a2.27,2.27,0,0,1-1,1.06,3.09,3.09,0,0,1-1.46.34,3.21,3.21,0,0,1-2.68-1.17,3,3,0,0,1-.55-1.19,5.89,5.89,0,0,1-.13-1.32v-4.3h1v4.29a3.33,3.33,0,0,0,.52,2,2.16,2.16,0,0,0,1.85.79,2.32,2.32,0,0,0,1.66-.63,2.44,2.44,0,0,0,.66-1.07,4.34,4.34,0,0,0,.15-1.26v-4.12h1v.23l0,0a.73.73,0,0,0,.29-.49h-.42V209.9h1.22v1.29a1.83,1.83,0,0,1-.16.57,1.35,1.35,0,0,1-.28.38,2.35,2.35,0,0,1-.29.24l-.38.23Zm-2.55-2.19-2.82-1.52.45-.86,2.84,1.56Z"/><path class="cls-1" d="M53.13,215.39a6.16,6.16,0,0,1-.12,1.23,3.82,3.82,0,0,1-.41,1.16,3.57,3.57,0,0,1-6,0,4,4,0,0,1-.42-1.16,6.51,6.51,0,0,1-.11-1.23v-3.08a4.26,4.26,0,0,1,.4-1.94,3.57,3.57,0,0,1,6.27,0,4.19,4.19,0,0,1,.4,1.94Zm-1.06-2.84a5.26,5.26,0,0,0-.1-1,3,3,0,0,0-.35-1,2.43,2.43,0,0,0-4,0,2.82,2.82,0,0,0-.35,1,5.29,5.29,0,0,0-.1,1v2.69a7.08,7.08,0,0,0,.08,1.09,2.79,2.79,0,0,0,.32,1,2.49,2.49,0,0,0,4.16,0,2.81,2.81,0,0,0,.32-1,7.08,7.08,0,0,0,.08-1.09Z"/><path class="cls-1" d="M59.82,218.42a3.15,3.15,0,0,1-2.39,1,3.3,3.3,0,0,1-1.25-.24,3.13,3.13,0,0,1-1.59-1.27,3.89,3.89,0,0,1-.56-2h1.06a4.92,4.92,0,0,0,.1.73,2.32,2.32,0,0,0,.27.68,2.17,2.17,0,0,0,2,1.12,2.13,2.13,0,0,0,1.66-.7A2.47,2.47,0,0,0,59.7,216a2.21,2.21,0,0,0-.52-1.43,2.32,2.32,0,0,0-1.28-.82,3.42,3.42,0,0,0-.61-.08l-.61,0v-.92H57a2.25,2.25,0,0,0,1.38-.4,1.47,1.47,0,0,0,.59-1.25,1.65,1.65,0,0,0-.46-1.2,1.58,1.58,0,0,0-1.18-.47,1.39,1.39,0,0,0-1.18.58,2,2,0,0,0-.4,1.28H54.72a3,3,0,0,1,.74-2,2.45,2.45,0,0,1,1.92-.83,2.57,2.57,0,0,1,1.91.78,2.67,2.67,0,0,1,.75,1.93,2.19,2.19,0,0,1-.29,1.13,3.24,3.24,0,0,1-.79.86A3,3,0,0,1,60.75,216,3.39,3.39,0,0,1,59.82,218.42Z"/><path class="cls-1" d="M63.15,220.67H62.06l4-12h1.13Z"/><path class="cls-1" d="M74.37,213.58a6.26,6.26,0,0,1-.62.77q-.26.28-.72.71l-3.39,3.24h5.27v1h-6.7v-1l4.36-4.2a7.6,7.6,0,0,0,.65-.71,2.72,2.72,0,0,0,.69-1.68,2.13,2.13,0,0,0-.68-1.59,2.2,2.2,0,0,0-1.59-.65,2,2,0,0,0-1.71.79,2.88,2.88,0,0,0-.57,1.85H68.31v0a3.89,3.89,0,0,1,.49-2,3,3,0,0,1,1.57-1.3,3.56,3.56,0,0,1,1.34-.26A3.29,3.29,0,0,1,75,211.72,3.26,3.26,0,0,1,74.37,213.58Z"/><path class="cls-1" d="M83,215.39a6.16,6.16,0,0,1-.12,1.23,3.82,3.82,0,0,1-.41,1.16,3.57,3.57,0,0,1-6,0,4,4,0,0,1-.42-1.16,6.51,6.51,0,0,1-.11-1.23v-3.08a4.26,4.26,0,0,1,.4-1.94,3.57,3.57,0,0,1,6.27,0,4.19,4.19,0,0,1,.4,1.94ZM82,212.55a5.26,5.26,0,0,0-.1-1,3,3,0,0,0-.35-1,2.43,2.43,0,0,0-4,0,2.82,2.82,0,0,0-.35,1,5.29,5.29,0,0,0-.1,1v2.69a7.08,7.08,0,0,0,.08,1.09,2.79,2.79,0,0,0,.32,1,2.49,2.49,0,0,0,4.16,0,2.81,2.81,0,0,0,.32-1,7.08,7.08,0,0,0,.08-1.09Z"/><path class="cls-1" d="M90.16,213.58a6.26,6.26,0,0,1-.62.77q-.26.28-.72.71l-3.39,3.24h5.27v1H84v-1l4.36-4.2a7.6,7.6,0,0,0,.65-.71,2.72,2.72,0,0,0,.69-1.68,2.13,2.13,0,0,0-.68-1.59,2.2,2.2,0,0,0-1.59-.65,2,2,0,0,0-1.71.79,2.88,2.88,0,0,0-.57,1.85H84.09v0a3.89,3.89,0,0,1,.49-2,3,3,0,0,1,1.57-1.3,3.56,3.56,0,0,1,1.34-.26,3.29,3.29,0,0,1,3.28,3.21A3.26,3.26,0,0,1,90.16,213.58Z"/><path class="cls-1" d="M98.81,215.39a6.16,6.16,0,0,1-.12,1.23,3.82,3.82,0,0,1-.41,1.16,3.57,3.57,0,0,1-6,0,4,4,0,0,1-.42-1.16,6.51,6.51,0,0,1-.11-1.23v-3.08a4.26,4.26,0,0,1,.4-1.94,3.57,3.57,0,0,1,6.27,0,4.19,4.19,0,0,1,.4,1.94Zm-1.06-2.84a5.26,5.26,0,0,0-.1-1,3,3,0,0,0-.35-1,2.43,2.43,0,0,0-4,0,2.82,2.82,0,0,0-.35,1,5.29,5.29,0,0,0-.1,1v2.69a7.08,7.08,0,0,0,.08,1.09,2.79,2.79,0,0,0,.32,1,2.49,2.49,0,0,0,4.16,0,2.81,2.81,0,0,0,.32-1,7.08,7.08,0,0,0,.08-1.09Z"/><path class="cls-1" d="M103.6,215.71v-1h3.88v1Z"/><path class="cls-1" d="M121.08,219.24l-1.53-3.55h-4.9l-1.54,3.55H112l4.5-10.55h1.18l4.53,10.55Zm-4-9.35L115,214.74h4.09Zm-1.08-1.8-.47-.82,2.84-1.56.45.86Z"/><path class="cls-1" d="M130.33,218.25a4.1,4.1,0,0,1-3,1.18,3.47,3.47,0,0,1-3-1.56h0V222h-1V211.45h1v1.36h0a3.52,3.52,0,0,1,3-1.57,4.1,4.1,0,0,1,3,1.16,3.86,3.86,0,0,1,1.24,2.92A3.91,3.91,0,0,1,130.33,218.25Zm-.68-5.19a3.08,3.08,0,0,0-2.29-.92,3,3,0,0,0-2.23,1,3.15,3.15,0,0,0-.9,2.25,3.1,3.1,0,0,0,.9,2.24,3,3,0,0,0,2.23.94,3.1,3.1,0,0,0,2.28-.9,3.06,3.06,0,0,0,.91-2.27A3.16,3.16,0,0,0,129.65,213.06Z"/><path class="cls-1" d="M143.85,219.24v-1.37h0a3.43,3.43,0,0,1-3,1.56,4.1,4.1,0,0,1-3-1.18,4.1,4.1,0,0,1,0-5.85,4.13,4.13,0,0,1,3-1.16,3.45,3.45,0,0,1,3,1.54h0v-4.09h1v10.55ZM143,213.1a3,3,0,0,0-2.23-1,3.08,3.08,0,0,0-2.29.92,3.15,3.15,0,0,0-.9,2.3,3.06,3.06,0,0,0,.91,2.27,3.12,3.12,0,0,0,2.28.9,3,3,0,0,0,2.23-.94,3.1,3.1,0,0,0,.9-2.24A3.15,3.15,0,0,0,143,213.1Z"/><path class="cls-1" d="M152.57,219.24V218h0a2.27,2.27,0,0,1-1,1.06,3.09,3.09,0,0,1-1.46.34,3.21,3.21,0,0,1-2.68-1.17,3,3,0,0,1-.55-1.19,5.89,5.89,0,0,1-.13-1.32v-4.3h1v4.29a3.33,3.33,0,0,0,.52,2,2.16,2.16,0,0,0,1.85.79,2.32,2.32,0,0,0,1.66-.63,2.44,2.44,0,0,0,.66-1.07,4.34,4.34,0,0,0,.15-1.26v-4.12h1v7.79Zm-2.62,2.68v-1.8H151v1.8Z"/><path class="cls-1" d="M161.25,219.24V215a3.82,3.82,0,0,0-.17-1.16,2.22,2.22,0,0,0-.58-1,2.48,2.48,0,0,0-3.39,0,2.2,2.2,0,0,0-.57,1,3.71,3.71,0,0,0-.16,1.11v4.36h-1v-7.79h1v1h0a2.65,2.65,0,0,1,2.4-1.2,3.22,3.22,0,0,1,2.55,1,3.9,3.9,0,0,1,.88,2.67v4.29Z"/><path class="cls-1" d="M171.79,218q0,.45,0,.76a6.24,6.24,0,0,1-.09.73,3.31,3.31,0,0,1-.6,1.36,3.66,3.66,0,0,1-3.1,1.44,4.24,4.24,0,0,1-2.49-.74,3.77,3.77,0,0,1-1.5-2.12h1.06a2.89,2.89,0,0,0,2.92,2,2.74,2.74,0,0,0,2.07-.8,2.92,2.92,0,0,0,.75-2.1v-.69h0a2.81,2.81,0,0,1-1.27,1.21,3.76,3.76,0,0,1-1.73.4,3.93,3.93,0,0,1-2.88-1.18,3.89,3.89,0,0,1-1.2-2.87,4,4,0,0,1,1.18-2.92,3.9,3.9,0,0,1,2.9-1.22,3.36,3.36,0,0,1,3,1.59h0v-1.39h1ZM170,213.1a3,3,0,0,0-4.4,0,3.15,3.15,0,0,0-.88,2.25,3.11,3.11,0,0,0,.88,2.23,3,3,0,0,0,4.39,0,3.1,3.1,0,0,0,.9-2.23A3.17,3.17,0,0,0,170,213.1Z"/><path class="cls-1" d="M185.34,216.94a4.29,4.29,0,0,1-6.83,1.32,3.87,3.87,0,0,1-1.23-2.91,3.92,3.92,0,0,1,1.24-2.92,4.09,4.09,0,0,1,3-1.19,4.21,4.21,0,0,1,2.33.67,3.93,3.93,0,0,1,1.54,1.88h-1.1a2.9,2.9,0,0,0-2.75-1.66,3.12,3.12,0,0,0-2.28.92,3,3,0,0,0-.95,2.26,3.09,3.09,0,0,0,.93,2.28,3.12,3.12,0,0,0,2.29.93,2.85,2.85,0,0,0,2.75-1.59Z"/><path class="cls-1" d="M192.65,219.24V215a3.82,3.82,0,0,0-.17-1.16,2.21,2.21,0,0,0-.58-1,2.48,2.48,0,0,0-3.39,0,2.2,2.2,0,0,0-.57,1,3.7,3.7,0,0,0-.16,1.11v4.36h-1V208.69h1v3.75h0a2.65,2.65,0,0,1,2.4-1.2,3.22,3.22,0,0,1,2.55,1,3.9,3.9,0,0,1,.88,2.67v4.29Z"/><path class="cls-1" d="M202.15,218.22a4,4,0,0,1-5.73,0,3.86,3.86,0,0,1-1.21-2.84,4,4,0,0,1,1.18-2.92,3.86,3.86,0,0,1,2.88-1.23,4.08,4.08,0,0,1,2.88,7Zm-.69-5.14a2.92,2.92,0,0,0-2.18-.94,2.88,2.88,0,0,0-2.21,1,3.21,3.21,0,0,0-.88,2.26,3.08,3.08,0,0,0,.9,2.21,3,3,0,0,0,4.4,0,3.25,3.25,0,0,0,.86-2.28A3.08,3.08,0,0,0,201.46,213.08Z"/><path class="cls-1" d="M219.31,219.24v-4.52a3.06,3.06,0,0,0-.48-1.81,2.12,2.12,0,0,0-3.28,0,3,3,0,0,0-.49,1.81v4.52h-1v-4.52a3,3,0,0,0-.49-1.81,2.12,2.12,0,0,0-3.28,0,3,3,0,0,0-.49,1.81v4.52h-1v-7.79h1v.9a2.35,2.35,0,0,1,2.13-1.1,2.79,2.79,0,0,1,2.62,1.5,3.13,3.13,0,0,1,4.93-.53,3.47,3.47,0,0,1,.81,2.39v4.63Z"/><path class="cls-1" d="M228.8,218.22a4,4,0,0,1-5.73,0,3.86,3.86,0,0,1-1.21-2.84,4,4,0,0,1,1.18-2.92,3.86,3.86,0,0,1,2.88-1.23,4.08,4.08,0,0,1,2.88,7Zm-.69-5.14a2.92,2.92,0,0,0-2.18-.94,2.88,2.88,0,0,0-2.21,1,3.21,3.21,0,0,0-.88,2.26,3.08,3.08,0,0,0,.9,2.21,3,3,0,0,0,4.4,0,3.25,3.25,0,0,0,.86-2.28A3.08,3.08,0,0,0,228.11,213.08Zm-2.71,8.84v-1.8h1.06v1.8Z"/><path class="cls-1" d="M231.51,210.49v-1.8h1v1.8Zm0,8.75v-7.79h1v7.79Z"/><path class="cls-1" d="M243.19,219.24l-2.56-3.08-1.26,1.59v1.48h-1V208.69h1v7.52h0l3.64-4.76h1.28l-3.08,3.93,3.24,3.86Z"/><path class="cls-1" d="M251.27,219.24V215a3.82,3.82,0,0,0-.17-1.16,2.21,2.21,0,0,0-.58-1,2.48,2.48,0,0,0-3.39,0,2.2,2.2,0,0,0-.57,1,3.7,3.7,0,0,0-.16,1.11v4.36h-1V208.69h1v3.75h0a2.65,2.65,0,0,1,2.4-1.2,3.22,3.22,0,0,1,2.55,1,3.9,3.9,0,0,1,.88,2.67v4.29Z"/><path class="cls-1" d="M261.07,219.24v-1.37h0a3.4,3.4,0,0,1-3,1.56,4.1,4.1,0,0,1-3-1.18,4.1,4.1,0,0,1,0-5.85,4.13,4.13,0,0,1,3-1.16,3.35,3.35,0,0,1,3,1.57h0v-1.36h1v7.79Zm-.84-6.14a3,3,0,0,0-2.23-1,3.08,3.08,0,0,0-2.29.92,3.15,3.15,0,0,0-.9,2.3,3.06,3.06,0,0,0,.91,2.27,3.12,3.12,0,0,0,2.28.9,3,3,0,0,0,2.23-.94,3.1,3.1,0,0,0,.9-2.24A3.15,3.15,0,0,0,260.24,213.1ZM257,210.42l-.47-.82,2.84-1.56.45.86Z"/><path class="cls-1" d="M271.6,216.94a4.29,4.29,0,0,1-6.83,1.32,3.87,3.87,0,0,1-1.23-2.91,3.92,3.92,0,0,1,1.24-2.92,4.09,4.09,0,0,1,3-1.19,4.21,4.21,0,0,1,2.33.67,3.93,3.93,0,0,1,1.54,1.88h-1.1a2.9,2.9,0,0,0-2.75-1.66,3.12,3.12,0,0,0-2.28.92,3,3,0,0,0-.95,2.26,3.09,3.09,0,0,0,.93,2.28,3.12,3.12,0,0,0,2.29.93,2.85,2.85,0,0,0,2.75-1.59Z"/><path class="cls-1" d="M278.91,219.24V215a3.82,3.82,0,0,0-.17-1.16,2.21,2.21,0,0,0-.58-1,2.48,2.48,0,0,0-3.39,0,2.2,2.2,0,0,0-.57,1,3.7,3.7,0,0,0-.16,1.11v4.36h-1V208.69h1v3.75h0a2.65,2.65,0,0,1,2.4-1.2,3.22,3.22,0,0,1,2.55,1,3.9,3.9,0,0,1,.88,2.67v4.29Z"/><path class="cls-1" d="M291.55,219.24V215a3.82,3.82,0,0,0-.17-1.16,2.21,2.21,0,0,0-.58-1,2.48,2.48,0,0,0-3.39,0,2.2,2.2,0,0,0-.57,1,3.7,3.7,0,0,0-.16,1.11v4.36h-1V208.69h1v3.75h0a2.65,2.65,0,0,1,2.4-1.2,3.22,3.22,0,0,1,2.55,1,3.9,3.9,0,0,1,.88,2.67v4.29Z"/><path class="cls-1" d="M301.35,219.24v-1.37h0a3.4,3.4,0,0,1-3,1.56,4.1,4.1,0,0,1-3-1.18,4.1,4.1,0,0,1,0-5.85,4.13,4.13,0,0,1,3-1.16,3.35,3.35,0,0,1,3,1.57h0v-1.36h1v7.79Zm-.84-6.14a3,3,0,0,0-2.23-1,3.08,3.08,0,0,0-2.29.92,3.15,3.15,0,0,0-.9,2.3,3.06,3.06,0,0,0,.91,2.27,3.12,3.12,0,0,0,2.28.9,3,3,0,0,0,2.23-.94,3.1,3.1,0,0,0,.9-2.24A3.15,3.15,0,0,0,300.52,213.1Zm-1-2.68-2.82-1.52.45-.86L300,209.6Z"/><path class="cls-1" d="M310,219.24V215a3.82,3.82,0,0,0-.17-1.16,2.22,2.22,0,0,0-.58-1,2.48,2.48,0,0,0-3.39,0,2.2,2.2,0,0,0-.57,1,3.71,3.71,0,0,0-.16,1.11v4.36h-1v-7.79h1v1h0a2.65,2.65,0,0,1,2.4-1.2,3.22,3.22,0,0,1,2.55,1A3.9,3.9,0,0,1,311,215v4.29Z"/><path class="cls-1" d="M320.55,218q0,.45,0,.76a6.24,6.24,0,0,1-.09.73,3.31,3.31,0,0,1-.6,1.36,3.66,3.66,0,0,1-3.1,1.44,4.24,4.24,0,0,1-2.49-.74,3.77,3.77,0,0,1-1.5-2.12h1.06a2.89,2.89,0,0,0,2.92,2,2.74,2.74,0,0,0,2.07-.8,2.92,2.92,0,0,0,.75-2.1v-.69h0a2.81,2.81,0,0,1-1.27,1.21,3.76,3.76,0,0,1-1.73.4,3.93,3.93,0,0,1-2.88-1.18,3.89,3.89,0,0,1-1.2-2.87,4,4,0,0,1,1.18-2.92,3.9,3.9,0,0,1,2.9-1.22,3.36,3.36,0,0,1,3,1.59h0v-1.39h1Zm-1.83-4.91a3,3,0,0,0-4.4,0,3.15,3.15,0,0,0-.88,2.25,3.11,3.11,0,0,0,.88,2.23,3,3,0,0,0,4.39,0,3.1,3.1,0,0,0,.9-2.23A3.17,3.17,0,0,0,318.72,213.1Z"/></svg>