<svg xmlns="http://www.w3.org/2000/svg" xmlns:xlink="http://www.w3.org/1999/xlink" viewBox="0 0 1070 352"><defs><style>.cls-1{fill:none;}.cls-2{isolation:isolate;}.cls-3{fill:url(#linear-gradient);}.cls-4{clip-path:url(#clip-path);}.cls-5{opacity:0.26;}.cls-10,.cls-11,.cls-6{mix-blend-mode:screen;}.cls-10,.cls-7{fill:#76ffff;}.cls-8{opacity:0.4;}.cls-9{opacity:0.6;}.cls-11{opacity:0.2;}</style><linearGradient id="linear-gradient" x1="616.07" y1="345.43" x2="423.14" y2="-61.94" gradientUnits="userSpaceOnUse"><stop offset="0" stop-color="#10a8f5"/><stop offset="0.99" stop-color="#fff"/></linearGradient><clipPath id="clip-path"><rect class="cls-1" y="-3.5" width="1070" height="355.5"/></clipPath></defs><title>banner-BG</title><g class="cls-2"><g id="Layer_1" data-name="Layer 1"><rect class="cls-3" y="-3.5" width="1070" height="355.5"/><g class="cls-4"><g class="cls-5"><g class="cls-6"><path class="cls-7" d="M861.57,101.27,859.43,100l.38-.66,2.14,1.25Zm-3.35-2-2.14-1.25.38-.66,2.14,1.25Zm-3.35-2-2.14-1.25.38-.66,2.14,1.25Zm-3.35-2-2.14-1.25.38-.66,2.14,1.25Zm-3.35-2L846,92.22l.38-.66,2.14,1.25Zm-3.35-2-2.14-1.25.38-.66,2.14,1.25Zm-3.35-2-2.14-1.25.38-.66,2.14,1.25Zm-3.35-2L836,86.37l.38-.66L838.52,87Zm-3.35-2-2.14-1.25.38-.66L835.17,85Zm-3.35-2-2.14-1.25.38-.66,2.14,1.25Zm-3.35-2L826,80.51l.38-.66,2.14,1.25Zm-3.35-2-2.14-1.25.38-.66,2.14,1.25Zm-3.35-2-2.14-1.25.38-.66,2.14,1.25Zm-3.35-2-2.14-1.25.38-.66,2.14,1.25Z"/><path class="cls-7" d="M868.58,162.5l-.38-.66,2.14-1.25.38.66Zm3.34-2-.38-.66,2.14-1.25.38.66Zm3.34-2-.38-.66,2.14-1.25.38.66Zm3.34-2-.38-.66,2.14-1.25.38.66Zm3.34-2-.38-.66,2.14-1.25.38.66Zm3.34-2-.38-.66,2.14-1.25.38.66Zm3.34-2-.38-.66,2.14-1.25.38.66Zm3.34-2-.38-.66,2.14-1.25.38.66Zm3.34-2-.38-.66,2.14-1.25.38.66Zm3.34-2-.38-.66,2.14-1.25.38.66Zm3.34-2-.38-.66,2.14-1.25.38.66Zm3.34-2-.38-.66,2.14-1.25.38.66Zm3.34-2-.38-.66,2.14-1.25.38.66Zm3.34-2-.38-.66,2.14-1.25.38.66Z"/><path class="cls-7" d="M744.07,101.37l-.29-.7,2.26-1,.29.69Zm3.54-1.49-.29-.69,2.26-1,.29.69Zm3.54-1.49-.29-.7,2.26-1,.29.69Zm3.54-1.49-.29-.7,2.26-1,.29.7Zm3.54-1.49-.29-.7,2.26-1,.29.69Zm3.54-1.49-.29-.69,2.26-1L764,93Zm3.54-1.49-.29-.7,2.26-1,.29.69Zm3.54-1.49-.29-.69,2.26-1,.29.7Zm3.54-1.49-.29-.7,2.26-1,.29.69Zm3.54-1.49-.29-.69,2.26-1,.29.7Zm3.54-1.49-.29-.69,2.26-1,.29.69ZM783,85l-.29-.69,2.26-1,.29.7Zm3.54-1.49-.29-.69,2.26-1,.29.7ZM790.08,82l-.29-.69,2.26-1,.29.7Zm3.54-1.49-.29-.69,2.26-1,.29.69ZM797.16,79l-.29-.69,2.26-1,.29.69Zm3.54-1.49-.29-.69,2.26-1,.29.69ZM804.24,76,804,75.3l2.26-1,.29.69Zm3.54-1.49-.29-.69,2.26-1,.29.69ZM914.57,72l-2.16-1.3.39-.66,2.16,1.3Zm-98.92-1.31-.38-.67,2.19-1.26.38.67Zm95.54-.73L909,68.64l.39-.66,2.16,1.3Zm-92.11-1.24L818.7,68l2.19-1.26.38.67Zm88.74-.8-2.16-1.3.39-.66,2.16,1.3Zm-85.31-1.16-.38-.67,2.19-1.26.38.67Zm81.93-.88-2.16-1.3.39-.66,2.16,1.3Zm-78.5-1.09-.38-.67,2.19-1.26.38.67Zm75.13-1-2.16-1.3.39-.66,2.16,1.3Zm-71.7-1-.38-.67,2.19-1.26.38.67Zm68.32-1-2.16-1.3.39-.66,2.16,1.3Zm-64.9-.94-.38-.67,2.19-1.26.38.67Zm61.52-1.1-2.16-1.3.39-.66,2.16,1.3Zm-58.09-.86-.38-.67L838,57l.38.67Zm54.72-1.18-2.16-1.3.39-.66,2.16,1.3Zm-51.29-.78-.38-.67L841.47,55l.38.67Zm47.91-1.26-2.16-1.3.39-.66L888,55Zm-44.48-.71-.38-.67L844.9,53l.38.67Zm41.11-1.33L882,52.31l.39-.66,2.16,1.3ZM846.52,53l-.38-.67,2.19-1.26.38.67Zm34.3-1.41-2.16-1.3.39-.66,2.16,1.3ZM849.94,51l-.38-.67,2.19-1.26.38.67Zm27.5-1.48-2.16-1.3.39-.66,2.16,1.3Zm-24.07-.48-.38-.67,2.19-1.26.38.67Zm20.7-1.56-2.16-1.3.39-.66,2.16,1.3Zm-17.27-.41-.38-.67,2.19-1.26.38.67Zm13.89-1.63-2.16-1.3.39-.66,2.16,1.3Zm-10.46-.33-.38-.67L862,43.19l.38.67Z"/><path class="cls-7" d="M969.41,40.89v1.68H970l.61.62.52-.51-1.75-1.79Zm2.69,2.76-.52.51,1.67,1.71.52-.51-1.67-1.71Zm-2,.28h-.73v2.41h.73V43.93Zm4.59,2.4-.52.51,1.67,1.71.52-.51-1.67-1.71Zm-4.59,1.37h-.73v2.41h.73V47.7ZM977.35,49l-.52.51,1.67,1.71.52-.51L977.35,49Zm-7.21,2.45h-.73v2.41h.73V51.47Zm9.83.23-.52.51,1.67,1.71.52-.51L980,51.7Zm2.62,2.68-.52.51,1.67,1.71.52-.51-1.67-1.71Zm-12.45.86h-.73v2.41h.73V55.24Zm15.07,1.82-.52.51,1.67,1.71.52-.51-1.67-1.71ZM970.14,59h-.73v2.41h.73V59Zm17.69.74-.52.51L989,62l.52-.51-1.67-1.71Zm2.62,2.68-.52.51,1.67,1.71.52-.51-1.67-1.71Zm-20.31.35h-.73v2.41h.73V62.78Zm22.93,2.34-.52.51,1.67,1.71.52-.51-1.67-1.71Zm-22.93,1.43h-.73V69h.73V66.54Zm25.55,1.25-.52.51L996.85,70l.52-.51-1.67-1.71Zm-25.55,2.52h-.73v2.41h.73V70.31Zm28.17.16-.52.51,1.67,1.71.52-.51-1.67-1.71Zm2.62,2.68-.52.51,1.67,1.71.52-.51-1.67-1.71Zm-30.79.92h-.73v2.41h.73V74.08Zm33.41,1.76-.52.51,1.67,1.71.52-.51-1.67-1.71Zm-33.41,2h-.73v2.41h.73V77.85Zm36,.67-.52.51,1.67,1.71.52-.51-1.67-1.71Zm2.62,2.68-.52.51,1.67,1.71.52-.51-1.67-1.71Zm-38.65.41h-.73V84h.73V81.62Zm41.28,2.27-.52.51,1.67,1.71.52-.51-1.67-1.71Zm-41.28,1.5h-.73v2.41h.73V85.39Zm43.9,1.18-.52.51,1.67,1.71.52-.51L1014,86.57Zm-43.9,2.58h-.73v2.41h.73V89.15Zm46.52.1-.52.51,1.67,1.71.52-.51-1.67-1.71Zm2.62,2.68-.52.51,1.67,1.71.52-.51-1.67-1.71Zm-49.14,1h-.73v2.41h.73V92.92Zm51.76,1.7-.52.51,1.67,1.71.52-.51-1.67-1.71Zm-51.76,2.07h-.73V99.1h.73V96.69Zm54.38.61-.52.51,1.67,1.71.52-.51-1.67-1.71Zm2.62,2.68-.52.51.55.56.52-.51-.55-.56Z"/><path class="cls-7" d="M793.13,42.53h-2.47v-.76h2.47Zm-3.86,0h-2.47v-.76h2.47Zm-3.86,0h-2.47v-.76h2.47Zm-3.86,0h-2.47v-.76h2.47Zm-3.86,0H775.2v-.76h2.47Zm-3.86,0h-2.47v-.76h2.47Zm-3.86,0h-2.47v-.76h2.47Zm-3.86,0h-2.47v-.76h2.47Zm-3.86,0h-2.47v-.76h2.47Z"/><path class="cls-7" d="M814.89,131.37l-.38-.68,2.23-1.26.38.68Zm3.49-2-.38-.68,2.23-1.26.38.68Zm3.49-2-.38-.68,2.23-1.26.38.68Zm3.49-2-.38-.68,2.23-1.26.38.68Zm3.49-2-.38-.68,2.23-1.26.38.68Zm3.49-2-.38-.68,2.23-1.26.38.68Zm3.49-2-.38-.68,2.23-1.26.38.68Zm3.49-2-.38-.68,2.23-1.26.38.68Zm3.49-2-.38-.68,2.23-1.26.38.68Zm3.49-2-.38-.68,2.23-1.26.38.68Zm3.49-2-.38-.68,2.23-1.26.38.68Zm3.49-2-.38-.68,2.23-1.26.38.68Zm3.49-2-.38-.68,2.23-1.26.38.68Zm3.49-2-.38-.68,2.23-1.26.38.68Z"/></g><g class="cls-6"><polygon class="cls-7" points="847.7 72.92 812.45 72.92 794.67 41.82 812.3 10.99 813.23 11.53 795.91 41.82 813.07 71.83 847.7 71.83 847.7 72.92"/><polygon class="cls-7" points="848.17 194.88 847.24 194.34 864.71 163.78 865.64 164.33 848.17 194.88"/><path class="cls-7" d="M900.29,103.48H864.73L847,72.38l17.78-31.1h35.56l17.78,31.1Zm-34.94-1.08h34.32l17.16-30-17.16-30H865.35l-17.16,30Z"/><polygon class="cls-7" points="900.29 164.6 864.74 164.6 847.11 133.77 848.04 133.22 865.36 163.51 899.67 163.51 916.83 133.5 899.52 103.21 900.45 102.67 918.07 133.5 900.29 164.6"/><polygon class="cls-7" points="848.01 134.04 812.45 134.04 794.67 102.94 812.45 71.83 847.7 71.83 847.7 72.92 813.07 72.92 795.91 102.94 813.07 132.95 847.39 132.95 864.71 102.67 865.64 103.21 848.01 134.04"/><polygon class="cls-7" points="952.78 133.77 951.86 133.22 969.17 102.94 952.01 72.92 917.38 72.92 917.38 71.83 952.63 71.83 970.41 102.94 952.78 133.77"/><polygon class="cls-7" points="952.78 72.65 951.86 72.11 969.33 41.55 970.25 42.09 952.78 72.65"/><rect class="cls-7" x="969.79" y="102.39" width="59.71" height="1.08"/><rect class="cls-7" x="741.72" y="102.39" width="53.57" height="1.08"/></g><g class="cls-6"><ellipse class="cls-7" cx="847.7" cy="133.5" rx="1.74" ry="1.76"/><ellipse class="cls-7" cx="812.76" cy="133.5" rx="1.74" ry="1.76"/><ellipse class="cls-7" cx="847.7" cy="194.62" rx="1.74" ry="1.76"/><ellipse class="cls-7" cx="865.17" cy="102.94" rx="1.74" ry="1.76"/><ellipse class="cls-7" cx="865.17" cy="164.06" rx="1.74" ry="1.76"/><ellipse class="cls-7" cx="900.27" cy="102.94" rx="1.74" ry="1.76"/><ellipse class="cls-7" cx="900.27" cy="41.82" rx="1.74" ry="1.76"/><ellipse class="cls-7" cx="865.04" cy="41.82" rx="1.74" ry="1.76"/><ellipse class="cls-7" cx="969.79" cy="102.94" rx="1.74" ry="1.76"/><ellipse class="cls-7" cx="1029.5" cy="102.94" rx="1.74" ry="1.76"/><ellipse class="cls-7" cx="795.29" cy="102.94" rx="1.74" ry="1.76"/><ellipse class="cls-7" cx="741.72" cy="102.94" rx="1.74" ry="1.76"/><ellipse class="cls-7" cx="847.7" cy="72.38" rx="1.74" ry="1.76"/><ellipse class="cls-7" cx="812.76" cy="72.38" rx="1.74" ry="1.76"/><ellipse class="cls-7" cx="952.27" cy="72.38" rx="1.74" ry="1.76"/><ellipse class="cls-7" cx="969.79" cy="41.82" rx="1.74" ry="1.76"/><ellipse class="cls-7" cx="917.33" cy="72.38" rx="1.74" ry="1.76"/><ellipse class="cls-7" cx="900.27" cy="164.06" rx="1.74" ry="1.76"/><ellipse class="cls-7" cx="917.33" cy="133.5" rx="1.74" ry="1.76"/><ellipse class="cls-7" cx="952.27" cy="133.5" rx="1.74" ry="1.76"/><ellipse class="cls-7" cx="795.29" cy="41.82" rx="1.74" ry="1.76"/><ellipse class="cls-7" cx="812.76" cy="11.76" rx="1.74" ry="1.76"/></g><g class="cls-6"><path class="cls-7" d="M882.1,57.76a.33.33,0,0,0-.35,0,.34.34,0,0,0-.19.3v2.89a12,12,0,0,0-11.24,11.89,11.83,11.83,0,0,0,3.07,7.94.33.33,0,0,0,.23.11.31.31,0,0,0,.2-.07l2.78-2.2a.32.32,0,0,0,.12-.23.33.33,0,0,0-.09-.25,7.54,7.54,0,0,1-2.16-5.3,7.68,7.68,0,0,1,7.11-7.6v2.89a.33.33,0,0,0,.19.29.33.33,0,0,0,.35,0l3.25-2.59.06,0,1.25-1,1.93-1.54a.34.34,0,0,0,.13-.27.32.32,0,0,0-.13-.26Z"/><path class="cls-7" d="M890.37,64.4l-3,2.37a.34.34,0,0,0-.13.25.32.32,0,0,0,.1.25,7.52,7.52,0,0,1,2.43,5.55,7.65,7.65,0,0,1-7.57,7.62v-3a.33.33,0,0,0-.54-.26l-3.17,2.47a.32.32,0,0,0-.15.1v0l-3,2.31a.32.32,0,0,0-.12.25.33.33,0,0,0,.12.26l6.29,5.18a.35.35,0,0,0,.21.08.33.33,0,0,0,.14,0,.32.32,0,0,0,.19-.29v-2.8a12,12,0,0,0,12.09-11.92,11.81,11.81,0,0,0-3.5-8.4A.35.35,0,0,0,890.37,64.4Z"/></g><g class="cls-6"><g class="cls-8"><path class="cls-7" d="M983.6,49.53l1.25,1.32a.55.55,0,0,0,.86-.07,19.45,19.45,0,0,0-16.62-30.2,19.65,19.65,0,0,0-2.19.2,19.48,19.48,0,0,0-12.43,31,.55.55,0,0,0,.86,0l1.16-1.39a.56.56,0,0,0,0-.69,16.39,16.39,0,1,1,27-.9A.56.56,0,0,0,983.6,49.53Z"/></g><g class="cls-9"><path class="cls-7" d="M979.08,44.51l1.5,1.57a.62.62,0,0,0,1-.17A13.23,13.23,0,0,0,972,27.38a12.91,12.91,0,0,0-5.36.18,13.24,13.24,0,0,0-8.39,19.12.63.63,0,0,0,1,.11l1.39-1.67a.64.64,0,0,0,.09-.67A10,10,0,0,1,966,31.17a9.81,9.81,0,0,1,6.74-.22A10,10,0,0,1,979,43.85.64.64,0,0,0,979.08,44.51Z"/></g><path class="cls-7" d="M981.1,56.83l-.18-5.43c0-.37-.13-1.6-1.17-1.94a1.8,1.8,0,0,0-1.36.11h-.12a1.57,1.57,0,0,0-1.33-1.19,2.14,2.14,0,0,0-1.67.4,1.77,1.77,0,0,0-1.92-1,2.19,2.19,0,0,0-1.51.88l-.15-4.63c0-.91-.09-1.82-.09-2.72a1.92,1.92,0,0,0-1.89-1.7,2,2,0,0,0-1.47.69,2.18,2.18,0,0,0-.42,1.54v8.37c0,.19.08,4.46.08,4.46-.37-.36-.78-.76-1.15-1.15A6,6,0,0,0,963.31,52a1.67,1.67,0,0,0-1.21.26,2.57,2.57,0,0,0-.25.23,1.77,1.77,0,0,0-.49,2,2.1,2.1,0,0,0,.74.61,5.06,5.06,0,0,1,1.55,1.1c.85,1,2.81,3.31,4,4.53.25.14.77.64,1,.76a9.06,9.06,0,0,1,1.57,1.11,8.75,8.75,0,0,0,5,1.48c1.62-.05,3.1,0,4.16-1h.06l0-.07a5.47,5.47,0,0,0,1.67-4.08Z"/><path class="cls-7" d="M969.58,35.5a4.57,4.57,0,0,0-4.39,4.73,4.62,4.62,0,0,0,1.43,3.37V41.67a3.13,3.13,0,0,1,.68-2,3.08,3.08,0,0,1,5.41,1.22,3.13,3.13,0,0,1,.09.73v2a4.75,4.75,0,0,0-3.23-8.18Z"/></g><g class="cls-6"><path class="cls-7" d="M882.78,128.6a16.32,16.32,0,0,0-11.35,4.58,2.54,2.54,0,0,0,1.73,4.38,2.49,2.49,0,0,0,1.73-.7,11.37,11.37,0,0,1,15.74,0,2.5,2.5,0,0,0,3.56-.1,2.56,2.56,0,0,0-.1-3.59A16.33,16.33,0,0,0,882.78,128.6Z"/><path class="cls-7" d="M899.4,126.19a24,24,0,0,0-33.27.05,2.54,2.54,0,0,0,1.73,4.38,2.49,2.49,0,0,0,1.73-.7,19,19,0,0,1,26.35,0,2.51,2.51,0,0,0,3.55-.1,2.56,2.56,0,0,0-.1-3.59Z"/><path class="cls-7" d="M883.19,137.83a5,5,0,1,0,4.91,5A4.94,4.94,0,0,0,883.19,137.83Zm0,5s-.07,0-.07,0a0,0,0,0,1,0,0A0,0,0,0,1,883.22,142.79Z"/></g><path class="cls-10" d="M845.35,29.78,842.58,27A4.47,4.47,0,0,0,839,25.72a5.61,5.61,0,0,0-3.49,1.68l-5.31,5.36a2.06,2.06,0,0,0-.3.38,4.72,4.72,0,0,0-1.76-.19,5.61,5.61,0,0,0-3.49,1.68l-8.47,8.55a5.73,5.73,0,0,0-1.66,3.45,4.51,4.51,0,0,0,1.25,3.68l2.77,2.79a4.4,4.4,0,0,0,3.16,1.29l.49,0a5.63,5.63,0,0,0,3.42-1.67l4.84-4.89a2,2,0,0,0,.53-.93,4.61,4.61,0,0,0,1.58.28,5.57,5.57,0,0,0,3.91-1.7l8.47-8.55a5.73,5.73,0,0,0,1.66-3.46A4.51,4.51,0,0,0,845.35,29.78Zm-15.84,10.4a.53.53,0,0,1-.08-.38,1.63,1.63,0,0,1,.49-1,2,2,0,0,0,.28-.36l1.42,1.43a.53.53,0,0,1,.08.38,1.63,1.63,0,0,1-.49,1,2,2,0,0,0-.28.36Zm5-3.17-1.38-1.39,5.27-5.32a1.62,1.62,0,0,1,.92-.49.5.5,0,0,1,.4.08l2.77,2.79a.53.53,0,0,1,.08.38,1.63,1.63,0,0,1-.49,1l-6.31,6.37A4.47,4.47,0,0,0,834.5,37Zm-6.91,7.9-4.84,4.89a1.6,1.6,0,0,1-.94.49.49.49,0,0,1-.38-.08l-2.77-2.8a.53.53,0,0,1-.08-.38,1.63,1.63,0,0,1,.49-1l6.31-6.37a4.46,4.46,0,0,0,1.26,3.37l1.45,1.46A2,2,0,0,0,827.59,44.92Z"/><g class="cls-6"><path class="cls-7" d="M1021.9,156.19a.83.83,0,0,1-.77-.51,17.83,17.83,0,0,1-1.38-6.92.83.83,0,1,1,1.66,0,16.15,16.15,0,0,0,1.25,6.27.84.84,0,0,1-.44,1.1A.83.83,0,0,1,1021.9,156.19Z"/><path class="cls-7" d="M1052.31,158.17a.82.82,0,0,1-.35-.08.84.84,0,0,1-.4-1.12,16.09,16.09,0,0,0,1.39-4.82.83.83,0,1,1,1.65.21,17.83,17.83,0,0,1-1.53,5.33A.83.83,0,0,1,1052.31,158.17Z"/><path class="cls-7" d="M1054.14,149.6a.83.83,0,0,1-.83-.84,16.09,16.09,0,0,0-9.74-14.84.84.84,0,0,1-.44-1.1.83.83,0,0,1,1.09-.45A17.77,17.77,0,0,1,1055,148.76.84.84,0,0,1,1054.14,149.6Z"/><path class="cls-7" d="M1021.51,144a.82.82,0,0,1-.27,0,.84.84,0,0,1-.51-1.07A17.64,17.64,0,0,1,1037.36,131a.84.84,0,0,1,0,1.68,16,16,0,0,0-15.07,10.81A.83.83,0,0,1,1021.51,144Z"/><path class="cls-7" d="M1024,151.25a.83.83,0,0,1-.82-.74,14.75,14.75,0,0,1-.11-1.75,14.48,14.48,0,0,1,7.09-12.45.83.83,0,0,1,1.14.3.84.84,0,0,1-.3,1.15,12.8,12.8,0,0,0-6.27,11,13.12,13.12,0,0,0,.09,1.55.84.84,0,0,1-.72.93Z"/><path class="cls-7" d="M1045.61,138.9a.82.82,0,0,1-.51-.18,12.39,12.39,0,0,0-7.74-2.68,12.58,12.58,0,0,0-1.82.13.84.84,0,0,1-.24-1.66,14.3,14.3,0,0,1,2.06-.15,14,14,0,0,1,8.76,3,.85.85,0,0,1,.14,1.18A.83.83,0,0,1,1045.61,138.9Z"/><path class="cls-7" d="M1046.19,164a.83.83,0,0,1-.53-.19.85.85,0,0,1-.12-1.18c4.32-5.32,6.39-14.55,2.39-20.79a.85.85,0,0,1,.25-1.16.83.83,0,0,1,1.15.25,17.29,17.29,0,0,1,2.21,11.77,23,23,0,0,1-4.71,11A.83.83,0,0,1,1046.19,164Z"/><path class="cls-7" d="M1038.22,154.7a.83.83,0,0,1-.83-.81,21.3,21.3,0,0,0-.68-4.66.84.84,0,0,1,.59-1,.83.83,0,0,1,1,.59,23,23,0,0,1,.73,5,.84.84,0,0,1-.8.87Z"/><path class="cls-7" d="M1036.29,166.54a.84.84,0,0,1-.77-1.15,29.33,29.33,0,0,0,2-8.64.83.83,0,1,1,1.66.12,31.07,31.07,0,0,1-2.11,9.14A.83.83,0,0,1,1036.29,166.54Z"/><path class="cls-7" d="M1024.23,160.15a.82.82,0,0,1-.23,0,.84.84,0,0,1-.57-1,13.13,13.13,0,0,0,.37-5.13.83.83,0,1,1,1.65-.21,14.84,14.84,0,0,1-.42,5.8A.83.83,0,0,1,1024.23,160.15Z"/><path class="cls-7" d="M1047.53,149.6a.84.84,0,0,1-.83-.84,9.46,9.46,0,0,0-4.06-7.78.84.84,0,0,1-.21-1.17.83.83,0,0,1,1.16-.22,11.15,11.15,0,0,1,4.78,9.17A.83.83,0,0,1,1047.53,149.6Z"/><path class="cls-7" d="M1027.19,149.6a.83.83,0,0,1-.83-.84,11.07,11.07,0,0,1,11-11.11,10.78,10.78,0,0,1,1.13.06.84.84,0,0,1-.17,1.67c-.32,0-.64,0-1,0a9.39,9.39,0,0,0-9.34,9.43A.84.84,0,0,1,1027.19,149.6Z"/><path class="cls-7" d="M1026.93,162.87a.8.8,0,0,1-.29-.05.84.84,0,0,1-.49-1.08,16.48,16.48,0,0,0,.58-9.49.84.84,0,0,1,.61-1,.83.83,0,0,1,1,.62,18.2,18.2,0,0,1,.49,4.18,18,18,0,0,1-1.12,6.28A.83.83,0,0,1,1026.93,162.87Z"/><path class="cls-7" d="M1039.57,166.6a.83.83,0,0,1-.69-.36.85.85,0,0,1,.21-1.17,18,18,0,0,0,7.58-12.56.83.83,0,1,1,1.65.22,19.62,19.62,0,0,1-8.28,13.72A.82.82,0,0,1,1039.57,166.6Z"/><path class="cls-7" d="M1031.38,146.45a.82.82,0,0,1-.38-.1.84.84,0,0,1-.35-1.13,7.53,7.53,0,0,1,11.82-2.12.84.84,0,0,1,.05,1.19.83.83,0,0,1-1.17.06,5.88,5.88,0,0,0-9.22,1.66A.83.83,0,0,1,1031.38,146.45Z"/><path class="cls-7" d="M1031.68,157.71a.84.84,0,0,1-.83-.84,27.1,27.1,0,0,0-1-7.09.84.84,0,0,1,.58-1,.83.83,0,0,1,1,.59,28.77,28.77,0,0,1,1,7.54.83.83,0,0,1-.83.84Z"/><path class="cls-7" d="M1030.1,164.86a.82.82,0,0,1-.34-.08.84.84,0,0,1-.41-1.11,15.24,15.24,0,0,0,1.14-3.8.83.83,0,1,1,1.64.27,16.94,16.94,0,0,1-1.27,4.22A.83.83,0,0,1,1030.1,164.86Z"/><path class="cls-7" d="M1044.81,153.95h-.05a.84.84,0,0,1-.78-.89,14.7,14.7,0,0,0-.78-5.77.84.84,0,0,1,.51-1.07.83.83,0,0,1,1.06.51,16.42,16.42,0,0,1,.87,6.43A.84.84,0,0,1,1044.81,153.95Z"/><path class="cls-7" d="M1033,166a.81.81,0,0,1-.34-.07.84.84,0,0,1-.42-1.11,21.37,21.37,0,0,0,1-2.74.83.83,0,0,1,1-.57.84.84,0,0,1,.57,1,23.12,23.12,0,0,1-1.07,3A.83.83,0,0,1,1033,166Z"/><path class="cls-7" d="M1034.6,160.5h-.13a.84.84,0,0,1-.7-1,19.06,19.06,0,0,0,.17-4c0-.64-.11-1.28-.22-1.91a.83.83,0,1,1,1.64-.27,20.81,20.81,0,0,1,0,6.43A.83.83,0,0,1,1034.6,160.5Z"/><path class="cls-7" d="M1041.9,155a.84.84,0,0,1-.83-.84c0-2.81-.78-8.14-3.71-8.14a2.71,2.71,0,0,0-2.69,2.72c0,.05,0,.1,0,.15a.83.83,0,1,1-1.66.09c0-.08,0-.16,0-.25a4.38,4.38,0,0,1,4.36-4.4c4,0,5.37,5.29,5.37,9.82A.84.84,0,0,1,1041.9,155Z"/><path class="cls-7" d="M1040.31,162.58a.83.83,0,0,1-.34-.07.84.84,0,0,1-.42-1.11,17.79,17.79,0,0,0,1.31-4.48.83.83,0,1,1,1.64.26,19.42,19.42,0,0,1-1.43,4.91A.83.83,0,0,1,1040.31,162.58Z"/></g><g class="cls-6"><path class="cls-7" d="M937.49,243A39.14,39.14,0,1,1,976.43,204,39,39,0,0,1,937.49,243Zm.36-74.06A34.92,34.92,0,1,0,972.26,204,34.78,34.78,0,0,0,937.85,168.93Z"/><path class="cls-7" d="M937.45,251.22c-25.86-.13-46.8-21.48-46.68-47.6l3.6,0c-.12,24.12,19.22,43.83,43.09,44s43.4-19.41,43.52-43.52-19.22-43.83-43.09-44l0-3.63c25.86.13,46.8,21.48,46.68,47.6S963.31,251.34,937.45,251.22Z"/><path class="cls-7" d="M976.54,243.75,974,241.16a52.62,52.62,0,0,0,.36-73.81l2.56-2.56A56.28,56.28,0,0,1,976.54,243.75Z"/><rect class="cls-7" x="1000.91" y="189.59" width="0.36" height="19.48" transform="translate(796.85 1199.42) rotate(-89.72)"/><rect class="cls-7" x="1001.29" y="195.33" width="0.36" height="39.21" transform="translate(781.6 1215.34) rotate(-89.72)"/><rect class="cls-7" x="998.34" y="195.6" width="0.36" height="66.54" transform="translate(764.73 1226.25) rotate(-89.72)"/><ellipse class="cls-7" cx="1010.83" cy="199.55" rx="2.15" ry="2.13" transform="translate(806.23 1209.37) rotate(-89.71)"/><ellipse class="cls-7" cx="1021.08" cy="214.75" rx="2.15" ry="2.13" transform="translate(801.21 1234.74) rotate(-89.71)"/><ellipse class="cls-7" cx="1031.79" cy="229.03" rx="2.15" ry="2.13" transform="translate(797.61 1259.67) rotate(-89.71)"/><path class="cls-7" d="M953.4,195.19h-2.67v-3.45a12.87,12.87,0,0,0-25.74,0v3.45h-2.42a2.55,2.55,0,0,0-2.54,2.56v25a2.55,2.55,0,0,0,2.54,2.56H953.4a2.55,2.55,0,0,0,2.54-2.56v-25A2.55,2.55,0,0,0,953.4,195.19Zm-12.87,18.88a2.54,2.54,0,1,1-5.08,0v-7.61a2.54,2.54,0,1,1,5.08,0Zm5.13-18.88H930.07v-3.45a7.8,7.8,0,0,1,15.59,0Z"/></g><g class="cls-6"><path class="cls-7" d="M841.66,140.86l13,22.75-13,22.75h-26l-13-22.75,13-22.75Zm.69-1.21H815l-13.7,24,13.7,24h27.4l13.7-24-13.7-24Z"/><path class="cls-10" d="M830.8,165.13h-1c-.1,0-.15-.11-.16-.14a8.14,8.14,0,0,0-.39-.93.16.16,0,0,1,0-.18l.7-.71a1.42,1.42,0,0,0,0-2l-1.52-1.54a1.4,1.4,0,0,0-1-.41h0a1.39,1.39,0,0,0-1,.41l-.71.72c-.06.06-.15,0-.18,0a8.09,8.09,0,0,0-.92-.39s-.13-.05-.13-.15v-1a1.41,1.41,0,0,0-1.4-1.41H821a1.41,1.41,0,0,0-1.4,1.41v1c0,.1-.1.14-.13.15a7.92,7.92,0,0,0-.92.39s-.12.05-.18,0l-.71-.72a1.4,1.4,0,0,0-1-.41h0a1.4,1.4,0,0,0-1,.41l-1.52,1.54a1.42,1.42,0,0,0,0,2l.7.71a.16.16,0,0,1,0,.18,8.15,8.15,0,0,0-.39.93s-.06.14-.16.14h-1a1.41,1.41,0,0,0-1.4,1.41v2.17a1.41,1.41,0,0,0,1.4,1.41h1a.15.15,0,0,1,.14.09,8,8,0,0,0,.42,1,.12.12,0,0,1,0,.14l-.69.69a1.42,1.42,0,0,0,0,2l1.52,1.54a1.4,1.4,0,0,0,1,.41h0a1.4,1.4,0,0,0,1-.41l.68-.68a.12.12,0,0,1,.14,0,8.08,8.08,0,0,0,1,.43.16.16,0,0,1,.1.16v.94a1.41,1.41,0,0,0,1.4,1.41h2.15a1.41,1.41,0,0,0,1.4-1.41v-.94a.16.16,0,0,1,.1-.16,7.91,7.91,0,0,0,1-.43.12.12,0,0,1,.14,0l.68.68a1.4,1.4,0,0,0,1,.41h0a1.4,1.4,0,0,0,1-.41l1.52-1.54a1.42,1.42,0,0,0,0-2l-.69-.69a.13.13,0,0,1,0-.14,8.21,8.21,0,0,0,.43-1,.14.14,0,0,1,.14-.09h1a1.41,1.41,0,0,0,1.4-1.41v-2.17A1.41,1.41,0,0,0,830.8,165.13Zm-4.81,2.5a3.91,3.91,0,1,1-3.91-3.95A3.93,3.93,0,0,1,826,167.63ZM843.33,157h-.67c-.07,0-.1-.07-.11-.1a5.53,5.53,0,0,0-.26-.64.11.11,0,0,1,0-.12l.48-.49a1,1,0,0,0,0-1.37l-1-1.06a1,1,0,0,0-.68-.28h0a1,1,0,0,0-.68.28l-.49.49s-.1,0-.12,0a5.35,5.35,0,0,0-.63-.26s-.09,0-.09-.1v-.69a1,1,0,0,0-1-1H836.6a1,1,0,0,0-1,1v.69c0,.07-.07.1-.09.1a5.52,5.52,0,0,0-.63.26s-.08,0-.12,0l-.49-.49a1,1,0,0,0-.68-.28h0a1,1,0,0,0-.68.28l-1,1.06a1,1,0,0,0,0,1.37l.48.49a.11.11,0,0,1,0,.12,5.42,5.42,0,0,0-.27.64s0,.1-.11.1h-.67a1,1,0,0,0-1,1v1.49a1,1,0,0,0,1,1H832a.1.1,0,0,1,.1.06,5.57,5.57,0,0,0,.29.71.09.09,0,0,1,0,.1l-.47.48a1,1,0,0,0,0,1.37l1,1.06a1,1,0,0,0,.68.28h0a1,1,0,0,0,.68-.28l.47-.47a.08.08,0,0,1,.09,0,5.61,5.61,0,0,0,.71.3.11.11,0,0,1,.07.11v.64a1,1,0,0,0,1,1h1.48a1,1,0,0,0,1-1v-.64a.11.11,0,0,1,.07-.11,5.5,5.5,0,0,0,.71-.3.08.08,0,0,1,.1,0l.46.47a1,1,0,0,0,.68.28h0a1,1,0,0,0,.68-.28l1-1.06a1,1,0,0,0,0-1.37l-.47-.48a.09.09,0,0,1,0-.1,5.59,5.59,0,0,0,.29-.71.1.1,0,0,1,.1-.06h.65a1,1,0,0,0,1-1V158A1,1,0,0,0,843.33,157Zm-3.3,1.72a2.69,2.69,0,1,1-2.69-2.71A2.7,2.7,0,0,1,840,158.77Z"/></g><g class="cls-11"><path class="cls-7" d="M952.61,73.06H917.16l-17.72-31,17.72-31h35.45l17.72,31ZM917.78,72H952l17.1-29.92L952,12.14H917.78l-17.1,29.92Z"/></g><g class="cls-11"><path class="cls-7" d="M847.88,256.36H812.43l-17.72-31,17.72-31h35.45l17.72,31Zm-34.83-1.08h34.21l17.11-29.92-17.11-29.92H813.05l-17.1,29.92Z"/></g><g class="cls-11"><path class="cls-7" d="M1057.3,73.3h-35.44l-17.72-31,17.72-31h35.44l17.72,31Zm-34.83-1.08h34.21l17.1-29.92-17.1-29.92h-34.21l-17.1,29.92Z"/></g><g class="cls-11"><path class="cls-7" d="M1057.3,264.61h-35.44l-17.72-31,17.72-31h35.44l17.72,31Zm-34.83-1.08h34.21l17.1-29.92-17.1-29.92h-34.21l-17.1,29.92Z"/></g></g><g class="cls-6"><polygon class="cls-7" points="141.48 359.89 121.99 359.89 112.13 342.64 121.88 325.59 122.55 325.99 113.03 342.64 122.44 359.1 141.48 359.1 141.48 359.89"/><path class="cls-7" d="M170.54,376.74H150.82L141,359.49l9.86-17.24h19.72l9.86,17.24ZM151.27,376h18.82l9.41-16.46L170.09,343H151.27l-9.41,16.46Z"/><polygon class="cls-7" points="199.39 359.89 198.72 359.49 208.47 342.45 209.14 342.84 199.39 359.89"/></g><g class="cls-6"><path class="cls-7" d="M108.91,304.73l9.42,16.48-9.42,16.49H90.06l-9.42-16.49,9.42-16.48Zm.49-.85H89.58l-9.91,17.33,9.91,17.33H109.4l9.91-17.33-9.91-17.33Z"/></g><g class="cls-6"><ellipse class="cls-7" cx="151.31" cy="342.6" rx="1.26" ry="1.27"/><ellipse class="cls-7" cx="208.81" cy="342.6" rx="1.26" ry="1.27"/><ellipse class="cls-7" cx="112.61" cy="342.6" rx="1.26" ry="1.27"/><ellipse class="cls-7" cx="122.45" cy="325.84" rx="1.26" ry="1.27"/></g><g class="cls-6"><path class="cls-7" d="M114.65,343.21l-.25.43,1.39.83L116,344l-1.39-.83Zm2.18,1.3-.25.43,1.39.83.25-.43-1.39-.83Zm2.18,1.3-.25.43,1.39.83.25-.43-1.39-.83Zm2.18,1.3-.25.43,1.39.83.25-.43-1.39-.83Zm2.18,1.3-.25.43,1.39.83.25-.43-1.39-.83Zm2.18,1.3-.25.43,1.39.83.25-.43-1.39-.83Zm2.18,1.3-.25.43,1.39.83.25-.43-1.39-.83Zm2.18,1.3-.25.43,1.39.83.25-.43-1.39-.83Zm2.18,1.3-.25.43,1.39.83.25-.43-1.39-.83Zm2.18,1.3-.25.43,1.39.83.25-.43-1.39-.83Zm2.18,1.3-.25.43,1.39.83.25-.43-1.39-.83Zm2.18,1.3-.25.43,1.39.83.25-.43-1.39-.83Z"/></g><path class="cls-10" d="M152.95,375.53l-.26-.45,1.47-.86.26.45Zm2.3-1.34-.26-.45,1.47-.86.26.45Zm2.3-1.34-.26-.45,1.47-.86.26.45Zm2.3-1.34-.26-.45,1.47-.86.26.45Zm2.3-1.34-.26-.45,1.47-.86.26.45Zm2.3-1.34-.26-.45,1.47-.86.26.45Zm2.3-1.34-.26-.45,1.47-.86.26.45Zm2.3-1.34-.26-.45,1.47-.86.26.45Zm2.3-1.34-.26-.45,1.47-.86.26.45Zm2.3-1.34-.26-.45,1.47-.86.26.45Zm2.3-1.34-.26-.45,1.47-.86.26.45Zm2.3-1.34-.26-.45,1.47-.86.26.45Zm2.3-1.34-.26-.45,1.47-.86.26.45Zm2.3-1.34-.26-.45,1.47-.86.26.45Zm2.3-1.34-.26-.45,1.47-.86.26.45Zm2.3-1.34-.26-.45,1.47-.86.26.45Zm2.3-1.34-.26-.45,1.47-.86.26.45Zm2.3-1.34-.26-.45,1.47-.86.26.45Zm2.3-1.34L194,351l1.47-.86.26.45Zm2.3-1.34-.26-.45,1.47-.86.26.45Zm2.3-1.34-.26-.45,1.47-.86.26.45Zm2.3-1.34-.26-.45,1.47-.86.26.45Zm2.3-1.34-.26-.45,1.47-.86.26.45Zm2.3-1.34-.26-.45,1.47-.86.26.45Z"/><path class="cls-10" d="M226.64,334,222,328.48a6.91,6.91,0,1,0-5.22,2.41,6.82,6.82,0,0,0,2.86-.63l4.74,5.63a1.46,1.46,0,0,0,2.07.17A1.49,1.49,0,0,0,226.64,334Zm-9.84-14.25a4.18,4.18,0,1,1-4.14,4.18A4.16,4.16,0,0,1,216.8,319.71Z"/><g class="cls-6"><path class="cls-7" d="M174.89,254.29a1.46,1.46,0,0,0-.46-.29l-.74-.29a48.45,48.45,0,0,0-35.7,0l-.17.07a3.38,3.38,0,0,0-2.14,3.16v28a3.14,3.14,0,0,0,1.39,2.61L154.2,299a2.94,2.94,0,0,0,3.29,0l17.07-11.45a3.26,3.26,0,0,0,1.44-2.72v-29.1A1.49,1.49,0,0,0,174.89,254.29Zm-36.25,2.57a.29.29,0,0,1,.18-.27,46.21,46.21,0,0,1,34,0l.18.07v28.18a.29.29,0,0,1-.13.24L156,296.43a.29.29,0,0,1-.32,0l-16.92-11.35a.29.29,0,0,1-.13-.24Z"/></g><g class="cls-6"><path class="cls-7" d="M228.29,343.08H208.57l-9.86-17.24,9.86-17.24h19.72l9.86,17.24ZM209,342.3h18.82l9.41-16.46-9.41-16.46H209l-9.41,16.46Z"/></g></g></g></g></svg>