<?xml version="1.0" encoding="utf-8"?>
<!-- Generator: Adobe Illustrator 21.1.0, SVG Export Plug-In . SVG Version: 6.00 Build 0)  -->
<svg version="1.1" id="Layer_1" xmlns="http://www.w3.org/2000/svg" xmlns:xlink="http://www.w3.org/1999/xlink" x="0px" y="0px"
	 viewBox="0 0 540.1 987.1" style="enable-background:new 0 0 540.1 987.1;" xml:space="preserve">
<style type="text/css">
	.st0{fill:url(#SVGID_1_);}
	.st1{fill:#59B0EF;}
	.st2{fill:url(#SVGID_2_);}
	.st3{fill:#2A9AEB;}
	.st4{fill:none;stroke:#FFFFFF;stroke-width:3;stroke-linecap:round;stroke-linejoin:round;stroke-dasharray:0,5;}
	.st5{opacity:0.37;fill:#231F20;enable-background:new    ;}
	.st6{opacity:0.11;fill:#231F20;enable-background:new    ;}
	.st7{fill:#59B0EF;stroke:#FBB040;stroke-miterlimit:10;}
	.st8{fill:url(#SVGID_3_);}
	.st9{fill:#FEE7C4;}
	.st10{fill:#83C4F3;}
	.st11{fill:url(#SVGID_4_);}
	.st12{fill:url(#SVGID_5_);}
	.st13{fill:none;stroke:url(#SVGID_6_);stroke-miterlimit:10;}
	.st14{fill:none;stroke:url(#SVGID_7_);stroke-miterlimit:10;}
	.st15{fill:none;stroke:url(#SVGID_8_);stroke-miterlimit:10;}
	.st16{opacity:0.37;fill:url(#SVGID_9_);enable-background:new    ;}
	.st17{fill:#F1F2F2;stroke:#FFFFFF;stroke-miterlimit:10;}
	.st18{fill:url(#SVGID_10_);stroke:#FFFFFF;stroke-miterlimit:10;}
	.st19{fill:url(#SVGID_11_);stroke:#FFFFFF;stroke-miterlimit:10;}
	.st20{fill:none;stroke:#1174D4;stroke-width:2;stroke-miterlimit:10;stroke-dasharray:2,5;}
	.st21{fill:none;stroke:#1174D4;stroke-width:2;stroke-miterlimit:10;}
	.st22{fill:url(#SVGID_12_);}
	.st23{fill:none;stroke:#FFFFFF;stroke-miterlimit:10;}
	.st24{fill:#FDD190;}
	.st25{fill:url(#SVGID_13_);}
	.st26{fill:url(#SVGID_14_);}
	.st27{fill:none;stroke:url(#SVGID_15_);stroke-miterlimit:10;}
	.st28{fill:none;stroke:url(#SVGID_16_);stroke-miterlimit:10;}
	.st29{fill:none;stroke:url(#SVGID_17_);stroke-miterlimit:10;}
	.st30{opacity:0.37;fill:url(#SVGID_18_);enable-background:new    ;}
	.st31{opacity:0.37;fill:url(#SVGID_19_);enable-background:new    ;}
	.st32{fill:#1174D4;}
	.st33{opacity:0.37;fill:url(#SVGID_20_);enable-background:new    ;}
	.st34{opacity:0.37;fill:url(#SVGID_21_);enable-background:new    ;}
	.st35{opacity:0.37;fill:url(#SVGID_22_);enable-background:new    ;}
	.st36{opacity:0.37;fill:url(#SVGID_23_);enable-background:new    ;}
	.st37{fill:#3FDDFE;}
	.st38{fill:#4D7FFD;}
	.st39{fill:#240065;}
</style>
<title>vccloud-hatang_1</title>
<linearGradient id="SVGID_1_" gradientUnits="userSpaceOnUse" x1="270.2" y1="29.97" x2="270.2" y2="332.9" gradientTransform="matrix(1 0 0 -1 0 988)">
	<stop  offset="0" style="stop-color:#1174D4"/>
	<stop  offset="0.19" style="stop-color:#1175D4;stop-opacity:0.99"/>
	<stop  offset="0.33" style="stop-color:#1276D5;stop-opacity:0.94"/>
	<stop  offset="0.46" style="stop-color:#1479D7;stop-opacity:0.87"/>
	<stop  offset="0.58" style="stop-color:#177DDA;stop-opacity:0.76"/>
	<stop  offset="0.69" style="stop-color:#1B82DD;stop-opacity:0.62"/>
	<stop  offset="0.79" style="stop-color:#1F89E1;stop-opacity:0.45"/>
	<stop  offset="0.9" style="stop-color:#2491E5;stop-opacity:0.25"/>
	<stop  offset="0.99" style="stop-color:#2999EB;stop-opacity:2.000000e-02"/>
	<stop  offset="1" style="stop-color:#2A9AEB;stop-opacity:0"/>
</linearGradient>
<polygon class="st0" points="537.3,804.1 270.1,958 3.2,803 270.1,655.1 "/>
<polygon class="st1" points="270.1,358.5 193.1,402.9 270.1,447.4 347.1,402.9 "/>
<linearGradient id="SVGID_2_" gradientUnits="userSpaceOnUse" x1="231.56" y1="117.38" x2="231.56" y2="585.07" gradientTransform="matrix(1 0 0 -1 0 988)">
	<stop  offset="0" style="stop-color:#1174D4"/>
	<stop  offset="1" style="stop-color:#2A9AEB"/>
</linearGradient>
<polygon class="st2" points="193.1,402.9 270.1,447.4 270.1,870.6 193.1,826.2 "/>
<polygon class="st3" points="347.1,402.9 270.1,447.4 270.1,870.6 347.1,826.2 "/>
<line class="st4" x1="275.1" y1="691.8" x2="342.1" y2="653.2"/>
<line class="st4" x1="275.1" y1="674.1" x2="342.1" y2="635.4"/>
<line class="st4" x1="275.1" y1="654.8" x2="342.1" y2="616.1"/>
<line class="st4" x1="275.1" y1="635.4" x2="342.1" y2="596.7"/>
<line class="st4" x1="275.1" y1="616.1" x2="342.1" y2="577.4"/>
<line class="st4" x1="275.1" y1="596.7" x2="342.1" y2="558"/>
<line class="st4" x1="275.1" y1="577.4" x2="342.1" y2="538.7"/>
<line class="st4" x1="275.1" y1="558" x2="342.1" y2="519.4"/>
<line class="st4" x1="275.1" y1="538.7" x2="342.1" y2="500"/>
<line class="st4" x1="275.1" y1="519.4" x2="342.1" y2="480.7"/>
<line class="st4" x1="275.1" y1="500" x2="342.1" y2="461.3"/>
<line class="st4" x1="275.1" y1="480.7" x2="342.1" y2="442"/>
<line class="st4" x1="275.1" y1="461.3" x2="342.1" y2="422.6"/>
<line class="st4" x1="275.1" y1="709.1" x2="342.1" y2="670.4"/>
<line class="st4" x1="275.1" y1="726.3" x2="342.1" y2="687.6"/>
<line class="st4" x1="275.1" y1="743.5" x2="342.1" y2="704.8"/>
<line class="st4" x1="275.1" y1="760.7" x2="342.1" y2="722"/>
<line class="st4" x1="275.1" y1="777.9" x2="342.1" y2="739.3"/>
<line class="st4" x1="275.1" y1="795.2" x2="342.1" y2="756.5"/>
<line class="st4" x1="275.1" y1="812.4" x2="342.1" y2="773.7"/>
<line class="st4" x1="275.1" y1="829.6" x2="342.1" y2="790.9"/>
<line class="st4" x1="275.1" y1="848.9" x2="342.1" y2="810.3"/>
<polygon class="st5" points="201.6,408 205.9,410.4 205.9,833.8 201.6,831.3 "/>
<polygon class="st6" points="211,413.3 215.2,415.8 215.2,839.1 211,836.7 "/>
<polygon class="st6" points="220.3,418.7 224.5,421.1 224.5,844.5 220.3,842 "/>
<polygon class="st6" points="229.6,424 233.8,426.5 233.8,849.8 229.6,847.4 "/>
<polygon class="st6" points="238.9,429.4 243.2,431.9 243.2,855.2 238.9,852.8 "/>
<polygon class="st6" points="248.3,434.8 252.5,437.3 252.5,860.6 248.3,858.2 "/>
<polygon class="st5" points="257.6,440.2 261.8,442.6 261.8,866 257.6,863.5 "/>
<polygon class="st7" points="219.1,401 270.1,371.6 321.1,401 270.1,430.5 "/>
<polygon class="st1" points="356.9,721.5 328.6,737.8 356.9,754.2 385.2,737.8 "/>
<linearGradient id="SVGID_3_" gradientUnits="userSpaceOnUse" x1="342.775" y1="134.72" x2="342.775" y2="250.19" gradientTransform="matrix(1 0 0 -1 0 988)">
	<stop  offset="0" style="stop-color:#1174D4"/>
	<stop  offset="1" style="stop-color:#2A9AEB"/>
</linearGradient>
<polygon class="st8" points="328.6,737.8 356.9,754.2 356.9,853.3 328.6,836.9 "/>
<polygon class="st3" points="385.2,737.8 356.9,754.2 356.9,853.3 385.2,836.9 "/>
<polygon class="st9" points="359.7,757.9 363.3,755.9 363.3,760 359.7,762 "/>
<polygon class="st9" points="359.7,778.9 363.3,776.9 363.3,781 359.7,783 "/>
<polygon class="st9" points="359.7,800 363.3,797.9 363.3,802 359.7,804.1 "/>
<polygon class="st9" points="359.7,821 363.3,818.9 363.3,823 359.7,825.1 "/>
<polygon class="st9" points="369.3,753.9 372.9,751.8 372.9,755.9 369.3,758 "/>
<polygon class="st9" points="369.3,764.1 372.9,762 372.9,766.2 369.3,768.2 "/>
<polygon class="st9" points="369.3,774.3 372.9,772.3 372.9,776.4 369.3,778.5 "/>
<polygon class="st9" points="369.3,784.5 372.9,782.5 372.9,786.6 369.3,788.7 "/>
<polygon class="st9" points="369.3,794.8 372.9,792.7 372.9,796.8 369.3,798.9 "/>
<polygon class="st9" points="369.3,805 372.9,803 372.9,807.1 369.3,809.1 "/>
<polygon class="st9" points="369.3,815.2 372.9,813.2 372.9,817.3 369.3,819.4 "/>
<polygon class="st9" points="369.3,825.5 372.9,823.4 372.9,827.5 369.3,829.6 "/>
<polygon class="st9" points="369.3,835.7 372.9,833.6 372.9,837.8 369.3,839.8 "/>
<polygon class="st9" points="378.8,770.3 382.3,768.2 382.3,772.3 378.8,774.4 "/>
<polygon class="st10" points="85.2,692 106.6,704.4 128,692 106.6,679.7 "/>
<linearGradient id="SVGID_4_" gradientUnits="userSpaceOnUse" x1="95.865" y1="259.07" x2="95.865" y2="299.32" gradientTransform="matrix(1 0 0 -1 0 988)">
	<stop  offset="0" style="stop-color:#1174D4"/>
	<stop  offset="1" style="stop-color:#2A9AEB"/>
</linearGradient>
<polygon class="st11" points="85.2,692 85.2,716.8 106.6,729.2 106.6,704.4 "/>
<linearGradient id="SVGID_5_" gradientUnits="userSpaceOnUse" x1="117.29" y1="258.85" x2="117.29" y2="295.95" gradientTransform="matrix(1 0 0 -1 0 988)">
	<stop  offset="0" style="stop-color:#3E8EDC"/>
	<stop  offset="1" style="stop-color:#2A9AEB"/>
</linearGradient>
<polygon class="st12" points="128,692 128,716.8 106.6,729.2 106.6,704.4 "/>
<linearGradient id="SVGID_6_" gradientUnits="userSpaceOnUse" x1="106.5749" y1="283.0127" x2="106.5749" y2="315.8273" gradientTransform="matrix(1 0 0 -1 0 988)">
	<stop  offset="0" style="stop-color:#1174D4"/>
	<stop  offset="1" style="stop-color:#2A9AEB"/>
</linearGradient>
<polygon class="st13" points="79.2,688.6 106.6,704.4 134,688.6 106.6,672.8 "/>
<linearGradient id="SVGID_7_" gradientUnits="userSpaceOnUse" x1="92.865" y1="251.0541" x2="92.865" y2="300.2858" gradientTransform="matrix(1 0 0 -1 0 988)">
	<stop  offset="0" style="stop-color:#1174D4"/>
	<stop  offset="1" style="stop-color:#2A9AEB"/>
</linearGradient>
<polygon class="st14" points="79.2,688.6 79.2,720.3 106.6,736.1 106.6,704.4 "/>
<linearGradient id="SVGID_8_" gradientUnits="userSpaceOnUse" x1="120.29" y1="251.054" x2="120.29" y2="300.286" gradientTransform="matrix(1 0 0 -1 0 988)">
	<stop  offset="0" style="stop-color:#1174D4"/>
	<stop  offset="1" style="stop-color:#2A9AEB"/>
</linearGradient>
<polygon class="st15" points="134,688.6 134,720.3 106.6,736.1 106.6,704.4 "/>
<linearGradient id="SVGID_9_" gradientUnits="userSpaceOnUse" x1="106.58" y1="167.05" x2="106.58" y2="347.8" gradientTransform="matrix(1 0 0 -1 0 988)">
	<stop  offset="0" style="stop-color:#85F6FD"/>
	<stop  offset="0.18" style="stop-color:#86F6FD;stop-opacity:0.99"/>
	<stop  offset="0.31" style="stop-color:#89F6FD;stop-opacity:0.95"/>
	<stop  offset="0.43" style="stop-color:#8EF7FD;stop-opacity:0.89"/>
	<stop  offset="0.54" style="stop-color:#95F7FD;stop-opacity:0.8"/>
	<stop  offset="0.64" style="stop-color:#9FF8FD;stop-opacity:0.68"/>
	<stop  offset="0.74" style="stop-color:#AAF9FD;stop-opacity:0.54"/>
	<stop  offset="0.84" style="stop-color:#B8FAFE;stop-opacity:0.37"/>
	<stop  offset="0.93" style="stop-color:#C8FBFE;stop-opacity:0.18"/>
	<stop  offset="1" style="stop-color:#D6FCFE;stop-opacity:0"/>
</linearGradient>
<polygon class="st16" points="68.9,799.2 68.9,640.2 144.2,640.2 144.2,799.2 106.6,821 "/>
<polygon class="st17" points="236.6,692.6 211.7,707 236.6,721.3 261.5,707 "/>
<linearGradient id="SVGID_10_" gradientUnits="userSpaceOnUse" x1="224.13" y1="91.1" x2="224.13" y2="281.04" gradientTransform="matrix(1 0 0 -1 0 988)">
	<stop  offset="0" style="stop-color:#227ED7"/>
	<stop  offset="1" style="stop-color:#7FC2F3"/>
</linearGradient>
<polygon class="st18" points="211.7,707 236.6,721.3 236.6,896.9 211.7,882.5 "/>
<linearGradient id="SVGID_11_" gradientUnits="userSpaceOnUse" x1="249.035" y1="91.1" x2="249.035" y2="281.04" gradientTransform="matrix(1 0 0 -1 0 988)">
	<stop  offset="0" style="stop-color:#4F98DF"/>
	<stop  offset="1" style="stop-color:#94CCF5"/>
</linearGradient>
<polygon class="st19" points="261.5,707 236.6,721.3 236.6,896.9 261.5,882.5 "/>
<polyline class="st20" points="0.5,816 270.1,971.5 539.6,818.5 "/>
<polyline class="st21" points="0.5,828.8 270.1,986 539.6,832.9 "/>
<line class="st20" x1="154.5" y1="806" x2="154.5" y2="150.6"/>
<linearGradient id="SVGID_12_" gradientUnits="userSpaceOnUse" x1="286.045" y1="713.43" x2="286.045" y2="988" gradientTransform="matrix(1 0 0 -1 0 988)">
	<stop  offset="0" style="stop-color:#1174D4"/>
	<stop  offset="1" style="stop-color:#7FC2F3"/>
</linearGradient>
<polygon class="st22" points="154.3,152.7 417.8,0 417.8,121.9 154.3,274.6 "/>
<polyline class="st23" points="211.7,882.5 152.7,848 193.1,826.2 "/>
<polyline class="st23" points="270.1,870.6 299.9,887.8 356.9,853.3 "/>
<polyline class="st20" points="351.8,535.2 471.3,604.2 270.1,720.1 69.1,603.3 188.8,534.7 "/>
<polygon class="st24" points="239.6,288.4 269.7,305.8 299.8,288.4 269.7,271.1 "/>
<linearGradient id="SVGID_13_" gradientUnits="userSpaceOnUse" x1="254.635" y1="647.78" x2="254.635" y2="704.3" gradientTransform="matrix(1 0 0 -1 0 988)">
	<stop  offset="0" style="stop-color:#34F1FC"/>
	<stop  offset="1" style="stop-color:#FBB040"/>
</linearGradient>
<polygon class="st25" points="239.6,288.4 239.6,323.2 269.7,340.5 269.7,305.8 "/>
<linearGradient id="SVGID_14_" gradientUnits="userSpaceOnUse" x1="284.72" y1="647.47" x2="284.72" y2="699.58" gradientTransform="matrix(1 0 0 -1 0 988)">
	<stop  offset="0" style="stop-color:#34F1FC"/>
	<stop  offset="1" style="stop-color:#FBB040"/>
</linearGradient>
<polygon class="st26" points="299.8,288.4 299.8,323.2 269.7,340.5 269.7,305.8 "/>
<linearGradient id="SVGID_15_" gradientUnits="userSpaceOnUse" x1="269.68" y1="681.6327" x2="269.68" y2="727.2574" gradientTransform="matrix(1 0 0 -1 0 988)">
	<stop  offset="0" style="stop-color:#1174D4"/>
	<stop  offset="1" style="stop-color:#2A9AEB"/>
</linearGradient>
<polygon class="st27" points="231.2,283.6 269.7,305.8 308.2,283.6 269.7,261.3 "/>
<linearGradient id="SVGID_16_" gradientUnits="userSpaceOnUse" x1="250.425" y1="636.874" x2="250.425" y2="705.306" gradientTransform="matrix(1 0 0 -1 0 988)">
	<stop  offset="0" style="stop-color:#1174D4"/>
	<stop  offset="1" style="stop-color:#2A9AEB"/>
</linearGradient>
<polygon class="st28" points="231.2,283.6 231.2,328 269.7,350.3 269.7,305.8 "/>
<linearGradient id="SVGID_17_" gradientUnits="userSpaceOnUse" x1="288.935" y1="636.874" x2="288.935" y2="705.306" gradientTransform="matrix(1 0 0 -1 0 988)">
	<stop  offset="0" style="stop-color:#1174D4"/>
	<stop  offset="1" style="stop-color:#2A9AEB"/>
</linearGradient>
<polygon class="st29" points="308.2,283.6 308.2,328 269.7,350.3 269.7,305.8 "/>
<linearGradient id="SVGID_18_" gradientUnits="userSpaceOnUse" x1="270.07" y1="557.52" x2="270.07" y2="760.57" gradientTransform="matrix(1 0 0 -1 0 988)">
	<stop  offset="0" style="stop-color:#85F6FD"/>
	<stop  offset="0.18" style="stop-color:#86F6FD;stop-opacity:0.99"/>
	<stop  offset="0.31" style="stop-color:#89F6FD;stop-opacity:0.95"/>
	<stop  offset="0.43" style="stop-color:#8EF7FD;stop-opacity:0.89"/>
	<stop  offset="0.54" style="stop-color:#95F7FD;stop-opacity:0.8"/>
	<stop  offset="0.64" style="stop-color:#9FF8FD;stop-opacity:0.68"/>
	<stop  offset="0.74" style="stop-color:#AAF9FD;stop-opacity:0.54"/>
	<stop  offset="0.84" style="stop-color:#B8FAFE;stop-opacity:0.37"/>
	<stop  offset="0.93" style="stop-color:#C8FBFE;stop-opacity:0.18"/>
	<stop  offset="1" style="stop-color:#D6FCFE;stop-opacity:0"/>
</linearGradient>
<polygon class="st30" points="219.1,401 219.1,227.4 321.1,227.4 321.1,401 270.1,430.5 "/>
<linearGradient id="SVGID_19_" gradientUnits="userSpaceOnUse" x1="423.6602" y1="356.9296" x2="373.2402" y2="326.8196" gradientTransform="matrix(1 0 0 -1 0 988)">
	<stop  offset="0" style="stop-color:#85F6FD"/>
	<stop  offset="0.18" style="stop-color:#86F6FD;stop-opacity:0.99"/>
	<stop  offset="0.31" style="stop-color:#89F6FD;stop-opacity:0.95"/>
	<stop  offset="0.43" style="stop-color:#8EF7FD;stop-opacity:0.89"/>
	<stop  offset="0.54" style="stop-color:#95F7FD;stop-opacity:0.8"/>
	<stop  offset="0.64" style="stop-color:#9FF8FD;stop-opacity:0.68"/>
	<stop  offset="0.74" style="stop-color:#AAF9FD;stop-opacity:0.54"/>
	<stop  offset="0.84" style="stop-color:#B8FAFE;stop-opacity:0.37"/>
	<stop  offset="0.93" style="stop-color:#C8FBFE;stop-opacity:0.18"/>
	<stop  offset="1" style="stop-color:#D6FCFE;stop-opacity:0"/>
</linearGradient>
<polygon class="st31" points="419.6,629.1 372.1,656.9 372.1,665.7 423.7,636 "/>
<circle class="st32" cx="421.8" cy="632.5" r="4"/>
<linearGradient id="SVGID_20_" gradientUnits="userSpaceOnUse" x1="688.2158" y1="-573.233" x2="637.7958" y2="-603.343" gradientTransform="matrix(-1 0 0 1 1069.89 1481.24)">
	<stop  offset="0" style="stop-color:#85F6FD"/>
	<stop  offset="0.18" style="stop-color:#86F6FD;stop-opacity:0.99"/>
	<stop  offset="0.31" style="stop-color:#89F6FD;stop-opacity:0.95"/>
	<stop  offset="0.43" style="stop-color:#8EF7FD;stop-opacity:0.89"/>
	<stop  offset="0.54" style="stop-color:#95F7FD;stop-opacity:0.8"/>
	<stop  offset="0.64" style="stop-color:#9FF8FD;stop-opacity:0.68"/>
	<stop  offset="0.74" style="stop-color:#AAF9FD;stop-opacity:0.54"/>
	<stop  offset="0.84" style="stop-color:#B8FAFE;stop-opacity:0.37"/>
	<stop  offset="0.93" style="stop-color:#C8FBFE;stop-opacity:0.18"/>
	<stop  offset="1" style="stop-color:#D6FCFE;stop-opacity:0"/>
</linearGradient>
<polygon class="st33" points="385.7,909.9 433.2,882.2 433.2,873.4 381.6,903.1 "/>
<circle class="st32" cx="383.6" cy="906.6" r="4"/>
<linearGradient id="SVGID_21_" gradientUnits="userSpaceOnUse" x1="916.006" y1="-624.6592" x2="865.586" y2="-654.7692" gradientTransform="matrix(-0.4914 -0.871 -0.871 0.4914 271.1093 1648.2091)">
	<stop  offset="0" style="stop-color:#85F6FD"/>
	<stop  offset="0.18" style="stop-color:#86F6FD;stop-opacity:0.99"/>
	<stop  offset="0.31" style="stop-color:#89F6FD;stop-opacity:0.95"/>
	<stop  offset="0.43" style="stop-color:#8EF7FD;stop-opacity:0.89"/>
	<stop  offset="0.54" style="stop-color:#95F7FD;stop-opacity:0.8"/>
	<stop  offset="0.64" style="stop-color:#9FF8FD;stop-opacity:0.68"/>
	<stop  offset="0.74" style="stop-color:#AAF9FD;stop-opacity:0.54"/>
	<stop  offset="0.84" style="stop-color:#B8FAFE;stop-opacity:0.37"/>
	<stop  offset="0.93" style="stop-color:#C8FBFE;stop-opacity:0.18"/>
	<stop  offset="1" style="stop-color:#D6FCFE;stop-opacity:0"/>
</linearGradient>
<polygon class="st34" points="365.3,547.9 412.9,575.7 420.5,571.4 369.3,541 "/>
<circle class="st32" cx="367.2" cy="544.4" r="4"/>
<linearGradient id="SVGID_22_" gradientUnits="userSpaceOnUse" x1="768.6405" y1="-679.874" x2="718.2205" y2="-709.9839" gradientTransform="matrix(-0.9994 -3.542275e-02 -3.542275e-02 0.9994 860.9569 1282.8849)">
	<stop  offset="0" style="stop-color:#85F6FD"/>
	<stop  offset="0.18" style="stop-color:#86F6FD;stop-opacity:0.99"/>
	<stop  offset="0.31" style="stop-color:#89F6FD;stop-opacity:0.95"/>
	<stop  offset="0.43" style="stop-color:#8EF7FD;stop-opacity:0.89"/>
	<stop  offset="0.54" style="stop-color:#95F7FD;stop-opacity:0.8"/>
	<stop  offset="0.64" style="stop-color:#9FF8FD;stop-opacity:0.68"/>
	<stop  offset="0.74" style="stop-color:#AAF9FD;stop-opacity:0.54"/>
	<stop  offset="0.84" style="stop-color:#B8FAFE;stop-opacity:0.37"/>
	<stop  offset="0.93" style="stop-color:#C8FBFE;stop-opacity:0.18"/>
	<stop  offset="1" style="stop-color:#D6FCFE;stop-opacity:0"/>
</linearGradient>
<polygon class="st35" points="120.8,578.3 169.3,552.2 169.6,543.5 116.9,571.3 "/>
<circle class="st32" cx="118.8" cy="574.9" r="4"/>
<linearGradient id="SVGID_23_" gradientUnits="userSpaceOnUse" x1="352.5475" y1="-218.6442" x2="302.1175" y2="-248.7542" gradientTransform="matrix(0.4877 0.873 0.873 -0.4877 200.2085 253.4526)">
	<stop  offset="0" style="stop-color:#85F6FD"/>
	<stop  offset="0.18" style="stop-color:#86F6FD;stop-opacity:0.99"/>
	<stop  offset="0.31" style="stop-color:#89F6FD;stop-opacity:0.95"/>
	<stop  offset="0.43" style="stop-color:#8EF7FD;stop-opacity:0.89"/>
	<stop  offset="0.54" style="stop-color:#95F7FD;stop-opacity:0.8"/>
	<stop  offset="0.64" style="stop-color:#9FF8FD;stop-opacity:0.68"/>
	<stop  offset="0.74" style="stop-color:#AAF9FD;stop-opacity:0.54"/>
	<stop  offset="0.84" style="stop-color:#B8FAFE;stop-opacity:0.37"/>
	<stop  offset="0.93" style="stop-color:#C8FBFE;stop-opacity:0.18"/>
	<stop  offset="1" style="stop-color:#D6FCFE;stop-opacity:0"/>
</linearGradient>
<polygon class="st36" points="181.1,663.5 133.6,635.5 126,639.8 177.1,670.3 "/>
<circle class="st32" cx="179.1" cy="666.9" r="4"/>
<g>
	<g>
		<polygon class="st37" points="291.8,122.7 301.1,119.9 328.5,77.2 		"/>
		<polygon class="st37" points="305.6,118.6 316.2,115.5 328.5,77.2 		"/>
		<polygon class="st38" points="301.1,119.9 305.4,126.2 309.5,117.5 305.6,118.6 328.5,77.2 		"/>
		<polygon class="st39" points="305.6,118.6 305.4,126.2 309.5,117.5 		"/>
	</g>
	<path class="st39" d="M176.7,223.3l1-31.9c0-0.8,0.5-1.6,1.2-2l13.4-7.9c7-4.1,10.3-1.8,10.1,3.4c-0.1,3.2-1.6,6.9-4.9,10.2
		c3.1-0.7,5.6,0.9,5.5,4.4c-0.2,5.2-3.7,11.6-10.7,15.8l-14.5,8.6C177.1,224.4,176.7,224.2,176.7,223.3 M195.5,189.8
		c0-1.6-0.8-2.6-3.2-1.1l-7.9,4.6l-0.2,6.4l7.7-4.5C194.2,193.9,195.5,191.4,195.5,189.8 M192.1,208.3c3.1-1.9,4-4.3,4-5.8
		c0.1-1.7-1-2.5-2.9-1.4l-9.2,5.4l-0.2,6.6L192.1,208.3z"/>
	<path class="st39" d="M206.7,205.6l0.7-22c0-0.8,0.5-1.6,1.2-2l4.5-2.7c0.7-0.4,1.1-0.1,1.1,0.7l-0.7,22c0,0.8-0.5,1.6-1.2,2
		l-4.5,2.7C207.1,206.7,206.6,206.4,206.7,205.6"/>
	<path class="st39" d="M217.4,199.1l0.1-2.3c0-0.6,0.1-1,0.2-1.3c1.4-4.7,5.2-12.3,8.2-17.4l-6.8,4c-0.7,0.4-1.2,0.1-1.2-0.7
		l0.1-4.2c0-0.8,0.5-1.7,1.3-2.1l14.7-8.7c0.7-0.4,1.2-0.2,1.2,0.7l-0.1,2.5c0,0.6-0.1,1.2-0.4,1.7c-3.3,5.6-7.8,14.1-8.9,17.7
		l7.9-4.7c0.7-0.4,1.2-0.1,1.2,0.7l-0.1,3.8c0,0.8-0.5,1.7-1.3,2.1l-15,8.9C217.8,200.3,217.4,200,217.4,199.1"/>
	<path class="st39" d="M262.3,141.3l-0.1,4.7c0,0.8-0.5,1.6-1.2,2l-7.6,4.5c-5,2.9-7.1,6-7.4,12.7l11.2-6.6c0.7-0.4,1.2-0.2,1.1,0.7
		l-0.1,4.7c0,0.8-0.5,1.7-1.2,2.1l-11.2,6.6l-0.3,9.9c0,0.8-0.5,1.6-1.2,2l-4.7,2.8c-0.7,0.4-1.1,0.1-1.1-0.7l0.6-18.4
		c0.3-9.9,5.1-17.6,13.4-22.5l8.7-5.2C261.9,140.3,262.3,140.6,262.3,141.3"/>
	<path class="st39" d="M264.2,171.5l1.1-34c0-0.8,0.5-1.6,1.2-2l4.4-2.6c0.7-0.4,1.1-0.1,1.1,0.6l-1.1,34c0,0.8-0.5,1.6-1.2,2
		l-4.4,2.6C264.6,172.6,264.2,172.3,264.2,171.5"/>
	<path class="st39" d="M278.6,173.6c-0.6,0.1-0.7-0.5-0.4-1.4l1.4-4.2c0.2-0.9,0.9-1.6,1.6-1.6c1.6-0.1,2.6-0.5,3.7-1.1
		c3.8-2.2,5.5-6,5.2-10c-1.2,2.2-3.2,4.6-5.7,6.1c-4.7,2.8-9.3,1.9-9-7l0.4-11.3c0-0.8,0.5-1.6,1.2-2l4.4-2.6
		c0.7-0.4,1.1-0.1,1.1,0.7l-0.4,11.6c-0.1,3.6,1.2,4.9,3.8,3.3c1.9-1.1,3.8-3.3,4.6-6.1l0.4-13.7c0-0.8,0.5-1.6,1.2-2.1l4.3-2.5
		c0.7-0.4,1.1-0.1,1.1,0.7l-0.7,21.1c-0.3,10.3-4.6,16.2-11.1,20C282.6,173.2,280.6,173.8,278.6,173.6"/>
	<path class="st37" d="M213.9,172.1c-0.1,1.9-1.4,4.2-3,5.1c-1.6,1-2.9,0.2-2.8-1.7c0.1-1.9,1.4-4.2,3-5.1S213.9,170.2,213.9,172.1"
		/>
	<path class="st37" d="M320.3,115.4c0.7-0.4,1.5-0.8,2.2-1c0.7-0.3,1.5-0.4,2.1-0.5c0.7-0.1,1.3,0,2,0.1c0.6,0.1,1.2,0.3,1.6,0.7
		l-2.8,5.4c-0.7-0.5-1.5-0.8-2.4-0.8c-0.9,0-1.9,0.3-2.8,0.8c-0.9,0.5-1.7,1.2-2.5,2s-1.4,1.7-2,2.7c-0.6,1-1,2-1.4,3.1
		c-0.4,1.1-0.5,2.2-0.6,3.2c0,1.1,0.1,1.9,0.4,2.7c0.3,0.7,0.7,1.2,1.2,1.6c0.5,0.3,1.2,0.5,1.9,0.4c0.8-0.1,1.6-0.4,2.4-0.9
		c0.9-0.6,1.9-1.4,2.8-2.4c1-1.1,1.8-2.2,2.6-3.6l2.6,1.9c-1.1,2-2.4,3.8-3.9,5.4c-1.5,1.6-3,2.9-4.5,3.8c-1.5,0.9-2.9,1.4-4.2,1.6
		c-1.3,0.2-2.4,0-3.3-0.6c-0.9-0.5-1.6-1.4-2.1-2.6c-0.5-1.2-0.7-2.6-0.7-4.4c0.1-1.7,0.4-3.5,1-5.3c0.6-1.8,1.4-3.5,2.4-5.2
		c1-1.7,2.2-3.2,3.5-4.6C317.3,117.5,318.8,116.3,320.3,115.4"/>
	<polygon class="st37" points="342.9,121.2 342.7,126 329.3,133.9 330,109.8 334.7,107.1 334.1,126.4 	"/>
	<path class="st37" d="M354.6,95.1c1.6-0.9,3-1.5,4.3-1.7c1.3-0.2,2.5,0,3.4,0.5c1,0.5,1.7,1.3,2.2,2.5c0.5,1.2,0.7,2.6,0.7,4.4
		c-0.1,1.7-0.4,3.5-1,5.3c-0.6,1.8-1.4,3.6-2.4,5.3c-1,1.7-2.2,3.2-3.6,4.7c-1.4,1.4-2.8,2.6-4.4,3.5c-1.6,0.9-3,1.5-4.3,1.7
		c-1.3,0.2-2.5,0-3.4-0.5c-1-0.5-1.7-1.4-2.2-2.5c-0.5-1.2-0.7-2.6-0.7-4.4c0.1-1.7,0.4-3.5,1-5.4c0.6-1.8,1.4-3.6,2.4-5.2
		c1-1.7,2.2-3.2,3.6-4.6C351.6,97.2,353,96,354.6,95.1 M354.5,99.8c-0.9,0.5-1.7,1.2-2.5,2c-0.8,0.8-1.5,1.8-2.1,2.8
		c-0.6,1-1.1,2.1-1.4,3.2c-0.4,1.1-0.6,2.2-0.6,3.2c0,1.1,0.1,1.9,0.4,2.7c0.3,0.7,0.7,1.2,1.3,1.6c0.6,0.3,1.2,0.5,2,0.4
		c0.8-0.1,1.6-0.3,2.4-0.9c0.9-0.5,1.7-1.2,2.4-2c0.8-0.8,1.4-1.8,2-2.8c0.6-1,1.1-2.1,1.4-3.2c0.4-1.1,0.5-2.2,0.6-3.2
		c0-1.1-0.1-1.9-0.4-2.7c-0.3-0.7-0.7-1.2-1.3-1.6c-0.5-0.3-1.2-0.5-1.9-0.4C356.2,99,355.4,99.3,354.5,99.8"/>
	<path class="st37" d="M385.2,90.9c0,1.6-0.3,3.1-0.8,4.7c-0.5,1.5-1.1,3-1.9,4.3s-1.8,2.6-3,3.8c-1.2,1.2-2.4,2.2-3.8,3
		c-1.4,0.8-2.7,1.4-3.8,1.6c-1.1,0.2-2.1,0.1-2.9-0.3c-0.8-0.4-1.4-1.1-1.8-2.1c-0.4-1-0.6-2.3-0.5-3.9l0.4-14l4.6-2.7l-0.4,14
		c-0.1,1.7,0.3,2.9,1.2,3.3c0.8,0.5,2,0.3,3.3-0.5c1.4-0.8,2.5-2,3.4-3.4c0.9-1.5,1.3-3.1,1.4-4.8l0.4-14l4.6-2.7L385.2,90.9z"/>
	<path class="st37" d="M397.3,70c1.6-0.9,3-1.5,4.3-1.7c1.3-0.2,2.4-0.1,3.3,0.5c0.9,0.5,1.6,1.3,2.1,2.5c0.5,1.2,0.7,2.6,0.6,4.4
		c-0.1,1.8-0.4,3.5-1,5.3c-0.6,1.8-1.4,3.5-2.4,5.2c-1,1.6-2.2,3.1-3.5,4.5c-1.4,1.4-2.8,2.5-4.5,3.5l-8.5,5.1l0.7-24.1L397.3,70z
		 M392.6,91.9l4.2-2.5c0.9-0.5,1.7-1.2,2.4-1.9c0.7-0.8,1.4-1.7,1.9-2.6c0.5-1,1-2,1.3-3.1c0.3-1.1,0.5-2.2,0.5-3.3
		c0-1.1-0.1-2-0.4-2.8c-0.3-0.7-0.7-1.3-1.2-1.6c-0.5-0.3-1.2-0.5-1.9-0.4c-0.7,0.1-1.6,0.4-2.4,0.9l-4,2.4L392.6,91.9z"/>
</g>
</svg>
