<svg id="Layer_1" data-name="Layer 1" xmlns="http://www.w3.org/2000/svg" xmlns:xlink="http://www.w3.org/1999/xlink" viewBox="0 0 1378 539"><defs><style>.cls-1{fill:#fff;}.cls-2,.cls-3,.cls-4{opacity:0.1;}.cls-2,.cls-3{isolation:isolate;}.cls-2{fill:url(#linear-gradient);}.cls-3{fill:none;stroke-miterlimit:10;stroke-width:1.93px;stroke:url(#linear-gradient-2);}.cls-5{fill:#6d6e6e;}</style><linearGradient id="linear-gradient" x1="-3.93" y1="725.46" x2="567.89" y2="725.46" gradientTransform="matrix(1, 0, 0, -1, 0, 1003)" gradientUnits="userSpaceOnUse"><stop offset="0" stop-color="#785aa6"/><stop offset="0.49" stop-color="#565ca9"/><stop offset="0.54" stop-color="#535ba9"/><stop offset="0.62" stop-color="#5066af"/><stop offset="0.75" stop-color="#4982c3"/><stop offset="0.92" stop-color="#3bb0e5"/><stop offset="0.99" stop-color="#3bc6f3"/><stop offset="1" stop-color="#3bc6f3"/></linearGradient><linearGradient id="linear-gradient-2" x1="-4.39" y1="723.71" x2="587.9" y2="723.71" xlink:href="#linear-gradient"/></defs><title>BG</title><rect class="cls-1" x="-2.34" y="-0.15" width="1383.1" height="539.7"/><polygon class="cls-2" points="398.29 0 567.89 277.99 397.72 555.07 -3.93 555.07 -3.93 0 398.29 0"/><polygon class="cls-3" points="416.32 3.51 586.76 279.74 415.74 555.07 -3.43 555.07 -3.43 3.51 416.32 3.51"/><g class="cls-4"><path class="cls-5" d="M938.74,69.88h-.1l-.16-.39L1006.94.24l.65-.39,9.94,86.92v.29Zm.34-.39,77.92,17L1007.21.55Z"/><path class="cls-5" d="M1017.32,87h-.26L1007.15.24V.07l.38-.12,75.91,69.32.29.27Zm.12-.52L1049,78.23v-.07h.23l33.64-8.84L1007.65.66Z"/><path class="cls-5" d="M1139.82,82.84h0l-56.58-13.2-.56-.13,78.73-42.84.18-.12,14,37.33V91.21Zm21.59-55.67L1083.9,69.34l55.49,13v-.26l.35.31,35.52,8.29V64Z"/><path class="cls-5" d="M1060.37,159.44l23-49.45.15-.31,29.74,36,.23.29Zm.79-.66,51.51-13.09-29.08-35.2Z"/><path class="cls-5" d="M1089.59,193.67l-.14.29-28.95-34.55-.08-.11.2-.37,52.4-13.38.45-.11Zm-.25-.51,23.32-47L1061,159.29Z"/><path class="cls-5" d="M809.29,172.85l-.08.18L732.1,139.55l-.61-.26,104.73-26.56.44-.11Zm-.31-.39,26.9-59.19-103,26.13Z"/><path class="cls-5" d="M999.28,193.55l-.15.57L938.68,69.9l-.36-.77,80.12,56.3.13.09Zm-.27-.66,19-67.22-78.6-55.23Z"/><path class="cls-5" d="M732.39,139.4l-.07.29-50.54-26.82-.29-.14L753,51.39l.51-.44ZM732,139,752.8,52.16l-70.54,60.48Z"/><path class="cls-5" d="M732.24,139.55l-.36.09L753,51.55l.08-.33,83.38,61.58.37.29Zm.24-.51,103.3-26.21L753.31,51.92Z"/><path class="cls-5" d="M1137.59,193.55v.92L1112.84,146l-.12-.26,52.06-11.45.44-.09Zm-.25-.51,27.11-58.28L1113.35,146Z"/><path class="cls-5" d="M833.19,193.55v.12l-.13.13h-.47l-23.75-21,27.7-61Zm-.45-.2L836,114.06,809.35,172.7Z"/><path class="cls-5" d="M917.76,193.55v.23h-.32L836.15,113.1l-.24-.24,103-43.59Zm-.39-.43L938.37,70,836.69,113Z"/><path class="cls-5" d="M1045,193.64l-.31.32-26.52-68.26-.1-.23,65.48-15.59.45-.12Zm-.19-.62,15.67-33.69-.29-.27.48-.13,22.53-48.52-64.56,15.37Z"/><path class="cls-5" d="M832.93,193.79h-.5l.31-.3,3.35-81.4,32.5,63.29.14.33Zm.26-.44,34.89-18.08-31.62-61.45Z"/><path class="cls-5" d="M686,193.71l-.07.08h-4.38V112.46h.22l50.65,26.83Zm-4-.36h3.7l46.06-53.94L682,113Z"/><path class="cls-5" d="M682,112.85l-.37.28V25.62l.21-.28,71.42,26,.36.14Zm.06-.62,70.66-60.6L682.08,25.9Z"/><path class="cls-5" d="M836.36,113.13l-.37.18,14.84-75.76V37.3l87.86,32.12.51.2Zm.2-.56L938,69.64,851.21,37.89Z"/><path class="cls-5" d="M1112.83,146.08l4-52.47v-.44L1165,134.25l.34.29Zm.48-.56,51.07-11.23-47.13-40.23Z"/><path class="cls-5" d="M1018.5,125.73l-.38.6L1017,86.79v-.18l32.14-8.42.55-.15Zm0-.82,30.23-46.15L1017.49,87Z"/><path class="cls-5" d="M938.76,70l-.42-.64,79,17.25h.15l1.07,39V126Zm.9.08,78.42,55.12-1-38.21Z"/><path class="cls-5" d="M1113.3,145.83l-.06.53-29.86-36.14-.17-.21L1117,93.41l.35-.16Zm-.4-.57L1116.81,94l-32.92,16.19Z"/><path class="cls-5" d="M1083.65,110.28l-.31.15-.27-41v-.26l56.59,13.19.59.15Zm.12-.54,55.17-27.1-55.42-12.93Z"/><path class="cls-5" d="M1049.12,78.55l-.31-.27,34.7-9.13.27,41v.52Zm.59-.06,33.61,31.1-.24-39.86Z"/><path class="cls-5" d="M1018.37,125.84l-.54.12,31.22-47.69.22-.21,34.43,31.86.31.28Zm.43-.57,64.29-15.3-33.8-31.27Z"/><path class="cls-5" d="M836.49,113l-.07.35L753,51.74l-.44-.33,98.41-14,.29-.06Zm-.36-.43,14.64-74.7-97,13.83Z"/><path class="cls-5" d="M1165.06,134.55l-.2.37-25.44-52.23-.19-.41,36.36,8.44h.17v23.73Zm-25-51.63,24.84,51,10.4-19.56V91.1Z"/><path class="cls-5" d="M1116.93,93.78l-.26-.22,22.82-11.21h.27l25.3,52,.46.94Zm.54-.11,46.73,39.88-24.69-50.72Z"/><path class="cls-5" d="M1159,26.88a2.76,2.76,0,1,0,2.76-2.76,2.76,2.76,0,0,0-2.76,2.76S1159,26.87,1159,26.88Z"/><path class="cls-5" d="M1080.13,69.2a2.76,2.76,0,1,0,2.78-2.74h0a2.74,2.74,0,0,0-2.75,2.73Z"/><path class="cls-5" d="M1081,110.32a2.76,2.76,0,1,0,2.77-2.75h0a2.74,2.74,0,0,0-2.76,2.72Z"/><path class="cls-5" d="M1109.82,145.55a2.76,2.76,0,1,0,0-.33A2.76,2.76,0,0,0,1109.82,145.55Z"/><path class="cls-5" d="M1162.1,133.75a2.75,2.75,0,1,0,2.74-2.76,2.75,2.75,0,0,0-2.74,2.76S1162.1,133.74,1162.1,133.75Z"/><path class="cls-5" d="M1058.59,159.05a2.76,2.76,0,1,0,2.76-2.76,2.76,2.76,0,0,0-2.76,2.76S1058.59,159,1058.59,159.05Z"/><path class="cls-5" d="M1046.41,78a2.76,2.76,0,1,0,2.76-2.76h0a2.73,2.73,0,0,0-2.75,2.71S1046.41,78,1046.41,78Z"/><path class="cls-5" d="M1014.3,87.06a2.76,2.76,0,1,0,2.78-2.74h0a2.73,2.73,0,0,0-2.76,2.7S1014.3,87,1014.3,87.06Z"/><path class="cls-5" d="M1015.68,125.43a2.76,2.76,0,1,0,2.78-2.74h0a2.73,2.73,0,0,0-2.75,2.71S1015.68,125.42,1015.68,125.43Z"/><path class="cls-5" d="M996.49,193.35a2.75,2.75,0,1,0,2.76-2.76,2.75,2.75,0,0,0-2.76,2.76S996.49,193.34,996.49,193.35Z"/><path class="cls-5" d="M1042.16,193.65a2.76,2.76,0,1,0,2.76-2.76,2.76,2.76,0,0,0-2.76,2.76Z"/><path class="cls-5" d="M1087,193.4a2.3,2.3,0,1,0,2.3-2.3,2.3,2.3,0,0,0-2.3,2.3Z"/><path class="cls-5" d="M1135.06,193a2.31,2.31,0,1,0,2.31-2.31,2.31,2.31,0,0,0-2.31,2.31S1135.06,193,1135.06,193Z"/><path class="cls-5" d="M915.11,193.79a2.31,2.31,0,1,0,2.32-2.3h0a2.28,2.28,0,0,0-2.3,2.26S915.11,193.78,915.11,193.79Z"/><path class="cls-5" d="M866.24,175.74a2.3,2.3,0,1,0,2.31-2.29h0a2.28,2.28,0,0,0-2.29,2.27Z"/><path class="cls-5" d="M830.29,193.79a2.31,2.31,0,1,0,2.15-2.15A2.31,2.31,0,0,0,830.29,193.79Z"/><path class="cls-5" d="M761.77,193.49a2.3,2.3,0,1,0,2.31-2.29h0a2.28,2.28,0,0,0-2.3,2.26S761.77,193.48,761.77,193.49Z"/><path class="cls-5" d="M806.69,172.46a2.3,2.3,0,1,0,0-.3A2.3,2.3,0,0,0,806.69,172.46Z"/><path class="cls-5" d="M935.73,69.71A2.76,2.76,0,1,0,938.49,67h0a2.74,2.74,0,0,0-2.75,2.73Z"/><path class="cls-5" d="M833.14,113.27a2.75,2.75,0,1,0,2.76-2.74h0A2.74,2.74,0,0,0,833.14,113.27Z"/><path class="cls-5" d="M729,139.48a2.76,2.76,0,1,0,2.76-2.77,2.73,2.73,0,0,0-2.76,2.7S729,139.46,729,139.48Z"/><path class="cls-5" d="M679.65,113.43a2.76,2.76,0,1,0,2.77-2.75h0a2.73,2.73,0,0,0-2.75,2.71S679.65,113.42,679.65,113.43Z"/><path class="cls-5" d="M680.83,193.2a2.76,2.76,0,1,0,2.76-2.77,2.73,2.73,0,0,0-2.76,2.7S680.83,193.18,680.83,193.2Z"/><path class="cls-5" d="M1114.12,93.17a2.76,2.76,0,1,0,2.76-2.76,2.76,2.76,0,0,0-2.76,2.76Z"/><path class="cls-5" d="M1137,82.55a2.76,2.76,0,1,0,2.76-2.76,2.76,2.76,0,0,0-2.76,2.76S1137,82.54,1137,82.55Z"/><path class="cls-5" d="M1173,90.75a1.84,1.84,0,1,0,1.85-1.84A1.84,1.84,0,0,0,1173,90.75Z"/><path class="cls-5" d="M1004.2.24A2.73,2.73,0,0,0,1006.9,3h0A2.73,2.73,0,0,0,1009.7.3s0,0,0-.06A2.74,2.74,0,0,0,1007-2.51h0A2.73,2.73,0,0,0,1004.2.21S1004.2.23,1004.2.24Z"/><path class="cls-5" d="M847.94,37.82a2.76,2.76,0,1,0,2.77-2.75h0a2.75,2.75,0,0,0-2.76,2.74Z"/><path class="cls-5" d="M750.59,52a2.74,2.74,0,1,0,0-.05S750.59,52,750.59,52Z"/><path class="cls-5" d="M679.28,25A2.76,2.76,0,1,0,682,22.25,2.73,2.73,0,0,0,679.28,25S679.28,25,679.28,25Z"/><polygon class="cls-5" points="809.18 172.55 809.33 172.6 809.3 172.91 808.85 173.22 808.86 172.89 732.73 139.83 764.38 193.35 764.6 193.35 764.07 193.71 731.99 139.46 731.63 138.89 809.18 172.55"/><polygon class="cls-5" points="764.1 193.16 808.83 172.6 809.05 172.94 764.07 193.71 764.1 193.16"/></g><g class="cls-4"><path class="cls-5" d="M1043.14,439.69h.1l.18.44-75.22,76-.66.44-11-95.44v-.32Zm-.37.42-85.62-18.69,10.76,94.39Z"/><path class="cls-5" d="M956.81,420.86l.28,0L968,516.19v.19l-.38.17-83.4-76.16-.32-.29Zm-.14.56L922,430.55v.08h-.25l-37,9.71,82.61,75.43Z"/><path class="cls-5" d="M822.22,425.44h0l62.16,14.5.61.16L798.5,487.16l-.25.14-15.43-41v-30ZM798.5,486.61l85.15-46.34-61-14.23v.29l-.38-.35-39-9.11v29.28Z"/><path class="cls-5" d="M909.5,341.29l-25.24,54.33-.16.34-32.68-39.52-.26-.32Zm-.86.72L852.05,356.4,884,395.07Z"/><path class="cls-5" d="M877.39,303.68l.15-.32,31.81,38,.09.11-.22.41-57.56,14.67-.5.13Zm.28.56L852.05,355.9l56.8-14.42Z"/><path class="cls-5" d="M1185.35,326.55l.09-.21,84.72,36.79.67.28-115.06,29.18-.49.13Zm.35.42-29.56,65,113.18-28.7Z"/><path class="cls-5" d="M976.59,303.77l.17-.63,66.41,136.52.4.84-88-61.85-.14-.1Zm.29.73L956,378.34,1042.34,439Z"/><path class="cls-5" d="M1269.84,363.31l.08-.32,55.53,29.46.32.15-78.6,67.4-.56.48Zm.39.4-22.81,95.45,77.49-66.46Z"/><path class="cls-5" d="M1270,363.12l.39-.1-23.14,96.85-.09.36-91.58-67.68-.41-.32Zm-.27.56-113.49,28.79,90.61,66.94Z"/><path class="cls-5" d="M824.59,303.87v-1l27.2,53.3.13.28L794.73,369l-.49.1Zm.28.56-29.79,64,56.15-12.36Z"/><path class="cls-5" d="M1159.1,303.82v-.13l.14-.14h.47l26.1,23.06-30.43,67Zm.49.23-3.6,87.11,29.3-64.42Z"/><path class="cls-5" d="M1066.18,303.81v-.26h.41l89.31,88.64.26.26L1043,440.34Zm.44.47-23,135.27,111.71-47.27Z"/><path class="cls-5" d="M926.44,303.72l.35-.36,29.14,75,.1.25L884.1,395.74l-.5.13Zm.22.67-17.22,37,.32.3-.52.14-24.76,53.31,70.92-16.89Z"/><path class="cls-5" d="M1159.38,303.55h.55l-.34.33-3.68,89.43-35.74-69.58-.16-.35Zm-.28.49-38.33,19.86,34.73,67.51Z"/><path class="cls-5" d="M1320.76,303.64l.08-.09h4.75v89.36h-.24l-55.65-29.49Zm4.36.4h-4.07l-50.61,59.26,54.68,29Z"/><path class="cls-5" d="M1325.18,392.47l.41-.3v96.14l-.23.3-78.46-28.56-.4-.15Zm-.06.68-77.63,66.58L1325.12,488Z"/><path class="cls-5" d="M1155.59,392.17l.41-.2-16.3,83.23v.28l-96.52-35.29-.56-.22Zm-.21.61-111.46,47.16,95.38,34.89Z"/><path class="cls-5" d="M851.87,356l-4.41,57.65v.49L794.59,369l-.39-.32Zm-.53.62-56.1,12.34L847,413.12Z"/><path class="cls-5" d="M955.5,378.32l.43-.65,1.2,43.43v.2l-35.32,9.25-.6.17Zm0,.91-33.21,50.7,34.34-9Z"/><path class="cls-5" d="M1043.11,439.55l.46.7-86.76-18.94h-.17l-1.17-42.84V378Zm-1-.09L956,378.91l1.14,42Z"/><path class="cls-5" d="M851.36,356.25l.06-.59,32.8,39.7.2.23-37.1,18.24-.38.18Zm.43.62-4.29,56.34,36.16-17.79Z"/><path class="cls-5" d="M883.93,395.3l.35-.17.29,45.06v.29L822.4,426l-.66-.17Zm-.13.6-60.61,29.76,60.88,14.21Z"/><path class="cls-5" d="M921.87,430.18l.33.3-38.12,10-.29-45v-.56Zm-.65.07-36.93-34.17.27,43.79Z"/><path class="cls-5" d="M955.65,378.2l.6-.12L922,430.46l-.25.23-37.82-35-.35-.3Zm-.48.63-70.58,16.81L921.73,430Z"/><path class="cls-5" d="M1155.47,392.32l.08-.38,91.61,67.67.48.36-108.12,15.41-.32.06Zm.4.47-16.08,82.08,106.6-15.2Z"/><path class="cls-5" d="M794.49,368.66l.21-.39,28,57.38.22.44L783,416.78h-.2v-26.1ZM822,425.39l-27.3-56.06-11.42,21.48v25.56Z"/><path class="cls-5" d="M847.37,413.42l.28.25L822.59,426h-.3l-27.79-57.1-.5-1Zm-.6.13-51.34-43.83,27.16,55.72Z"/><path class="cls-5" d="M801.15,486.93a3,3,0,1,0-3,3A3,3,0,0,0,801.15,486.93Z"/><path class="cls-5" d="M887.8,440.43a3,3,0,1,0-3,3A3,3,0,0,0,887.8,440.43Z"/><path class="cls-5" d="M886.8,395.26a3,3,0,1,0-3,3A3,3,0,0,0,886.8,395.26Z"/><path class="cls-5" d="M855.18,356.6a3,3,0,1,0-3,3A3,3,0,0,0,855.18,356.6Z"/><path class="cls-5" d="M797.74,369.55a3,3,0,1,0-3,3A3,3,0,0,0,797.74,369.55Z"/><path class="cls-5" d="M911.46,341.72a3,3,0,1,0-3,3A3,3,0,0,0,911.46,341.72Z"/><path class="cls-5" d="M924.85,430.77a3,3,0,1,0-3,3A3,3,0,0,0,924.85,430.77Z"/><path class="cls-5" d="M960.12,420.81a3,3,0,1,0-3,3A3,3,0,0,0,960.12,420.81Z"/><path class="cls-5" d="M958.59,378.65a3,3,0,1,0-3,3A3,3,0,0,0,958.59,378.65Z"/><path class="cls-5" d="M979.69,304a3,3,0,1,0-3,3A3,3,0,0,0,979.69,304Z"/><path class="cls-5" d="M929.51,303.7a3,3,0,1,0-3,3A3,3,0,0,0,929.51,303.7Z"/><path class="cls-5" d="M880.29,304a2.53,2.53,0,1,0-2.53,2.53,2.53,2.53,0,0,0,2.53-2.53S880.29,304,880.29,304Z"/><path class="cls-5" d="M827.44,304.43a2.53,2.53,0,1,0-2.53,2.53,2.53,2.53,0,0,0,2.53-2.53S827.44,304.44,827.44,304.43Z"/><path class="cls-5" d="M1069.09,303.55a2.53,2.53,0,1,0-2.53,2.53h0a2.51,2.51,0,0,0,2.52-2.5S1069.09,303.56,1069.09,303.55Z"/><path class="cls-5" d="M1122.78,323.38a2.52,2.52,0,1,0-2.53,2.51h0a2.5,2.5,0,0,0,2.51-2.49Z"/><path class="cls-5" d="M1162.28,303.55a2.53,2.53,0,1,0-2.53,2.53,2.53,2.53,0,0,0,2.53-2.53Z"/><path class="cls-5" d="M1237.59,303.88a2.52,2.52,0,1,0-2.53,2.52,2.52,2.52,0,0,0,2.53-2.52Z"/><path class="cls-5" d="M1188.22,327a2.53,2.53,0,1,0-2.53,2.53h0a2.5,2.5,0,0,0,2.52-2.48S1188.22,327,1188.22,327Z"/><path class="cls-5" d="M1046.45,439.87a3,3,0,1,0-3,3A3,3,0,0,0,1046.45,439.87Z"/><path class="cls-5" d="M1159.15,392a3,3,0,1,0-3,3A3,3,0,0,0,1159.15,392Z"/><path class="cls-5" d="M1273.59,363.22a3,3,0,1,0-3,3A3,3,0,0,0,1273.59,363.22Z"/><path class="cls-5" d="M1327.79,391.83a3,3,0,1,0-3,3A3,3,0,0,0,1327.79,391.83Z"/><path class="cls-5" d="M1326.48,304.2a3,3,0,1,0-3,3A3,3,0,0,0,1326.48,304.2Z"/><path class="cls-5" d="M850.45,414.1a3,3,0,1,0-3,3A3,3,0,0,0,850.45,414.1Z"/><path class="cls-5" d="M825.35,425.8a3,3,0,1,0-3,3A3,3,0,0,0,825.35,425.8Z"/><path class="cls-5" d="M785.72,416.76a2,2,0,1,0-2,2A2,2,0,0,0,785.72,416.76Z"/><path class="cls-5" d="M971.22,516.19a3,3,0,1,0-3,3A3,3,0,0,0,971.22,516.19Z"/><path class="cls-5" d="M1142.89,474.91a3,3,0,1,0-3,3,3,3,0,0,0,3-3Z"/><path class="cls-5" d="M1249.9,459.36a3,3,0,1,0-3,3A3,3,0,0,0,1249.9,459.36Z"/><path class="cls-5" d="M1328.2,489a3,3,0,1,0-3,3A3,3,0,0,0,1328.2,489Z"/><polygon class="cls-5" points="1185.48 326.89 1185.31 326.83 1185.34 326.49 1185.84 326.15 1185.82 326.51 1269.47 362.84 1234.7 304.04 1234.46 304.04 1235.03 303.64 1270.28 363.24 1270.67 363.87 1185.48 326.89"/><polygon class="cls-5" points="1235.01 304.24 1185.86 326.83 1185.62 326.45 1235.03 303.64 1235.01 304.24"/></g></svg>