<svg id="Layer_1" data-name="Layer 1" xmlns="http://www.w3.org/2000/svg" xmlns:xlink="http://www.w3.org/1999/xlink" viewBox="0 0 276.39 214.58"><defs><style>.cls-1{fill:#000c7c;}.cls-2{fill:#435ef9;}.cls-3{fill:#feda09;}.cls-4{fill:url(#linear-gradient);}.cls-5{fill:url(#linear-gradient-2);}.cls-6{fill:url(#linear-gradient-3);}.cls-7{fill:url(#linear-gradient-4);}.cls-8{fill:url(#linear-gradient-5);}.cls-9{fill:url(#linear-gradient-6);}.cls-10{fill:#fff;stroke:#1b2d75;stroke-miterlimit:10;stroke-width:1.84px;}</style><linearGradient id="linear-gradient" x1="22.12" y1="51.63" x2="129.64" y2="51.63" gradientTransform="translate(10.34 6.55) rotate(2.7)" gradientUnits="userSpaceOnUse"><stop offset="0" stop-color="#1937e0"/><stop offset="1" stop-color="#903fe0"/></linearGradient><linearGradient id="linear-gradient-2" x1="21.93" y1="100.41" x2="88.27" y2="100.41" xlink:href="#linear-gradient"/><linearGradient id="linear-gradient-3" x1="91.93" y1="46.71" x2="128.88" y2="46.71" xlink:href="#linear-gradient"/><linearGradient id="linear-gradient-4" x1="140.88" y1="104.07" x2="172.66" y2="104.07" gradientTransform="matrix(0.99, -0.13, -0.02, 1.01, 4.21, -13.12)" xlink:href="#linear-gradient"/><linearGradient id="linear-gradient-5" x1="178.86" y1="104.09" x2="228.04" y2="104.09" gradientTransform="matrix(0.99, -0.13, -0.02, 1.01, 4.21, -13.12)" xlink:href="#linear-gradient"/><linearGradient id="linear-gradient-6" x1="65.65" y1="177.92" x2="264.18" y2="177.92" gradientTransform="matrix(1, 0, 0, 1, 0, 0)" xlink:href="#linear-gradient"/></defs><title>banner-title</title><path class="cls-1" d="M138.51,103.42c-1,.86-1.71,1.84-2.65,2.17-8.6,3.07-17.26,6-25.88,9-2.19.77-3.25-.47-4.31-2Q94,95.5,82.25,78.42l-43-62.75c-.35-.51-.93-1-1-1.55-.22-1.39-.23-2.82-.32-4.24,1.34,0,2.87-.49,4,0C53.69,15.13,65.19,21,77.14,25.73c9.13,3.6,15.47,9.36,20.79,17.52,12.41,19.06,25.59,37.62,38.44,56.4C137.11,100.73,137.67,101.93,138.51,103.42Z"/><path class="cls-2" d="M40.68,9.65a3.07,3.07,0,0,1,1.26.23C53.69,15.13,65.19,21,77.14,25.73c9.13,3.6,15.47,9.36,20.79,17.52,12.41,19.06,25.59,37.62,38.44,56.4.74,1.08,1.3,2.28,2.14,3.77-1,.86-1.71,1.84-2.65,2.17-8.6,3.07-17.26,6-25.88,9a3.75,3.75,0,0,1-1.24.24c-1.39,0-2.23-1-3.07-2.26Q94,95.5,82.25,78.42l-43-62.75c-.35-.51-.93-1-1-1.55-.22-1.39-.23-2.82-.32-4.24.88,0,1.85-.22,2.72-.22m0-9.65h0a21,21,0,0,0-2.53.18l-.43,0L27.67.39l.66,10.11c0,.35,0,.7.06,1a35.92,35.92,0,0,0,.37,4.1,11.51,11.51,0,0,0,2.74,5.7L44.92,41,74.29,83.87l9,13.18q7.2,10.5,14.39,21c2.93,4.29,6.64,6.46,11,6.46a13.39,13.39,0,0,0,4.45-.78q5.27-1.85,10.56-3.68c5-1.75,10.24-3.55,15.36-5.38a14,14,0,0,0,5.26-3.53c.12-.12.24-.24.38-.36l6.11-5.15-3.93-7c-.25-.44-.46-.85-.67-1.23a33.61,33.61,0,0,0-1.91-3.25c-3.88-5.67-7.85-11.41-11.69-17-8.86-12.8-18-26-26.62-39.25C99.3,27.67,91.25,20.92,80.69,16.75c-7.44-2.94-14.63-6.31-22.23-9.88C54.35,4.95,50.12,3,45.87,1.06A12.65,12.65,0,0,0,40.68,0Z"/><path class="cls-1" d="M78.92,80.57C85.06,89.52,91.07,98.23,97,107a2.83,2.83,0,0,1-.25,2.6q-5,6.34-10.36,12.45a6.83,6.83,0,0,1-2.84,1.76c-15.86,5.57-31.73,11.12-47.65,16.53-1.21.41-2.79-.3-4.2-.49.25-1.32.08-3,.83-3.9Q55.13,108.6,77.95,81.39A9.22,9.22,0,0,1,78.92,80.57Z"/><path class="cls-2" d="M78.92,80.57C85.06,89.52,91.07,98.23,97,107a2.83,2.83,0,0,1-.25,2.6q-5,6.34-10.36,12.45a6.83,6.83,0,0,1-2.84,1.76c-15.86,5.57-31.73,11.12-47.65,16.53a2.59,2.59,0,0,1-.84.13,28.61,28.61,0,0,1-3.37-.61c.25-1.32.08-3,.83-3.9Q55.13,108.6,77.95,81.39a9.21,9.21,0,0,1,1-.82m2-14.2-8.14,6.78-.23.18a12.28,12.28,0,0,0-2,1.87l-5.72,6.85c-13.05,15.63-26.55,31.79-39.76,47.77a13.65,13.65,0,0,0-2.85,7.93c0,.13,0,.27,0,.4l-1.92,9.93,10.06,1.35.47.11a17.55,17.55,0,0,0,4.26.6,12.23,12.23,0,0,0,3.94-.64c16.1-5.47,32.41-11.18,47.74-16.56a16.4,16.4,0,0,0,6.93-4.54c3.74-4.31,7.32-8.6,10.63-12.77a12.29,12.29,0,0,0,.71-14c-4.81-7.16-9.58-14.11-14.63-21.46l-3.48-5.06-6-8.74Z"/><path class="cls-1" d="M124.9,75.89,106,48.29c.08-.35.06-.59.17-.72,5.6-7,4.26-6.37,11.74-3q9.78,4.41,19.52,8.93c3.43,1.59,3.73,2.92,1.28,5.88C134.2,64.8,129.67,70.18,124.9,75.89Z"/><path class="cls-2" d="M111.79,42.14c1.22,0,2.8.95,6.09,2.43q9.78,4.41,19.52,8.93c3.43,1.59,3.73,2.93,1.28,5.88-4.49,5.41-9,10.79-13.78,16.5L106,48.29c.08-.35.06-.59.17-.72,3.13-3.9,4.1-5.43,5.64-5.43m0-9.65h0c-6,0-9.2,4-12,7.6l-1.15,1.44a10.14,10.14,0,0,0-2.12,4.93l-.84,3.85L98,53.75,112.6,75l4.34,6.32,7.2,10.5,8.17-9.77,4.2-5c3.27-3.91,6.45-7.7,9.6-11.51,1.21-1.46,4.88-5.88,3.54-11.76s-6.51-8.26-8.21-9c-6.57-3-13-6-19.59-9-.79-.36-1.48-.68-2.08-1-2.52-1.19-4.91-2.32-8-2.32Z"/><path class="cls-3" d="M134.17,102.23c-1,.86-1.71,1.84-2.65,2.17-8.6,3.07-17.26,6-25.88,9-2.19.77-3.25-.47-4.31-2Q89.65,94.31,77.91,77.22L35,14.47c-.35-.51-.93-1-1-1.55-.22-1.39-.23-2.82-.32-4.24,1.34,0,2.87-.49,4,0,11.75,5.25,23.25,11.14,35.21,15.86,9.13,3.6,15.47,9.36,20.79,17.52C106,61.12,119.18,79.68,132,98.46,132.77,99.54,133.33,100.74,134.17,102.23Z"/><path class="cls-4" d="M104.39,114.8c-2.09,0-3.23-1.67-4-2.75Q93.2,101.49,86,90.93L34,15.1c-.09-.13-.2-.26-.31-.39a3.37,3.37,0,0,1-.89-1.61A28,28,0,0,1,32.57,10c0-.4,0-.8-.06-1.2l-.08-1.17,1.17,0c.39,0,.79-.06,1.2-.1a6.2,6.2,0,0,1,3.25.2c4.17,1.86,8.37,3.83,12.43,5.74,7.39,3.47,15,7.06,22.73,10.1C82.06,27,88.83,32.69,94.53,41.45c8.67,13.32,17.87,26.62,26.77,39.48q5.84,8.44,11.65,16.9a26.39,26.39,0,0,1,1.43,2.45c.23.44.48.9.76,1.4l.45.81-.71.6c-.31.26-.59.54-.86.81a6.08,6.08,0,0,1-2.13,1.56c-5.09,1.82-10.28,3.62-15.3,5.36q-5.29,1.83-10.58,3.68A4.9,4.9,0,0,1,104.39,114.8ZM34.8,9.71v.13a26,26,0,0,0,.24,2.9,3.09,3.09,0,0,0,.39.52c.16.19.31.38.45.57L87.8,89.67q7.24,10.56,14.46,21.12c1.1,1.61,1.68,2.07,3,1.6q5.29-1.86,10.59-3.69c5-1.74,10.2-3.54,15.28-5.35a4.48,4.48,0,0,0,1.31-1l.31-.3-.36-.66a24.47,24.47,0,0,0-1.31-2.25q-5.79-8.47-11.65-16.89C110.56,69.32,101.35,56,92.66,42.67,87.15,34.2,80.9,28.93,72.4,25.58,64.64,22.52,57,18.91,49.54,15.43c-4.05-1.9-8.24-3.87-12.39-5.72a4.69,4.69,0,0,0-2.08,0Z"/><path class="cls-3" d="M74.59,79.38C80.72,88.33,86.74,97,92.64,105.82a2.83,2.83,0,0,1-.25,2.6q-5,6.34-10.36,12.45a6.83,6.83,0,0,1-2.84,1.76c-15.86,5.57-31.73,11.12-47.65,16.53-1.21.41-2.79-.3-4.2-.49.25-1.32.08-3,.83-3.9Q50.79,107.41,73.61,80.2A9.22,9.22,0,0,1,74.59,79.38Z"/><path class="cls-5" d="M30.71,140.4a9.77,9.77,0,0,1-2.26-.36c-.43-.1-.85-.21-1.26-.26L26,139.62l.22-1.16a11.13,11.13,0,0,0,.14-1.21,5.59,5.59,0,0,1,.92-3.19c13.2-16,26.7-32.13,39.75-47.76l5.7-6.82a4.13,4.13,0,0,1,.67-.61l.45-.36.94-.78L79,83.9c5,7.3,9.76,14.2,14.52,21.3a3.84,3.84,0,0,1-.3,3.92c-3.24,4.07-6.73,8.27-10.39,12.48a8.11,8.11,0,0,1-3.31,2.08c-16,5.62-31.69,11.11-47.66,16.53A3.68,3.68,0,0,1,30.71,140.4Zm-2.13-2.63.4.1a4.85,4.85,0,0,0,2.21.23c16-5.42,31.64-10.91,47.64-16.53a5.75,5.75,0,0,0,2.37-1.44c3.64-4.19,7.11-8.37,10.33-12.41a2,2,0,0,0,.18-1.31c-4.74-7.06-9.48-14-14.49-21.25L74.37,81l-5.6,6.7C55.72,103.37,42.22,119.53,29,135.49a4.32,4.32,0,0,0-.42,2Z"/><path class="cls-3" d="M120.56,74.7,101.64,47.1c.08-.35.06-.59.17-.72,5.6-7,4.26-6.37,11.74-3q9.78,4.41,19.52,8.93c3.43,1.59,3.73,2.92,1.28,5.88C129.86,63.6,125.34,69,120.56,74.7Z"/><path class="cls-6" d="M120.48,76.54l-20-29.21.1-.47c0-.09,0-.18,0-.25a1.78,1.78,0,0,1,.34-.93l1.18-1.49c3.92-4.95,4.43-5.34,9.66-2.86.64.3,1.37.65,2.22,1,6.54,2.95,13,5.91,19.53,8.94,1.52.7,3.11,1.62,3.47,3.18s-.71,3.12-1.79,4.43c-3.16,3.81-6.34,7.61-9.61,11.52ZM102.84,46.88l17.81,26L123.88,69c3.27-3.9,6.44-7.7,9.6-11.51,1-1.19,1.44-2,1.33-2.51s-.85-1-2.22-1.65c-6.56-3-13-6-19.51-8.93-.86-.39-1.6-.74-2.26-1-2-.93-3-1.43-3.67-1.25s-1.68,1.44-3.29,3.48Z"/><path class="cls-1" d="M160.9,100.83l.92-44.54-.69.09c-.74.48-12.48,9.72-13.45,10.49L148,53.49c1.06-.91,13.18-10.37,14.28-11.07l15.26-2-1.21,58.4Z"/><path class="cls-2" d="M177.5,40.38l-1.21,58.4-15.39,2,.92-44.54-.69.09c-.74.48-12.48,9.72-13.44,10.49L148,53.49c1.06-.91,13.18-10.37,14.28-11.07l15.26-2m9.88-11.05-11.16,1.49-15.26,2-2.12.28L157,34.28c-1.87,1.2-14.74,11.34-15.37,11.89L138.4,49l-.09,4.31L138,66.68l-.42,20.53L151.76,76l-.51,24.66L151,111.88l11.16-1.49,15.39-2,8.21-1.09.17-8.28,1.21-58.4.23-11.25Z"/><path class="cls-1" d="M216.8,50.51c-.38-2.64-3.15-4.44-6.88-3.95-7.59,1-10.42,10.35-10.16,18.84l.74-.1a16.23,16.23,0,0,1,13.39-10C223.56,54,232,59.53,231.75,71.77c-.28,13.35-10.44,22-22.88,23.7-15.17,2-24-7.69-23.58-26.47.4-19.34,9.74-31.93,25.13-34,13.79-1.84,20.36,6.33,20.56,13.6Zm-7.74,33.41c4.55-.61,8-4.39,8.11-9.7s-3.25-8.19-7.8-7.58-8.09,4.62-8.2,9.71S204.38,84.54,209.07,83.92Z"/><path class="cls-2" d="M214.22,34.75c11.2,0,16.58,7.3,16.75,13.87L216.8,50.51c-.34-2.34-2.56-4-5.67-4a9.19,9.19,0,0,0-1.21.08c-7.59,1-10.42,10.35-10.16,18.84l.74-.1a16.23,16.23,0,0,1,13.39-10,20.48,20.48,0,0,1,2.7-.18c8.48,0,15.39,5.58,15.16,16.66-.28,13.35-10.44,22-22.88,23.7a28.91,28.91,0,0,1-3.81.26c-12.82,0-20.12-9.58-19.76-26.73.4-19.34,9.74-31.93,25.13-34a28.83,28.83,0,0,1,3.8-.26M207.86,84a9.13,9.13,0,0,0,1.2-.08c4.55-.61,8-4.39,8.11-9.7.1-4.77-2.69-7.66-6.65-7.66a8.7,8.7,0,0,0-1.15.08c-4.68.62-8.09,4.62-8.2,9.71-.1,4.76,2.65,7.65,6.68,7.65m6.36-58.9h0a38.64,38.64,0,0,0-5.08.35c-20.17,2.69-33,19.29-33.5,43.35-.25,12.25,2.94,22.13,9.24,28.56,5.15,5.25,12.12,8,20.18,8a38.71,38.71,0,0,0,5.09-.35A37.88,37.88,0,0,0,231.63,94.9,32.37,32.37,0,0,0,241.4,72,27.83,27.83,0,0,0,238,57.42l2.84-.38-.23-8.68c-.3-11.27-9.66-23.26-26.4-23.26Z"/><path class="cls-3" d="M156.56,100.41l.92-44.54-.69.09c-.74.48-12.48,9.72-13.45,10.49l.28-13.39C144.68,52.16,156.8,42.7,157.9,42l15.26-2L172,98.36Z"/><path class="cls-7" d="M155.42,101.69l.91-44c-3,2.31-11.15,8.72-12.29,9.63l-1.86,1.48.34-16.26.38-.32c.94-.81,13.18-10.38,14.4-11.17l.21-.13,16.79-2.24L173,99.34Zm3.21-47.09-.92,44.54,13.15-1.75L172,41.24l-13.7,1.82c-1.7,1.21-11.34,8.72-13.58,10.54l-.22,10.52c3.55-2.8,11-8.66,11.67-9.09l.21-.14Z"/><path class="cls-3" d="M212.46,50.09c-.38-2.64-3.15-4.44-6.88-3.95-7.59,1-10.42,10.35-10.16,18.84l.74-.1a16.23,16.23,0,0,1,13.39-10c9.67-1.29,18.11,4.24,17.86,16.48-.28,13.35-10.44,22-22.88,23.7-15.17,2-24-7.69-23.58-26.47.4-19.34,9.74-31.93,25.13-34,13.79-1.84,20.36,6.33,20.56,13.6ZM204.73,83.5c4.55-.61,8-4.39,8.11-9.7s-3.25-8.19-7.8-7.58-8.09,4.62-8.2,9.71S200,84.13,204.73,83.5Z"/><path class="cls-8" d="M200.78,96.42a19.4,19.4,0,0,1-13.28-4.65c-5.22-4.67-7.87-12.7-7.65-23.22.41-19.83,10.16-32.94,26.09-35.06,8.57-1.14,13.74,1.5,16.58,3.92a14.73,14.73,0,0,1,5.24,10.76l0,1-16.27,2.17-.16-1.09c-.31-2.13-2.68-3.4-5.63-3-5.79.77-8.62,7.34-9.12,14.39a17.24,17.24,0,0,1,12.8-7.87c5.45-.73,10.37.6,13.87,3.73s5.38,8,5.26,13.88c-.27,13-9.85,22.92-23.85,24.78A29.64,29.64,0,0,1,200.78,96.42Zm9.12-61a27.76,27.76,0,0,0-3.67.25c-14.74,2-23.77,14.26-24.16,32.89-.2,9.85,2.19,17.29,6.91,21.51,3.8,3.4,9,4.69,15.4,3.83,12.86-1.71,21.67-10.8,21.91-22.61.11-5.23-1.45-9.44-4.51-12.17s-7.3-3.82-12.08-3.18a15.12,15.12,0,0,0-12.51,9.34l-.25.59-2.6.35,0-1.24c-.26-8.5,2.5-18.84,11.13-20,3.76-.5,6.88,1.07,7.86,3.82l12.15-1.62a12.58,12.58,0,0,0-4.39-8.12C219,37.35,215.47,35.45,209.9,35.45ZM203.54,84.7a7.65,7.65,0,0,1-5.19-1.86,8.83,8.83,0,0,1-2.63-6.93c.12-5.65,3.89-10.09,9.17-10.79a7.87,7.87,0,0,1,6.42,1.77A8.83,8.83,0,0,1,214,73.83c-.12,5.65-3.85,10.09-9.08,10.78h0A10.16,10.16,0,0,1,203.54,84.7Zm2.66-17.44a7.61,7.61,0,0,0-1,.07c-4.16.55-7.14,4.1-7.23,8.63a6.57,6.57,0,0,0,1.88,5.22,5.74,5.74,0,0,0,4.73,1.22c4.18-.56,7-4,7.14-8.61a6.58,6.58,0,0,0-1.9-5.23A5.29,5.29,0,0,0,206.2,67.26Z"/><path class="cls-1" d="M12.49,177.59.23,179.72,0,161.14l4.14-.72.19,15.25,8.12-1.41Z"/><path class="cls-1" d="M13.88,177.34l6.21-19.7,4.89-.85,6.66,17.46-4.41.77-1.5-4.36-6.33,1.1L18,176.62ZM24.57,155l-2-1.4-.21,0-1.86,2.07-3.13.54,3.7-4,2.71-.47,3.88,2.65Zm-2.2,6-2.19,7.76,4.72-.82-2.35-7Zm5-8.71-3.68-2.63,3-.52,3.19,2.72Z"/><path class="cls-1" d="M33.84,173.87l-.23-18.58L37,154.7l8.48,10.47.14,0-.15-11.92,3.88-.68.23,18.58-3.37.59-8.5-10.55-.14,0,.15,12Z"/><path class="cls-1" d="M63,168.79l-.19-15.31-5.46,1,0-3.27,15.05-2.62,0,3.27-5.46,1,.19,15.31Z"/><path class="cls-1" d="M73.59,156.53a9.51,9.51,0,0,1,8.35-10c5.31-.92,8.49,1.82,8.55,7.08l0,2.31c.07,5.24-3.06,9-8.37,9.9s-8.47-1.72-8.54-7Zm6.89-14.64,2.71-.47,3.88,2.65-3.11.54-2-1.4-.21,0-1.86,2.07-3.13.54Zm-2.67,16.23c0,3.47,1.83,4.84,4.32,4.41s4.23-2.42,4.19-5.89l0-2.37c0-3.46-1.82-4.95-4.32-4.51s-4.23,2.54-4.18,6Zm9.53-19.61,3-.53-3.84,4-1.65-.45Z"/><path class="cls-1" d="M97.17,154.6c0,3.58,1.66,5,4.18,4.54A4.14,4.14,0,0,0,105,155l4-.69v.41c0,3.38-2.73,6.9-7.68,7.76-5.18.9-8.27-1.71-8.34-7.14l0-2.1c-.07-5.43,3-9.15,8.14-10.05,4.82-.84,7.79,1.65,7.83,5.24v.39l-4,.69a3,3,0,0,0-3.8-3c-2.47.43-4.06,2.47-4,6Z"/><path class="cls-1" d="M119.22,159l-.1-7.72-2.35.41,0-3.4,2.35-.41-.09-7.46,7.29-1.27c6.29-1.1,8.78,2.23,8.85,7.71s-2.31,9.77-8.61,10.87Zm6.64-4.43c3.18-.55,5.06-2.41,5-7,0-3.48-1.22-6-5.16-5.27l-2.55.45.06,4.37,3.35-.58,0,3.4-3.35.58.06,4.45Z"/><path class="cls-1" d="M137.36,145.42a9.51,9.51,0,0,1,8.35-10c5.31-.92,8.49,1.82,8.55,7.08l0,2.31c.07,5.24-3.06,9-8.37,9.9s-8.47-1.72-8.54-7Zm7-14.53,2.71-.47,3.78,2.67-3.13.54-1.92-1.41-.2,0-1.93,2.08-3.11.54ZM141.58,147c0,3.47,1.83,4.84,4.32,4.4s4.23-2.41,4.19-5.89l0-2.37c0-3.46-1.82-4.95-4.32-4.51s-4.23,2.54-4.18,6Zm4.39,9a1.56,1.56,0,0,1,2,1.52,2.25,2.25,0,0,1-1.94,2.14,1.53,1.53,0,0,1-1.92-1.47A2.27,2.27,0,0,1,146,156Z"/><path class="cls-1" d="M166.52,150.74l-5.33-17.69,4.44-.77,3,12.51.16,0,3.2-13.59,3.52-.61L179,143l.17,0,2.62-13.48,4.42-.77-4.86,19.47-3.82.67-3.67-11.93-.14,0-3.36,13.15Z"/><path class="cls-1" d="M201.22,144.7l-12.71,2.22-.23-18.58L201,126.12l0,3.18-8.62,1.5.06,4.52,8.1-1.41,0,3-8.1,1.41.06,4.72,8.62-1.5Z"/><path class="cls-1" d="M204.43,125.52l8.29-1.44c3.47-.6,5.85.66,5.89,3.54a4.88,4.88,0,0,1-3.33,4.66v.18c2.34-.2,4.37,1,4.41,3.76,0,3.42-2.92,5.77-6.71,6.43l-8.32,1.45Zm4.19,6.95,2.45-.43c2.37-.41,3.51-1.47,3.49-3s-1.17-2.16-2.8-1.87l-3.21.56Zm.1,8,2.75-.48c2.48-.43,4-1.41,4-3.33,0-1.74-1.29-2.5-3.4-2.14l-3.44.6Z"/><path class="cls-1" d="M225.45,135.13c.13,1.35,1.45,2.35,3.91,1.92,2.3-.4,3.51-1.59,3.49-3,0-1.27-1-1.7-3-1.78l-2.93-.13c-2.75-.08-5-1.15-5.09-4.31,0-3.65,3.18-6.24,7.3-7,4.35-.76,7.31,1,7.39,4.29l-3.85.67c-.12-1.29-1.26-2.3-3.51-1.91-2,.35-3.23,1.46-3.21,2.89,0,1.07.94,1.64,2.68,1.67l3,.11c2.86.09,5.29,1,5.33,4.36,0,3.65-2.91,6.41-7.73,7.25-5.73,1-7.63-1.74-7.72-4.36Z"/><path class="cls-1" d="M240.08,137.92l-.23-18.58,4.14-.72.23,18.58Z"/><path class="cls-1" d="M251.89,135.87l-.19-15.31-5.46,1,0-3.27,15.05-2.62,0,3.27-5.46,1,.19,15.31Z"/><path class="cls-1" d="M276.39,131.6l-12.71,2.22-.23-18.58L276.16,113l0,3.18-8.62,1.5.06,4.52,8.1-1.41,0,3-8.1,1.41.06,4.72,8.62-1.5Z"/><path class="cls-1" d="M26.28,211.13l-5.81-15.25,4.18-.73,3.8,11.78.15,0,3.43-13,4-.7-5.36,17.2Z"/><path class="cls-1" d="M44.41,208.28c-4.63.81-7.41-1.5-7.46-6.08l0-2a8.31,8.31,0,0,1,7.3-8.75c2.31-.4,3.57.24,5.15,0s1.66-1,1.65-1.92L51,188l2.78-.48,0,1.83a3.81,3.81,0,0,1-3.3,4l0,0a7.52,7.52,0,0,1,1.23,4.19l0,2C51.78,204.21,49.05,207.48,44.41,208.28Zm-3.8-6.69c0,3,1.6,4.24,3.77,3.86s3.71-2.12,3.67-5.16l0-2.08c0-3-1.6-4.32-3.79-3.94s-3.7,2.22-3.66,5.24Zm4.91-14.38,3.62-.63-3.91,3.33-3.06.53Z"/><path class="cls-1" d="M55,206.13l-.21-16.23,3.62-.63.21,16.23Z"/><polygon class="cls-9" points="65.65 214.58 259.42 184.63 264.18 141.25 65.65 176.68 65.65 214.58"/><path class="cls-1" d="M93.73,195.5a7.91,7.91,0,0,1-2.46,6.2,10.3,10.3,0,0,1-6,3.05L76.62,206l-.52-28,8.43-1.21A7,7,0,0,1,90,178.19a6.63,6.63,0,0,1,2.6,5,8.54,8.54,0,0,1-2.43,6.72A6.38,6.38,0,0,1,93.73,195.5Zm-7.57-10.07a2.23,2.23,0,0,0-.74-1.56,1.88,1.88,0,0,0-1.6-.47l-.74.11.09,4.77.77-.11a2.28,2.28,0,0,0,1.6-.91A2.78,2.78,0,0,0,86.16,185.43Zm.53,10A2,2,0,0,0,86,194a1.76,1.76,0,0,0-1.43-.41l-1.27.18.08,4.54,1.37-.2a2.15,2.15,0,0,0,1.46-.93A2.5,2.5,0,0,0,86.69,195.41Z"/><path class="cls-1" d="M101.86,202.37l-6.83,1-.52-28,6.83-1Z"/><path class="cls-1" d="M121.74,178,112,194l9.23-1.32.13,6.9L104.7,202,103.22,196,113,179.62l-9.09,1.3-.13-6.88,17-2.44Z"/><path class="cls-1" d="M137.57,176l-8.07,1.16.12,6.46,7-1,.12,6.65-7,1,.15,8-6.87,1-.52-28,14.93-2.14Z"/><path class="cls-1" d="M154.61,194.81,139.49,197,139,169l6.87-1,.39,21.18,8.25-1.18Z"/><path class="cls-1" d="M174.89,163.85l-7.73,19.33.18,9.8-6.87,1-.18-9.8-8.4-17L160,166l3.6,9.78L167.11,165Z"/><path class="cls-1" d="M205.12,186.71a13.6,13.6,0,0,1-10.9,1.84,8.82,8.82,0,0,1-4.45-2.72q-2.91-3.35-3-9.42a19.24,19.24,0,0,1,1.37-7.81,14.48,14.48,0,0,1,4.68-6,13.63,13.63,0,0,1,6.37-2.7,11.45,11.45,0,0,1,5.26.42l.13,7.23a7.68,7.68,0,0,0-4.27-.61,6.32,6.32,0,0,0-4.18,2.33,9,9,0,0,0-1.76,5.94q0,3.65,2.07,5.31a5.39,5.39,0,0,0,4.38,1.05,7.36,7.36,0,0,0,4.19-2Z"/><path class="cls-1" d="M226.76,170.47q.09,6.66-2.88,10.74a12.28,12.28,0,0,1-8.61,4.89l-9.2,1.32-.52-28,9.27-1.33q5.67-.81,8.76,2.44T226.76,170.47Zm-7.26,1a9.33,9.33,0,0,0-1.3-5.22,3.4,3.4,0,0,0-3.51-1.4l-2.14.31.27,14.63,2.14-.31Q219.64,178.81,219.5,171.48Z"/><path class="cls-1" d="M249.08,181.26l-7.66,1.1L234.87,168l.28,15.23-7,1-.52-28,8.56-1.23,5.33,12.61-.25-13.34,7.26-1Z"/><path class="cls-10" d="M92,195.28a7.91,7.91,0,0,1-2.46,6.2,10.3,10.3,0,0,1-6,3.05l-8.63,1.24-.52-28,8.43-1.21A7,7,0,0,1,88.36,178a6.63,6.63,0,0,1,2.6,5,8.54,8.54,0,0,1-2.43,6.72A6.38,6.38,0,0,1,92,195.28Zm-7.57-10.07a2.23,2.23,0,0,0-.74-1.56,1.88,1.88,0,0,0-1.6-.47l-.74.11.09,4.77.77-.11a2.28,2.28,0,0,0,1.6-.91A2.78,2.78,0,0,0,84.48,185.21Zm.53,10a2,2,0,0,0-.71-1.44,1.76,1.76,0,0,0-1.43-.41l-1.27.18.08,4.54,1.37-.2a2.15,2.15,0,0,0,1.46-.93A2.5,2.5,0,0,0,85,195.18Z"/><path class="cls-10" d="M100.18,202.15l-6.83,1-.52-28,6.83-1Z"/><path class="cls-10" d="M120.06,177.78l-9.7,16,9.23-1.32.13,6.9L103,201.74l-1.48-5.91,9.79-16.43-9.09,1.3-.13-6.88,17-2.44Z"/><path class="cls-10" d="M135.89,175.81,127.82,177l.12,6.46,7-1,.12,6.65-7,1,.15,8-6.87,1-.52-28L135.76,169Z"/><path class="cls-10" d="M152.93,194.58l-15.12,2.17-.52-28,6.87-1,.39,21.18,8.25-1.18Z"/><path class="cls-10" d="M173.2,163.63,165.47,183l.18,9.8-6.87,1-.18-9.8-8.4-17,8.13-1.17,3.6,9.78,3.49-10.79Z"/><path class="cls-10" d="M203.43,186.48a13.6,13.6,0,0,1-10.9,1.84,8.82,8.82,0,0,1-4.45-2.72q-2.91-3.35-3-9.42a19.24,19.24,0,0,1,1.37-7.81,14.48,14.48,0,0,1,4.68-6,13.63,13.63,0,0,1,6.37-2.7,11.45,11.45,0,0,1,5.26.42l.13,7.23a7.68,7.68,0,0,0-4.27-.61,6.32,6.32,0,0,0-4.18,2.33,9,9,0,0,0-1.76,5.94q0,3.65,2.07,5.31a5.39,5.39,0,0,0,4.38,1.05,7.36,7.36,0,0,0,4.19-2Z"/><path class="cls-10" d="M225.08,170.25q.09,6.66-2.88,10.74a12.28,12.28,0,0,1-8.61,4.89l-9.2,1.32-.52-28,9.27-1.33q5.67-.81,8.76,2.44T225.08,170.25Zm-7.26,1a9.33,9.33,0,0,0-1.3-5.22,3.4,3.4,0,0,0-3.51-1.4l-2.14.31.27,14.63,2.14-.31Q218,178.59,217.82,171.25Z"/><path class="cls-10" d="M247.39,181l-7.66,1.1-6.55-14.33.28,15.23-7,1-.52-28,8.56-1.23,5.33,12.61-.25-13.34,7.26-1Z"/></svg>