<svg id="Layer_1" data-name="Layer 1" xmlns="http://www.w3.org/2000/svg" viewBox="0 0 76.51 80.35"><defs><style>.cls-1{fill:#2776fb;}.cls-2{fill:#11a95e;}</style></defs><title>x4-icon 1</title><path class="cls-1" d="M52.57,60.49S48,63.45,44.08,64a1.63,1.63,0,0,0-1.23,1.52v7.64s.21.68-.6.58H34.18s-.63.11-.61-.76V65.09s0-.71-1.15-1a27.49,27.49,0,0,1-7.87-3.22,1.57,1.57,0,0,0-1.89-.28l-.26.17-5.5,5.49s-.43.56-1-.18l-5.76-5.76s-.26-.2.22-.69l5.29-5.3a1.57,1.57,0,0,0,.26-2,24.42,24.42,0,0,1-3.35-8A1.57,1.57,0,0,0,11,42.86H3.73s-1,.14-1-.7V34.71s-.15-.81.49-1h7.48a1.78,1.78,0,0,0,1.83-1.51A23.52,23.52,0,0,1,16,23.92s.75-.84-.63-2L10.43,17a.72.72,0,0,1-.08-1l5.73-5.72s.39-.42.87.2l5.33,5.33a1.23,1.23,0,0,0,1.59.29,28.45,28.45,0,0,1,8.36-3.57,1.62,1.62,0,0,0,1.41-1.8l0-7s-.17-.93.58-.89h8.13s.5,0,.52.63V11a1.25,1.25,0,0,0,.65,1.2,48.87,48.87,0,0,1,8.18,3.3l.75.42a1.37,1.37,0,0,0,1.6-.07c.69-.65,5.56-5.49,5.56-5.49s.42-.54.85-.11l5.7,5.7s.56.48.11.92L60.71,22.4a1.46,1.46,0,0,0-.07,1.87,28.52,28.52,0,0,1,3.28,7.6s.14,1.6,1.18,1.76l7.76-.05s.95-.22.84.94v9.86a1.32,1.32,0,0,0,1.42,1.23,1.36,1.36,0,0,0,1.39-1.25V32.26s.08-1.46-1.77-1.42l-7.54,0a.68.68,0,0,1-.91-.59S65,25.77,63.63,23.91c0,0-.32-.3.16-.78l5.73-5.75a1.35,1.35,0,0,0,0-2L61.08,7a1.43,1.43,0,0,0-2,0l-5.68,5.68s-.29.47-1.15,0a29.12,29.12,0,0,0-6.21-2.49s-.63.1-.45-1l.06-7.31S45.85,0,44.08,0H32.73S31-.18,30.92,1.25l0,7.8s.2,1.14-1.22,1.41A19.91,19.91,0,0,0,24,12.8s-.48.58-1-.14L17.49,7s-.68-.93-1.9-.08l-.19.15L7.27,15.2S6,16.34,6.85,17.28l5.63,5.62s.68.5.35,1.06a30,30,0,0,0-2.65,6.4s.15.63-1,.5l-7.71,0A1.38,1.38,0,0,0,0,32.43V43.95s-.32,1.77,1.85,1.74l7.46-.06s.75-.21.83.48a31,31,0,0,0,2.51,6.19.83.83,0,0,1,0,1.15L7.16,58.92S6,60.08,6.91,61l8.46,8.49a1.46,1.46,0,0,0,2.22-.12l5.48-5.49s.39-.51.85-.2a23.83,23.83,0,0,0,6.31,2.64s.68-.09.59.91l0,7.68A1.39,1.39,0,0,0,32,76.48H44.43a1.27,1.27,0,0,0,1.16-1.37V67.55a1.13,1.13,0,0,1,.88-1.29A26.81,26.81,0,0,0,54,62.8a1.42,1.42,0,0,0,.52-1.66C54.16,60,52.57,60.49,52.57,60.49Z"/><path class="cls-2" d="M66.85,53.18a8.81,8.81,0,0,0,3.9-8,9.26,9.26,0,0,0-4.56-6.93c-1.93-.89-2.25.68-2.25.68v3.23a1.82,1.82,0,0,1-2,1.78c-2,0-2.08-1.55-2.08-1.55V38.82c0-.86-1.24-1.42-2.63-.28s-4.8,4.11-4,8.74a8.93,8.93,0,0,0,4.31,6.34c.45.33.33.51.33.51L57,68.38c-1,8.5.34,9.91.34,9.91a6.42,6.42,0,0,0,7.79,1.34,4.59,4.59,0,0,0,2.1-4.47L66.38,61l-.26-6.23A1.58,1.58,0,0,1,66.85,53.18ZM64,51.68c-1,.47-.79,1.21-.79,1.21l0,1.6L64,67.55,64.51,76c.08,1.58-1.06,1.49-1.06,1.49s-1.51,0-2.91,0-1.12-1.59-1.12-1.59l.3-5.75.94-17a1.46,1.46,0,0,0-.94-1.51,6,6,0,0,1-2.48-1.7c-3.06-4.44-.06-7.66-.06-7.66,0,.61,1.12,4.85,5.08,4.42s4.51-4.47,4.51-4.47a6.7,6.7,0,0,1,.84,6.06A5.85,5.85,0,0,1,64,51.68Z"/><rect class="cls-2" x="28.68" y="26.33" width="2.81" height="23.9" rx="1.4" ry="1.4"/><path class="cls-2" d="M52.31,31.82c-.94-5.81-6.72-5.59-6.72-5.59l-6.62.1H38.9a1.43,1.43,0,0,0-1.17,1.4V48.83a1.4,1.4,0,1,0,2.81,0V40.09h5.8A6.91,6.91,0,0,0,52.31,31.82Zm-6.2,5.46H40.53V29h5.18c2.63.05,4,1.39,3.87,4.93A3.24,3.24,0,0,1,46.1,37.28Z"/></svg>