<svg id="Layer_1" data-name="Layer 1" xmlns="http://www.w3.org/2000/svg" viewBox="0 0 74.95 74.88"><defs><style>.cls-1{fill:#2776fb;}.cls-2{fill:#11a95e;}</style></defs><title>x4-icon 2</title><path class="cls-1" d="M37.41,74.88a5,5,0,1,1,5-4.89A5,5,0,0,1,37.41,74.88Z"/><path class="cls-1" d="M26.16,9.24a4.88,4.88,0,0,1-5,5,5,5,0,0,1-4.94-4.84,5.1,5.1,0,0,1,5-5.08A5,5,0,0,1,26.16,9.24Z"/><path class="cls-1" d="M48.79,9.17a5,5,0,0,1,5-4.87,5.1,5.1,0,0,1,4.9,5,5,5,0,0,1-5,4.88A4.88,4.88,0,0,1,48.79,9.17Z"/><path class="cls-1" d="M9.38,58.6a4.89,4.89,0,0,1-5-4.88,5,5,0,0,1,5-5,5.13,5.13,0,0,1,4.93,4.94A5,5,0,0,1,9.38,58.6Z"/><path class="cls-1" d="M65.64,58.6a5,5,0,0,1-5-4.9,5.12,5.12,0,0,1,5-5,5,5,0,0,1,5,5A4.89,4.89,0,0,1,65.64,58.6Z"/><path class="cls-1" d="M42.43,4.86A5,5,0,0,1,32.51,5a5,5,0,0,1,9.92-.14Z"/><path class="cls-1" d="M26.15,65.62a4.87,4.87,0,0,1-5,4.86,5,5,0,0,1-4.93-4.93,5.06,5.06,0,0,1,5-4.91A4.9,4.9,0,0,1,26.15,65.62Z"/><path class="cls-1" d="M48.79,65.49a4.91,4.91,0,0,1,5-4.85,5.06,5.06,0,0,1,4.89,4.92,5,5,0,0,1-5.06,4.92A4.87,4.87,0,0,1,48.79,65.49Z"/><path class="cls-1" d="M4.4,21.19a4.91,4.91,0,0,1,4.93-5,5.06,5.06,0,0,1,5,4.93,5,5,0,0,1-5,4.92A4.89,4.89,0,0,1,4.4,21.19Z"/><path class="cls-1" d="M70.54,21.31a4.9,4.9,0,0,1-5,4.78,5,5,0,0,1-5-5,5.06,5.06,0,0,1,5-4.81A4.91,4.91,0,0,1,70.54,21.31Z"/><path class="cls-1" d="M9.88,37.41A4.77,4.77,0,0,1,5,42.33a5,5,0,0,1-5-4.9,5.14,5.14,0,0,1,5-5A5,5,0,0,1,9.88,37.41Z"/><path class="cls-1" d="M69.92,42.33a4.77,4.77,0,0,1-4.85-5A5,5,0,0,1,70,32.44a5.14,5.14,0,0,1,4.93,5A5,5,0,0,1,69.92,42.33Z"/><path class="cls-2" d="M55.58,43.18a3.45,3.45,0,1,1,6.89,0,3.45,3.45,0,1,1-6.89,0Z"/><path class="cls-2" d="M46.58,16a3.41,3.41,0,0,1-3.42,3.44,3.46,3.46,0,0,1-3.46-3.41,3.49,3.49,0,0,1,3.42-3.58A3.55,3.55,0,0,1,46.58,16Z"/><path class="cls-2" d="M19.36,31.35a3.44,3.44,0,1,1-3.43-3.53A3.46,3.46,0,0,1,19.36,31.35Z"/><path class="cls-2" d="M35.23,58.73a3.43,3.43,0,1,1-6.86-.11,3.43,3.43,0,0,1,6.86.11Z"/><path class="cls-2" d="M53.21,18.27a3.3,3.3,0,0,1,3.4,3.43A3.39,3.39,0,0,1,53.21,25a3.59,3.59,0,0,1-3.41-3.42A3.46,3.46,0,0,1,53.21,18.27Z"/><path class="cls-2" d="M43.27,55.41a3.29,3.29,0,0,1,3.39,3.3,3.45,3.45,0,0,1-3.4,3.46,3.61,3.61,0,0,1-3.41-3.43A3.4,3.4,0,0,1,43.27,55.41Z"/><path class="cls-2" d="M31.71,19.21a3.3,3.3,0,0,1-3.36-3.33,3.41,3.41,0,0,1,3.31-3.43,3.59,3.59,0,0,1,3.49,3.46A3.41,3.41,0,0,1,31.71,19.21Z"/><path class="cls-2" d="M21.75,18.26a3.43,3.43,0,0,1,3.43,3.33A3.56,3.56,0,0,1,21.66,25a3.41,3.41,0,0,1-3.28-3.46A3.21,3.21,0,0,1,21.75,18.26Z"/><path class="cls-2" d="M59,28.24a3.32,3.32,0,0,1,3.4,3.4A3.43,3.43,0,0,1,59,35a3.5,3.5,0,0,1-3.43-3.45A3.38,3.38,0,0,1,59,28.24Z"/><path class="cls-2" d="M53.28,56.36A3.38,3.38,0,0,1,49.87,53a3.4,3.4,0,1,1,6.8,0A3.29,3.29,0,0,1,53.28,56.36Z"/><path class="cls-2" d="M19.36,43a3.33,3.33,0,0,1-3.31,3.4A3.41,3.41,0,0,1,12.58,43,3.48,3.48,0,0,1,16,39.61,3.41,3.41,0,0,1,19.36,43Z"/><path class="cls-2" d="M18.41,53a3.36,3.36,0,0,1,3.32-3.41A3.52,3.52,0,0,1,25.2,53a3.44,3.44,0,0,1-3.32,3.32A3.32,3.32,0,0,1,18.41,53Z"/></svg>